/* XPM */
static char * connected_tileset_xpm[] = {
"512 32 39 1",
" 	c #5A4238",
".	c #624A39",
"+	c #68503A",
"@	c #6C553C",
"#	c #6F583E",
"$	c #715B3F",
"%	c #735D41",
"&	c #756043",
"*	c #766144",
"=	c #776245",
"-	c #786446",
";	c #634B39",
">	c #5B4338",
",	c #82715A",
"'	c #8A7C70",
")	c #908480",
"!	c #958B8C",
"~	c #999194",
"{	c #9D9699",
"]	c #9F999C",
"^	c #A4A0A2",
"/	c #A39EA1",
"(	c #A29DA0",
"_	c #8C7F75",
":	c #806E55",
"<	c #8F837E",
"[	c #6D563D",
"}	c #7B684B",
"|	c #847460",
"1	c #877868",
"2	c #8D8078",
"3	c #69513B",
"4	c #705A3E",
"5	c #867665",
"6	c #8E817B",
"7	c #796548",
"8	c #7D6A4F",
"9	c #857562",
"0	c #7F6D53",
"                                                                                                                                                                                                                                                                    .+@#$%&*=------=*&%$#@+;        .+@#$%&*=------=*&%$#@+.        .+@#$%&*=------=*&%$#@+.        .+@#$%&*=------=*&%$#@+.        .+@#$%&*=------=*&%$#@+.        ;+@#$%&*=------=*&%$#@+.        .+@#$%&*=------=*&%$#@+;        .+@#$%&*=------=*&%$#@+.    ",
"                                                                                                                                                                                                                                                                   >&,')!~{]=--^^^/(]{~!)',&        &,')!~{]=--^^^/(]{~!)',&        &,')!~{]=--^^^/(]{~!)',&       >&,')!~{]=--^^^/(]{~!)',&>       &,')!~{]=--^^^/(]{~!)',&        &,')!~{]=--^^^/(]{~!)',=>      >=,')!~{]=--^^^/(]{~!)',&        &,')!~{]=--^^^/(]{~!)',&    ",
"                                                                                                                                                                                                                                                                    &*')!~{](-^^^^/(_{~!:',=        &*')!~{](-^^^^/(_{~!:',&        &*'<!~{](-^^^^/(_{~!:',&       >&*')!~{](-^^^^/(_{~!:',&       >&*')!~{](-^^^^/(_{~!:',&        &*'<!~{](-^^^^/(_{~!:',&        &*')!~{](-^^^^/(_{~!:',&        &*')!~{](-^^^^/(_{~!:',&    ",
"   >>  >    >  >  >>> >>>>>        > > >         >> > >  > >      > >  >   >       >   >    >             >>  >  >         >        >   >  >     >     >>           >      >>       >>      >      >      >>      >>>      >    >>     >>  >      > >     >>        [*})|1'](-^^<</2_'~|:}*[>       @*}<|1'](-^^<</2_'~|:}*@ >    > @*}<|1'](-^^<</2_'~|:}*@    > > @*})|1'](-^^<</2_'~|:}*[   >    @*})|1'](-^^<</2_'~|:}*@        @*})|1'](-^^<</2_'~|:}*[     >  [*})|1'](-^^<</2_'~|:}*@    > > @*})|1'](-^^<</2_'~|:}*[    ",
"    @+@@@@++&.&++@@@@@@@@@@+       >@3@@@[++&;=+3[[@@@@[[[@3@@;@[[@@[3@@[@++=;&+3[@@[[@@[@@+>   @@@@@+@@@@++&.&++@@@@@@@@@@+@@.@    @+@[@[++&.&3+@[[[[[[@[[+        @+@@@@++&.&++@@@@@@@@@@+@@.@@@@@@+@@@@++&.&++@@@@@@@@@@+    @[@[@3@[@@3+&.&3+[@[@@@[@@@3@@;@   >@4}:|1,|(-^55<62_'1|:}*+        @4}:|1,|(-^55<62_'1|:}*+@@.@@@@@@4}:|1,|(-^55<62_'1|:}*+    @@@@@4}:|1,|(-^55<62_'1|:}*3@[;@   >@4}:|1,|(-^55<66_'1|:}*+        @4}:|1,|(-^55<62_'1|:}*3@@;@@[@@[4}:|1,|(-^55<62_'1|:}*+    @[@@@4}:|1,|(-^55<62_'1|:}*+@[.@",
"    +44444444+444444**44444+        +44444444+444444**44444444+44444444444444+444444**44444+    4444444444444+444444**44444444+4    +44444444+444444**444443        +44444444+444444**44444444+44444444444444+444444**44444+    4444444444444+444444**44444444+4    +4*78:,|9-555559_':87&4+        +4&78:,|9-555559_':87&4444+4444444&78:,|9-555559_':87&4+    444444&78:,|9-555559_':87&4444+4    +4&78:,|9-555559_':87*4+        34*78:,|9-555559_':87&4444+4444444&78:,|9-555559_':87*43    444444*78:,|9-555559_':87&4444+4",
"    +4&&&&&&@@@&&&&&&&&*&&4+        +4&&**&&@@@&&*&&**&&**&*&@@@&&&&*&&&***&@@@****&*&***&4+    &&&&&&&&&*&*@@@&&&&&&*&&&*&&&@@@    +4&&****@@@*&&&&***&&*4+        +4*&*&&&@@@&&&&&&**&&&*&*@@@&&**&*&&&**&@@@&&&&*&&&*&*4+    *&&*&*&**&&&@@@&&&*&&&&&&&&&&@@@    +4*780,|=--55599|,:87&43        +4&78:,|=--55559|,:87*&&&@@@&&&&&&*78:,|=--55559|,:87&4+    **&&&&*78:,|=--55559|,:87*&&&@@@    +4*78:,|=--55559|,:87*4+        +4&78:,|=--55599|,:87***&@@@*&*&***78:,|=--55559|,:87&4+    &&***&*78:,|=--55559|,:87&*&&@@@",
"    .+@##################@+.        ;+@##################################################@+.    ################################    .+@##################@+.        .+@##################################################@+.    ################################    .+@#$%&*=------=*&%$#@+.        .+@#$%&*=------=*&%$################$%&*=------=*&%$#@+.    ########$%&*=------=*&%$########    .+@#$%&*=------=*&%$#@+.        .+@#$%&*=------=*&%$################$%&*=------=*&%$#@+.    ########$%&*=------=*&%$########",
"    .+')!!!!!!!!!!!!!$$$<',&        .+')!!!!!!!!!!!!!$$$!!!!!!!!!!!$$$!!!!!!!!!!!!!!!$$$<',=    !!!$$$!!!!!!!!!!!!!!!$$$!!!!!!!!    ;+'<!!!!!!!!!!!!!$$$<',=        .+')!!!!!!!!!!!!!$$$!!!!!!!!!!!$$$!!!!!!!!!!!!!!!$$$)',&    !!!$$$!!!!!!!!!!!!!!!$$$!!!!!!!!    ;+')!~{](/^^^^/(]&%$)',&        .+')!~{](/^^^^/(]&%$!!!!!!!!!!!$$$!!!~{](/^^^^/(]&%$)',&>   !!!$$$!!!~{](/^^^^/(]&%$!!!!!!!!    .+')!~{](/^^^^/(]&%$)',&        ;+')!~{](/^^^^/(]&%$!!!!!!!!!!!$$$!!!~{](/^^^^/(]&%$)',=    !!!$$$!!!~{](/^^^^/(]&%$!!!!!!!!",
"    .,'<!~~~~~~11~~~~~%!)',&        .,')!~~~~~~11~~~~~%~~~~~~11~~~~~%~~~~~~~~~~11~~~~~%!<',=>   ~~~~%~~~~~~~~~~11~~~~~%~~~~~~11~    .,')!~~~~~~11~~~~~%!)',&        .,'<!~~~~~~11~~~~~%~~~~~~11~~~~~%~~~~~~~~~~11~~~~~%!<',&    ~~~~%~~~~~~~~~~11~~~~~%~~~~~~11~    .,')!~{](/^<<^/(]{%!<',&        .,')!~{](/^<<^/(]{%~~~~~~11~~~~~%~~~~~{](/^<<^/(]{%!)',&    ~~~~%~~~~~{](/^<<^/(]{%~~~~~~11~    .,')!~{](/^<<^/(]{%!)',&       >;,')!~{](/^<<^/(]{%~~~~~~11~~~~~%~~~~~{](/^<<^/(]{%!)',=>   ~~~~%~~~~~{](/^<<^/(]{%~~~~~~11~",
"    .,':|~'''{''''{'{{%!<},@>       ;,':|~'''{''''{'{{&{{'{'''''{'{{&{{''{'''{''''{'{{%!<},@    {'{{&{{''{'''{''''{'{{&{{'{'''''    ;,':|~'''{''''{'{{%!)},@        .,':|~'''{''''{'{{&{{'{'''''{'{{&{{''{'''{''''{'{{%!)},@    {'{{&{{''{'''{''''{'{{&{{'{'''''    .,':|~'_2/<<<</2]{%!)},[>       .,':|~'_2/<<<</2]{&{{'{'''''{'{{&{{''{'_2/<<<</2]{%!)},@    {'{{&{{''{'_2/<<<</2]{&{{'{'''''   >.,':|~'_2/<<<</2]{%!)},@        .,':|~'_2/<<<</2]{&{{'{'''''{'{{&{{''{'_2/<<<</2]{%!)},@    {'{{&{{''{'_2/<<<</2]{&{{'{'''''",
"    .,&:|1'|___|||__|{%!7}*@       >;,&:|1'|___|||__|]*]|____||___|]*]|____|___|||__|{%!7}*[    __|]*]|____|___|||__|]*]|____||_    .,&:|1'|___|||__|{%!7}*@        .,&:|1'|___|||__|]*]|____||___|]*]|____|___|||__|{%!7}*@    __|]*]|____|___|||__|]*]|____||_    .,&:|1'|26<55562|{%!7}*[        .,&:|1'|26<55562|]*]|____||___|]*]|____|26<55562|{%!7}*@    __|]*]|____|26<55562|]*]|____||_   >.,*:|1'|26<55562|{%!7}*@        ;,*:|1'|26<55562|]*]|____||___|]*]|____|26<55562|{%!7}*[    __|]*]|____|26<55562|]*]|____||_",
"    .4&7|1,|96626269|,%87&*@        ;4*7|1,|9222222999=9992299222999=999229992222229|,%87&*@    2999=99962999226262999=999229962    ;4&7|1,|92222229|,%87&*@        .4&7|1,|9222222999=9992299222999=999629992222229|,%87&*@    2999=99922999222222999=999229922    ;4&7|1,|96<<<<69|,%87&*@        .4&7|1,|96<<<<6999=9992699222999=999229996<<<<69|,%87&*@    2999=999229996<<<<6999=999229922    .4&7|1,|96<<<<69|,%87&*@        ;4*7|1,|96<<<<6999=9992299222999=999229996<<<<69|,%87**[    2999=999229996<<<<6999=999229922",
"    .4&78:,|95556659|,%87&4+        ;4&78:,|9555665555-5555555555555-559555555556659|,%87&4+    5555-55555555555665555-555595555    .4*78:,|95556659|,%87&4+        .4&78:,|9555665555-5555555555555-555555555556659|,%87&4+    5555-55555555555665555-555555555    .4&78:,|9555<<59|,%87*4+        .4&78:,|9555<<5555-5555555555555-55555555555<<59|,%87&4+    5555-55555555555<<5555-555955555    .4&78:,|9555<<59|,%87&4+        .4&78:,|9555<<5555-5555555555555-55555555555<<59|,%87&4+    5555-55555555555<<5555-555555555",
"    .+*78:,|95555559|&%$7&4+        .+&78:,|955555555---55555555555---55555555555559|&%$7&43    555---555555555555555---55555555    .+&78:,|95555559|&%$7*4+        .+&78:,|955555555---55555555555---55555555555559|&%$7&4+    555---555555555555555---55555555    .+*78:,|95555559|&%$7&4+        .+*78:,|955555555---55555555555---55555555555559|&%$7*4+    555---555555555555555---55555555    .+*78:,|95555559|&%$7&4+        .+&78:,|955555555---55555555555---55555555555559|&%$7&4+    555---555555555555555---55555555",
"    .+@#$%&*=------=*&%$#@+.        ;+@#$%&*=--------------------------------------=*&%$#@+;    --------------------------------    .+@#$%&*=------=*&%$#@+;        .+@#$%&*=--------------------------------------=*&%$#@+.    --------------------------------    ;+@#$%&*=------=*&%$#@+.        .+@#$%&*=--------------------------------------=*&%$#@+.    --------------------------------    .+@#$%&*=------=*&%$#@+.        .+@#$%&*=--------------------------------------=*&%$#@+.    --------------------------------",
"    &,'<!~&*=/^^^^/(]{~!)@+.       >=,')!~&*=/^^^^^^^^^^^---^^^^^^^^^^^^^^---^^^^^/(]{~!)@+.>   ^^^^^^^^^^---^^^^^^^^^^^^---^^^^    =,'<!~&*=/^^^^/(]{~!)@+;        &,')!~&*=/^^^^^^^^^^^---^^^^^^^^^^^^^^---^^^^^/(]{~!)@+.    ^^^^^^^^^^---^^^^^^^^^^^^---^^^^   >&,')!~&*=/^^^^/(]{~!<@+;        &,')!~&*=/^^^^^^^^^^^---^^^^^^^^^^^^^^---^^^^^/(]{~!)@+.    ^^^^^^^^^^---^^^^^^^^^^^^---^^^^   >&,')!~&*=/^^^^/(]{~!)@+.        &,')!~&*=/^^^^^^^^^^^---^^^^^^^^^^^^^^---^^^^^/(]{~!)@+.    ^^^^^^^^^^---^^^^^^^^^^^^---^^^^",
"   >&,':!~{*(/^^^^6(]{~!)'+&>       =,':!~{*(/^^^^<^^^^^^^-^^^<^^^^^^^^<^^^-^^^^^^6(]{~!<'+&    ^^^^^^^<^^^-^^^^^^<^^^^^^^-^^^<^    &,':!~{*(/^^^^6(]{~!)'+&>       &,':!~{*(/^^^^<^^^^^^^-^^^<^^^^^^^^<^^^-^^^^^^6(]{~!)'+&    ^^^^^^^<^^^-^^^^^^<^^^^^^^-^^^<^   >&,':!~{*(/^^^^6(]{~!)'+&       >&,':!~{*(/^^^^<^^^^^^^-^^^<^^^^^^^^<^^^-^^^^^^6(]{~!)'+&>   ^^^^^^^<^^^-^^^^^^<^^^^^^^-^^^<^   >&,':!~{*(/^^^^6(]{~!)'+&        &,':!~{*(/^^^^<^^^^^^^-^^^<^^^^^^^^<^^^-^^^^^^6(]{~!)'+&    ^^^^^^^<^^^-^^^^^^<^^^^^^^-^^^<^",
"    @,}:|~{*(/66/666_{1|)'+&>       @,}:|~{*(/66/6666/66//-//6666/666/666//-//66/662_{1|)'+&    6/666/666//-//66/6666/66//-//666   >[,}:|~{*(/<<^<62_{1|)'+=        @,}:|~{*(/<<^<666/66//-//6666/666/666//-//<<^<62_{1|)'+&    6/666/666//-//<<^<666/66//-//666    [,}:|~{*(/66/662_{1|<'+&        @,}:|~{*(/66/6666/66//-//6666/666/666//-//66/662_{1|)'+&    6/666/666//-//66/6666/66//-//666    @,}:|~{*(/<<^<62_{1|)'+&        [,}:|~{*(/<<^<666/66//-//6666/666/666//-//<<^<62_{1|)'+=    6/666/666//-//<<^<666/66//-//666",
"    @4}:|1{*(6662692_,1|:'+&        @4}:|1{*(222229229222(=(22922222292222(=(2222292_,1|:'+&>   2226292266(=(622229229666(=(2692   >[4}:|1{*(6<<<<52_,1|:'+=>       @4}:|1{*(6<<<<5229222(=(22922222692222(=(6<<<<52_,1|:'+&    2222292222(=(6<<<<5229222(=(2292    [4}:|1{*(2222292_,1|:'+&        @4}:|1{*(222229229262(=(22922222292262(=(2222292_,1|:'+&    2222292222(=(222229229222(=(2292   >@4}:|1{*(6<<<<52_,1|:'+&        @4}:|1{*(6<<<<5229222(=(22922222292222(=(6<<<<52_,1|:'+&    2222292222(=(6<<<<5229222(=(2292",
"    @**:|1,*|____||__'0|:*++>       @*&:|1,*|____||___|__|*|___|__||__|___|*|____||__':|:*+3    __||__|___|*|____||___|__|*|___|    [*&:|1,*96<<<552_':|:&+3        @*&:|1,*96<<<552__|__|*|___|__||__|___|*96<<<552_':|:&++    __||__|___|*96<<<552__|__|*|___|    @**:|1,*|____||__'0|:&+3        @*&:|1,*|____||___|__|*|___|__||__|___|*|____||__':|:&++    __||__|___|*|____||___|__|*|___|    @*&:|1,*96<<<552_':|:&++        @*&:|1,*96<<<552__|__|*|___|__||__|___|*96<<<552_':|:&++    __||__|___|*96<<<552__|__|*|___|",
"    @*&7|:,&,,',,,'','1|7&++        [**7|:,&,,',,,'',''',,&,,'''',,''',,',,&,,',,,'','1|7*++    ',,''',,',,&,,',,,'',''',,&,,'''   >[*&7|:,*95<55562|'1|7*++        @*&7|:,*95<55562|''',,&,,'''',,''',,',,*95<55562|'1|7&++    ',,''',,',,*95<55562|''',,&,,'''    @*&7|:,&,,',,,'','1|7&++        @*&7|:,&,,',,,'',''',,&,,'''',,''',,',,&,,',,,'','1|7&++    ',,''',,',,&,,',,,'',''',,&,,'''    @*&7|:,*95<55566|'1|7&++       >@**7|:,*95<55562|''',,&,,'''',,''',,',,*95<55562|'1|7*++    ',,''',,',,*95<55562|''',,&,,'''",
"    @4*780:%00:00::0::187&++        @4*7800%:::0::::::1:::%0::100::01:0:0:0%:::00:::::187*++    :0::1::::::%::::::::::1:::%:::1:    @4*78:,*95555559|,187*+3        @4*78:,*95555559|,1:::%:::1:::::1:::::,*95555559|,187*++    ::::1:::0:,*95555559|,1:::%:::1:    @4*780:%0:::::::::187&++        @4&78::%::::::::::1:::%:::1:::::1::::::%::::::::::187&++    ::::1::::::%::::::::::1:::%:::1:    @4&78:,*95555559|,187*++        @4&780,*95555559|,1:::%:::1:::::1:::::,*95555559|,187&++    ::::1:::::,*95555559|,1:::%0::1:",
"    +4&788$$$888888888887@+.        34&788$$$888888888888$$$88888888888888$$$888888888887@+.    8888888888$$$888888888888$$$8888    34&780&*=5555559|,:87@+.        +4*78:&*=5555559|,:88$$$8888888888888:&*=5555559|,:87@+.    888888888:&*=5555559|,:88$$$8888    +4*788$$$888888888887@+.        +4&788$$$888888888888$$$88888888888888$$$888888888887@+.    8888888888$$$888888888888$$$8888    +4&78:&*=5555559|,:87@+.        +4*78:&*=5555559|,088$$$88888888888880&*=5555559|,:87@+.    888888888:&*=5555559|,:88$$$8888",
"    .+@##################@+.        ;+@##################################################@+;    ################################    ;+@#$%&*=------=*&%$#@+.        .+@#$%&*=------=*&%$################$%&*=------=*&%$#@+.    ########$%&*=------=*&%$########    ;+@##################@+.        .+@##################################################@+.    ################################    .+@#$%&*=------=*&%$#@+.        ;+@#$%&*=------=*&%$################$%&*=------=*&%$#@+;    ########$%&*=------=*&%$########",
"   >&+@@''''''''''''@@@''',&>       =+@@''''''''''''@@@''''''''''''''@@@''''''''''''@@@''',&    '''''@@@''''''''''''@@@'''''''''    &+@#!~{](/^^^^/(*&%!)',=        &+@#!~{](/^^^^/(*&%!<''''''''''''@@#!~{](/^^^^/(*&%!)',&    '''''@@#!~{](/^^^^/(*&%!)'''''''    &+@@''''''''''''@@@''',&        &+@@''''''''''''@@@''''''''''''''@@@''''''''''''@@@''',&    '''''@@@''''''''''''@@@'''''''''    &+@#!~{](/^^^^/(*&%!<',&        =+@#!~{](/^^^^/(*&%!)''''''''''''@@#!~{](/^^^^/(*&%!)',=    '''''@@#!~{](/^^^^/(*&%!)'''''''",
"   >&,+,,,,,,*,,,*,,,+,,,,,&>       &,+,,,,,,*,,,*,,,+,,,,,,,,*,,,,,,,+,,,,,,*,,,*,,,+,,,,,=>   ,,,,,,+,,,,,,*,,,*,,,+,,,,,,,,*,   >&,@<!~{](6^^^</(]&~!)',=        &,@)!~{](6^^^</(]&~!)',,,,*,,,,,,,@)!~{](6^^^</(]&~!)',&    ,,,,,,@)!~{](6^^^</(]&~!)',,,,*,    &,+,,,,,,*,,,*,,,+,,,,,&        &,+,,,,,,*,,,*,,,+,,,,,,,,*,,,,,,,+,,,,,,*,,,*,,,+,,,,,&    ,,,,,,+,,,,,,*,,,*,,,+,,,,,,,,*,   >&,@)!~{](6^^^</(]&~!)',&        &,@)!~{](6^^^</(]&~!)',,,,*,,,,,,,@)!~{](6^^^</(]&~!)',&    ,,,,,,@)!~{](6^^^</(]&~!)',,,,*,",
"    &&.&&@@&@@@&@@@&&.&&@@&@        &=.&&[@=@[@&@[@=&;==[[&[[[@[[&@@&&.&=[@&@@[=[@[&=.==[@&@    @&@@&&.&&@@&@@@&@@@&&.&&@@&@@@@@    =,@)!1']26<^<<6(]&~!:},[>       &,@)!1']26<^<<6(]&~!:},@@@@@@&@@&,@)!1']26<^<<6(]&~!:},@    @=[[&,@)!1']26<^<<6(]&~!:},@@@@@    &&;&=[@&@@@&[[@&&;=&[@&[        &&.&&@@&@@@&@@@&&.&&@@&@@@@@@&@@&&.&&@@&@@@&@@@&&.&&@@&@    @=[@&&.=&@@&[[[&@[@=&.&&@@&@@[@@    &,@)!1']26<^<<6(]&~!:},@       >&,@)!1']26<^<<6(]&~!:},[@[@@@&[@=,@)!1']26<^<<6(]&~!:},@>   @&@@=,@)!1']26<^<<6(]&~!:},[@@@[",
"   >     > >  > >   >   >  >       >      >           > >    > >  >              >> >   >  >             >>> >  >       >>         >+,@)81'_26<5<<69]&~8:}*@        +,@<81'_26<5<<69]&~8:}*@ >    > +,@<81'_26<5<<69]&~8:}*@        +,@)81'_26<5<<69]&~8:}*[                  > >   >       >              >>>      >       >      >      >>      > >      >             >                > >>      +,@)81'_66<5<<69]&~8:}*@        +,@)81'_26<5<<69]&~8:}*@ >    > +,@)81'_26<5<<69]&~8:}*@     > >+,@)81'_26<5<<69]&~8:}*@    ",
"                                                                                                                                    +4@78:'|96<<<<59|&087}*[        +4@78:'|96<<<<59|&:87}*@        +4@78:'|96<<<<59|&:87}*@        +4@78:'|96<<<<59|&:87}*@                                                                                                                                        +4@780'|96<<<<59|&:87}*@        +4@78:'|96<<<<59|&:87}*@>       +4@78:'|96<<<<59|&:87}*@        +4@78:'|96<<<<59|&:87}*@    ",
"                                                                                                                                    34@78:,|9555<559|&:87**+        +4@78:,|9555<559|&:87&*+        +4@78:,|9555<559|&:87&*+        34@78:,|9555<559|&:87&*+                                                                                                                                        +4@78:,|9555<559|&:87&*+        34@78:,|9555<559|&:87**3        34@78:,|9555<559|&:87&*3        +4@78:,|9555<559|&:87&*+    ",
"                                                                                                                                    3+@#8:,|95555559*&%87*4+        ++@#8:,|95555559*&%87&4+        ++@#8:,|95555559*&%87&4+        ++@#8:,|95555559*&%87*4+                                                                                                                                        ++@#80,|95555559*&%87*4+        ++@#8:,|95555559*&%87&4+        ++@#8:,|95555559*&%87*4+        ++@#8:,|95555559*&%87*43    "};
