/* XPM */
static char * destroyed_crate_0_xpm[] = {
"32 32 648 2",
"  	c None",
". 	c #33241D",
"+ 	c #32241E",
"@ 	c #3B2B22",
"# 	c #3A2B21",
"$ 	c #170D08",
"% 	c #28170F",
"& 	c #3B2D21",
"* 	c #3B2B21",
"= 	c #3C2A21",
"- 	c #3A2A1F",
"; 	c #160B06",
"> 	c #180C07",
", 	c #2D1E19",
"' 	c #2B1D18",
") 	c #2D201A",
"! 	c #20120E",
"~ 	c #55412B",
"{ 	c #402F20",
"] 	c #423530",
"^ 	c #534F4E",
"/ 	c #36261F",
"( 	c #32231D",
"_ 	c #37261F",
": 	c #150906",
"< 	c #251A18",
"[ 	c #241A17",
"} 	c #241917",
"| 	c #261B18",
"1 	c #2B1C18",
"2 	c #2B1C19",
"3 	c #251917",
"4 	c #5D452D",
"5 	c #543F2A",
"6 	c #443524",
"7 	c #402D20",
"8 	c #48403E",
"9 	c #3F332F",
"0 	c #37251E",
"a 	c #32211D",
"b 	c #32211C",
"c 	c #130905",
"d 	c #2F1F18",
"e 	c #2D1F18",
"f 	c #30231E",
"g 	c #261A18",
"h 	c #281917",
"i 	c #281A17",
"j 	c #221715",
"k 	c #241815",
"l 	c #110704",
"m 	c #6D4C35",
"n 	c #66492F",
"o 	c #5A432C",
"p 	c #583E29",
"q 	c #543A29",
"r 	c #382721",
"s 	c #392923",
"t 	c #35241C",
"u 	c #2B1D1B",
"v 	c #2C1F1C",
"w 	c #150B05",
"x 	c #140904",
"y 	c #2E1E18",
"z 	c #2B211D",
"A 	c #423D3C",
"B 	c #31231D",
"C 	c #302218",
"D 	c #322119",
"E 	c #0D0502",
"F 	c #0E0602",
"G 	c #100603",
"H 	c #110703",
"I 	c #674A2E",
"J 	c #6A4933",
"K 	c #694933",
"L 	c #61422C",
"M 	c #5B422A",
"N 	c #5D432B",
"O 	c #452E22",
"P 	c #39281F",
"Q 	c #3A261E",
"R 	c #2B1D1A",
"S 	c #1F1007",
"T 	c #1A0D05",
"U 	c #2A1C17",
"V 	c #332B29",
"W 	c #4D4A49",
"X 	c #342B28",
"Y 	c #2C1C16",
"Z 	c #2B1C16",
"` 	c #090401",
" .	c #0B0402",
"..	c #0C0402",
"+.	c #0C0502",
"@.	c #0F0603",
"#.	c #60482E",
"$.	c #5E462D",
"%.	c #62472B",
"&.	c #66452C",
"*.	c #6B4D34",
"=.	c #5E4129",
"-.	c #503626",
";.	c #533C27",
">.	c #452E20",
",.	c #462F21",
"'.	c #2F211D",
").	c #27140A",
"!.	c #1E1007",
"~.	c #160A05",
"{.	c #3A251A",
"].	c #39251A",
"^.	c #39241B",
"/.	c #41322A",
"(.	c #2C1D16",
"_.	c #2F1F16",
":.	c #302017",
"<.	c #080401",
"[.	c #080302",
"}.	c #0A0402",
"|.	c #0F0503",
"1.	c #130904",
"2.	c #533926",
"3.	c #513825",
"4.	c #5D402A",
"5.	c #64462A",
"6.	c #62452D",
"7.	c #5B3D2A",
"8.	c #5F402A",
"9.	c #5D3E2A",
"0.	c #503525",
"a.	c #382820",
"b.	c #28160C",
"c.	c #24130A",
"d.	c #1B0D06",
"e.	c #462C1C",
"f.	c #42291B",
"g.	c #422A1B",
"h.	c #442B1D",
"i.	c #3B261A",
"j.	c #41322B",
"k.	c #3E281B",
"l.	c #090402",
"m.	c #0E0503",
"n.	c #100704",
"o.	c #160904",
"p.	c #180B05",
"q.	c #553A25",
"r.	c #583B27",
"s.	c #573A26",
"t.	c #573A25",
"u.	c #513726",
"v.	c #5E3F2A",
"w.	c #65422C",
"x.	c #543829",
"y.	c #2C180D",
"z.	c #29170E",
"A.	c #24130B",
"B.	c #190C06",
"C.	c #130704",
"D.	c #482D1E",
"E.	c #452A1B",
"F.	c #44291A",
"G.	c #442B1A",
"H.	c #48342A",
"I.	c #4F4643",
"J.	c #4C382C",
"K.	c #0E0603",
"L.	c #120703",
"M.	c #150904",
"N.	c #5A4028",
"O.	c #5A3B27",
"P.	c #523523",
"Q.	c #553826",
"R.	c #583B26",
"S.	c #5E3E2A",
"T.	c #5C3E28",
"U.	c #503628",
"V.	c #2E1A0D",
"W.	c #1B0E06",
"X.	c #482E1F",
"Y.	c #442C1D",
"Z.	c #422B1A",
"`.	c #3D2619",
" +	c #422919",
".+	c #46342A",
"++	c #442C1B",
"@+	c #130804",
"#+	c #170A05",
"$+	c #523724",
"%+	c #533924",
"&+	c #5C4028",
"*+	c #563826",
"=+	c #563927",
"-+	c #4F3323",
";+	c #503825",
">+	c #442D22",
",+	c #473024",
"'+	c #452713",
")+	c #1C0E06",
"!+	c #472D1C",
"~+	c #472E1D",
"{+	c #452D1D",
"]+	c #3E2819",
"^+	c #372218",
"/+	c #362217",
"(+	c #352017",
"_+	c #25150E",
":+	c #523825",
"<+	c #503623",
"[+	c #573F28",
"}+	c #513623",
"|+	c #563923",
"1+	c #5A3B24",
"2+	c #4F3321",
"3+	c #462D20",
"4+	c #472F22",
"5+	c #432612",
"6+	c #4C2A13",
"7+	c #50361F",
"8+	c #503520",
"9+	c #4B311E",
"0+	c #422719",
"a+	c #372117",
"b+	c #362118",
"c+	c #3A2518",
"d+	c #20130D",
"e+	c #170B05",
"f+	c #513724",
"g+	c #584029",
"h+	c #4C3522",
"i+	c #4B3421",
"j+	c #553923",
"k+	c #503422",
"l+	c #452F22",
"m+	c #483022",
"n+	c #422511",
"o+	c #442612",
"p+	c #4D2A13",
"q+	c #55371F",
"r+	c #593C24",
"s+	c #563D23",
"t+	c #50371F",
"u+	c #3D2518",
"v+	c #3F2819",
"w+	c #462E1B",
"x+	c #22140D",
"y+	c #573D26",
"z+	c #564028",
"A+	c #533A26",
"B+	c #543925",
"C+	c #513725",
"D+	c #4C3422",
"E+	c #503421",
"F+	c #4B3122",
"G+	c #422D20",
"H+	c #442E21",
"I+	c #462F1F",
"J+	c #3B2110",
"K+	c #4B2812",
"L+	c #4F2A13",
"M+	c #502A14",
"N+	c #4E2A13",
"O+	c #5E4326",
"P+	c #593B22",
"Q+	c #593A20",
"R+	c #57391F",
"S+	c #54371E",
"T+	c #4C311C",
"U+	c #4B301D",
"V+	c #472B1B",
"W+	c #26150E",
"X+	c #3B2212",
"Y+	c #563C25",
"Z+	c #543A24",
"`+	c #4C3425",
" @	c #553928",
".@	c #523727",
"+@	c #4B2F1F",
"@@	c #4B3121",
"#@	c #422C1E",
"$@	c #432D1F",
"%@	c #442E20",
"&@	c #351C0C",
"*@	c #3D200E",
"=@	c #442510",
"-@	c #492612",
";@	c #482611",
">@	c #45260F",
",@	c #311B0A",
"'@	c #1F1006",
")@	c #563924",
"!@	c #5C3D25",
"~@	c #583921",
"{@	c #543620",
"]@	c #553821",
"^@	c #543921",
"/@	c #513821",
"(@	c #472612",
"_@	c #543825",
":@	c #4E3423",
"<@	c #4D3322",
"[@	c #4D3221",
"}@	c #4D3422",
"|@	c #422C1F",
"1@	c #251207",
"2@	c #2B1509",
"3@	c #321909",
"4@	c #391D0C",
"5@	c #3F200E",
"6@	c #3E210E",
"7@	c #371D0C",
"8@	c #2B1707",
"9@	c #1A0D04",
"0@	c #5C3B24",
"a@	c #5D3D24",
"b@	c #5F4225",
"c@	c #5D4025",
"d@	c #5E4025",
"e@	c #583B21",
"f@	c #53361F",
"g@	c #25160D",
"h@	c #482D14",
"i@	c #423222",
"j@	c #403121",
"k@	c #4B3224",
"l@	c #4F3524",
"m@	c #4F3523",
"n@	c #4E3523",
"o@	c #482E20",
"p@	c #462E22",
"q@	c #442D1E",
"r@	c #1D0E06",
"s@	c #381F0F",
"t@	c #221006",
"u@	c #261206",
"v@	c #2C1608",
"w@	c #321809",
"x@	c #321A09",
"y@	c #2E1808",
"z@	c #231106",
"A@	c #130703",
"B@	c #5E3B23",
"C@	c #603D26",
"D@	c #593A23",
"E@	c #533620",
"F@	c #563720",
"G@	c #5E3E23",
"H@	c #5C3A22",
"I@	c #27180D",
"J@	c #38261D",
"K@	c #3A2A1E",
"L@	c #403021",
"M@	c #402C20",
"N@	c #503722",
"O@	c #513924",
"P@	c #4F3723",
"Q@	c #492F21",
"R@	c #462E20",
"S@	c #4B3223",
"T@	c #1D0F07",
"U@	c #23130A",
"V@	c #371C0D",
"W@	c #1A0C04",
"X@	c #1C0C04",
"Y@	c #200E05",
"Z@	c #200F06",
"`@	c #1D0D04",
" #	c #1B0C05",
".#	c #160803",
"+#	c #583722",
"@#	c #5C3921",
"##	c #593720",
"$#	c #55331F",
"%#	c #58371F",
"&#	c #5B3A20",
"*#	c #5A3721",
"=#	c #583621",
"-#	c #352217",
";#	c #392922",
">#	c #382921",
",#	c #3B271E",
"'#	c #4D3625",
")#	c #4A3424",
"!#	c #4C3220",
"~#	c #483120",
"{#	c #4B3422",
"]#	c #4E3623",
"^#	c #4C3324",
"/#	c #1C0E08",
"(#	c #28150C",
"_#	c #2A170D",
":#	c #381D0D",
"<#	c #331A0C",
"[#	c #150803",
"}#	c #432B1C",
"|#	c #130803",
"1#	c #543522",
"2#	c #5C3A23",
"3#	c #593921",
"4#	c #543420",
"5#	c #56351F",
"6#	c #593821",
"7#	c #5A3924",
"8#	c #322521",
"9#	c #48413D",
"0#	c #41322C",
"a#	c #412A1E",
"b#	c #453223",
"c#	c #433021",
"d#	c #432D20",
"e#	c #4C3623",
"f#	c #483121",
"g#	c #4E3424",
"h#	c #1A0D07",
"i#	c #21120B",
"j#	c #26150D",
"k#	c #31190B",
"l#	c #2D1709",
"m#	c #291408",
"n#	c #0F0602",
"o#	c #0F0502",
"p#	c #573823",
"q#	c #503321",
"r#	c #492E1D",
"s#	c #482C1C",
"t#	c #462D1D",
"u#	c #472D1D",
"v#	c #52321D",
"w#	c #291C1D",
"x#	c #43362F",
"y#	c #45362D",
"z#	c #43342C",
"A#	c #473121",
"B#	c #4B3622",
"C#	c #493222",
"D#	c #1A0C06",
"E#	c #20100A",
"F#	c #24130D",
"G#	c #23130B",
"H#	c #251106",
"I#	c #4A3421",
"J#	c #37261C",
"K#	c #0E0502",
"L#	c #503320",
"M#	c #52331E",
"N#	c #492D1C",
"O#	c #462C1B",
"P#	c #472B1C",
"Q#	c #3C2920",
"R#	c #3E2B20",
"S#	c #412B1F",
"T#	c #402D22",
"U#	c #3C2D26",
"V#	c #463022",
"W#	c #483222",
"X#	c #3E2A1D",
"Y#	c #21110A",
"Z#	c #24130C",
"`#	c #25140D",
" $	c #22120B",
".$	c #1E1008",
"+$	c #180B06",
"@$	c #523A27",
"#$	c #453320",
"$$	c #3A271B",
"%$	c #342319",
"&$	c #4A2E1D",
"*$	c #42281B",
"=$	c #3E2518",
"-$	c #3F271A",
";$	c #452A1A",
">$	c #3C2A20",
",$	c #402E20",
"'$	c #4A3F3A",
")$	c #3D2D27",
"!$	c #4B3E38",
"~$	c #3B271D",
"{$	c #170A06",
"]$	c #1C0F08",
"^$	c #25130B",
"/$	c #22120C",
"($	c #1C0F09",
"_$	c #170B06",
":$	c #110604",
"<$	c #4F3D25",
"[$	c #412E1D",
"}$	c #372719",
"|$	c #312118",
"1$	c #322216",
"2$	c #3F291B",
"3$	c #382217",
"4$	c #3D281A",
"5$	c #3A2517",
"6$	c #3A2417",
"7$	c #442918",
"8$	c #1E120C",
"9$	c #412F21",
"0$	c #422F21",
"a$	c #463425",
"b$	c #463527",
"c$	c #524C49",
"d$	c #41342A",
"e$	c #1D0F08",
"f$	c #22130B",
"g$	c #27150D",
"h$	c #27140C",
"i$	c #1E100A",
"j$	c #160A07",
"k$	c #391F10",
"l$	c #3F2A1D",
"m$	c #352418",
"n$	c #2E2017",
"o$	c #2E1E17",
"p$	c #2E1F17",
"q$	c #2A1B16",
"r$	c #352016",
"s$	c #341F15",
"t$	c #352218",
"u$	c #3C2418",
"v$	c #1D110C",
"w$	c #22130C",
"x$	c #23150E",
"y$	c #29180F",
"z$	c #463826",
"A$	c #473426",
"B$	c #3F2F21",
"C$	c #3F3023",
"D$	c #1B0C06",
"E$	c #221109",
"F$	c #24150C",
"G$	c #27160C",
"H$	c #22120A",
"I$	c #1A0E07",
"J$	c #2B180F",
"K$	c #312318",
"L$	c #271D15",
"M$	c #271C14",
"N$	c #251715",
"O$	c #251815",
"P$	c #291A15",
"Q$	c #3C3331",
"R$	c #443E3C",
"S$	c #3A2922",
"T$	c #1F110C",
"U$	c #22130D",
"V$	c #24140D",
"W$	c #190C05",
"X$	c #201207",
"Y$	c #241309",
"Z$	c #29160C",
"`$	c #2A170E",
" %	c #24150E",
".%	c #22140B",
"+%	c #201008",
"@%	c #0C0503",
"#%	c #070201",
"$%	c #27160F",
"%%	c #241913",
"&%	c #261916",
"*%	c #281915",
"=%	c #2E1E19",
"-%	c #362723",
";%	c #362015",
">%	c #35261C",
",%	c #23140D",
"'%	c #29160D",
")%	c #301A0F",
"!%	c #2A180B",
"~%	c #2F1A0D",
"{%	c #2C180F",
"]%	c #24150D",
"^%	c #20120B",
"/%	c #1C0D07",
"(%	c #21130E",
"_%	c #241915",
":%	c #2E1F1A",
"<%	c #332824",
"[%	c #2F1C15",
"}%	c #311E16",
"|%	c #311F16",
"1%	c #331E15",
"2%	c #322218",
"3%	c #27160E",
"4%	c #2E1A0F",
"5%	c #321C10",
"6%	c #311B0E",
"7%	c #321C0F",
"8%	c #2C1A0F",
"9%	c #2B190F",
"0%	c #23150C",
"a%	c #1E1109",
"b%	c #0D0603",
"c%	c #1F120D",
"d%	c #2C1F17",
"e%	c #2E211C",
"f%	c #3C3635",
"g%	c #45403F",
"h%	c #332723",
"i%	c #2F1C14",
"j%	c #311E15",
"k%	c #362A1D",
"l%	c #21130C",
"m%	c #2F190F",
"n%	c #371D10",
"o%	c #321D10",
"p%	c #331D10",
"q%	c #24140C",
"r%	c #1A0D08",
"s%	c #130805",
"t%	c #0B0502",
"u%	c #060201",
"v%	c #2D1D16",
"w%	c #2E1D15",
"x%	c #2F201A",
"y%	c #352924",
"z%	c #301E17",
"A%	c #321F16",
"B%	c #301D0E",
"C%	c #392011",
"D%	c #3F2412",
"E%	c #20120A",
"F%	c #120804",
"G%	c #2F1B10",
"H%	c #2E190F",
"I%	c #301D15",
"J%	c #322117",
"K%	c #25150D",
"L%	c #341D10",
"M%	c #24160E",
"N%	c #23160E",
"O%	c #27180E",
"P%	c #2E1910",
"Q%	c #372011",
"R%	c #341F11",
"S%	c #331E11",
"T%	c #351F11",
"U%	c #351E10",
"V%	c #301C0F",
"W%	c #2A180E",
"X%	c #322118",
"Y%	c #322018",
"Z%	c #362318",
"`%	c #382518",
" &	c #3B2419",
".&	c #351B10",
"+&	c #3F2413",
"@&	c #432413",
"                                . + @ #               $         ",
"                  %           . . & * = -     ; > , ' ' )       ",
"                  !         ~ { . & ] ^ / ( _ : : < [ } | 1 2   ",
"                  3 %     4 4 5 6 7 8 ^ 9 0 a b c d e f g h i   ",
"                  j k l m n o p q r r s t u v w x y z A B C D   ",
"              E F G H I J K L M N O P Q t R S T l U V W X Y Z   ",
"      `  ...+.E @.l #.$.%.&.*.=.-.;.>.,.'.).!.~.{.].^./.(._.:.  ",
"      <.[.}.+.|.l 1.2.3.4.5.6.7.8.9.0.a.b.c.d.x e.f.g.h.i.j.k.  ",
"      [.l...m.n.o.p.q.r.s.t.u.v.w.9.x.y.z.A.B.C.D.E.F.G.H.I.J.  ",
"      l.  K.L.M.p.N.=.O.P.Q.R.S.T.U.V.y.  A.W.X.D.Y.Z.`. +.+++  ",
"          @.@+#+$+%+&+*+=+Q.-+;+>+,+'+      )+!+~+{+]+^+/+(+_+  ",
"            o.:+<+[+}+|+1+2+3+4+O 5+6+      W.7+8+9+0+a+b+c+d+  ",
"            e+f+g+h+i+j+k+l+,.m+n+o+p+        q+r+s+t+u+v+w+x+  ",
"        y+z+A+B+C+D+E+F+G+H+I+J+K+L+M+N+    O+P+Q+R+S+T+U+V+W+  ",
"  X+  R.Y+Z+`+ @.@+@@@#@$@%@&@*@=@-@;@>@,@'@)@!@~@{@]@^@/@x+    ",
"  (@  ;+_@2.C+:@<@[@}@|@%@1@2@3@4@5@6@7@8@9@0@a@b@c@d@e@f@g@    ",
"  h@i@j@k@l@m@n@o@o@p@q@r@s@t@u@v@w@x@y@z@A@B@C@D@E@F@G@H@I@    ",
"  J@K@L@M@N@O@P@Q@R@S@T@U@V@W@X@Y@Z@`@ #.#+#@###$#%#&#*#=#      ",
"-#;#>#,#'#)#!#~#{#]#^#/#(#_#:#<#[#}#o.[#|#1#2#3#4#5#6#7#~.      ",
"8#9#0#a#b#c#d#e#f#g#h#i#j#j#k#l#m#H+n#o#G p#q#r#s#t#u#v#        ",
"w#x#y#z#M@|@A#B#C#D#E#F#j#G#2@H#I#J#K#o#G L#M#N#O#E.u#P#        ",
"Q#R#S#T#U#V#W#X#D#Y#Z#`# $.$+$@$#$$$%$m.@.&$N#*$=$-$;$~.        ",
">$R#,$'$)$!$~${$]$^$j#/$($_$:$<$[$}$|$1$2$3$4$`.5$6$7$8$x+      ",
"9$0$a$b$c$d$B.e$f$g$h$i$j$    k$l$m$n$o$p$q$r$s$t$;#u$v$w$x$y$  ",
"  z$A$B$C$D$E$f$F$G$H$I$l }.    J$K$L$M$N$O$P$, Q$R$S$T$U$V$z.  ",
"    R#W$X$Y$Z$`$ %.%+%~.@%#%      $%L$%%&%O$*%*%=%-%;%>%,%'%)%  ",
"        !%~%J${%]%^%/%L.<.          (%k _%:%<%[%}%|%1%2%3%4%5%  ",
"        6%7%8%9%0%a%; b%            c%d%e%f%g%h%i%j%k%l%g$m%n%  ",
"        o%p%4%q%i#r%s%t%u%          d+v%w%x%y%z%w%A%8$g@B%C%D%  ",
"              ,%E%r%F%G%          H%3%p$p$I%J%-#/+A%K%z.9%L%D%  ",
"                M%N%O%P%Q%R%S%T%U%V%W%j#j#X%Y%Z%`% &{%.&+&@&    ",
"                                                                "};
