/* XPM */
static char * tank_trail_bloody_xpm[] = {
"10 14 5 1",
" 	c None",
".	c #43191C",
"+	c #8F2E2B",
"@	c #532325",
"#	c #793331",
"          ",
"   . + +  ",
" . @   . #",
" @   #   #",
" +   # + +",
"   # + .  ",
" # # + @ #",
" @ +   + #",
" @ + + + @",
" .   #   .",
" . # @ + @",
" . # . + .",
"   + + +  ",
"          "};
