/* XPM */
static char * ascii_table_compressed_xpm[] = {
"470 7 2 1",
" 	c None",
".	c #FFFFFF",
"  .   . .  . .   .  ..    ...   .     .  .                                  ...   .   ...  ...   .. ..... ......... ...  ...                           ...  ...  ... ....  ... .... .......... ... .   ............   ..    .   ..   . ... ....  ... ....  ..........   ..   ..   ..   ..   ......  ..       ..    .        .        .             .       ..      .      .      ..    .                                        .                                    .   .   .        ",
"  .   . .  . .  ......  ..  .   .    .    .  . . .  .                     ..   . ..  .   ..   . . . .    .        ..   ..   .  .    .     .       .   .   ..   ..   ..   ..   ..   ..    .    .   ..   .  .      ..   ..    .. ...   ..   ..   ..   ..   ..      .  .   ..   ..   ..   ..   .    .  .  .      .   . .        .       .             .      .        .              .    .                                        .                                   .    .    .       ",
"  .       ...... .     . . .        .      .  ...   .                    . .  ... .      .    ..  . .    .       . .   ..   .            .  .....  .  .   .. ....   ..   ..    .   ..    .    .    .   .  .      ..  . .    . . ...  ..   ..   ..   ..   ..      .  .   ..   ..   . . .  . .    .   .   .     .                  ... ....  ...  .... ... ..... ........ ...    ....  . .    .. . ....  ... ....  ..... ..  ........ .   ..   ..   ..   ..   ......  .    .    .   .  .",
"  .        . .  ...   .   .         .      . ..........     .....       .  . . .  .     .   .. ......... ....   .   ...  ....           .           .    . . . .......... .    .   ..... .... .    .....  .      ....  .    .   .. . ..   ..... .   .....  ...   .  .   ..   ..   .  .    .    .    .    .    .                     ..   ..   ..   ..   . .   .   ..   .  .      ....  .    . . ..   ..   ..   ..   ...  ..     .   .   ..   ..   . . . .   .   .  .     .     . . .. ",
"  .       .....  . . .   . . .      .      .  ...   .    .             .   ..  .  .    .      .   .     ..   . .   .   .    .       .    .  .....  .    .  . ....   ..   ..    .   ..    .    .  ...   .  .      ..  . .    .   ..  ...   ..    . . ..   .    .  .  .   ..   .. . . . .   .   .     .     .   .                  .....   ..    .   ...... .    .....   .  .      ..  . .    . . ..   ..   .....  .....     ...  .   .   ..   ..   .  .   ....  .    .    .    .       ",
"           . . .... .  ...  .        .    .  . . .  .    .            .    .   .  .   .   .   .   .     ..   . .   .   .    .  .    .     .       .        .    .   ..   ..   ..   ..    .    .   ..   .  .  .   ..   ..    .   ..   ..   ..    .  . .   .    .  .  .   . . . .. ...   .  .  .      .      .  .                 .   ..   ..   ..   ..     .       ..   .  .  .   ..   ..    .   ..   ..   ..        ..        . .  ..   . . . . . . . .     . .     .    .    .       ",
"  .        . .   .     .. .. .        .  .              .          .        ... .......... ...    . ....  ...  .    ...  ...       .                    .   ... .   .....  ... .... ......     ... .   ...... ... .   .......   ..   . ... .     .. ..   .....   .   ...   .  .   ..   .  .  .....  ..       ..       .....      ........  ...  .... .... .    ... .   ...... ... .   . ... .   ..   . ... .        ..    ....   ..  ....  .   . . .   . ... .....   .   .   .        "};
