/* XPM */
static char * shell_2_xpm[] = {
"25 8 10 1",
" 	c None",
".	c #364D42",
"+	c #34453D",
"@	c #244C3A",
"#	c #183829",
"$	c #2E3B1E",
"%	c #3A4728",
"&	c #746029",
"*	c #4A4331",
"=	c #3B4D23",
". +++@@...@@++++         ",
".#+@@.......@@@+$%$$     ",
".#@..&&*&&*&&..@%==%%%$  ",
".#...&*&&*&&*...%=====%$$",
".#...********...======%%$",
".#@............@%==%%%$  ",
".#+@@.......@@@+$%$$     ",
". +++@@...@@++++         "};
