/* XPM */
static char * rocket_1_xpm[] = {
"25 8 10 1",
" 	c None",
".	c #364D42",
"+	c #34453D",
"@	c #746029",
"#	c #4A4331",
"$	c #183829",
"%	c #244C3A",
"&	c #2E3B1E",
"*	c #3A4728",
"=	c #3B4D23",
". +++@@#@@#@@+++         ",
".$+%%@#@@#@@#%%+&*&&     ",
".$%..########..%*==***&  ",
".$..............*=====*&&",
".$..............======**&",
".$%............%*==***&  ",
".$+%%.......%%%+&*&&     ",
". +++@@#@@#@@+++         "};
