/* XPM */
static char * ennemy_shoot_xpm[] = {
"32 32 7 1",
" 	c None",
".	c #1B0B5D",
"+	c #C88531",
"@	c #3C0C0B",
"#	c #454545",
"$	c #191919",
"%	c #2A2A2A",
"                                ",
"                                ",
"                                ",
"                                ",
"                                ",
"                                ",
"                                ",
"           ...                  ",
"         ..........             ",
"       ..............           ",
"      ...+++++.........         ",
"      ..+@+++++.........        ",
"     ..+++@@++#+.........       ",
"     .@+@@@++++#+. .......      ",
"     .+@++++@++++.  ......      ",
"     .@@@@@@+++++.    ....      ",
"     .@++++++++++.      .++++   ",
"     .+@@@@+@++#+$$      ++++   ",
"     ..+++@@++#+$$$$$$$$$$$$$$$ ",
"      ..@+@++++.$$$$$$$$$$$$$$$%",
"      ...+++++..$$$$$$$$$$$$$$$ ",
"       ..........$$.++++        ",
"        ............ +++        ",
"         ..........             ",
"           ...                  ",
"                                ",
"                                ",
"                                ",
"                                ",
"                                ",
"                                ",
"                                "};
