/* XPM */
static char * ennemy_walk_1_xpm[] = {
"32 32 9 1",
" 	c None",
".	c #1B0B5D",
"+	c #2A2A2A",
"@	c #191919",
"#	c #C88531",
"$	c #462319",
"%	c #4F4731",
"&	c #3C0C0B",
"*	c #454545",
"                                ",
"                                ",
"                                ",
"                                ",
"            ...       +         ",
"          ........   @@@        ",
"         ........... @@@        ",
"       ..............@@@        ",
"       .............#@@@#       ",
"      ..........  ..#@@@#       ",
"      ...#####...   .@@@#       ",
"    $%..#&#####...   @@@#       ",
"   $%..###&&##*#..   @@@        ",
"   $%.&#&&&####*#.   @@@        ",
"   $%.#&####&####.  @@@@        ",
"    %.&&&&&&#####.  @@@@        ",
"     .&##########.% @@@@        ",
"     .#&&&&#&##*#.%%@@@         ",
"     ..###&&##*#..%%@@@         ",
"      ..&#&####...%%@@@         ",
"      ...#####... %$@@@         ",
"       .........   $@@@         ",
"       .............@@@         ",
"        ............@@@         ",
"          ..........@@@         ",
"            ........###         ",
"              ....              ",
"                                ",
"                                ",
"                                ",
"                                ",
"                                "};
