/* XPM */
static char * ennemy_shoot_0_xpm[] = {
"32 32 186 2",
"  	c None",
". 	c #572A22",
"+ 	c #4B231C",
"@ 	c #49221B",
"# 	c #47211A",
"$ 	c #452019",
"% 	c #5C2D24",
"& 	c #5E2E25",
"* 	c #5A2C23",
"= 	c #552920",
"- 	c #4F251D",
"; 	c #48221A",
"> 	c #B8853B",
", 	c #BF8A3D",
"' 	c #C9923F",
") 	c #C79148",
"! 	c #C09148",
"~ 	c #4F261E",
"{ 	c #431F18",
"] 	c #955611",
"^ 	c #966020",
"/ 	c #A06C29",
"( 	c #B07431",
"_ 	c #B17531",
": 	c #AB7635",
"< 	c #AC7630",
"[ 	c #401D16",
"} 	c #442019",
"| 	c #A1601C",
"1 	c #995C28",
"2 	c #A9651E",
"3 	c #AE6820",
"4 	c #AF6A2B",
"5 	c #B16E2B",
"6 	c #A96F2F",
"7 	c #AF6F2F",
"8 	c #3B1A14",
"9 	c #AF6629",
"0 	c #9F6027",
"a 	c #9F591B",
"b 	c #A0561D",
"c 	c #A35514",
"d 	c #9B5316",
"e 	c #994B0B",
"f 	c #95500A",
"g 	c #8F4609",
"h 	c #864708",
"i 	c #8F5017",
"j 	c #3D1B15",
"k 	c #381913",
"l 	c #421E18",
"m 	c #8E4318",
"n 	c #7D3E09",
"o 	c #833D15",
"p 	c #A45511",
"q 	c #A2581D",
"r 	c #A25514",
"s 	c #9E5713",
"t 	c #A25410",
"u 	c #9A5511",
"v 	c #8B4D16",
"w 	c #824008",
"x 	c #81420B",
"y 	c #3F1D16",
"z 	c #774D19",
"A 	c #955015",
"B 	c #945109",
"C 	c #975212",
"D 	c #97510A",
"E 	c #A05413",
"F 	c #985312",
"G 	c #894B13",
"H 	c #8D5017",
"I 	c #8F5217",
"J 	c #814C15",
"K 	c #794713",
"L 	c #824711",
"M 	c #83561D",
"N 	c #412809",
"O 	c #53350F",
"P 	c #AD611B",
"Q 	c #A5691F",
"R 	c #B77428",
"S 	c #B76A21",
"T 	c #A95F1A",
"U 	c #915014",
"V 	c #713D0D",
"W 	c #603306",
"X 	c #60380D",
"Y 	c #693908",
"Z 	c #743F09",
"` 	c #6D3B08",
" .	c #7A4813",
"..	c #9E6825",
"+.	c #472C0B",
"@.	c #905F21",
"#.	c #51340E",
"$.	c #B67022",
"%.	c #B67327",
"&.	c #AF6C20",
"*.	c #B46F21",
"=.	c #A8671E",
"-.	c #865116",
";.	c #6B3B0F",
">.	c #643B0E",
",.	c #693A0E",
"'.	c #774312",
").	c #744409",
"!.	c #603503",
"~.	c #683C07",
"{.	c #8D5C20",
"].	c #7F531B",
"^.	c #292929",
"/.	c #222222",
"(.	c #1B1B1B",
"_.	c #161616",
":.	c #101010",
"<.	c #0F0F0F",
"[.	c #B06920",
"}.	c #A26011",
"|.	c #9F590A",
"1.	c #A05A0A",
"2.	c #92510F",
"3.	c #7B4813",
"4.	c #6C3F10",
"5.	c #6E4010",
"6.	c #733F0E",
"7.	c #6A3D07",
"8.	c #6A3F0F",
"9.	c #724411",
"0.	c #86581E",
"a.	c #7A4F1A",
"b.	c #212121",
"c.	c #181818",
"d.	c #121212",
"e.	c #0E0E0E",
"f.	c #B56F21",
"g.	c #AC691F",
"h.	c #9B5C1B",
"i.	c #976220",
"j.	c #8A561B",
"k.	c #805020",
"l.	c #7F5221",
"m.	c #82501D",
"n.	c #744A16",
"o.	c #6F4414",
"p.	c #683C0F",
"q.	c #542820",
"r.	c #88591E",
"s.	c #8B5B1F",
"t.	c #915F21",
"u.	c #AE6C18",
"v.	c #844E0C",
"w.	c #7A4D11",
"x.	c #6F4618",
"y.	c #6B3E0F",
"z.	c #6C3F0F",
"A.	c #5B3206",
"B.	c #5B3405",
"C.	c #52271F",
"D.	c #53281F",
"E.	c #87571B",
"F.	c #754719",
"G.	c #72491C",
"H.	c #623F17",
"I.	c #5D3B10",
"J.	c #643C14",
"K.	c #5E3A0D",
"L.	c #5B2C23",
"M.	c #582B22",
"N.	c #562921",
"O.	c #50261E",
"P.	c #743A2F",
"Q.	c #724511",
"R.	c #653A0E",
"S.	c #54320F",
"T.	c #51300E",
"U.	c #633B13",
"V.	c #582A22",
"W.	c #462019",
"X.	c #552921",
"Y.	c #5F2E25",
"Z.	c #4A231B",
"`.	c #5D2D24",
" +	c #4E251D",
".+	c #4F251E",
"                                                                ",
"                                                                ",
"                                                                ",
"                                                                ",
"                                                                ",
"                                                                ",
"                                                                ",
"                    . + @ # $                                   ",
"                  % & * = - ;                                   ",
"                  > , ' ) ! ~ {                                 ",
"                ] ^ / ( _ : < $ [ } +                           ",
"              | 1 2 3 4 5 6 7 7 [ 8 +                           ",
"            9 0 a b c d e f g h i j k l                         ",
"          m n o p q r s t a u v w x y z                         ",
"          A B C D E F i G H I J K L M z N O                     ",
"          P Q R S T U V W X Y Z `  ...+.@.#.                    ",
"          $.%.&.*.=.-.;.>.,.'.).!.~.{.].^./.(._.:.<.            ",
"          [.}.|.1.2.3.4.5.6.).7.8.9.0.a.b.c.d.:.e.<.            ",
"            f.g.h.i.j.k.l.m.n.o.p.q.r.s.t.                      ",
"              u.v.w.3.x.y.z.A.B.C.C.D.                          ",
"                E.F.G.H.I.J.K.L.M.N.O.                          ",
"                P.Q.R.S.T.U.V.% * q.                            ",
"                ; W.X.Y.& % % M.                                ",
"                Z.} C.`.`.%                                     ",
"                  ;  +D..+                                      ",
"                                                                ",
"                                                                ",
"                                                                ",
"                                                                ",
"                                                                ",
"                                                                ",
"                                                                "};
