/* XPM */
static char * ennemy_shoot_1_xpm[] = {
"32 32 185 2",
"  	c None",
". 	c #572A22",
"+ 	c #4B231C",
"@ 	c #49221B",
"# 	c #47211A",
"$ 	c #452019",
"% 	c #5C2D24",
"& 	c #5E2E25",
"* 	c #5A2C23",
"= 	c #552920",
"- 	c #4F251D",
"; 	c #48221A",
"> 	c #B8853B",
", 	c #BF8A3D",
"' 	c #C9923F",
") 	c #C79148",
"! 	c #C09148",
"~ 	c #4F261E",
"{ 	c #431F18",
"] 	c #955611",
"^ 	c #966020",
"/ 	c #A06C29",
"( 	c #B07431",
"_ 	c #B17531",
": 	c #AB7635",
"< 	c #AC7630",
"[ 	c #401D16",
"} 	c #442019",
"| 	c #A1601C",
"1 	c #995C28",
"2 	c #A9651E",
"3 	c #AE6820",
"4 	c #AF6A2B",
"5 	c #B16E2B",
"6 	c #A96F2F",
"7 	c #AF6F2F",
"8 	c #3B1A14",
"9 	c #AF6629",
"0 	c #9F6027",
"a 	c #9F591B",
"b 	c #A0561D",
"c 	c #A35514",
"d 	c #9B5316",
"e 	c #994B0B",
"f 	c #95500A",
"g 	c #8F4609",
"h 	c #864708",
"i 	c #8F5017",
"j 	c #3D1B15",
"k 	c #381913",
"l 	c #421E18",
"m 	c #8E4318",
"n 	c #7D3E09",
"o 	c #833D15",
"p 	c #A45511",
"q 	c #A2581D",
"r 	c #A25514",
"s 	c #9E5713",
"t 	c #A25410",
"u 	c #9A5511",
"v 	c #8B4D16",
"w 	c #824008",
"x 	c #81420B",
"y 	c #3F1D16",
"z 	c #774D19",
"A 	c #955015",
"B 	c #945109",
"C 	c #975212",
"D 	c #97510A",
"E 	c #A05413",
"F 	c #985312",
"G 	c #894B13",
"H 	c #8D5017",
"I 	c #8F5217",
"J 	c #814C15",
"K 	c #794713",
"L 	c #824711",
"M 	c #83561D",
"N 	c #412809",
"O 	c #53350F",
"P 	c #AD611B",
"Q 	c #A5691F",
"R 	c #B77428",
"S 	c #B76A21",
"T 	c #A95F1A",
"U 	c #915014",
"V 	c #713D0D",
"W 	c #603306",
"X 	c #60380D",
"Y 	c #693908",
"Z 	c #743F09",
"` 	c #6D3B08",
" .	c #7A4813",
"..	c #9E6825",
"+.	c #472C0B",
"@.	c #905F21",
"#.	c #51340E",
"$.	c #FFBB00",
"%.	c #B67022",
"&.	c #B67327",
"*.	c #AF6C20",
"=.	c #B46F21",
"-.	c #A8671E",
";.	c #865116",
">.	c #6B3B0F",
",.	c #643B0E",
"'.	c #693A0E",
").	c #774312",
"!.	c #744409",
"~.	c #603503",
"{.	c #683C07",
"].	c #8D5C20",
"^.	c #292929",
"/.	c #222222",
"(.	c #1B1B1B",
"_.	c #161616",
":.	c #101010",
"<.	c #0F0F0F",
"[.	c #B06920",
"}.	c #A26011",
"|.	c #9F590A",
"1.	c #A05A0A",
"2.	c #92510F",
"3.	c #7B4813",
"4.	c #6C3F10",
"5.	c #6E4010",
"6.	c #733F0E",
"7.	c #6A3D07",
"8.	c #6A3F0F",
"9.	c #724411",
"0.	c #86581E",
"a.	c #212121",
"b.	c #181818",
"c.	c #121212",
"d.	c #0E0E0E",
"e.	c #B56F21",
"f.	c #AC691F",
"g.	c #9B5C1B",
"h.	c #976220",
"i.	c #8A561B",
"j.	c #805020",
"k.	c #7F5221",
"l.	c #82501D",
"m.	c #744A16",
"n.	c #6F4414",
"o.	c #683C0F",
"p.	c #542820",
"q.	c #88591E",
"r.	c #8B5B1F",
"s.	c #915F21",
"t.	c #AE6C18",
"u.	c #844E0C",
"v.	c #7A4D11",
"w.	c #6F4618",
"x.	c #6B3E0F",
"y.	c #6C3F0F",
"z.	c #5B3206",
"A.	c #5B3405",
"B.	c #52271F",
"C.	c #53281F",
"D.	c #87571B",
"E.	c #754719",
"F.	c #72491C",
"G.	c #623F17",
"H.	c #5D3B10",
"I.	c #643C14",
"J.	c #5E3A0D",
"K.	c #5B2C23",
"L.	c #582B22",
"M.	c #562921",
"N.	c #50261E",
"O.	c #743A2F",
"P.	c #724511",
"Q.	c #653A0E",
"R.	c #54320F",
"S.	c #51300E",
"T.	c #633B13",
"U.	c #582A22",
"V.	c #462019",
"W.	c #552921",
"X.	c #5F2E25",
"Y.	c #4A231B",
"Z.	c #5D2D24",
"`.	c #4E251D",
" +	c #4F251E",
"                                                                ",
"                                                                ",
"                                                                ",
"                                                                ",
"                                                                ",
"                                                                ",
"                                                                ",
"                    . + @ # $                                   ",
"                  % & * = - ;                                   ",
"                  > , ' ) ! ~ {                                 ",
"                ] ^ / ( _ : < $ [ } +                           ",
"              | 1 2 3 4 5 6 7 7 [ 8 +                           ",
"            9 0 a b c d e f g h i j k l                         ",
"          m n o p q r s t a u v w x y z                         ",
"          A B C D E F i G H I J K L M z N O                     ",
"          P Q R S T U V W X Y Z `  ...+.@.#.          $.        ",
"          %.&.*.=.-.;.>.,.'.).!.~.{.].^./.(._.:.<.$.            ",
"          [.}.|.1.2.3.4.5.6.!.7.8.9.0.a.b.c.:.d.<.    $.        ",
"            e.f.g.h.i.j.k.l.m.n.o.p.q.r.s.                      ",
"              t.u.v.3.w.x.y.z.A.B.B.C.                          ",
"                D.E.F.G.H.I.J.K.L.M.N.                          ",
"                O.P.Q.R.S.T.U.% * p.                            ",
"                ; V.W.X.& % % L.                                ",
"                Y.} B.Z.Z.%                                     ",
"                  ; `.C. +                                      ",
"                                                                ",
"                                                                ",
"                                                                ",
"                                                                ",
"                                                                ",
"                                                                ",
"                                                                "};
