/* XPM */
static char * ennemy_run_1_xpm[] = {
"32 32 7 1",
" 	c None",
".	c #C88531",
"+	c #1B0B5D",
"@	c #462319",
"#	c #4F4731",
"$	c #3C0C0B",
"%	c #454545",
"                                ",
"                                ",
"                     ...        ",
"                  ++.....       ",
"               +++++....        ",
"             ++++++++...        ",
" @@        ++++++++++++         ",
"@@###     ++++++++++++          ",
"@#####  ++++++++++++            ",
"@######++++++++++               ",
" #####+++++++++++               ",
"  ####++.$.....+++              ",
"    #++...$$..%.++              ",
"     +$.$$$....%.+              ",
"     +.$....$....+              ",
"     +$$$$$$.....+#             ",
"     +$..........+#             ",
"     +.$$$$.$..%.+#             ",
"     ++...$$..%.++##            ",
"      ++$.$....+++###           ",
"      +++.....+++######         ",
"      ++++++++++#######@        ",
"      ++++++++++  ####@@@       ",
"       ++++++++     #@@@@@      ",
"       +++++++        @@@@      ",
"     +++++++++         @@       ",
"    ++++++++++                  ",
"   .+++++++++                   ",
"  ..+++++++                     ",
"  ...++++                       ",
"   ...                          ",
"                                "};
