/* XPM */
static char * ennemy_wait_1_xpm[] = {
"32 32 174 2",
"  	c None",
". 	c #572A22",
"+ 	c #4B231C",
"@ 	c #49221B",
"# 	c #47211A",
"$ 	c #452019",
"% 	c #5C2D24",
"& 	c #5E2E25",
"* 	c #5A2C23",
"= 	c #552920",
"- 	c #4F251D",
"; 	c #48221A",
"> 	c #B8853B",
", 	c #BF8A3D",
"' 	c #C9923F",
") 	c #C79148",
"! 	c #C09148",
"~ 	c #4F261E",
"{ 	c #431F18",
"] 	c #955611",
"^ 	c #966020",
"/ 	c #A06C29",
"( 	c #B07431",
"_ 	c #B17531",
": 	c #AB7635",
"< 	c #AC7630",
"[ 	c #401D16",
"} 	c #442019",
"| 	c #A1601C",
"1 	c #995C28",
"2 	c #A9651E",
"3 	c #AE6820",
"4 	c #AF6A2B",
"5 	c #B16E2B",
"6 	c #A96F2F",
"7 	c #AF6F2F",
"8 	c #3B1A14",
"9 	c #AF6629",
"0 	c #9F6027",
"a 	c #9F591B",
"b 	c #A0561D",
"c 	c #A35514",
"d 	c #9B5316",
"e 	c #994B0B",
"f 	c #95500A",
"g 	c #8F4609",
"h 	c #864708",
"i 	c #8F5017",
"j 	c #3D1B15",
"k 	c #0F0F0F",
"l 	c #8E4318",
"m 	c #7D3E09",
"n 	c #833D15",
"o 	c #A45511",
"p 	c #A2581D",
"q 	c #A25514",
"r 	c #9E5713",
"s 	c #A25410",
"t 	c #9A5511",
"u 	c #8B4D16",
"v 	c #824008",
"w 	c #81420B",
"x 	c #101010",
"y 	c #0E0E0E",
"z 	c #53350F",
"A 	c #955015",
"B 	c #945109",
"C 	c #975212",
"D 	c #97510A",
"E 	c #A05413",
"F 	c #985312",
"G 	c #894B13",
"H 	c #8D5017",
"I 	c #8F5217",
"J 	c #814C15",
"K 	c #794713",
"L 	c #824711",
"M 	c #161616",
"N 	c #AD611B",
"O 	c #A5691F",
"P 	c #B77428",
"Q 	c #B76A21",
"R 	c #A95F1A",
"S 	c #915014",
"T 	c #713D0D",
"U 	c #603306",
"V 	c #60380D",
"W 	c #693908",
"X 	c #743F09",
"Y 	c #6D3B08",
"Z 	c #7A4813",
"` 	c #1B1B1B",
" .	c #121212",
"..	c #B67022",
"+.	c #B67327",
"@.	c #AF6C20",
"#.	c #B46F21",
"$.	c #A8671E",
"%.	c #865116",
"&.	c #6B3B0F",
"*.	c #643B0E",
"=.	c #693A0E",
"-.	c #774312",
";.	c #744409",
">.	c #603503",
",.	c #683C07",
"'.	c #8D5C20",
").	c #222222",
"!.	c #181818",
"~.	c #B06920",
"{.	c #A26011",
"].	c #9F590A",
"^.	c #A05A0A",
"/.	c #92510F",
"(.	c #7B4813",
"_.	c #6C3F10",
":.	c #6E4010",
"<.	c #733F0E",
"[.	c #6A3D07",
"}.	c #6A3F0F",
"|.	c #724411",
"1.	c #86581E",
"2.	c #292929",
"3.	c #212121",
"4.	c #B56F21",
"5.	c #AC691F",
"6.	c #9B5C1B",
"7.	c #976220",
"8.	c #8A561B",
"9.	c #805020",
"0.	c #7F5221",
"a.	c #82501D",
"b.	c #744A16",
"c.	c #6F4414",
"d.	c #683C0F",
"e.	c #542820",
"f.	c #88591E",
"g.	c #8B5B1F",
"h.	c #915F21",
"i.	c #AE6C18",
"j.	c #844E0C",
"k.	c #7A4D11",
"l.	c #6F4618",
"m.	c #6B3E0F",
"n.	c #6C3F0F",
"o.	c #5B3206",
"p.	c #5B3405",
"q.	c #52271F",
"r.	c #53281F",
"s.	c #87571B",
"t.	c #754719",
"u.	c #72491C",
"v.	c #623F17",
"w.	c #5D3B10",
"x.	c #643C14",
"y.	c #5E3A0D",
"z.	c #5B2C23",
"A.	c #582B22",
"B.	c #562921",
"C.	c #50261E",
"D.	c #743A2F",
"E.	c #724511",
"F.	c #653A0E",
"G.	c #54320F",
"H.	c #51300E",
"I.	c #633B13",
"J.	c #582A22",
"K.	c #462019",
"L.	c #552921",
"M.	c #5F2E25",
"N.	c #4A231B",
"O.	c #5D2D24",
"P.	c #4E251D",
"Q.	c #4F251E",
"                                                                ",
"                                                                ",
"                                                                ",
"                                                                ",
"                                                                ",
"                                                                ",
"                                                                ",
"                    . + @ # $                                   ",
"                  % & * = - ;                                   ",
"                  > , ' ) ! ~ {                                 ",
"                ] ^ / ( _ : < $ [ } +                           ",
"              | 1 2 3 4 5 6 7 7 [ 8 +                           ",
"            9 0 a b c d e f g h i j k k                         ",
"          l m n o p q r s a t u v w x y z                       ",
"          A B C D E F i G H I J K L M x x                       ",
"          N O P Q R S T U V W X Y Z ` `  .                      ",
"          ..+.@.#.$.%.&.*.=.-.;.>.,.'.).!.                      ",
"          ~.{.].^./.(._.:.<.;.[.}.|.1.2.3.                      ",
"            4.5.6.7.8.9.0.a.b.c.d.e.f.g.h.                      ",
"              i.j.k.(.l.m.n.o.p.q.q.r.                          ",
"                s.t.u.v.w.x.y.z.A.B.C.                          ",
"                D.E.F.G.H.I.J.% * e.                            ",
"                ; K.L.M.& % % A.                                ",
"                N.} q.O.O.%                                     ",
"                  ; P.r.Q.                                      ",
"                                                                ",
"                                                                ",
"                                                                ",
"                                                                ",
"                                                                ",
"                                                                ",
"                                                                "};
