/* XPM */
static char * ennemy_run_1_xpm[] = {
"32 32 209 2",
"  	c None",
". 	c #4B231C",
"+ 	c #49221B",
"@ 	c #47211A",
"# 	c #452019",
"$ 	c #421E17",
"% 	c #572A22",
"& 	c #582A22",
"* 	c #5A2C23",
"= 	c #552920",
"- 	c #4F251D",
"; 	c #48221A",
"> 	c #431F18",
", 	c #561C63",
"' 	c #5C2D24",
") 	c #5E2E25",
"! 	c #582B22",
"~ 	c #542820",
"{ 	c #4F261E",
"] 	c #401D16",
"^ 	c #442019",
"/ 	c #572A21",
"( 	c #571D64",
"_ 	c #60206E",
": 	c #622171",
"< 	c #632272",
"[ 	c #6A257A",
"} 	c #B8853B",
"| 	c #BF8A3D",
"1 	c #C9923F",
"2 	c #C79148",
"3 	c #C09148",
"4 	c #51261E",
"5 	c #3B1A14",
"6 	c #381913",
"7 	c #421E18",
"8 	c #5D2D24",
"9 	c #6C267D",
"0 	c #792B8B",
"a 	c #7D2D8F",
"b 	c #792B8A",
"c 	c #955611",
"d 	c #966020",
"e 	c #A06C29",
"f 	c #B07431",
"g 	c #B17531",
"h 	c #AB7635",
"i 	c #AC7630",
"j 	c #48211A",
"k 	c #3D1B15",
"l 	c #3F1D16",
"m 	c #774D19",
"n 	c #822F95",
"o 	c #89329D",
"p 	c #8C33A1",
"q 	c #A1601C",
"r 	c #995C28",
"s 	c #A9651E",
"t 	c #AE6820",
"u 	c #AF6A2B",
"v 	c #B16E2B",
"w 	c #A96F2F",
"x 	c #AF6F2F",
"y 	c #4B241C",
"z 	c #83561D",
"A 	c #412809",
"B 	c #53350F",
"C 	c #9034A5",
"D 	c #AF6629",
"E 	c #9F6027",
"F 	c #9F591B",
"G 	c #A0561D",
"H 	c #A35514",
"I 	c #9B5316",
"J 	c #994B0B",
"K 	c #95500A",
"L 	c #8F4609",
"M 	c #864708",
"N 	c #8F5017",
"O 	c #9E6825",
"P 	c #472C0B",
"Q 	c #905F21",
"R 	c #51340E",
"S 	c #8E4318",
"T 	c #7D3E09",
"U 	c #833D15",
"V 	c #A45511",
"W 	c #A2581D",
"X 	c #A25514",
"Y 	c #9E5713",
"Z 	c #A25410",
"` 	c #9A5511",
" .	c #8B4D16",
"..	c #824008",
"+.	c #81420B",
"@.	c #955015",
"#.	c #945109",
"$.	c #975212",
"%.	c #97510A",
"&.	c #A05413",
"*.	c #985312",
"=.	c #894B13",
"-.	c #8D5017",
";.	c #8F5217",
">.	c #814C15",
",.	c #794713",
"'.	c #824711",
").	c #AD611B",
"!.	c #A5691F",
"~.	c #B77428",
"{.	c #B76A21",
"].	c #A95F1A",
"^.	c #915014",
"/.	c #713D0D",
"(.	c #603306",
"_.	c #60380D",
":.	c #693908",
"<.	c #743F09",
"[.	c #6D3B08",
"}.	c #7A4813",
"|.	c #7F531B",
"1.	c #8D5C20",
"2.	c #B67022",
"3.	c #B67327",
"4.	c #AF6C20",
"5.	c #B46F21",
"6.	c #A8671E",
"7.	c #865116",
"8.	c #6B3B0F",
"9.	c #643B0E",
"0.	c #693A0E",
"a.	c #774312",
"b.	c #744409",
"c.	c #603503",
"d.	c #683C07",
"e.	c #7A4F1A",
"f.	c #86581E",
"g.	c #B06920",
"h.	c #A26011",
"i.	c #9F590A",
"j.	c #A05A0A",
"k.	c #92510F",
"l.	c #7B4813",
"m.	c #6C3F10",
"n.	c #6E4010",
"o.	c #733F0E",
"p.	c #6A3D07",
"q.	c #6A3F0F",
"r.	c #724411",
"s.	c #915F21",
"t.	c #8B5B1F",
"u.	c #88591E",
"v.	c #B56F21",
"w.	c #AC691F",
"x.	c #9B5C1B",
"y.	c #976220",
"z.	c #8A561B",
"A.	c #805020",
"B.	c #7F5221",
"C.	c #82501D",
"D.	c #744A16",
"E.	c #6F4414",
"F.	c #683C0F",
"G.	c #6B257B",
"H.	c #53281F",
"I.	c #52271F",
"J.	c #AE6C18",
"K.	c #844E0C",
"L.	c #7A4D11",
"M.	c #6F4618",
"N.	c #6B3E0F",
"O.	c #6C3F0F",
"P.	c #5B3206",
"Q.	c #5B3405",
"R.	c #772A89",
"S.	c #702781",
"T.	c #6D267E",
"U.	c #782A89",
"V.	c #50261E",
"W.	c #562921",
"X.	c #5B2C23",
"Y.	c #87571B",
"Z.	c #754719",
"`.	c #72491C",
" +	c #623F17",
".+	c #5D3B10",
"++	c #643C14",
"@+	c #5E3A0D",
"#+	c #722883",
"$+	c #762A87",
"%+	c #6D267D",
"&+	c #673329",
"*+	c #71382D",
"=+	c #724511",
"-+	c #653A0E",
";+	c #54320F",
">+	c #51300E",
",+	c #633B13",
"'+	c #743A2F",
")+	c #682477",
"!+	c #5F206E",
"~+	c #633127",
"{+	c #6E372C",
"]+	c #5F2E25",
"^+	c #552921",
"/+	c #462019",
"(+	c #4A231B",
"_+	c #4F251E",
":+	c #4E251D",
"                                                                ",
"                                                                ",
"                                                                ",
"                                                                ",
"                                                                ",
"                                                                ",
"                    . + @ # $                                   ",
"                  % & * = - ; >                                 ",
"      . > ,       ' ) ) ! ~ { # ] ^ .                           ",
"    / ; ( _ : < [ } | 1 2 3 4 @ ] 5 6 7                         ",
"    8 = 9 0 a b c d e f g h i   j 7 k l m                       ",
"        n o p q r s t u v w x x     y z m A B                   ",
"          C D E F G H I J K L M N     O P Q R                   ",
"          S T U V W X Y Z F `  ...+.                            ",
"          @.#.$.%.&.*.N =.-.;.>.,.'.                            ",
"          ).!.~.{.].^./.(._.:.<.[.}.                            ",
"      |.1.2.3.4.5.6.7.8.9.0.a.b.c.d.                            ",
"      e.f.g.h.i.j.k.l.m.n.o.b.p.q.r.                            ",
"    s.t.u.~ v.w.x.y.z.A.B.C.D.E.F.G.                            ",
"        H.I.I.J.K.L.l.M.N.O.P.Q.R.S.T.U.                        ",
"        V.W.! X.Y.Z.`. +.+++@+#+$+T.: %+&+*+                    ",
"          ~ * ' & =+-+;+>+,+'+    )+!+~ ~+{+                    ",
"              ! ' ' ) ]+^+/+;                                   ",
"                  ' 8 8 I.^ (+                                  ",
"                    _+H.:+;                                     ",
"                                                                ",
"                                                                ",
"                                                                ",
"                                                                ",
"                                                                ",
"                                                                ",
"                                                                "};
