/* XPM */
static char * ennemy_run_0_xpm[] = {
"32 32 209 2",
"  	c None",
". 	c #4F251E",
"+ 	c #53281F",
"@ 	c #4E251D",
"# 	c #48221A",
"$ 	c #5C2D24",
"% 	c #5D2D24",
"& 	c #52271F",
"* 	c #442019",
"= 	c #4A231B",
"- 	c #582B22",
"; 	c #5E2E25",
"> 	c #5F2E25",
", 	c #552921",
"' 	c #462019",
") 	c #542820",
"! 	c #5A2C23",
"~ 	c #582A22",
"{ 	c #B8853B",
"] 	c #BF8A3D",
"^ 	c #C9923F",
"/ 	c #C79148",
"( 	c #C09148",
"_ 	c #743A2F",
": 	c #682477",
"< 	c #5F206E",
"[ 	c #633127",
"} 	c #6E372C",
"| 	c #50261E",
"1 	c #562921",
"2 	c #5B2C23",
"3 	c #955611",
"4 	c #966020",
"5 	c #A06C29",
"6 	c #B07431",
"7 	c #B17531",
"8 	c #AB7635",
"9 	c #AC7630",
"0 	c #722883",
"a 	c #762A87",
"b 	c #6D267E",
"c 	c #622171",
"d 	c #6D267D",
"e 	c #673329",
"f 	c #71382D",
"g 	c #A1601C",
"h 	c #995C28",
"i 	c #A9651E",
"j 	c #AE6820",
"k 	c #AF6A2B",
"l 	c #B16E2B",
"m 	c #A96F2F",
"n 	c #AF6F2F",
"o 	c #772A89",
"p 	c #702781",
"q 	c #782A89",
"r 	c #915F21",
"s 	c #8B5B1F",
"t 	c #88591E",
"u 	c #AF6629",
"v 	c #9F6027",
"w 	c #9F591B",
"x 	c #A0561D",
"y 	c #A35514",
"z 	c #9B5316",
"A 	c #994B0B",
"B 	c #95500A",
"C 	c #8F4609",
"D 	c #864708",
"E 	c #8F5017",
"F 	c #6B257B",
"G 	c #7A4F1A",
"H 	c #86581E",
"I 	c #8E4318",
"J 	c #7D3E09",
"K 	c #833D15",
"L 	c #A45511",
"M 	c #A2581D",
"N 	c #A25514",
"O 	c #9E5713",
"P 	c #A25410",
"Q 	c #9A5511",
"R 	c #8B4D16",
"S 	c #824008",
"T 	c #81420B",
"U 	c #7F531B",
"V 	c #8D5C20",
"W 	c #955015",
"X 	c #945109",
"Y 	c #975212",
"Z 	c #97510A",
"` 	c #A05413",
" .	c #985312",
"..	c #894B13",
"+.	c #8D5017",
"@.	c #8F5217",
"#.	c #814C15",
"$.	c #794713",
"%.	c #824711",
"&.	c #AD611B",
"*.	c #A5691F",
"=.	c #B77428",
"-.	c #B76A21",
";.	c #A95F1A",
">.	c #915014",
",.	c #713D0D",
"'.	c #603306",
").	c #60380D",
"!.	c #693908",
"~.	c #743F09",
"{.	c #6D3B08",
"].	c #7A4813",
"^.	c #B67022",
"/.	c #B67327",
"(.	c #AF6C20",
"_.	c #B46F21",
":.	c #A8671E",
"<.	c #865116",
"[.	c #6B3B0F",
"}.	c #643B0E",
"|.	c #693A0E",
"1.	c #774312",
"2.	c #744409",
"3.	c #603503",
"4.	c #683C07",
"5.	c #B06920",
"6.	c #A26011",
"7.	c #9F590A",
"8.	c #A05A0A",
"9.	c #92510F",
"0.	c #7B4813",
"a.	c #6C3F10",
"b.	c #6E4010",
"c.	c #733F0E",
"d.	c #6A3D07",
"e.	c #6A3F0F",
"f.	c #724411",
"g.	c #9034A5",
"h.	c #B56F21",
"i.	c #AC691F",
"j.	c #9B5C1B",
"k.	c #976220",
"l.	c #8A561B",
"m.	c #805020",
"n.	c #7F5221",
"o.	c #82501D",
"p.	c #744A16",
"q.	c #6F4414",
"r.	c #683C0F",
"s.	c #9E6825",
"t.	c #472C0B",
"u.	c #905F21",
"v.	c #51340E",
"w.	c #822F95",
"x.	c #89329D",
"y.	c #8C33A1",
"z.	c #AE6C18",
"A.	c #844E0C",
"B.	c #7A4D11",
"C.	c #6F4618",
"D.	c #6B3E0F",
"E.	c #6C3F0F",
"F.	c #5B3206",
"G.	c #5B3405",
"H.	c #4B241C",
"I.	c #83561D",
"J.	c #774D19",
"K.	c #412809",
"L.	c #53350F",
"M.	c #552920",
"N.	c #6C267D",
"O.	c #792B8B",
"P.	c #7D2D8F",
"Q.	c #792B8A",
"R.	c #87571B",
"S.	c #754719",
"T.	c #72491C",
"U.	c #623F17",
"V.	c #5D3B10",
"W.	c #643C14",
"X.	c #5E3A0D",
"Y.	c #48211A",
"Z.	c #421E18",
"`.	c #3D1B15",
" +	c #3F1D16",
".+	c #572A21",
"++	c #571D64",
"@+	c #60206E",
"#+	c #632272",
"$+	c #6A257A",
"%+	c #724511",
"&+	c #653A0E",
"*+	c #54320F",
"=+	c #51300E",
"-+	c #633B13",
";+	c #51261E",
">+	c #47211A",
",+	c #401D16",
"'+	c #3B1A14",
")+	c #381913",
"!+	c #4B231C",
"~+	c #431F18",
"{+	c #561C63",
"]+	c #4F261E",
"^+	c #452019",
"/+	c #572A22",
"(+	c #4F251D",
"_+	c #49221B",
":+	c #421E17",
"                                                                ",
"                                                                ",
"                                                                ",
"                                                                ",
"                                                                ",
"                                                                ",
"                    . + @ #                                     ",
"                  $ % % & * =                                   ",
"              - $ $ ; > , ' #                                   ",
"          ) ! $ ~ { ] ^ / ( _     : < ) [ }                     ",
"        | 1 - 2 3 4 5 6 7 8 9 0 a b c d e f                     ",
"        + & & g h i j k l m n n o p b q                         ",
"    r s t ) u v w x y z A B C D E F                             ",
"      G H I J K L M N O P w Q R S T                             ",
"      U V W X Y Z `  .E ..+.@.#.$.%.                            ",
"          &.*.=.-.;.>.,.'.).!.~.{.].                            ",
"          ^./.(._.:.<.[.}.|.1.2.3.4.                            ",
"          5.6.7.8.9.0.a.b.c.2.d.e.f.                            ",
"          g.h.i.j.k.l.m.n.o.p.q.r.    s.t.u.v.                  ",
"        w.x.y.z.A.B.0.C.D.E.F.G.    H.I.J.K.L.                  ",
"    % M.N.O.P.Q.R.S.T.U.V.W.X.  Y.Z.`. +J.                      ",
"    .+# ++@+c #+$+%+&+*+=+-+;+>+,+'+)+Z.                        ",
"      !+~+{+      $ ; ; - ) ]+^+,+* !+                          ",
"                  /+~ ! M.(+# ~+                                ",
"                    !+_+>+^+:+                                  ",
"                                                                ",
"                                                                ",
"                                                                ",
"                                                                ",
"                                                                ",
"                                                                ",
"                                                                "};
