/* XPM */
static char * ennemy_wait_0_xpm[] = {
"32 32 179 2",
"  	c None",
". 	c #572A22",
"+ 	c #4B231C",
"@ 	c #49221B",
"# 	c #47211A",
"$ 	c #452019",
"% 	c #5C2D24",
"& 	c #5E2E25",
"* 	c #5A2C23",
"= 	c #552920",
"- 	c #4F251D",
"; 	c #48221A",
"> 	c #B8853B",
", 	c #BF8A3D",
"' 	c #C9923F",
") 	c #C79148",
"! 	c #C09148",
"~ 	c #4F261E",
"{ 	c #431F18",
"] 	c #955611",
"^ 	c #966020",
"/ 	c #A06C29",
"( 	c #B07431",
"_ 	c #B17531",
": 	c #AB7635",
"< 	c #AC7630",
"[ 	c #401D16",
"} 	c #442019",
"| 	c #A1601C",
"1 	c #995C28",
"2 	c #A9651E",
"3 	c #AE6820",
"4 	c #AF6A2B",
"5 	c #B16E2B",
"6 	c #A96F2F",
"7 	c #AF6F2F",
"8 	c #3B1A14",
"9 	c #AF6629",
"0 	c #9F6027",
"a 	c #9F591B",
"b 	c #A0561D",
"c 	c #A35514",
"d 	c #9B5316",
"e 	c #994B0B",
"f 	c #95500A",
"g 	c #8F4609",
"h 	c #864708",
"i 	c #8F5017",
"j 	c #3D1B15",
"k 	c #381913",
"l 	c #0F0F0F",
"m 	c #8E4318",
"n 	c #7D3E09",
"o 	c #833D15",
"p 	c #A45511",
"q 	c #A2581D",
"r 	c #A25514",
"s 	c #9E5713",
"t 	c #A25410",
"u 	c #9A5511",
"v 	c #8B4D16",
"w 	c #824008",
"x 	c #81420B",
"y 	c #3F1D16",
"z 	c #101010",
"A 	c #0E0E0E",
"B 	c #955015",
"C 	c #945109",
"D 	c #975212",
"E 	c #97510A",
"F 	c #A05413",
"G 	c #985312",
"H 	c #894B13",
"I 	c #8D5017",
"J 	c #8F5217",
"K 	c #814C15",
"L 	c #794713",
"M 	c #824711",
"N 	c #83561D",
"O 	c #161616",
"P 	c #53350F",
"Q 	c #AD611B",
"R 	c #A5691F",
"S 	c #B77428",
"T 	c #B76A21",
"U 	c #A95F1A",
"V 	c #915014",
"W 	c #713D0D",
"X 	c #603306",
"Y 	c #60380D",
"Z 	c #693908",
"` 	c #743F09",
" .	c #6D3B08",
"..	c #7A4813",
"+.	c #9E6825",
"@.	c #1B1B1B",
"#.	c #121212",
"$.	c #51340E",
"%.	c #B67022",
"&.	c #B67327",
"*.	c #AF6C20",
"=.	c #B46F21",
"-.	c #A8671E",
";.	c #865116",
">.	c #6B3B0F",
",.	c #643B0E",
"'.	c #693A0E",
").	c #774312",
"!.	c #744409",
"~.	c #603503",
"{.	c #683C07",
"].	c #8D5C20",
"^.	c #222222",
"/.	c #181818",
"(.	c #B06920",
"_.	c #A26011",
":.	c #9F590A",
"<.	c #A05A0A",
"[.	c #92510F",
"}.	c #7B4813",
"|.	c #6C3F10",
"1.	c #6E4010",
"2.	c #733F0E",
"3.	c #6A3D07",
"4.	c #6A3F0F",
"5.	c #724411",
"6.	c #86581E",
"7.	c #292929",
"8.	c #212121",
"9.	c #B56F21",
"0.	c #AC691F",
"a.	c #9B5C1B",
"b.	c #976220",
"c.	c #8A561B",
"d.	c #805020",
"e.	c #7F5221",
"f.	c #82501D",
"g.	c #744A16",
"h.	c #6F4414",
"i.	c #683C0F",
"j.	c #542820",
"k.	c #88591E",
"l.	c #8B5B1F",
"m.	c #915F21",
"n.	c #AE6C18",
"o.	c #844E0C",
"p.	c #7A4D11",
"q.	c #6F4618",
"r.	c #6B3E0F",
"s.	c #6C3F0F",
"t.	c #5B3206",
"u.	c #5B3405",
"v.	c #52271F",
"w.	c #53281F",
"x.	c #87571B",
"y.	c #754719",
"z.	c #72491C",
"A.	c #623F17",
"B.	c #5D3B10",
"C.	c #643C14",
"D.	c #5E3A0D",
"E.	c #5B2C23",
"F.	c #582B22",
"G.	c #562921",
"H.	c #50261E",
"I.	c #743A2F",
"J.	c #724511",
"K.	c #653A0E",
"L.	c #54320F",
"M.	c #51300E",
"N.	c #633B13",
"O.	c #582A22",
"P.	c #462019",
"Q.	c #552921",
"R.	c #5F2E25",
"S.	c #4A231B",
"T.	c #5D2D24",
"U.	c #4E251D",
"V.	c #4F251E",
"                                                                ",
"                                                                ",
"                                                                ",
"                                                                ",
"                                                                ",
"                                                                ",
"                                                                ",
"                    . + @ # $                                   ",
"                  % & * = - ;                                   ",
"                  > , ' ) ! ~ {                                 ",
"                ] ^ / ( _ : < $ [ } +                           ",
"              | 1 2 3 4 5 6 7 7 [ 8 +                           ",
"            9 0 a b c d e f g h i j k l l                       ",
"          m n o p q r s t a u v w x y z A                       ",
"          B C D E F G i H I J K L M N O z P                     ",
"          Q R S T U V W X Y Z `  ...+.@.#.$.                    ",
"          %.&.*.=.-.;.>.,.'.).!.~.{.].^./.                      ",
"          (._.:.<.[.}.|.1.2.!.3.4.5.6.7.8.                      ",
"            9.0.a.b.c.d.e.f.g.h.i.j.k.l.m.                      ",
"              n.o.p.}.q.r.s.t.u.v.v.w.                          ",
"                x.y.z.A.B.C.D.E.F.G.H.                          ",
"                I.J.K.L.M.N.O.% * j.                            ",
"                ; P.Q.R.& % % F.                                ",
"                S.} v.T.T.%                                     ",
"                  ; U.w.V.                                      ",
"                                                                ",
"                                                                ",
"                                                                ",
"                                                                ",
"                                                                ",
"                                                                ",
"                                                                "};
