/* XPM */
static char * ennemy_wait_0_xpm[] = {
"32 32 7 1",
" 	c None",
".	c #1B0B5D",
"+	c #2A2A2A",
"@	c #191919",
"#	c #C88531",
"$	c #3C0C0B",
"%	c #454545",
"                                ",
"                                ",
"                                ",
"                                ",
"            ...       +         ",
"          ........   @@@        ",
"         ........... @@@        ",
"       ..............@@@        ",
"       .............#@@@#       ",
"      ..........  ..#@@@#       ",
"      ...$####...   .@@@#       ",
"      ..$$$####...   @@@#       ",
"     ..$$##$$$##..   @@@        ",
"     .#$#$##$$###.   @@@        ",
"     .#$$#$######.  @@@@        ",
"     .$#$$#$$$#%#.  @@@@        ",
"     .$#$$#####%#.  @@@@        ",
"     .#$#$$######.  @@@         ",
"     ..#########..  @@@         ",
"      ..###%%##...  @@@         ",
"      ...#####...   @@@         ",
"       .........    @@@         ",
"       .............@@@         ",
"        ............@@@         ",
"          ..........@@@         ",
"            ........###         ",
"              ....              ",
"                                ",
"                                ",
"                                ",
"                                ",
"                                "};
