/* XPM */
static char * dirt_xpm[] = {
"32 32 60 1",
" 	c #A98365",
".	c #A77E61",
"+	c #AD896C",
"@	c #AB8669",
"#	c #AF8C6E",
"$	c #B29072",
"%	c #A67D60",
"&	c #A37A5C",
"*	c #9E765A",
"=	c #947057",
"-	c #906E56",
";	c #8E6C55",
">	c #896A53",
",	c #8A6B54",
"'	c #8F6D55",
")	c #A57C5F",
"!	c #9C7559",
"~	c #916E56",
"{	c #856752",
"]	c #936F56",
"^	c #AC8769",
"/	c #9F765A",
"(	c #987258",
"_	c #A57C5D",
":	c #B08D70",
"<	c #B49274",
"[	c #AA8366",
"}	c #A47B5D",
"|	c #B08C6F",
"1	c #AD886A",
"2	c #876852",
"3	c #957157",
"4	c #977258",
"5	c #9A7358",
"6	c #A88264",
"7	c #8C6C54",
"8	c #AA8468",
"9	c #AE8A6D",
"0	c #A78164",
"a	c #A1795C",
"b	c #A1775A",
"c	c #9B7459",
"d	c #A88062",
"e	c #886953",
"f	c #836652",
"g	c #745E50",
"h	c #765F50",
"i	c #7D6250",
"j	c #806450",
"k	c #826551",
"l	c #776050",
"m	c #816551",
"n	c #7B6150",
"o	c #7E6350",
"p	c #B59374",
"q	c #B89879",
"r	c #B18E71",
"s	c #B59576",
"t	c #B39173",
"u	c #B69577",
" .+@#$%&*=-;>,').!~-;{]!^./(_:<[",
"}}%=/|1^)=='2{-3~=43;=//534*.#+6",
"&}47(890%a_b(442,4]>,b}c=,{/dd//",
"b*ccad);([%/d_({e]4-342f]!5}_c23",
"}_5/b--3&80.0*c(7;c/*7gh~.8)!''&",
"%47=7he*&%0%_4c_*3a_b;i>/b3(4]b@",
"%47~333='*%b55*8)5b&b}%%/>g;!d+#",
"=fj466!7=c}a]=c_b**!*00c;'~5)@6&",
"2;-]&a_) &!;>;4=c_ab%)]2e3a}08)*",
")@ &(3/8[c;klj,].[ %]{>~*)%_}a&6",
"1@8 !5}.cjh2mm-a#[)!{m~-}8d&}5/1",
" a3535.&~nl2me]_[!e]4*/4]*}66d.6",
"^[a~;4c3!bb5~7e-7ki3_[.4fe)8)%[ ",
"@[.0)5-2=_@8.c{jf>>=b.)(=4__*!%[",
"/&6:8&=;]=5.@&'2';775/a.[%&(3&d%",
"45)^[%%/=>;(!bb!/447-(/%6}]=cd%b",
"*5d^0*)b]4*&*3a%}a*]7']c45ab/)b/",
"3].[&7~c*_ .b]cdc3c4~4,e4&d%}*53",
"5a%)!7,(%6_})}*/->7-]3;=ad66%!!4",
"! d((4{4&a.  0_=7;'{2]!a_6.6&-=]",
"!ab(5b]]'a1+:8)4-]eo735b_*5%*;'c",
"~a&!&6b~406.+#8d&4ff>,~*b(4/c*53",
"2*19++)bd%&}_._06&4'2>~a**!*5=~]",
"3!d:p|^:|d)/c//!_.d/-~/}b}];'2e4",
"-4/^$[8+68^6ac/5'4)d&}[**!>mmmj7",
"=~a+@ [.a8+6}!/4,-=}_.+.4;>2{2o]",
"5![@))0)d8[[043*('']c))}53(!]e]!",
"_$$a-a})06^9 -754=]'~!4]cc&db4_*",
"9q1(-) _}9+ 0&37>~';*(;5}!(}0.a(",
"r:.4d@[.0+1 .}}*~>>--'(/}}bc5(&.",
"#%)|s18  d.}}) 6*~;ke-3*}81*]4a8",
"0~_tup:[&c35/%dd%b3>>''50[ a&.6d"};
