/* XPM */
static char * exit_plateform_xpm[] = {
"32 32 643 2",
"  	c #A98365",
". 	c #A77E61",
"+ 	c #AD896C",
"@ 	c #AB8669",
"# 	c #AF8C6E",
"$ 	c #B29072",
"% 	c #A67D60",
"& 	c #A07959",
"* 	c #987456",
"= 	c #8C6D50",
"- 	c #836949",
"; 	c #806846",
"> 	c #7F6946",
", 	c #79683E",
"' 	c #746634",
") 	c #57442C",
"! 	c #4C3829",
"~ 	c #533D2D",
"{ 	c #5D4635",
"] 	c #6B513E",
"^ 	c #6D513F",
"/ 	c #604A3A",
"( 	c #6D523E",
"_ 	c #836745",
": 	c #9E7D5E",
"< 	c #9F765A",
"[ 	c #987258",
"} 	c #A57C5D",
"| 	c #B08D70",
"1 	c #B49274",
"2 	c #AA8366",
"3 	c #A47B5D",
"4 	c #947057",
"5 	c #B08C6F",
"6 	c #9D7E5D",
"7 	c #977C54",
"8 	c #91764B",
"9 	c #836D42",
"0 	c #7E6B3D",
"a 	c #7B6D37",
"b 	c #7B7034",
"c 	c #736A2D",
"d 	c #4E4324",
"e 	c #302219",
"f 	c #302319",
"g 	c #483527",
"h 	c #664D3A",
"i 	c #7D5F48",
"j 	c #775A47",
"k 	c #6C533C",
"l 	c #766336",
"m 	c #786735",
"n 	c #79643B",
"o 	c #806644",
"p 	c #937054",
"q 	c #9E765A",
"r 	c #A88264",
"s 	c #A37A5C",
"t 	c #977258",
"u 	c #8C6C54",
"v 	c #946F55",
"w 	c #967757",
"x 	c #8E794D",
"y 	c #89793F",
"z 	c #877938",
"A 	c #867A33",
"B 	c #82782F",
"C 	c #81792A",
"D 	c #807A26",
"E 	c #48411A",
"F 	c #231810",
"G 	c #140D08",
"H 	c #231911",
"I 	c #443125",
"J 	c #614837",
"K 	c #715743",
"L 	c #755A45",
"M 	c #836D3D",
"N 	c #7B6F30",
"O 	c #736B27",
"P 	c #6B622A",
"Q 	c #6A5D31",
"R 	c #705F3C",
"S 	c #926F50",
"T 	c #A88062",
"U 	c #A1775A",
"V 	c #9B7459",
"W 	c #997358",
"X 	c #957252",
"Y 	c #8D7547",
"Z 	c #887B36",
"` 	c #878229",
" .	c #8A8626",
"..	c #898626",
"+.	c #898722",
"@.	c #84831F",
"#.	c #3F3C11",
"$.	c #150D07",
"%.	c #050302",
"&.	c #060402",
"*.	c #1A110C",
"=.	c #36271C",
"-.	c #523C2D",
";.	c #614B37",
">.	c #84753B",
",.	c #837933",
"'.	c #777325",
").	c #706D1E",
"!.	c #69651D",
"~.	c #6A6324",
"{.	c #6E602F",
"].	c #806740",
"^.	c #916E51",
"/.	c #876852",
"(.	c #957157",
"_.	c #977157",
":.	c #9A7456",
"<.	c #93744B",
"[.	c #817338",
"}.	c #88832A",
"|.	c #969424",
"1.	c #969520",
"2.	c #949420",
"3.	c #92921E",
"4.	c #3E3E0C",
"5.	c #010100",
"6.	c #000000",
"7.	c #100A06",
"8.	c #241912",
"9.	c #483C20",
"0.	c #88802D",
"a.	c #90892E",
"b.	c #858126",
"c.	c #7A791E",
"d.	c #747318",
"e.	c #6B6A16",
"f.	c #6C691C",
"g.	c #686127",
"h.	c #5A462F",
"i.	c #694F3B",
"j.	c #7D5F4A",
"k.	c #8F6D55",
"l.	c #816749",
"m.	c #887047",
"n.	c #80713B",
"o.	c #807B2E",
"p.	c #8B8924",
"q.	c #979523",
"r.	c #9F9B2A",
"s.	c #989624",
"t.	c #4C4B0F",
"u.	c #040201",
"v.	c #39370E",
"w.	c #807E1F",
"x.	c #878421",
"y.	c #8B8922",
"z.	c #86851E",
"A.	c #807F19",
"B.	c #797916",
"C.	c #707014",
"D.	c #676614",
"E.	c #3B3613",
"F.	c #33241A",
"G.	c #4D392A",
"H.	c #684E3C",
"I.	c #936D52",
"J.	c #896B4C",
"K.	c #7D6D3B",
"L.	c #807336",
"M.	c #867E2E",
"N.	c #8E8928",
"O.	c #8F8D20",
"P.	c #908D27",
"Q.	c #8D7F3B",
"R.	c #61532B",
"S.	c #1A110B",
"T.	c #2B2B07",
"U.	c #797917",
"V.	c #88881A",
"W.	c #87871B",
"X.	c #89891B",
"Y.	c #828218",
"Z.	c #7E7E17",
"`.	c #747414",
" +	c #363609",
".+	c #0A0604",
"++	c #1E140E",
"@+	c #3A2A1E",
"#+	c #5C4533",
"$+	c #826650",
"%+	c #AB896B",
"&+	c #8F6E52",
"*+	c #796B3B",
"=+	c #7C742E",
"-+	c #88822A",
";+	c #888526",
">+	c #8A8920",
",+	c #8B8B1C",
"'+	c #878425",
")+	c #6C563A",
"!+	c #493527",
"~+	c #1A110A",
"{+	c #161603",
"]+	c #838319",
"^+	c #8A8A1A",
"/+	c #8C8C1B",
"(+	c #878719",
"_+	c #787815",
":+	c #323207",
"<+	c #030101",
"[+	c #120B06",
"}+	c #2B1E14",
"|+	c #483729",
"1+	c #68503D",
"2+	c #88654C",
"3+	c #7F6A44",
"4+	c #827437",
"5+	c #87822A",
"6+	c #878520",
"7+	c #86851C",
"8+	c #8B8B1B",
"9+	c #818118",
"0+	c #3B380F",
"a+	c #37281D",
"b+	c #22170F",
"c+	c #85851A",
"d+	c #92921C",
"e+	c #95951E",
"f+	c #908E21",
"g+	c #979328",
"h+	c #8F8F1B",
"i+	c #808018",
"j+	c #333307",
"k+	c #070402",
"l+	c #1B130C",
"m+	c #33261C",
"n+	c #55402D",
"o+	c #7B623F",
"p+	c #95784D",
"q+	c #8C7C43",
"r+	c #857F2C",
"s+	c #82801D",
"t+	c #848419",
"u+	c #828219",
"v+	c #3E3E0A",
"w+	c #343408",
"x+	c #86861A",
"y+	c #9A9A1E",
"z+	c #A5A521",
"A+	c #A6A525",
"B+	c #A29B37",
"C+	c #9F8E44",
"D+	c #928F27",
"E+	c #41410B",
"F+	c #0D0704",
"G+	c #332C13",
"H+	c #625824",
"I+	c #79663C",
"J+	c #9D815A",
"K+	c #8C7D43",
"L+	c #847E2C",
"M+	c #7C7B1D",
"N+	c #7C7C16",
"O+	c #40400A",
"P+	c #2C2C07",
"Q+	c #9C9C1F",
"R+	c #A3A321",
"S+	c #B2B128",
"T+	c #ACA536",
"U+	c #A19240",
"V+	c #8D8B25",
"W+	c #42420C",
"X+	c #282806",
"Y+	c #686617",
"Z+	c #6A651F",
"`+	c #746636",
" @	c #997E53",
".@	c #887939",
"+@	c #7E7925",
"@@	c #777619",
"#@	c #212105",
"$@	c #A6A621",
"%@	c #AAAA23",
"&@	c #ACAC23",
"*@	c #A9A826",
"=@	c #9B9828",
"-@	c #3F3E0F",
";@	c #202005",
">@	c #868619",
",@	c #7F7F1A",
"'@	c #73701E",
")@	c #71672D",
"!@	c #93804B",
"~@	c #897D37",
"{@	c #7B7721",
"]@	c #35340C",
"^@	c #87871A",
"/@	c #97971E",
"(@	c #A4A421",
"_@	c #ABAB23",
":@	c #AEAE23",
"<@	c #A8A822",
"[@	c #9D9D1F",
"}@	c #3F3E0C",
"|@	c #9B9B1E",
"1@	c #89891A",
"2@	c #7C7A1E",
"3@	c #766F29",
"4@	c #86793C",
"5@	c #7E772C",
"6@	c #454016",
"7@	c #050301",
"8@	c #8A8A1B",
"9@	c #B1B124",
"0@	c #AAAA22",
"a@	c #9C9C20",
"b@	c #4A4A0D",
"c@	c #353508",
"d@	c #84841A",
"e@	c #A2A220",
"f@	c #7F7E1C",
"g@	c #787326",
"h@	c #79702A",
"i@	c #484119",
"j@	c #0F0905",
"k@	c #292906",
"l@	c #B2B225",
"m@	c #B6B626",
"n@	c #A0A020",
"o@	c #4C4C0E",
"p@	c #2A2A06",
"q@	c #7B7B17",
"r@	c #93931C",
"s@	c #93931D",
"t@	c #7D7C1B",
"u@	c #7C7723",
"v@	c #463A1F",
"w@	c #1C120B",
"x@	c #060302",
"y@	c #A7A722",
"z@	c #BFBF28",
"A@	c #B8B826",
"B@	c #40400C",
"C@	c #151503",
"D@	c #7D7D17",
"E@	c #95951D",
"F@	c #84831C",
"G@	c #7E7A21",
"H@	c #36261B",
"I@	c #20150E",
"J@	c #130C07",
"K@	c #A1A120",
"L@	c #B5B525",
"M@	c #46460E",
"N@	c #7F7F17",
"O@	c #838318",
"P@	c #8C8C1C",
"Q@	c #969522",
"R@	c #94941F",
"S@	c #7D7C19",
"T@	c #3E3617",
"U@	c #3B2B1F",
"V@	c #2C1F16",
"W@	c #2E2017",
"X@	c #281C14",
"Y@	c #37370A",
"Z@	c #7D7D18",
"`@	c #8B8B1A",
" #	c #90901C",
".#	c #565611",
"+#	c #34251A",
"@#	c #110A06",
"##	c #303007",
"$#	c #7A7A17",
"%#	c #858519",
"&#	c #8C8924",
"*#	c #9C9138",
"=#	c #8D8829",
"-#	c #444112",
";#	c #2A1E14",
">#	c #4B3628",
",#	c #4A3527",
"'#	c #503A2B",
")#	c #453225",
"!#	c #42381C",
"~#	c #82811D",
"{#	c #91911C",
"]#	c #8C8C1A",
"^#	c #96961D",
"/#	c #9B9B1F",
"(#	c #515110",
"_#	c #2A1F16",
":#	c #5E4737",
"<#	c #604938",
"[#	c #3F361B",
"}#	c #7A7A18",
"|#	c #908B2E",
"1#	c #9D864B",
"2#	c #675531",
"3#	c #271B12",
"4#	c #2D2016",
"5#	c #5B4332",
"6#	c #6B523E",
"7#	c #775A44",
"8#	c #604934",
"9#	c #80792C",
"0#	c #858221",
"a#	c #848418",
"b#	c #888819",
"c#	c #8F8F1C",
"d#	c #43430C",
"e#	c #1C130D",
"f#	c #433125",
"g#	c #453825",
"h#	c #86851F",
"i#	c #8E8E1B",
"j#	c #88871F",
"k#	c #554825",
"l#	c #271B13",
"m#	c #1C130C",
"n#	c #312319",
"o#	c #684D39",
"p#	c #7D5D46",
"q#	c #916B50",
"r#	c #8D7743",
"s#	c #8E8433",
"t#	c #858124",
"u#	c #807F1A",
"v#	c #3C3C0A",
"w#	c #010101",
"x#	c #34320F",
"y#	c #85841D",
"z#	c #383809",
"A#	c #080403",
"B#	c #3C2B1F",
"C#	c #644A3A",
"D#	c #816247",
"E#	c #997652",
"F#	c #907B44",
"G#	c #908535",
"H#	c #898528",
"I#	c #81801B",
"J#	c #767616",
"K#	c #8D8D1B",
"L#	c #777716",
"M#	c #020100",
"N#	c #100905",
"O#	c #443225",
"P#	c #624C3A",
"Q#	c #806B3D",
"R#	c #937E4D",
"S#	c #908144",
"T#	c #8B8235",
"U#	c #858226",
"V#	c #7E7D1A",
"W#	c #777715",
"X#	c #3C3C09",
"Y#	c #36360A",
"Z#	c #3F3F0A",
"`#	c #18100A",
" $	c #2F2118",
".$	c #4D382A",
"+$	c #7C6540",
"@$	c #7E6D37",
"#$	c #837637",
"$$	c #847B35",
"%$	c #7F7A2C",
"&$	c #7D7B1E",
"*$	c #1B1B05",
"=$	c #94941D",
"-$	c #393909",
";$	c #20160F",
">$	c #36281E",
",$	c #614936",
"'$	c #816748",
")$	c #7B6A38",
"!$	c #776B2C",
"~$	c #767126",
"{$	c #797620",
"]$	c #7D7925",
"^$	c #5B4D2F",
"/$	c #2F2F08",
"($	c #91911D",
"_$	c #99991E",
":$	c #3D3D0A",
"<$	c #150E09",
"[$	c #281E16",
"}$	c #4A3C28",
"|$	c #7B683F",
"1$	c #906E53",
"2$	c #7D6840",
"3$	c #7C6E32",
"4$	c #78722A",
"5$	c #76741E",
"6$	c #6F6C1E",
"7$	c #6E593B",
"8$	c #8B6850",
"9$	c #463325",
"0$	c #88881B",
"a$	c #97971D",
"b$	c #46460C",
"c$	c #130D08",
"d$	c #241A13",
"e$	c #463A22",
"f$	c #6E6235",
"g$	c #8B6F4B",
"h$	c #9A7358",
"i$	c #8F6F4E",
"j$	c #877343",
"k$	c #7D7333",
"l$	c #736E21",
"m$	c #3D3813",
"n$	c #35271C",
"o$	c #4A3628",
"p$	c #303008",
"q$	c #88881C",
"r$	c #504B1A",
"s$	c #2F2117",
"t$	c #3C2B1E",
"u$	c #35261B",
"v$	c #19100A",
"w$	c #433023",
"x$	c #473823",
"y$	c #726731",
"z$	c #836C44",
"A$	c #9C7559",
"B$	c #9D825F",
"C$	c #7E6C3A",
"D$	c #493C24",
"E$	c #302218",
"F$	c #1E140C",
"G$	c #130C06",
"H$	c #150E08",
"I$	c #160F09",
"J$	c #28260C",
"K$	c #95951F",
"L$	c #9F9F20",
"M$	c #9E9E1F",
"N$	c #47411A",
"O$	c #644A37",
"P$	c #6A503D",
"Q$	c #765843",
"R$	c #7C5C46",
"S$	c #614736",
"T$	c #5F4633",
"U$	c #84654B",
"V$	c #7F6A3A",
"W$	c #826C42",
"X$	c #AE8A6D",
"Y$	c #B89879",
"Z$	c #AD886A",
"`$	c #7A5C45",
" %	c #594333",
".%	c #2E2015",
"+%	c #36291E",
"@%	c #42391F",
"#%	c #888624",
"$%	c #A09F24",
"%%	c #9F9F1F",
"&%	c #38370A",
"*%	c #473425",
"=%	c #84624B",
"-%	c #80614C",
";%	c #936E54",
">%	c #926D52",
",%	c #83634B",
"'%	c #93744E",
")%	c #8E744D",
"!%	c #A0795A",
"~%	c #A1795C",
"{%	c #B18E71",
"]%	c #89684E",
"^%	c #6E5541",
"/%	c #574232",
"(%	c #4E392A",
"_%	c #523E2F",
":%	c #635039",
"<%	c #807339",
"[%	c #898230",
"}%	c #928E28",
"|%	c #959421",
"1%	c #9E9E22",
"2%	c #989820",
"3%	c #41400C",
"4%	c #0E0805",
"5%	c #251A12",
"6%	c #483528",
"7%	c #5A4332",
"8%	c #795943",
"9%	c #977255",
"0%	c #92704E",
"a%	c #896D47",
"b%	c #916F50",
"c%	c #A57C5F",
"d%	c #B59576",
"e%	c #947459",
"f%	c #795D49",
"g%	c #6C533F",
"h%	c #745B43",
"i%	c #8C724A",
"j%	c #8E7548",
"k%	c #85743A",
"l%	c #857C2D",
"m%	c #837E27",
"n%	c #8A8627",
"o%	c #97932B",
"p%	c #8A8724",
"q%	c #484418",
"r%	c #211610",
"s%	c #251B14",
"t%	c #2F2219",
"u%	c #36281D",
"v%	c #463427",
"w%	c #6B4F3B",
"x%	c #795B42",
"y%	c #8B724D",
"z%	c #977B58",
"A%	c #936F56",
"B%	c #AA8468",
"C%	c #A78164",
"D%	c #916E56",
"E%	c #B39173",
"F%	c #B69577",
"G%	c #B59374",
"H%	c #A28266",
"I%	c #8C6C53",
"J%	c #8E6E4C",
"K%	c #916F51",
"L%	c #8B6D4D",
"M%	c #836D41",
"N%	c #807035",
"O%	c #827534",
"P%	c #8D8138",
"Q%	c #90833B",
"R%	c #604C32",
"S%	c #4C3628",
"T%	c #463528",
"U%	c #513D2F",
"V%	c #584232",
"W%	c #5B4434",
"X%	c #694E3A",
"Y%	c #8B714D",
"Z%	c #997A57",
"  . + @ # $ % & * = - ; > , ' ) ! ~ { ] ^ / ( _ : . < [ } | 1 2 ",
"3 3 % 4 < 5 6 7 8 9 0 a b c d e f g h i j k l m n o p q . # + r ",
"s 3 t u v w x y z A B C D E F G H I J K L M N O P Q R S T T < < ",
"U q V W X Y Z `  ...+.@.#.$.%.&.*.=.-.;.>.,.'.).!.~.{.].^.V /.(.",
"3 } _.:.<.[.}.|.1.2.3.4.5.6.6.6.7.8.9.0.a.b.c.d.e.f.g.h.i.j.k.s ",
"% t l.m.n.o.p.q.r.s.t.6.6.6.6.6.u.v.w.x.y.z.A.B.C.D.E.F.G.H.I.@ ",
"% J.K.L.M.N.O.P.Q.R.S.6.6.6.6.6.T.U.V.W.W.X.Y.Z.`. +.+++@+#+$+%+",
"&+*+=+-+;+>+,+'+)+!+~+6.6.6.6.{+]+V.^+/+^+(+Z._+:+6.<+[+}+|+1+2+",
"3+4+5+6+7+8+9+0+a+b+u.6.6.6.T.c+d+e+f+g+2.h+i+j+5.6.6.k+l+m+n+o+",
"p+q+r+s+t+u+v+6.%.6.6.6.6.w+x+y+z+A+B+C+D+c+E+6.6.6.6.5.F+G+H+I+",
"J+K+L+M+N+O+6.6.6.6.6.6.P+W.Q+R+z+S+T+U+V+W+6.6.6.6.6.6.X+Y+Z+`+",
" @.@+@@@w+6.6.6.6.6.6.#@x+y+z+$@%@&@*@=@-@6.6.6.6.6.6.;@>@,@'@)@",
"!@~@{@]@5.6.6.6.6.6.T.^@/@(@_@&@:@<@[@}@5.6.6.6.6.6.T.8+|@1@2@3@",
"4@5@6@7@6.6.6.6.6.w+8@|@R+_@:@9@0@a@b@6.6.6.6.6.6.c@d@y+e@d+f@g@",
"h@i@j@6.6.6.6.6.k@c+R+<@z+&@l@m@n@o@6.6.6.6.6.6.p@q@r@y+e@s@t@u@",
"v@w@x@6.6.6.6.{+^@[@<@y@z+l@z@A@B@6.6.6.6.6.6.C@D@>@/+E@y+r@F@G@",
"H@I@J@j@%.6.X+Y./@K@0@:@z+_@L@M@6.6.u.u.6.6.k@N@>@O@^+P@Q@R@S@T@",
"U@V@W@X@w@Y@Z@`@ #K@K@$@<@a@.#6.6.[++#F.@###$#(+t+Z.%#&#*#=#-#;#",
">#,#'#)#!#~#{#/+]#{#^#[@/#(#6.6.u._#:#<#[#}#^+`@Y.N+u+|#1#2#3#4#",
"5#6#7#8#9#0#W.>@a#b#]#c#d#6.6.6.6.e#f#g#h#i#V.%#O@Z.O@j#k#l#m#n#",
"o#p#q#r#s#t#u#Y.Z.9+Y.v#w#6.6.6.6.u.x#y# # #/+^+O@N@D@z#7@A#e#B#",
"C#D#E#F#G#H#I#N@D@J#O+6.6.6.6.6.6.v#x+{#K#i#h+i#%#L#v+6.M#N#3#O#",
"P#Q#R#S#T#U#V#N+W#X#6.6.6.6.6.6.Y#3.y+{#`@>@^+i#i+Z#6.6.7@`# $.$",
"+$@$#$$$%$&$q@U.j+6.6.6.6.6.6.*$=$Q+y+d+`@b#K#1@-$6.6.5.F+;$>$,$",
"'$)$!$~${$@@]$^$H 6.6.6.6.6./$($_$E@{#i#i#i#/+:$5.6.6.x@<$[$}$|$",
"1$2$3$4$5$6$7$8$9$%.6.6.6.w+0$a${#{# #`@/+/+b$%.u.6.%.c$d$e$f$g$",
"h$i$j$k$l$m$n$o$F 6.6.6.p$0$y+E@K#^+`@K#q$r$s$t$u$v$b+w$x$y$z$A$",
"} $ B$C$D$E$F$G$@#H$I$J$K$n@L$M$d+i#/+%#N$O$P$Q$R$S$T$U$V$W$& q ",
"X$Y$Z$`$ %! a+.%s$+%@%#%$%$@(@%%|@{#t+&%*%=%-%;%q >%,%'%)%!%~%[ ",
"{%| . t ]%^%/%(%_%:%<%[%}%|%1.1%2%c+3%4%5%6%7%8%2+9%0%a%b%[ s . ",
"# % c%5 d%e%f%g%h%i%j%k%l%m%n%o%p%q%r%s%t%u%v%w%x%y%z%:.A%t ~%B%",
"C%D%} E%F%G%H%I%J%K%L%M%N%O%P%Q%R%S%O#T%U%V%W%X%Y%Z%  ~%s . r T "};
