/* XPM */
static char * exit_contour_xpm[] = {
"27 53 251 2",
"  	c None",
". 	c #929292",
"+ 	c #8E8E8E",
"@ 	c #C2C2C2",
"# 	c #9C9C9D",
"$ 	c #969696",
"% 	c #9CA1A5",
"& 	c #3A3A3A",
"* 	c #424242",
"= 	c #3C403F",
"- 	c #999398",
"; 	c #B2B2B2",
"> 	c #8C7C7C",
", 	c #919191",
"' 	c #A9A9A9",
") 	c #899690",
"! 	c #92897B",
"~ 	c #A49F9C",
"{ 	c #777777",
"] 	c #868686",
"^ 	c #767676",
"/ 	c #A5A39D",
"( 	c #8B877E",
"_ 	c #ABABAB",
": 	c #B5B5B5",
"< 	c #535353",
"[ 	c #595959",
"} 	c #434343",
"| 	c #3A4544",
"1 	c #4C4538",
"2 	c #5A5956",
"3 	c #54534B",
"4 	c #747474",
"5 	c #5A5A5A",
"6 	c #E39EB1",
"7 	c #EE3E62",
"8 	c #58574E",
"9 	c #404040",
"0 	c #DF7E8C",
"a 	c #DF2141",
"b 	c #DD192A",
"c 	c #E41C2F",
"d 	c #8D8D8D",
"e 	c #838383",
"f 	c #DD1D2D",
"g 	c #D61D40",
"h 	c #E9AABC",
"i 	c #F8C5D0",
"j 	c #E21C25",
"k 	c #C91C22",
"l 	c #8C2B32",
"m 	c #959595",
"n 	c #737373",
"o 	c #CD1F40",
"p 	c #D42023",
"q 	c #DF132F",
"r 	c #DC131D",
"s 	c #DE1720",
"t 	c #AF1722",
"u 	c #CB1515",
"v 	c #E51C2F",
"w 	c #CF2840",
"x 	c #E62130",
"y 	c #E21D2B",
"z 	c #A9232D",
"A 	c #E81E37",
"B 	c #E71B2D",
"C 	c #E51C2C",
"D 	c #E2183B",
"E 	c #E5142F",
"F 	c #E2193D",
"G 	c #EB333E",
"H 	c #BF010C",
"I 	c #F2FFFF",
"J 	c #ECD3D1",
"K 	c #E01D2E",
"L 	c #E21639",
"M 	c #E15560",
"N 	c #DF202C",
"O 	c #E31B3D",
"P 	c #DF1E34",
"Q 	c #E21B2B",
"R 	c #BF2323",
"S 	c #591016",
"T 	c #B68A82",
"U 	c #CB1621",
"V 	c #E31C2B",
"W 	c #E61A25",
"X 	c #E21F2E",
"Y 	c #E41821",
"Z 	c #951C22",
"` 	c #A0B493",
" .	c #B89F8F",
"..	c #BAAA9B",
"+.	c #E41729",
"@.	c #E21D2C",
"#.	c #DF202A",
"$.	c #8D0B14",
"%.	c #E01E2B",
"&.	c #84957E",
"*.	c #545855",
"=.	c #A08889",
"-.	c #E41B2B",
";.	c #E61B2B",
">.	c #DC202C",
",.	c #E51D2A",
"'.	c #DA1B2F",
").	c #EA1B2A",
"!.	c #CBBEC1",
"~.	c #CC9076",
"{.	c #978078",
"].	c #DB1D23",
"^.	c #DF2128",
"/.	c #B21218",
"(.	c #D21F28",
"_.	c #AB1421",
":.	c #E31B28",
"<.	c #691112",
"[.	c #A27E7F",
"}.	c #B98988",
"|.	c #937463",
"1.	c #E12048",
"2.	c #E21E27",
"3.	c #E51F31",
"4.	c #E6404A",
"5.	c #DF1D25",
"6.	c #AF1D29",
"7.	c #DE2728",
"8.	c #9A8278",
"9.	c #8D744E",
"0.	c #DB1E24",
"a.	c #E21B2A",
"b.	c #DD2027",
"c.	c #D22629",
"d.	c #E31825",
"e.	c #94767E",
"f.	c #968E89",
"g.	c #DB1E27",
"h.	c #CC192A",
"i.	c #E41F2B",
"j.	c #6E1008",
"k.	c #6A382B",
"l.	c #967B7D",
"m.	c #E2D9DB",
"n.	c #C31824",
"o.	c #781218",
"p.	c #9B1721",
"q.	c #BE1421",
"r.	c #E21E23",
"s.	c #BF1D1F",
"t.	c #A98C95",
"u.	c #D9262E",
"v.	c #D11520",
"w.	c #BE171F",
"x.	c #B8171D",
"y.	c #C31B1F",
"z.	c #691917",
"A.	c #DE1618",
"B.	c #C70E18",
"C.	c #D21D31",
"D.	c #B81723",
"E.	c #B91720",
"F.	c #8A101D",
"G.	c #E02025",
"H.	c #D72620",
"I.	c #D41825",
"J.	c #C61827",
"K.	c #AA141A",
"L.	c #DA1C22",
"M.	c #DF1B2A",
"N.	c #DB1927",
"O.	c #E31D27",
"P.	c #E31B23",
"Q.	c #E0242B",
"R.	c #E01E27",
"S.	c #B5232B",
"T.	c #A81820",
"U.	c #D41728",
"V.	c #DF536E",
"W.	c #DE1F29",
"X.	c #DD222A",
"Y.	c #D20E1E",
"Z.	c #E11C28",
"`.	c #C5212D",
" +	c #B90F20",
".+	c #CF1629",
"++	c #E01F2D",
"@+	c #E11C2A",
"#+	c #DA1B27",
"$+	c #BF1C23",
"%+	c #D91821",
"&+	c #C21B21",
"*+	c #BD232E",
"=+	c #B5131D",
"-+	c #C01622",
";+	c #E71C2A",
">+	c #E41728",
",+	c #E2212F",
"'+	c #E41730",
")+	c #DF1F2F",
"!+	c #DE1E30",
"~+	c #DB1F2A",
"{+	c #C91721",
"]+	c #C41621",
"^+	c #D21B21",
"/+	c #F2172E",
"(+	c #9F0913",
"_+	c #951B20",
":+	c #B41520",
"<+	c #C11321",
"[+	c #EC1725",
"}+	c #D51C2F",
"|+	c #D71D35",
"1+	c #DD1934",
"2+	c #CB161F",
"3+	c #AC1B1F",
"4+	c #B81620",
"5+	c #AD1417",
"6+	c #C31C22",
"7+	c #E11F32",
"8+	c #B2202C",
"9+	c #801619",
"0+	c #AB1D25",
"a+	c #B01521",
"b+	c #C11B2C",
"c+	c #B61627",
"d+	c #AB1A25",
"e+	c #9D151D",
"f+	c #A1171F",
"g+	c #A9171E",
"h+	c #B41923",
"i+	c #DC1C2C",
"j+	c #9B1E1E",
"k+	c #7E1117",
"l+	c #651716",
"m+	c #871418",
"n+	c #89161E",
"o+	c #72080C",
"p+	c #AB1B23",
"q+	c #94151C",
"r+	c #D5112E",
"s+	c #AD1714",
"t+	c #D22931",
"u+	c #E74546",
"v+	c #D01B27",
"w+	c #CC1E2C",
"x+	c #BD1C25",
"y+	c #A51C1D",
"z+	c #A71C28",
"A+	c #A91D2F",
"B+	c #96212F",
"                        .                             ",
"                                                      ",
"                          +                           ",
"                        @                             ",
"                        # $                           ",
"                          %                           ",
"                                                      ",
"                        &                             ",
"                        * =                           ",
"                          -                           ",
"                        ; .                           ",
"                        +                             ",
"                          >                           ",
"                        ; ,                           ",
"                        ' )                           ",
"                        ! ~                           ",
"                        { ]                           ",
"                          ^                           ",
"                        / (                           ",
"                        _ :                           ",
"                        < [                           ",
"                        } |                           ",
"                        1                             ",
"                        2 3                           ",
"                        4 {                           ",
"                        } 5                           ",
"                    6 7 8 9 0                         ",
"                  a b c d e f g h                     ",
"                i j k l m n o p q                     ",
"                r s t         u v w                   ",
"                x y           z y A                   ",
"                B C D         E F G                   ",
"                H D D I     J K L M                   ",
"                  N O D D P Q R S T                   ",
"                  U V W X Y Z `  ...                  ",
"                  +.V @.#.$.%.&.*.=.                  ",
"                  -.;.>.,.'.).!.~.{.                  ",
"                ].^./.(._.:.<.  [.}.|.                ",
"              1.2.3.4.5.6.7.      8.9.                ",
"            0.a.b.c.C X d.        e.f.                ",
"            0.g.h.i.%.j.k.          l.m.              ",
"          b.n.o.p.q.r.s.            t.u.              ",
"          v.w.%.x.:.y.                z.A.            ",
"          b.B.C.D.a.E.              F.G.H.            ",
"          V I.J.K.L.M.              N.O.P.            ",
"          Q.R.S.T.U.V V.          V.V W.X.            ",
"          Y.Z.`. +.+++y V.      V.C @+#+$+            ",
"            %+&+*+=+-+;+>+,+'+)+!+~+{+]+V.            ",
"            ^+/+(+_+:+<+[+}+|+1+2+3+4+5+              ",
"              6+7+8+9+0+a+b+c+d+e+f+g+V.              ",
"                h+i+j+k+l+m+n+o+p+q+V.                ",
"                  r+s+t+u+v+w+x+y+                    ",
"                      V.z+A+B+                        "};
