/* XPM */
static char * exit_plateform_xpm[] = {
"32 32 409 2",
"  	c #000000",
". 	c #35350A",
"+ 	c #5E5E22",
"@ 	c #5E5E25",
"# 	c #5E5E24",
"$ 	c #5E5E23",
"% 	c #5E5E20",
"& 	c #3F3F0B",
"* 	c #262605",
"= 	c #5E5E18",
"- 	c #5D5D1C",
"; 	c #5D5D19",
"> 	c #5E5E1A",
", 	c #5E5E19",
"' 	c #333307",
") 	c #5F5F20",
"! 	c #717125",
"~ 	c #6A6A23",
"{ 	c #5C5C24",
"] 	c #787825",
"^ 	c #7C7C24",
"/ 	c #727222",
"( 	c #7D7D1F",
"_ 	c #525210",
": 	c #2F2F07",
"< 	c #747415",
"[ 	c #56561B",
"} 	c #67671B",
"| 	c #717119",
"1 	c #737319",
"2 	c #79791B",
"3 	c #767619",
"4 	c #42420B",
"5 	c #343409",
"6 	c #6E6E23",
"7 	c #6E6E24",
"8 	c #6E6E22",
"9 	c #757522",
"0 	c #7D7D22",
"a 	c #767621",
"b 	c #7D7D20",
"c 	c #585812",
"d 	c #292906",
"e 	c #666617",
"f 	c #606018",
"g 	c #59591A",
"h 	c #5A5A1B",
"i 	c #5D5D1B",
"j 	c #7E7E1B",
"k 	c #828219",
"l 	c #777719",
"m 	c #45450C",
"n 	c #282807",
"o 	c #818121",
"p 	c #7F7F22",
"q 	c #7A7A21",
"r 	c #7B7B20",
"s 	c #808020",
"t 	c #808023",
"u 	c #6D6D22",
"v 	c #47470E",
"w 	c #222206",
"x 	c #696919",
"y 	c #71711B",
"z 	c #81811A",
"A 	c #797919",
"B 	c #70701B",
"C 	c #60601A",
"D 	c #3A3A09",
"E 	c #77771D",
"F 	c #74741F",
"G 	c #70701E",
"H 	c #61611C",
"I 	c #60601D",
"J 	c #767620",
"K 	c #73731F",
"L 	c #6B6B1E",
"M 	c #48480E",
"N 	c #010101",
"O 	c #2E2E08",
"P 	c #646419",
"Q 	c #74741D",
"R 	c #6B6B1B",
"S 	c #75751A",
"T 	c #71711A",
"U 	c #727218",
"V 	c #393909",
"W 	c #010100",
"X 	c #373709",
"Y 	c #74741C",
"Z 	c #6D6D1E",
"` 	c #6F6F1C",
" .	c #7D7D1A",
"..	c #7C7C1D",
"+.	c #72721D",
"@.	c #4C4C0E",
"#.	c #353508",
"$.	c #74741A",
"%.	c #72721C",
"&.	c #6D6D1D",
"*.	c #79791C",
"=.	c #7C7C1C",
"-.	c #68681C",
";.	c #70701A",
">.	c #2A2A06",
",.	c #5C5C18",
"'.	c #6C6C1D",
").	c #7C7C20",
"!.	c #79791E",
"~.	c #78781B",
"{.	c #7D7D19",
"].	c #65651A",
"^.	c #6F6F1B",
"/.	c #4B4B0E",
"(.	c #272706",
"_.	c #656518",
":.	c #6D6D1B",
"<.	c #7D7D1C",
"[.	c #77771C",
"}.	c #6A6A1E",
"|.	c #63631E",
"1.	c #6F6F1D",
"2.	c #68681A",
"3.	c #4E4E19",
"4.	c #79791A",
"5.	c #6A6A1C",
"6.	c #83831C",
"7.	c #6F6F19",
"8.	c #3B3B0A",
"9.	c #141403",
"0.	c #606017",
"a.	c #6F6F18",
"b.	c #606019",
"c.	c #656519",
"d.	c #6C6C1E",
"e.	c #636320",
"f.	c #181804",
"g.	c #4E4E1C",
"h.	c #6C6C1B",
"i.	c #747419",
"j.	c #6F6F1A",
"k.	c #7C7C1B",
"l.	c #6E6E19",
"m.	c #7F7F17",
"n.	c #2B2B07",
"o.	c #707019",
"p.	c #6D6D18",
"q.	c #77771A",
"r.	c #73731B",
"s.	c #6E6E1E",
"t.	c #333309",
"u.	c #4D4D1C",
"v.	c #4D4D1A",
"w.	c #72721A",
"x.	c #7B7B19",
"y.	c #787818",
"z.	c #43430B",
"A.	c #363609",
"B.	c #5A5A1A",
"C.	c #5F5F1A",
"D.	c #747418",
"E.	c #76761A",
"F.	c #76761B",
"G.	c #76761E",
"H.	c #4E4E0F",
"I.	c #3D3D0B",
"J.	c #80801F",
"K.	c #4D4D22",
"L.	c #7E7E19",
"M.	c #767618",
"N.	c #6A6A18",
"O.	c #44440B",
"P.	c #2F2F08",
"Q.	c #6E6E1B",
"R.	c #7B7B1C",
"S.	c #7F7F1D",
"T.	c #63631F",
"U.	c #50500F",
"V.	c #2D2D07",
"W.	c #7F7F1C",
"X.	c #6C6C20",
"Y.	c #4E4E22",
"Z.	c #7C7C18",
"`.	c #656517",
" +	c #242406",
".+	c #6E6E1A",
"++	c #6A6A19",
"@+	c #76761C",
"#+	c #73731C",
"$+	c #44440D",
"%+	c #232306",
"&+	c #757521",
"*+	c #4E4E25",
"=+	c #4C4C1A",
"-+	c #646418",
";+	c #717117",
">+	c #7D7D1E",
",+	c #81811B",
"'+	c #82821A",
")+	c #6C6C19",
"!+	c #7F7F19",
"~+	c #3E3E0B",
"{+	c #727219",
"]+	c #6A6A1B",
"^+	c #77771E",
"/+	c #7F7F21",
"(+	c #4E4E23",
"_+	c #4D4D18",
":+	c #797917",
"<+	c #40400A",
"[+	c #41410C",
"}+	c #727221",
"|+	c #70701F",
"1+	c #70701D",
"2+	c #7B7B1B",
"3+	c #62621A",
"4+	c #5A5A19",
"5+	c #323207",
"6+	c #626217",
"7+	c #57571B",
"8+	c #63631C",
"9+	c #6E6E1F",
"0+	c #7B7B21",
"a+	c #4E4E1E",
"b+	c #4E4E17",
"c+	c #36360A",
"d+	c #737320",
"e+	c #818122",
"f+	c #7B7B1F",
"g+	c #7B7B1E",
"h+	c #71711C",
"i+	c #67671A",
"j+	c #6A6A15",
"k+	c #818119",
"l+	c #72721E",
"m+	c #4E4E1D",
"n+	c #7A7A1F",
"o+	c #787820",
"p+	c #6D6D21",
"q+	c #7F7F1E",
"r+	c #61611E",
"s+	c #151503",
"t+	c #707015",
"u+	c #747416",
"v+	c #757516",
"w+	c #7A7A18",
"x+	c #4D4D1B",
"y+	c #767622",
"z+	c #6F6F21",
"A+	c #71711E",
"B+	c #6F6F1E",
"C+	c #343408",
"D+	c #737317",
"E+	c #686817",
"F+	c #6D6D17",
"G+	c #707016",
"H+	c #5F5F16",
"I+	c #767617",
"J+	c #6E6E18",
"K+	c #6C6C1A",
"L+	c #363608",
"M+	c #626221",
"N+	c #757524",
"O+	c #666621",
"P+	c #5D5D1E",
"Q+	c #6E6E1C",
"R+	c #2E2E06",
"S+	c #626218",
"T+	c #7B7B16",
"U+	c #797915",
"V+	c #767616",
"W+	c #6C6C21",
"X+	c #606024",
"Y+	c #555523",
"Z+	c #53531F",
"`+	c #5A5A1C",
" @	c #73731A",
".@	c #717115",
"+@	c #7E7E17",
"@@	c #737318",
"#@	c #5F5F18",
"$@	c #595917",
"%@	c #787816",
"&@	c #727215",
"*@	c #3E3E0A",
"=@	c #1E1E04",
"-@	c #6A6A16",
";@	c #65651E",
">@	c #6B6B20",
",@	c #68681F",
"'@	c #64641C",
")@	c #65651C",
"!@	c #3C3C0A",
"~@	c #202005",
"{@	c #6B6B19",
"]@	c #6C6C18",
"^@	c #5A5A17",
"/@	c #575716",
"(@	c #79791D",
"_@	c #76761F",
":@	c #3D3D0A",
"<@	c #616119",
"[@	c #666619",
"}@	c #686819",
"|@	c #7D7D18",
"1@	c #787815",
"2@	c #777717",
"3@	c #7E7E18",
"4@	c #7C7C21",
"5@	c #80801E",
"6@	c #47470D",
"7@	c #313107",
"8@	c #696918",
"9@	c #7F7F1F",
"0@	c #75751E",
"a@	c #6C6C15",
"b@	c #3B3B09",
"c@	c #2C2C07",
"d@	c #7B7B18",
"e@	c #80801A",
"f@	c #83831A",
"g@	c #4F4F0F",
"h@	c #757517",
"i@	c #5C5C1E",
"j@	c #6F6F20",
"k@	c #5B5B19",
"l@	c #62621B",
"m@	c #5E5E1C",
"n@	c #5F5F1F",
"o@	c #6A6A21",
"p@	c #46460D",
"q@	c #676722",
"r@	c #383809",
"s@	c #161603",
"t@	c #838319",
"u@	c #6B6B1C",
"v@	c #6D6D1C",
"w@	c #45450D",
"x@	c #616118",
"y@	c #5D5D1A",
"z@	c #6A6A1A",
"A@	c #7A7A1D",
"B@	c #74741E",
"C@	c #707021",
"D@	c #696921",
"E@	c #4E4E1B",
"F@	c #7F7F1B",
"G@	c #48480D",
"H@	c #82821D",
"I@	c #70701C",
"J@	c #83831E",
"K@	c #64641F",
"L@	c #71711F",
"M@	c #4E4E0E",
"N@	c #303007",
"O@	c #626215",
"P@	c #4C4C17",
"Q@	c #4D4D19",
"R@	c #787819",
"S@	c #7C7C1F",
"T@	c #777720",
"U@	c #7D7D1D",
"V@	c #282806",
"W@	c #5F5F15",
"X@	c #4D4D17",
"Y@	c #73731D",
"Z@	c #292908",
"`@	c #6D6D23",
" #	c #5F5F24",
".#	c #828222",
"+#	c #7C7C1E",
"@#	c #777716",
"##	c #6D6D16",
"$#	c #323209",
"%#	c #53531E",
"&#	c #5D5D24",
"*#	c #595922",
"=#	c #737323",
"-#	c #59591F",
";#	c #55551E",
">#	c #55551D",
",#	c #40400B",
"'#	c #303008",
")#	c #818118",
"!#	c #4C4C1B",
"~#	c #4D4D0E",
"{#	c #797921",
"]#	c #808021",
"^#	c #83831D",
"/#	c #5F5F1B",
"(#	c #75751B",
"_#	c #797918",
":#	c #4A4A0D",
"<#	c #757518",
"[#	c #7E7E1D",
"}#	c #6D6D1A",
"|#	c #68681E",
"1#	c #62621D",
"2#	c #707018",
"3#	c #131303",
"4#	c #4A4A16",
"5#	c #4A4A19",
"6#	c #4A4A1A",
"7#	c #4A4A1E",
"8#	c #4A4A1F",
"9#	c #4A4A1D",
"0#	c #4A4A1C",
"a#	c #4A4A1B",
"b#	c #4A4A18",
"            . + @ # @ @ $ % % &             * = - ; = = > > , ' ",
"          & ) ! ~ { ] ^ / ( _             : < ; [ } | 1 2 3 4   ",
"        5 ) 6 7 8 9 0 a b c             d e f g h i j k l m     ",
"      n o p o q r s t u v             w x y z A B C g g D       ",
"    5 E F G H I J K L M N           O P G Q R S T S U V W       ",
"  X Y F Z `  .R ..+.@.            #.$.%.&...*.=.-.;.4           ",
">.,.'.).!.~.{.].^./.            (._.:.<.[.}.|.1.2.m             ",
"3.4.5.E 6.4.7.; 8.            9.0.a.b.c.} d.e.H V             f.",
"g.h.i.j.k.l.m.V W           n.k o.p.3 q.r.!.s.& W           t.u.",
"v.l.| w.x.y.z.            A.B.C.D.E.F.<.G.F H.            I.J.K.",
"v.L.M.N.e O.            P.Q.B 3 l.R.*.S.T.U.            V.W.X.Y.",
"v.Z.`.U 8.             +6.[.S .+++@+d.#+$+            %+ .b &+*+",
"=+-+;+D W           . >+L ,+'+)+!+-.:.~+N           d {+]+^+/+(+",
"_+:+<+            [+r }+|+1+2+$.3+4+m             5+6+7+8+9+0+a+",
"b+<+            c+d+e+r f+g+h+@+i+z.            >.j+y.k+y l+9+m+",
"'             f.n+o+p+q+r+r+} r.#.            s+t+u+v+;+w+$.- x+",
"            n...y+z+a A+B+q+)+C+            d D+E+F+G+H+I+J+K+L+",
"          #.} M+N+O+o P+Q+j.4             R+j+_._.S+T+U+T+V+z.  ",
"        d , }.W+X+Y+Z+`+ @m             (..@+@@@#@$@:+%@&@*@    ",
"      =@-@x ^.;@>@,@'@)@!@            ~@k+{@]@w+{@-+^@/@#.      ",
"    >.V+o.i.z (@_@!.A :@W           d )+k.;.<@[@}@|@1@' W       ",
"  C+2@3@Z.| K+G 4@5@6@            7@8@9@Q 0@2 C i.a@b@          ",
"c@y.w+d@e@f@../+s g@            >.h@i@j@W+>@(@~.+@b@            ",
"v..+k@++l@m@n@o@p@            s++@w.y _@q@M+|+]+r@            s@",
"u.F.t@4.u@v@*.w@N           V.x@y@z@A@B@C@D@q+& W           (._+",
"E@2 w.i+h.F@G@            I.Q H@I@&.J@K@e+L@M@            N@O@P@",
"Q@K+w.R@L.O.            c+S@4@T@s.U@G.E L@H.            V@W@v+X@",
"x+#+Y@z@D             Z@`@ #.#0 L >+q++#$+            ~@@###T+b+",
"u.H@U@& W           $#%#&#*#=#-#;#Z+>#,#N           '#{.)#F+T+b+",
"!#h+~#            X '@{#]#l+^#Y h /#G@            !@(#I@_#-+;+X@",
"x+:#            d <#[#).q+&.[.}#p.z.            '#E |#1#'@` 2#_+",
"!@            3#4#5#6#7#8#9#0#6#5+            s@a#8#9#7#8#8#a#b#"};
