/* XPM */
static char * menu_cursor_xpm[] = {
"30 30 693 2",
"  	c None",
". 	c #3A442B",
"+ 	c #3E462E",
"@ 	c #384129",
"# 	c #3C442B",
"$ 	c #414A30",
"% 	c #404932",
"& 	c #3C462D",
"* 	c #91680E",
"= 	c #966C0E",
"- 	c #986B0F",
"; 	c #9B7110",
"> 	c #434D32",
", 	c #3F472F",
"' 	c #363C28",
") 	c #3A4229",
"! 	c #465133",
"~ 	c #3D462F",
"{ 	c #3A432B",
"] 	c #42472D",
"^ 	c #404930",
"/ 	c #475034",
"( 	c #444B31",
"_ 	c #3A422A",
": 	c #9E720F",
"< 	c #9B6F0F",
"[ 	c #94690F",
"} 	c #986C0E",
"| 	c #A47510",
"1 	c #CC9618",
"2 	c #BE8A16",
"3 	c #AD7C12",
"4 	c #9B7111",
"5 	c #4E593B",
"6 	c #4F593C",
"7 	c #4E583B",
"8 	c #465136",
"9 	c #373E27",
"0 	c #40492E",
"a 	c #4C5537",
"b 	c #414B30",
"c 	c #4B5639",
"d 	c #4B5738",
"e 	c #485338",
"f 	c #3D482F",
"g 	c #A57611",
"h 	c #A47610",
"i 	c #9E7110",
"j 	c #AB7B12",
"k 	c #B78315",
"l 	c #B78413",
"m 	c #B28013",
"n 	c #A37512",
"o 	c #9E6F11",
"p 	c #65322C",
"q 	c #6C362C",
"r 	c #6E3A2B",
"s 	c #6C352B",
"t 	c #622C2C",
"u 	c #682F30",
"v 	c #622931",
"w 	c #551D1E",
"x 	c #5B221D",
"y 	c #642620",
"z 	c #642321",
"A 	c #622120",
"B 	c #612120",
"C 	c #612122",
"D 	c #5D2022",
"E 	c #622221",
"F 	c #5C1F22",
"G 	c #551E1E",
"H 	c #BE8814",
"I 	c #BD8716",
"J 	c #B27F13",
"K 	c #92670E",
"L 	c #5C2927",
"M 	c #622E2C",
"N 	c #6E372E",
"O 	c #703531",
"P 	c #75423F",
"Q 	c #682E2F",
"R 	c #5B2732",
"S 	c #4C1722",
"T 	c #531A1F",
"U 	c #5A1D22",
"V 	c #591F1F",
"W 	c #581F1F",
"X 	c #581D21",
"Y 	c #5A2020",
"Z 	c #5C1D22",
"` 	c #5C1F20",
" .	c #602021",
"..	c #622121",
"+.	c #621F23",
"@.	c #521A20",
"#.	c #4B191F",
"$.	c #AD7E13",
"%.	c #9D7011",
"&.	c #93680D",
"*.	c #8C660E",
"=.	c #54232C",
"-.	c #59242A",
";.	c #59242D",
">.	c #642F2D",
",.	c #78443F",
"'.	c #906265",
").	c #744042",
"!.	c #672E2C",
"~.	c #5A2430",
"{.	c #52222B",
"].	c #561E1E",
"^.	c #5E221D",
"/.	c #682520",
"(.	c #65261F",
"_.	c #652420",
":.	c #68261F",
"<.	c #6A2A1E",
"[.	c #6D2821",
"}.	c #6D2621",
"|.	c #6A2422",
"1.	c #682322",
"2.	c #62231E",
"3.	c #551F1C",
"4.	c #4D1A1C",
"5.	c #A97A11",
"6.	c #AF7E15",
"7.	c #A17612",
"8.	c #8F670E",
"9.	c #7B570A",
"0.	c #55212D",
"a.	c #56222A",
"b.	c #713A32",
"c.	c #825255",
"d.	c #6C3435",
"e.	c #4F2028",
"f.	c #51212A",
"g.	c #68251F",
"h.	c #672321",
"i.	c #5E221F",
"j.	c #5E1F21",
"k.	c #5F241D",
"l.	c #61231D",
"m.	c #642220",
"n.	c #63221F",
"o.	c #5A1E1F",
"p.	c #4E1B1C",
"q.	c #45181D",
"r.	c #43171E",
"s.	c #A77813",
"t.	c #976C10",
"u.	c #835E0B",
"v.	c #765309",
"w.	c #622E23",
"x.	c #642C27",
"y.	c #763D2B",
"z.	c #7B462D",
"A.	c #763A2F",
"B.	c #6C3235",
"C.	c #6F3330",
"D.	c #6F3130",
"E.	c #602B30",
"F.	c #592524",
"G.	c #501F29",
"H.	c #59282A",
"I.	c #672022",
"J.	c #5D211E",
"K.	c #6A271F",
"L.	c #6B2820",
"M.	c #6B2721",
"N.	c #672520",
"O.	c #522019",
"P.	c #5F232B",
"Q.	c #9B7010",
"R.	c #9F7210",
"S.	c #8C650D",
"T.	c #805A0B",
"U.	c #5B2627",
"V.	c #5A2626",
"W.	c #915238",
"X.	c #96563B",
"Y.	c #934A3E",
"Z.	c #7F3C36",
"`.	c #834237",
" +	c #7E3C32",
".+	c #6C3431",
"++	c #562325",
"@+	c #5E2528",
"#+	c #56272B",
"$+	c #782B24",
"%+	c #792B25",
"&+	c #7A2B27",
"*+	c #7E2E27",
"=+	c #7F2F27",
"-+	c #802F26",
";+	c #853129",
">+	c #7F2C26",
",+	c #752925",
"'+	c #55201A",
")+	c #491C19",
"!+	c #6D2F2C",
"~+	c #B17E15",
"{+	c #AB7B14",
"]+	c #99700E",
"^+	c #835F0C",
"/+	c #622A25",
"(+	c #632B26",
"_+	c #A96142",
":+	c #AF5C47",
"<+	c #A95645",
"[+	c #A85548",
"}+	c #AB5744",
"|+	c #99503E",
"1+	c #843F3A",
"2+	c #72362A",
"3+	c #B0584A",
"4+	c #994F3E",
"5+	c #8A443C",
"6+	c #8F362C",
"7+	c #933A2B",
"8+	c #853725",
"9+	c #5A241B",
"0+	c #4F1D1B",
"a+	c #914730",
"b+	c #924635",
"c+	c #AC7C12",
"d+	c #9D7310",
"e+	c #8E650C",
"f+	c #725108",
"g+	c #79382C",
"h+	c #48191D",
"i+	c #9B4F3E",
"j+	c #A85545",
"k+	c #A44F42",
"l+	c #A85449",
"m+	c #9C4C41",
"n+	c #8F4440",
"o+	c #78392F",
"p+	c #8D4536",
"q+	c #A55344",
"r+	c #9C4B41",
"s+	c #8B443B",
"t+	c #92342E",
"u+	c #A33F30",
"v+	c #762526",
"w+	c #61211F",
"x+	c #56221A",
"y+	c #4E1D1A",
"z+	c #994635",
"A+	c #A04F3B",
"B+	c #C38C17",
"C+	c #B08015",
"D+	c #9C710F",
"E+	c #84600C",
"F+	c #8D4332",
"G+	c #4D1A1E",
"H+	c #A1533F",
"I+	c #AF5849",
"J+	c #A65247",
"K+	c #AB574A",
"L+	c #9F4C40",
"M+	c #8D423D",
"N+	c #8C443B",
"O+	c #7A3B2E",
"P+	c #934C35",
"Q+	c #A0523F",
"R+	c #A65442",
"S+	c #9E4C40",
"T+	c #9E4B40",
"U+	c #8B453D",
"V+	c #854038",
"W+	c #A24431",
"X+	c #883726",
"Y+	c #642320",
"Z+	c #531E1B",
"`+	c #A35638",
" @	c #9D4C39",
".@	c #A14C38",
"+@	c #B07F13",
"@@	c #9C7111",
"#@	c #88620D",
"$@	c #7A570A",
"%@	c #903F37",
"&@	c #541D1E",
"*@	c #702923",
"=@	c #A85B40",
"-@	c #B25F46",
";@	c #AA534A",
">@	c #B35946",
",@	c #8D463E",
"'@	c #894336",
")@	c #793E28",
"!@	c #8A4E32",
"~@	c #A25441",
"{@	c #A65343",
"]@	c #A65246",
"^@	c #854338",
"/@	c #804036",
"(@	c #7C3D31",
"_@	c #6C2D1D",
":@	c #5C211D",
"<@	c #99493B",
"[@	c #A3503C",
"}@	c #A14C3A",
"|@	c #B98415",
"1@	c #A67812",
"2@	c #966B0F",
"3@	c #855D0D",
"4@	c #4D1B1B",
"5@	c #5B231C",
"6@	c #A0533E",
"7@	c #AE6045",
"8@	c #A35240",
"9@	c #AD5744",
"0@	c #A14F41",
"a@	c #89443B",
"b@	c #87423A",
"c@	c #78402A",
"d@	c #854035",
"e@	c #944A3C",
"f@	c #AC5647",
"g@	c #AB5644",
"h@	c #9A4B3C",
"i@	c #7D3B32",
"j@	c #783830",
"k@	c #73372D",
"l@	c #6B2720",
"m@	c #A04B3B",
"n@	c #A6503D",
"o@	c #AD5A3E",
"p@	c #92680D",
"q@	c #825E0B",
"r@	c #7C5708",
"s@	c #53201B",
"t@	c #5B221C",
"u@	c #833624",
"v@	c #9B4E3E",
"w@	c #A95E43",
"x@	c #9A503D",
"y@	c #A35040",
"z@	c #9A4A41",
"A@	c #894339",
"B@	c #874338",
"C@	c #6A251F",
"D@	c #894435",
"E@	c #9E513E",
"F@	c #A65A3F",
"G@	c #974D3C",
"H@	c #99493D",
"I@	c #853D37",
"J@	c #71332E",
"K@	c #70302D",
"L@	c #75352C",
"M@	c #59211C",
"N@	c #A34B3D",
"O@	c #AB5043",
"P@	c #A6503F",
"Q@	c #A77712",
"R@	c #986A10",
"S@	c #88600D",
"T@	c #7C580B",
"U@	c #562418",
"V@	c #5E261A",
"W@	c #7C2F25",
"X@	c #672320",
"Y@	c #8C3629",
"Z@	c #A55A3F",
"`@	c #A65A41",
" #	c #A85D43",
".#	c #964E3C",
"+#	c #944739",
"@#	c #803A2F",
"##	c #793B2B",
"$#	c #6C3030",
"%#	c #71352C",
"&#	c #9A443A",
"*#	c #A2473C",
"=#	c #A1453D",
"-#	c #AA4E3D",
";#	c #7A560A",
">#	c #714F09",
",#	c #6F5008",
"'#	c #57211A",
")#	c #803325",
"!#	c #9B4F3D",
"~#	c #A75D41",
"{#	c #A05242",
"]#	c #9A473F",
"^#	c #9D503E",
"/#	c #60201E",
"(#	c #7E2E26",
"_#	c #AA3D37",
":#	c #9A4D3E",
"<#	c #984C3E",
"[#	c #A25940",
"}#	c #8D4637",
"|#	c #7A362E",
"1#	c #73312C",
"2#	c #6B2E2A",
"3#	c #692F28",
"4#	c #954439",
"5#	c #A44E3B",
"6#	c #A1483E",
"7#	c #A94D3E",
"8#	c #B05341",
"9#	c #B35547",
"0#	c #4F1A1D",
"a#	c #541D1C",
"b#	c #591F1E",
"c#	c #762924",
"d#	c #9C523E",
"e#	c #A35247",
"f#	c #9B4B3E",
"g#	c #9E4D41",
"h#	c #8E463E",
"i#	c #93463B",
"j#	c #833225",
"k#	c #AB4335",
"l#	c #A43D35",
"m#	c #974A3D",
"n#	c #9E563C",
"o#	c #874232",
"p#	c #7A3A32",
"q#	c #6D332A",
"r#	c #672D27",
"s#	c #672D29",
"t#	c #9A483B",
"u#	c #94443A",
"v#	c #8D3F35",
"w#	c #8F4036",
"x#	c #8E4338",
"y#	c #934539",
"z#	c #A44B3C",
"A#	c #521B1F",
"B#	c #61251C",
"C#	c #9B5838",
"D#	c #9B4E3F",
"E#	c #9D4D40",
"F#	c #94463E",
"G#	c #8F463C",
"H#	c #944A3F",
"I#	c #60221E",
"J#	c #802D28",
"K#	c #AC4534",
"L#	c #AB4137",
"M#	c #A93D33",
"N#	c #964C3A",
"O#	c #8F4A37",
"P#	c #834130",
"Q#	c #6B3229",
"R#	c #673126",
"S#	c #673025",
"T#	c #632D23",
"U#	c #934337",
"V#	c #994436",
"W#	c #8F4035",
"X#	c #8D3E36",
"Y#	c #923F3B",
"Z#	c #4C1820",
"`#	c #571C1E",
" $	c #5D1F1F",
".$	c #9B5039",
"+$	c #9C4F40",
"@$	c #984F3F",
"#$	c #9C503D",
"$$	c #954741",
"%$	c #974D3E",
"&$	c #99503D",
"*$	c #571F1D",
"=$	c #9E3B30",
"-$	c #A23C32",
";$	c #9B3730",
">$	c #8D312C",
",$	c #8D4935",
"'$	c #7B412B",
")$	c #6D3129",
"!$	c #662F25",
"~$	c #652D24",
"{$	c #632D21",
"]$	c #8A3D33",
"^$	c #8C3C35",
"/$	c #843934",
"($	c #813532",
"_$	c #843A34",
":$	c #914238",
"<$	c #481820",
"[$	c #501B1E",
"}$	c #581E1E",
"|$	c #994A3C",
"1$	c #96493F",
"2$	c #9E543D",
"3$	c #92493A",
"4$	c #964B3F",
"5$	c #6E2621",
"6$	c #96362E",
"7$	c #99382D",
"8$	c #8D322C",
"9$	c #843127",
"0$	c #894D2F",
"a$	c #763C28",
"b$	c #6B3224",
"c$	c #632D24",
"d$	c #642E22",
"e$	c #79362D",
"f$	c #712D2B",
"g$	c #7B382E",
"h$	c #7D382F",
"i$	c #7A372D",
"j$	c #7C372E",
"k$	c #8E3C32",
"l$	c #421B17",
"m$	c #4C1A1D",
"n$	c #8F4A38",
"o$	c #8D453C",
"p$	c #984D3A",
"q$	c #96493B",
"r$	c #8D4539",
"s$	c #96503B",
"t$	c #8F4839",
"u$	c #4E1E1A",
"v$	c #5E211E",
"w$	c #792B24",
"x$	c #853127",
"y$	c #7B2925",
"z$	c #742624",
"A$	c #6D2322",
"B$	c #73342C",
"C$	c #682E25",
"D$	c #5F2B21",
"E$	c #602828",
"F$	c #612C27",
"G$	c #5C252A",
"H$	c #6E2C2B",
"I$	c #702D2A",
"J$	c #723331",
"K$	c #7B413E",
"L$	c #7F3631",
"M$	c #42181D",
"N$	c #4C181E",
"O$	c #4F1C1C",
"P$	c #581F1E",
"Q$	c #7A432D",
"R$	c #7D3E33",
"S$	c #914B3C",
"T$	c #904B3C",
"U$	c #864239",
"V$	c #924F37",
"W$	c #843F35",
"X$	c #4D1B1E",
"Y$	c #692820",
"Z$	c #632022",
"`$	c #5B1E21",
" %	c #5A1D20",
".%	c #612F22",
"+%	c #54291D",
"@%	c #521F31",
"#%	c #52222F",
"$%	c #5A242E",
"%%	c #632D32",
"&%	c #815255",
"*%	c #8F6267",
"=%	c #7A3F40",
"-%	c #451720",
";%	c #4D1820",
">%	c #501920",
",%	c #70392D",
"'%	c #733632",
")%	c #823F35",
"!%	c #854736",
"~%	c #823E37",
"{%	c #8C4837",
"]%	c #7D3C32",
"^%	c #40171E",
"/%	c #481A1C",
"(%	c #561C22",
"_%	c #5A1B24",
":%	c #561E22",
"<%	c #591D21",
"[%	c #551D20",
"}%	c #561E20",
"|%	c #541B20",
"1%	c #552B1B",
"2%	c #512321",
"3%	c #55232D",
"4%	c #59232D",
"5%	c #662E35",
"6%	c #743E41",
"7%	c #722D2C",
"8%	c #4F191F",
"9%	c #591B1F",
"0%	c #621F21",
"a%	c #6C312E",
"b%	c #6F3633",
"c%	c #7B4343",
"d%	c #7D3834",
"e%	c #7A3737",
"f%	c #874538",
"g%	c #753732",
"h%	c #3E181B",
"i%	c #451820",
"j%	c #531F1C",
"k%	c #5C2021",
"l%	c #5B1E1F",
"m%	c #512427",
"n%	c #632D30",
"o%	c #6E3D3C",
"p%	c #652A2A",
"q%	c #6A2D2C",
"r%	c #6B2A2C",
"s%	c #69312A",
"t%	c #652320",
"u%	c #672B25",
"v%	c #845552",
"w%	c #946464",
"x%	c #7F4940",
"y%	c #7B3D35",
"z%	c #783F3D",
"A%	c #8D5850",
"B%	c #743935",
"C%	c #3F1919",
"D%	c #46191E",
"E%	c #541D1F",
"F%	c #581E1F",
"G%	c #54211C",
"H%	c #48181E",
"I%	c #5D2C21",
"J%	c #622F2F",
"K%	c #7C5054",
"L%	c #8C6161",
"M%	c #67282A",
"N%	c #692C29",
"O%	c #6F4028",
"P%	c #551B1F",
"Q%	c #611E22",
"R%	c #6B2322",
"S%	c #643037",
"T%	c #7C473F",
"U%	c #7A3931",
"V%	c #7C4135",
"W%	c #885450",
"X%	c #92665E",
"Y%	c #7B483A",
"Z%	c #47181D",
"`%	c #4F1B1D",
" &	c #5D251B",
".&	c #65291C",
"+&	c #63241F",
"@&	c #5E211F",
"#&	c #531C1D",
"$&	c #4B191D",
"%&	c #5F2727",
"&&	c #612726",
"*&	c #632F2D",
"=&	c #703D3E",
"-&	c #672D2B",
";&	c #642A29",
">&	c #451A1A",
",&	c #63261B",
"'&	c #6E2721",
")&	c #762B23",
"!&	c #57253A",
"~&	c #713430",
"{&	c #743731",
"]&	c #783C2F",
"^&	c #804537",
"/&	c #76412F",
"(&	c #522317",
"_&	c #632020",
":&	c #67271E",
"<&	c #65241F",
"[&	c #5E1F1F",
"}&	c #541B1E",
"|&	c #602926",
"1&	c #642929",
"2&	c #692F2A",
"3&	c #6E312A",
"4&	c #71302C",
"5&	c #682C28",
"6&	c #521C1D",
"7&	c #5B201F",
"8&	c #7F4334",
"9&	c #743F2C",
"0&	c #501D1C",
"a&	c #541F1A",
"b&	c #64261E",
"c&	c #67251E",
"d&	c #61231C",
"e&	c #682E2A",
"f&	c #72332A",
"g&	c #74302E",
"h&	c #692124",
"i&	c #772B25",
"j&	c #7A2A27",
"                                                            ",
"              . + @ # $ % &             * = - ;             ",
"        > , ' ) ! ~ { ] ^ / ( _   : < [ } | 1 2 3 4         ",
"      5 6 7 8 9 0 a & b c d e f   g h i j k l m n o         ",
"  p q r s t u v w x y z A A y B C C D E F G H I J i K L     ",
"  M N O P u Q R S T U V W X Y Z `  ...+.Z @.#.$.%.&.*.=.-.;.",
">.>.r ,.'.).!.~.{.].^./.(._.:.<.[.}.|.1.2.3.4.5.6.7.8.9.0.a.",
">.>.r b.c.d.!.~.e.f.g.h.i.j.k.l.m.n.n.B o.p.q.r.s.t.u.v.w.x.",
"y.y.z.A.B.C.D.E.F.G.H.I.A J.j._.K.L.M.N.` O.#.P.Q.R.S.T.U.V.",
"W.W.X.Y.Z.`. +.+++@+#+$+%+&+*+=+-+;+>+,+2.'+)+!+~+{+]+^+/+(+",
"_+_+:+<+[+}+|+1+2+3+4+5+5+&+*+=+6+7+8+<.9+0+a+b+c+d+e+f+g+h+",
"i+i+j+k+l+m+n+5+o+p+q+[+r+n+s+t+u+t+v+w+x+y+z+A+B+C+D+E+F+G+",
"H+H+I+J+K+L+M+N+O+P+Q+R+l+S+T+U+V+W+X+Y+Z+`+ @.@+@@@#@$@%@&@",
"*@=@-@;@>@j+,@'@)@!@~@{@]@K+j+^@/@(@-+_@:@<@[@}@|@1@2@3@4@5@",
">+6@7@8@9@0@a@b@c@d@e@f@;@;@g@h@i@j@k@l@:@m@n@o@| p@q@r@s@t@",
"u@v@w@x@y@z@A@B@C@D@E@F@-@8@G@H@I@J@K@L@M@N@O@P@Q@R@S@T@U@V@",
"W@v@w@x@y@z@A@B@X@Y@Z@`@6@ #.#+#@###$#%#&#*#*#=#-#;#>#,#'#k.",
")#!#~#{#]#^#B@'@/#(#_#6@:#<#[#}#|#1#2#3#4#N@5#6#7#8#9#0#a#b#",
"c#d#Q+e#f#g#h#i#(.j#k#l#:#m#n#o#p#q#r#s#t#u#v#w#x#y#z#A#o.B#",
"C#C#Y.D#E#F#G#H#I#J#K#L#M#N#O#P#Q#R#S#T#U#V#W#v#X#y#Y#Z#`# $",
".$.$+$@$#$$$%$&$*$,+=$-$;$>$,$'$)$!$~${$]$^$/$($_$W#:$<$[$}$",
"|$|$1$v@2$3$.#4$].5$6$7$8$9$0$a$b$c$d$e$f$g$h$i$j$k$l$m$[$V ",
"n$n$o$p$q$r$s$t$u$v$w$x$y$z$A$B$C$D$E$F$G$H$I$J$K$L$M$N$O$P$",
"Q$Q$R$S$T$U$V$W$M$X$A Y$Z$F `$ %.%+%+%@%#%$%%%&%*%=%-%;%>%}$",
",%,%'%)%!%~%{%]%^%/%(%_%:%<%[%}%|%1%2%3%#%4%;.5%6%7%r 8%9%0%",
"a%b%c%d%R$e%f%g%h%i%j%k%j.j.l% %&@Z#f.m%n%o%p%q%q%r%s%w I#t%",
"u%v%w%x%y%z%A%B%C%D%E%F%G%w 3.3.T H%I%J%K%L%o%M%N%O%N$P%Q%R%",
"5$S%T%U%V%W%X%Y%Z%`% &.&+&@&/#@&#&$&%&&&*&=&-&;&N%>&Z+,&'&)&",
"  !&~&{&]&^&Y%/&0+(&@&X@Y+_&:&<&[&}&|&F$1&2&3&4&5&6&}$7&h.)&",
"  !&~&{&]&8&9&0&0+a&Z :.b&+&N.c&d&b##&#&e&e&3&f&g&Z h&i&j&  "};
