/* XPM */
static char * fuel_xpm[] = {
"32 32 18 1",
" 	c None",
".	c #ADADAD",
"+	c #76805E",
"@	c #383C2D",
"#	c #646A50",
"$	c #525A42",
"%	c #596739",
"&	c #677546",
"*	c #525A43",
"=	c #8C957A",
"-	c #445125",
";	c #922D26",
">	c #AE473C",
",	c #444828",
"'	c #5D2C25",
")	c #8B453B",
"!	c #525E23",
"~	c #2F3B16",
"                                ",
"                                ",
"                       .....    ",
"                      ..+++..   ",
"                     ..+@@@#.   ",
"                    ..$+@@@#.   ",
"                   ..+$#@@@#.   ",
"                  ..$+++###..   ",
"                 ..+$+#$$...    ",
"         .........$++$##..      ",
"        ..%&&&%%%+$###$..       ",
"        .%&*=*&&&+#$$...        ",
"        .&&=*=&%&### .          ",
"      ...-&*=*&&%-%- ...        ",
"      .###+;+++++>;####.        ",
"     ..#++>>+>;;;+++++#..       ",
"   ...#+#+++#;;;##++;+##....    ",
"  ..,,,,,,,,,#>;>#;,,,,,,,,..   ",
"  .@@@@@@@@@@@>+>#@,@@@@@@@@.   ",
"  .,,,,,,,,,,,'*),!~,,,,,,,,.   ",
"  .@@@@@@@@@@@**@!~!@@@@@@@@.   ",
"  .,,,,,,,,,,,'*,~!,,,,,,,,,.   ",
"  ..@@@@@@@@@**@!~@@@@@@@@@..   ",
"   .,,,,,,,,,  ,~!,,,,,,,...    ",
"   ..@@@@@@@...@@@@@@@@...      ",
"    .,,,,,,,. .,,,,,,...        ",
"    ......... ........          ",
"                                ",
"                                ",
"                                ",
"                                ",
"                                "};
