/* XPM */
static char * weapon_xpm[] = {
"32 32 118 2",
"  	c None",
". 	c #616998",
"+ 	c #797F9F",
"@ 	c #9399BD",
"# 	c #969DB8",
"$ 	c #BF455A",
"% 	c #A4384D",
"& 	c #842F3E",
"* 	c #61699A",
"= 	c #9399BB",
"- 	c #666A9A",
"; 	c #BF475B",
"> 	c #963548",
", 	c #AD3D51",
"' 	c #963443",
") 	c #7B82AE",
"! 	c #62689C",
"~ 	c #C0445C",
"{ 	c #AB3650",
"] 	c #C0445A",
"^ 	c #9A3A4E",
"/ 	c #525683",
"( 	c #3D4063",
"_ 	c #A23C52",
": 	c #AC3E51",
"< 	c #61689C",
"[ 	c #404565",
"} 	c #4B5076",
"| 	c #3F4263",
"1 	c #852E3E",
"2 	c #862D3F",
"3 	c #2F314A",
"4 	c #2F3148",
"5 	c #BE465A",
"6 	c #BE455C",
"7 	c #AA3F51",
"8 	c #973446",
"9 	c #973448",
"0 	c #963345",
"a 	c #3E4162",
"b 	c #43435B",
"c 	c #9D4B61",
"d 	c #7B202D",
"e 	c #742735",
"f 	c #A74458",
"g 	c #AE5362",
"h 	c #94394A",
"i 	c #752734",
"j 	c #BB4C5D",
"k 	c #742737",
"l 	c #7C2335",
"m 	c #CB6978",
"n 	c #CD687A",
"o 	c #873040",
"p 	c #BE4961",
"q 	c #B95E6D",
"r 	c #8B3041",
"s 	c #6C2631",
"t 	c #702331",
"u 	c #BD475B",
"v 	c #CA6575",
"w 	c #6C2535",
"x 	c #CA6479",
"y 	c #BD4358",
"z 	c #6D2533",
"A 	c #C2435C",
"B 	c #BA4458",
"C 	c #963546",
"D 	c #C1475E",
"E 	c #D66275",
"F 	c #722130",
"G 	c #BB4C64",
"H 	c #B7465A",
"I 	c #702333",
"J 	c #C0465D",
"K 	c #873041",
"L 	c #BC465E",
"M 	c #CB657A",
"N 	c #702532",
"O 	c #B04056",
"P 	c #AA5562",
"Q 	c #AE4355",
"R 	c #C1455B",
"S 	c #8C3140",
"T 	c #6A2635",
"U 	c #C0465A",
"V 	c #A85662",
"W 	c #CC6274",
"X 	c #BE425A",
"Y 	c #6D2435",
"Z 	c #6C2533",
"` 	c #752A37",
" .	c #883141",
"..	c #BE485E",
"+.	c #8B2E3E",
"@.	c #862F40",
"#.	c #742331",
"$.	c #CB6475",
"%.	c #983D4C",
"&.	c #993648",
"*.	c #983547",
"=.	c #AD4E5E",
"-.	c #C56274",
";.	c #983748",
">.	c #BA5E6B",
",.	c #CB687A",
"'.	c #953445",
").	c #AE4053",
"!.	c #BA495D",
"~.	c #924557",
"{.	c #A75063",
"].	c #A75060",
"^.	c #A65160",
"/.	c #A45260",
"(.	c #A55361",
"_.	c #964452",
":.	c #883C48",
"<.	c #833542",
"                                                                ",
"  . +                                                           ",
"  + . @ # @                         $ $ $ $ $ $ $ % & & & &     ",
"      * * . = @ -                 $ ; $ $ $ $ $ % & & % > , '   ",
"          * * * ) !               ~ $ { & & & & & & & & , , '   ",
"              * * ) *           $ ] $                 ^ , , '   ",
"                / * ) * (       _ % %                 : , , '   ",
"                < [ [ } |       1 2                 , : , , '   ",
"                < 3 4 } } $ $ 5 5 5 5 5 6 ] ] ] 7 7 8 9 8 8 0   ",
"                  a b 4 c $ d e f f f f g f f f f f h h e 8 0   ",
"                      $ $ i e ] $ $ j ] $ $ $ $ , , 8 8 k 8 8   ",
"                    $ $ l e ~ $ $ $ $ $ $ $ $ $ , , 8 8 k 8 8   ",
"                    $ , e ] $ $ $ $ $ $ $ $ $ $ , m 8 8 e 8 8   ",
"                    , , e ] n o p $ $ $ $ $ $ $ q r s 8 e 8 8   ",
"                    , , e ] $ r t 5 $ $ $ $ $ u v w 8 8 e 8 8   ",
"                    , , e ] x y r z A $ $ $ $ B r , 8 8 e C 8   ",
"                    , , e D $ $ E r F G $ $ H r I , 8 8 e 8 8   ",
"                    $ , e $ $ $ $ J r K L M r N O , 8 P e 8 8   ",
"                    $ Q e $ $ $ $ $ R r S r T U , , V 8 e 8 8   ",
"                    , , e $ $ $ $ $ W X r Y $ $ , : 8 8 e 8 8   ",
"                    , , e $ $ $ $ 5 $ r r r Z $ , , 8 8 ` 8 8   ",
"                    , , e $ $ $ $ $ r  ...n r w , , 8 8 e 8 8   ",
"                    $ , e $ $ $ $ r r Z $ $ n r z , 8 8 e 8 8   ",
"                    $ , e $ $ y +.@.#.$ $ $ $ $.r , 8 8 e %.&.  ",
"                    $ , e 5 ] *.i =.$ $ $ U $ $ -.w 8 8 e 8 ;.  ",
"                    $ >.e ] $ $ $ $ $ $ $ $ $ $ , ,.8 8 e 8 ;.  ",
"                    >., e ] $ $ $ $ $ $ $ $ $ $ , , *.8 e 8 '.  ",
"                    >., e ] $ $ $ $ $ $ $ $ $ $ , ).8 8 e 8 '.  ",
"                    , , e e e e e e e e e e e e e e e e e 8 '.  ",
"                    , , , $ $ $ !.$ $ $ $ $ $ $ , , 8 8 8 8 '.  ",
"                    ~.~.~.{.].^./././././././.(._._.:.:.:.:.<.  ",
"                                                                "};
