/* XPM */
static char * crate_xpm[] = {
"32 32 694 2",
"  	c None",
". 	c #ADADAD",
"+ 	c #3A442B",
"@ 	c #3E462E",
"# 	c #384129",
"$ 	c #3C442B",
"% 	c #414A30",
"& 	c #404932",
"* 	c #3C462D",
"= 	c #91680E",
"- 	c #966C0E",
"; 	c #986B0F",
"> 	c #9B7110",
", 	c #434D32",
"' 	c #3F472F",
") 	c #363C28",
"! 	c #3A4229",
"~ 	c #465133",
"{ 	c #3D462F",
"] 	c #3A432B",
"^ 	c #42472D",
"/ 	c #404930",
"( 	c #475034",
"_ 	c #444B31",
": 	c #3A422A",
"< 	c #9E720F",
"[ 	c #9B6F0F",
"} 	c #94690F",
"| 	c #986C0E",
"1 	c #A47510",
"2 	c #CC9618",
"3 	c #BE8A16",
"4 	c #AD7C12",
"5 	c #9B7111",
"6 	c #4E593B",
"7 	c #4F593C",
"8 	c #4E583B",
"9 	c #465136",
"0 	c #373E27",
"a 	c #40492E",
"b 	c #4C5537",
"c 	c #414B30",
"d 	c #4B5639",
"e 	c #4B5738",
"f 	c #485338",
"g 	c #3D482F",
"h 	c #A57611",
"i 	c #A47610",
"j 	c #9E7110",
"k 	c #AB7B12",
"l 	c #B78315",
"m 	c #B78413",
"n 	c #B28013",
"o 	c #A37512",
"p 	c #9E6F11",
"q 	c #65322C",
"r 	c #6C362C",
"s 	c #6E3A2B",
"t 	c #6C352B",
"u 	c #622C2C",
"v 	c #682F30",
"w 	c #622931",
"x 	c #551D1E",
"y 	c #5B221D",
"z 	c #642620",
"A 	c #642321",
"B 	c #622120",
"C 	c #612120",
"D 	c #612122",
"E 	c #5D2022",
"F 	c #622221",
"G 	c #5C1F22",
"H 	c #551E1E",
"I 	c #BE8814",
"J 	c #BD8716",
"K 	c #B27F13",
"L 	c #92670E",
"M 	c #5C2927",
"N 	c #622E2C",
"O 	c #6E372E",
"P 	c #703531",
"Q 	c #75423F",
"R 	c #682E2F",
"S 	c #5B2732",
"T 	c #4C1722",
"U 	c #531A1F",
"V 	c #5A1D22",
"W 	c #591F1F",
"X 	c #581F1F",
"Y 	c #581D21",
"Z 	c #5A2020",
"` 	c #5C1D22",
" .	c #5C1F20",
"..	c #602021",
"+.	c #622121",
"@.	c #621F23",
"#.	c #521A20",
"$.	c #4B191F",
"%.	c #AD7E13",
"&.	c #9D7011",
"*.	c #93680D",
"=.	c #8C660E",
"-.	c #54232C",
";.	c #59242A",
">.	c #59242D",
",.	c #642F2D",
"'.	c #78443F",
").	c #906265",
"!.	c #744042",
"~.	c #672E2C",
"{.	c #5A2430",
"].	c #52222B",
"^.	c #561E1E",
"/.	c #5E221D",
"(.	c #682520",
"_.	c #65261F",
":.	c #652420",
"<.	c #68261F",
"[.	c #6A2A1E",
"}.	c #6D2821",
"|.	c #6D2621",
"1.	c #6A2422",
"2.	c #682322",
"3.	c #62231E",
"4.	c #551F1C",
"5.	c #4D1A1C",
"6.	c #A97A11",
"7.	c #AF7E15",
"8.	c #A17612",
"9.	c #8F670E",
"0.	c #7B570A",
"a.	c #55212D",
"b.	c #56222A",
"c.	c #713A32",
"d.	c #825255",
"e.	c #6C3435",
"f.	c #4F2028",
"g.	c #51212A",
"h.	c #68251F",
"i.	c #672321",
"j.	c #5E221F",
"k.	c #5E1F21",
"l.	c #5F241D",
"m.	c #61231D",
"n.	c #642220",
"o.	c #63221F",
"p.	c #5A1E1F",
"q.	c #4E1B1C",
"r.	c #45181D",
"s.	c #43171E",
"t.	c #A77813",
"u.	c #976C10",
"v.	c #835E0B",
"w.	c #765309",
"x.	c #622E23",
"y.	c #642C27",
"z.	c #763D2B",
"A.	c #7B462D",
"B.	c #763A2F",
"C.	c #6C3235",
"D.	c #6F3330",
"E.	c #6F3130",
"F.	c #602B30",
"G.	c #592524",
"H.	c #501F29",
"I.	c #59282A",
"J.	c #672022",
"K.	c #5D211E",
"L.	c #6A271F",
"M.	c #6B2820",
"N.	c #6B2721",
"O.	c #672520",
"P.	c #522019",
"Q.	c #5F232B",
"R.	c #9B7010",
"S.	c #9F7210",
"T.	c #8C650D",
"U.	c #805A0B",
"V.	c #5B2627",
"W.	c #5A2626",
"X.	c #915238",
"Y.	c #96563B",
"Z.	c #934A3E",
"`.	c #7F3C36",
" +	c #834237",
".+	c #7E3C32",
"++	c #6C3431",
"@+	c #562325",
"#+	c #5E2528",
"$+	c #56272B",
"%+	c #782B24",
"&+	c #792B25",
"*+	c #7A2B27",
"=+	c #7E2E27",
"-+	c #7F2F27",
";+	c #802F26",
">+	c #853129",
",+	c #7F2C26",
"'+	c #752925",
")+	c #55201A",
"!+	c #491C19",
"~+	c #6D2F2C",
"{+	c #B17E15",
"]+	c #AB7B14",
"^+	c #99700E",
"/+	c #835F0C",
"(+	c #622A25",
"_+	c #632B26",
":+	c #A96142",
"<+	c #AF5C47",
"[+	c #A95645",
"}+	c #A85548",
"|+	c #AB5744",
"1+	c #99503E",
"2+	c #843F3A",
"3+	c #72362A",
"4+	c #B0584A",
"5+	c #994F3E",
"6+	c #8A443C",
"7+	c #8F362C",
"8+	c #933A2B",
"9+	c #853725",
"0+	c #5A241B",
"a+	c #4F1D1B",
"b+	c #914730",
"c+	c #924635",
"d+	c #AC7C12",
"e+	c #9D7310",
"f+	c #8E650C",
"g+	c #725108",
"h+	c #79382C",
"i+	c #48191D",
"j+	c #9B4F3E",
"k+	c #A85545",
"l+	c #A44F42",
"m+	c #A85449",
"n+	c #9C4C41",
"o+	c #8F4440",
"p+	c #78392F",
"q+	c #8D4536",
"r+	c #A55344",
"s+	c #9C4B41",
"t+	c #8B443B",
"u+	c #92342E",
"v+	c #A33F30",
"w+	c #762526",
"x+	c #61211F",
"y+	c #56221A",
"z+	c #4E1D1A",
"A+	c #994635",
"B+	c #A04F3B",
"C+	c #C38C17",
"D+	c #B08015",
"E+	c #9C710F",
"F+	c #84600C",
"G+	c #8D4332",
"H+	c #4D1A1E",
"I+	c #A1533F",
"J+	c #AF5849",
"K+	c #A65247",
"L+	c #AB574A",
"M+	c #9F4C40",
"N+	c #8D423D",
"O+	c #8C443B",
"P+	c #7A3B2E",
"Q+	c #934C35",
"R+	c #A0523F",
"S+	c #A65442",
"T+	c #9E4C40",
"U+	c #9E4B40",
"V+	c #8B453D",
"W+	c #854038",
"X+	c #A24431",
"Y+	c #883726",
"Z+	c #642320",
"`+	c #531E1B",
" @	c #A35638",
".@	c #9D4C39",
"+@	c #A14C38",
"@@	c #B07F13",
"#@	c #9C7111",
"$@	c #88620D",
"%@	c #7A570A",
"&@	c #903F37",
"*@	c #541D1E",
"=@	c #702923",
"-@	c #A85B40",
";@	c #B25F46",
">@	c #AA534A",
",@	c #B35946",
"'@	c #8D463E",
")@	c #894336",
"!@	c #793E28",
"~@	c #8A4E32",
"{@	c #A25441",
"]@	c #A65343",
"^@	c #A65246",
"/@	c #854338",
"(@	c #804036",
"_@	c #7C3D31",
":@	c #6C2D1D",
"<@	c #5C211D",
"[@	c #99493B",
"}@	c #A3503C",
"|@	c #A14C3A",
"1@	c #B98415",
"2@	c #A67812",
"3@	c #966B0F",
"4@	c #855D0D",
"5@	c #4D1B1B",
"6@	c #5B231C",
"7@	c #A0533E",
"8@	c #AE6045",
"9@	c #A35240",
"0@	c #AD5744",
"a@	c #A14F41",
"b@	c #89443B",
"c@	c #87423A",
"d@	c #78402A",
"e@	c #854035",
"f@	c #944A3C",
"g@	c #AC5647",
"h@	c #AB5644",
"i@	c #9A4B3C",
"j@	c #7D3B32",
"k@	c #783830",
"l@	c #73372D",
"m@	c #6B2720",
"n@	c #A04B3B",
"o@	c #A6503D",
"p@	c #AD5A3E",
"q@	c #92680D",
"r@	c #825E0B",
"s@	c #7C5708",
"t@	c #53201B",
"u@	c #5B221C",
"v@	c #833624",
"w@	c #9B4E3E",
"x@	c #A95E43",
"y@	c #9A503D",
"z@	c #A35040",
"A@	c #9A4A41",
"B@	c #894339",
"C@	c #874338",
"D@	c #6A251F",
"E@	c #894435",
"F@	c #9E513E",
"G@	c #A65A3F",
"H@	c #974D3C",
"I@	c #99493D",
"J@	c #853D37",
"K@	c #71332E",
"L@	c #70302D",
"M@	c #75352C",
"N@	c #59211C",
"O@	c #A34B3D",
"P@	c #AB5043",
"Q@	c #A6503F",
"R@	c #A77712",
"S@	c #986A10",
"T@	c #88600D",
"U@	c #7C580B",
"V@	c #562418",
"W@	c #5E261A",
"X@	c #7C2F25",
"Y@	c #672320",
"Z@	c #8C3629",
"`@	c #A55A3F",
" #	c #A65A41",
".#	c #A85D43",
"+#	c #964E3C",
"@#	c #944739",
"##	c #803A2F",
"$#	c #793B2B",
"%#	c #6C3030",
"&#	c #71352C",
"*#	c #9A443A",
"=#	c #A2473C",
"-#	c #A1453D",
";#	c #AA4E3D",
">#	c #7A560A",
",#	c #714F09",
"'#	c #6F5008",
")#	c #57211A",
"!#	c #803325",
"~#	c #9B4F3D",
"{#	c #A75D41",
"]#	c #A05242",
"^#	c #9A473F",
"/#	c #9D503E",
"(#	c #60201E",
"_#	c #7E2E26",
":#	c #AA3D37",
"<#	c #9A4D3E",
"[#	c #984C3E",
"}#	c #A25940",
"|#	c #8D4637",
"1#	c #7A362E",
"2#	c #73312C",
"3#	c #6B2E2A",
"4#	c #692F28",
"5#	c #954439",
"6#	c #A44E3B",
"7#	c #A1483E",
"8#	c #A94D3E",
"9#	c #B05341",
"0#	c #B35547",
"a#	c #4F1A1D",
"b#	c #541D1C",
"c#	c #591F1E",
"d#	c #762924",
"e#	c #9C523E",
"f#	c #A35247",
"g#	c #9B4B3E",
"h#	c #9E4D41",
"i#	c #8E463E",
"j#	c #93463B",
"k#	c #833225",
"l#	c #AB4335",
"m#	c #A43D35",
"n#	c #974A3D",
"o#	c #9E563C",
"p#	c #874232",
"q#	c #7A3A32",
"r#	c #6D332A",
"s#	c #672D27",
"t#	c #672D29",
"u#	c #9A483B",
"v#	c #94443A",
"w#	c #8D3F35",
"x#	c #8F4036",
"y#	c #8E4338",
"z#	c #934539",
"A#	c #A44B3C",
"B#	c #521B1F",
"C#	c #61251C",
"D#	c #9B5838",
"E#	c #9B4E3F",
"F#	c #9D4D40",
"G#	c #94463E",
"H#	c #8F463C",
"I#	c #944A3F",
"J#	c #60221E",
"K#	c #802D28",
"L#	c #AC4534",
"M#	c #AB4137",
"N#	c #A93D33",
"O#	c #964C3A",
"P#	c #8F4A37",
"Q#	c #834130",
"R#	c #6B3229",
"S#	c #673126",
"T#	c #673025",
"U#	c #632D23",
"V#	c #934337",
"W#	c #994436",
"X#	c #8F4035",
"Y#	c #8D3E36",
"Z#	c #923F3B",
"`#	c #4C1820",
" $	c #571C1E",
".$	c #5D1F1F",
"+$	c #9B5039",
"@$	c #9C4F40",
"#$	c #984F3F",
"$$	c #9C503D",
"%$	c #954741",
"&$	c #974D3E",
"*$	c #99503D",
"=$	c #571F1D",
"-$	c #9E3B30",
";$	c #A23C32",
">$	c #9B3730",
",$	c #8D312C",
"'$	c #8D4935",
")$	c #7B412B",
"!$	c #6D3129",
"~$	c #662F25",
"{$	c #652D24",
"]$	c #632D21",
"^$	c #8A3D33",
"/$	c #8C3C35",
"($	c #843934",
"_$	c #813532",
":$	c #843A34",
"<$	c #914238",
"[$	c #481820",
"}$	c #501B1E",
"|$	c #581E1E",
"1$	c #994A3C",
"2$	c #96493F",
"3$	c #9E543D",
"4$	c #92493A",
"5$	c #964B3F",
"6$	c #6E2621",
"7$	c #96362E",
"8$	c #99382D",
"9$	c #8D322C",
"0$	c #843127",
"a$	c #894D2F",
"b$	c #763C28",
"c$	c #6B3224",
"d$	c #632D24",
"e$	c #642E22",
"f$	c #79362D",
"g$	c #712D2B",
"h$	c #7B382E",
"i$	c #7D382F",
"j$	c #7A372D",
"k$	c #7C372E",
"l$	c #8E3C32",
"m$	c #421B17",
"n$	c #4C1A1D",
"o$	c #8F4A38",
"p$	c #8D453C",
"q$	c #984D3A",
"r$	c #96493B",
"s$	c #8D4539",
"t$	c #96503B",
"u$	c #8F4839",
"v$	c #4E1E1A",
"w$	c #5E211E",
"x$	c #792B24",
"y$	c #853127",
"z$	c #7B2925",
"A$	c #742624",
"B$	c #6D2322",
"C$	c #73342C",
"D$	c #682E25",
"E$	c #5F2B21",
"F$	c #602828",
"G$	c #612C27",
"H$	c #5C252A",
"I$	c #6E2C2B",
"J$	c #702D2A",
"K$	c #723331",
"L$	c #7B413E",
"M$	c #7F3631",
"N$	c #42181D",
"O$	c #4C181E",
"P$	c #4F1C1C",
"Q$	c #581F1E",
"R$	c #7A432D",
"S$	c #7D3E33",
"T$	c #914B3C",
"U$	c #904B3C",
"V$	c #864239",
"W$	c #924F37",
"X$	c #843F35",
"Y$	c #4D1B1E",
"Z$	c #692820",
"`$	c #632022",
" %	c #5B1E21",
".%	c #5A1D20",
"+%	c #612F22",
"@%	c #54291D",
"#%	c #521F31",
"$%	c #52222F",
"%%	c #5A242E",
"&%	c #632D32",
"*%	c #815255",
"=%	c #8F6267",
"-%	c #7A3F40",
";%	c #451720",
">%	c #4D1820",
",%	c #501920",
"'%	c #70392D",
")%	c #733632",
"!%	c #823F35",
"~%	c #854736",
"{%	c #823E37",
"]%	c #8C4837",
"^%	c #7D3C32",
"/%	c #40171E",
"(%	c #481A1C",
"_%	c #561C22",
":%	c #5A1B24",
"<%	c #561E22",
"[%	c #591D21",
"}%	c #551D20",
"|%	c #561E20",
"1%	c #541B20",
"2%	c #552B1B",
"3%	c #512321",
"4%	c #55232D",
"5%	c #59232D",
"6%	c #662E35",
"7%	c #743E41",
"8%	c #722D2C",
"9%	c #4F191F",
"0%	c #591B1F",
"a%	c #621F21",
"b%	c #6C312E",
"c%	c #6F3633",
"d%	c #7B4343",
"e%	c #7D3834",
"f%	c #7A3737",
"g%	c #874538",
"h%	c #753732",
"i%	c #3E181B",
"j%	c #451820",
"k%	c #531F1C",
"l%	c #5C2021",
"m%	c #5B1E1F",
"n%	c #512427",
"o%	c #632D30",
"p%	c #6E3D3C",
"q%	c #652A2A",
"r%	c #6A2D2C",
"s%	c #6B2A2C",
"t%	c #69312A",
"u%	c #652320",
"v%	c #672B25",
"w%	c #845552",
"x%	c #946464",
"y%	c #7F4940",
"z%	c #7B3D35",
"A%	c #783F3D",
"B%	c #8D5850",
"C%	c #743935",
"D%	c #3F1919",
"E%	c #46191E",
"F%	c #541D1F",
"G%	c #581E1F",
"H%	c #54211C",
"I%	c #48181E",
"J%	c #5D2C21",
"K%	c #622F2F",
"L%	c #7C5054",
"M%	c #8C6161",
"N%	c #67282A",
"O%	c #692C29",
"P%	c #6F4028",
"Q%	c #551B1F",
"R%	c #611E22",
"S%	c #6B2322",
"T%	c #643037",
"U%	c #7C473F",
"V%	c #7A3931",
"W%	c #7C4135",
"X%	c #885450",
"Y%	c #92665E",
"Z%	c #7B483A",
"`%	c #47181D",
" &	c #4F1B1D",
".&	c #5D251B",
"+&	c #65291C",
"@&	c #63241F",
"#&	c #5E211F",
"$&	c #531C1D",
"%&	c #4B191D",
"&&	c #5F2727",
"*&	c #612726",
"=&	c #632F2D",
"-&	c #703D3E",
";&	c #672D2B",
">&	c #642A29",
",&	c #451A1A",
"'&	c #63261B",
")&	c #6E2721",
"!&	c #762B23",
"~&	c #57253A",
"{&	c #713430",
"]&	c #743731",
"^&	c #783C2F",
"/&	c #804537",
"(&	c #76412F",
"_&	c #522317",
":&	c #632020",
"<&	c #67271E",
"[&	c #65241F",
"}&	c #5E1F1F",
"|&	c #541B1E",
"1&	c #602926",
"2&	c #642929",
"3&	c #692F2A",
"4&	c #6E312A",
"5&	c #71302C",
"6&	c #682C28",
"7&	c #521C1D",
"8&	c #5B201F",
"9&	c #7F4334",
"0&	c #743F2C",
"a&	c #501D1C",
"b&	c #541F1A",
"c&	c #64261E",
"d&	c #67251E",
"e&	c #61231C",
"f&	c #682E2A",
"g&	c #72332A",
"h&	c #74302E",
"i&	c #692124",
"j&	c #772B25",
"k&	c #7A2A27",
"                                                                ",
"              . . . . . . . . .         . . . . . .             ",
"        . . . . + @ # $ % & * . . . . . . = - ; > . . .         ",
"      . . , ' ) ! ~ { ] ^ / ( _ : . < [ } | 1 2 3 4 5 .         ",
"  . . . 6 7 8 9 0 a b * c d e f g . h i j k l m n o p . . .     ",
"  . q r s t u v w x y z A B B z C D D E F G H I J K j L M . . . ",
". . N O P Q v R S T U V W X Y Z `  ...+.@.` #.$.%.&.*.=.-.;.>.. ",
". ,.,.s '.).!.~.{.].^./.(._.:.<.[.}.|.1.2.3.4.5.6.7.8.9.0.a.b.. ",
". ,.,.s c.d.e.~.{.f.g.h.i.j.k.l.m.n.o.o.C p.q.r.s.t.u.v.w.x.y.. ",
". z.z.A.B.C.D.E.F.G.H.I.J.B K.k.:.L.M.N.O. .P.$.Q.R.S.T.U.V.W.. ",
". X.X.Y.Z.`. +.+++@+#+$+%+&+*+=+-+;+>+,+'+3.)+!+~+{+]+^+/+(+_+. ",
". :+:+<+[+}+|+1+2+3+4+5+6+6+*+=+-+7+8+9+[.0+a+b+c+d+e+f+g+h+i+. ",
". j+j+k+l+m+n+o+6+p+q+r+}+s+o+t+u+v+u+w+x+y+z+A+B+C+D+E+F+G+H+. ",
". I+I+J+K+L+M+N+O+P+Q+R+S+m+T+U+V+W+X+Y+Z+`+ @.@+@@@#@$@%@&@*@. ",
". =@-@;@>@,@k+'@)@!@~@{@]@^@L+k+/@(@_@;+:@<@[@}@|@1@2@3@4@5@6@. ",
". ,+7@8@9@0@a@b@c@d@e@f@g@>@>@h@i@j@k@l@m@<@n@o@p@1 q@r@s@t@u@. ",
". v@w@x@y@z@A@B@C@D@E@F@G@;@9@H@I@J@K@L@M@N@O@P@Q@R@S@T@U@V@W@. ",
". X@w@x@y@z@A@B@C@Y@Z@`@ #7@.#+#@###$#%#&#*#=#=#-#;#>#,#'#)#l.. ",
". !#~#{#]#^#/#C@)@(#_#:#7@<#[#}#|#1#2#3#4#5#O@6#7#8#9#0#a#b#c#. ",
". d#e#R+f#g#h#i#j#_.k#l#m#<#n#o#p#q#r#s#t#u#v#w#x#y#z#A#B#p.C#. ",
". D#D#Z.E#F#G#H#I#J#K#L#M#N#O#P#Q#R#S#T#U#V#W#X#w#Y#z#Z#`# $.$. ",
". +$+$@$#$$$%$&$*$=$'+-$;$>$,$'$)$!$~${$]$^$/$($_$:$X#<$[$}$|$. ",
". 1$1$2$w@3$4$+#5$^.6$7$8$9$0$a$b$c$d$e$f$g$h$i$j$k$l$m$n$}$W . ",
". o$o$p$q$r$s$t$u$v$w$x$y$z$A$B$C$D$E$F$G$H$I$J$K$L$M$N$O$P$Q$. ",
". R$R$S$T$U$V$W$X$N$Y$B Z$`$G  %.%+%@%@%#%$%%%&%*%=%-%;%>%,%|$. ",
". '%'%)%!%~%{%]%^%/%(%_%:%<%[%}%|%1%2%3%4%$%5%>.6%7%8%s 9%0%a%. ",
". b%c%d%e%S$f%g%h%i%j%k%l%k.k.m%.%*@`#g.n%o%p%q%r%r%s%t%x J#u%. ",
". v%w%x%y%z%A%B%C%D%E%F%G%H%x 4.4.U I%J%K%L%M%p%N%O%P%O$Q%R%S%. ",
". 6$T%U%V%W%X%Y%Z%`% &.&+&@&#&(##&$&%&&&*&=&-&;&>&O%,&`+'&)&!&. ",
". . ~&{&]&^&/&Z%(&a+_&#&Y@Z+:&<&[&}&|&1&G$2&3&4&5&6&7&|$8&i.!&. ",
"  . ~&{&]&^&9&0&a&a+b&` <.c&@&O.d&e&c#$&$&f&f&4&g&h&` i&j&k&. . ",
"  . . . . . . . . . . . . . . . . . . . . . . . . . . . . . .   "};
