/* XPM */
static char * fuel_arrow_xpm[] = {
"32 96 47 1",
" 	c None",
".	c #BF0041",
"+	c #BE004B",
"@	c #BB1367",
"#	c #BA1A6E",
"$	c #BA1B72",
"%	c #AD4CB2",
"&	c #A699DD",
"*	c #C0A6E4",
"=	c #AE43AB",
"-	c #E7BFF4",
";	c #AB55BD",
">	c #A594DE",
",	c #E5C4FF",
"'	c #BFA6E6",
")	c #AA55BF",
"!	c #BB0F65",
"~	c #BE004D",
"{	c #AC4DB7",
"]	c #A68FDB",
"^	c #BEA6E8",
"/	c #B8227B",
"(	c #D6B4F2",
"_	c #B91D77",
":	c #B92076",
"<	c #C6A8E6",
"[	c #BD005A",
"}	c #A698DD",
"|	c #C4A7E7",
"1	c #AE44AD",
"2	c #AFA3E8",
"3	c #CDAFF2",
"4	c #D2B1F0",
"5	c #BB0C65",
"6	c #AD46B1",
"7	c #A498E0",
"8	c #A87FD5",
"9	c #B03EA6",
"0	c #A789D8",
"a	c #CAAAE6",
"b	c #A876D1",
"c	c #C5A7E4",
"d	c #AE48AF",
"e	c #D8B3ED",
"f	c #AE46AE",
"g	c #AA79CD",
"h	c #BC085E",
"                                ",
"                                ",
"                                ",
"                                ",
"              ...               ",
"           .........            ",
"         .............          ",
"        .....+@#@+.....         ",
"       ....+$%&*&%$+....        ",
"       ...+=&-...-&=+...        ",
"      ....$&.......&$....       ",
"      ...+%-..;>;..-%+...       ",
"      ...@&..;,.,;..&@...       ",
"     ....$*..>...>..*$....      ",
"     ....$'..),.,)..'$....      ",
"     ....$'..!)>)!..'$....      ",
"     ....$'...~!~...'$....      ",
"     ....$'...~!~...'$....      ",
"     ....$'..~{]{~..'$....      ",
"     ....$'..$^.^$..'$....      ",
"     ....$'../(.(/..'$....      ",
"      ...$'../(.(/..'$...       ",
"      ...$'../(.(/..'$...       ",
"      ...$*../(.(/..*$...       ",
"      ...@&.._(.(_..&@...       ",
"      ...+%-.!(.(!.-%+...       ",
"      ....:<.[(.([.<:....       ",
"      ....$'.[(.([.'$....       ",
"      ....$'.[(.([.'$....       ",
"      ....$'..^.^..'$....       ",
"      ....$'..{]{..'$....       ",
"      ....$'..~!~..'$....       ",
"       ...$'.......'$...        ",
"       ...$'.......'$...        ",
"       ...$'.......'$...        ",
"       ...$'.......'$...        ",
"       ...$'..~!~..'$...        ",
"       ...$'..{]{..'$...        ",
"       ...$'..^.^..'$...        ",
"       ...$'.[(.([.'$...        ",
"       ...$'.[(.([.'$...        ",
"       ...$'.[(.([.'$...        ",
"       ...$'.[(.([.'$...        ",
"        ..$'..^.^..'$..         ",
"        ..$'..{]{..'$..         ",
"        ..$*..~!~..*$..         ",
"        ..@}.......}@..         ",
"        ..+%-.....-%+..         ",
"        ...:|..!..|:...         ",
"        ...$'.1]1.'$...         ",
"        ...$'.2.2.'$...         ",
"        ...$'.3.3.'$...         ",
"        ...$'.4.4.'$...         ",
"        ...$'.3.3.'$...         ",
"        ...$'.2.2.'$...         ",
"         ..$'.1]1.'$..          ",
"         ..$'..5..'$..          ",
"         ..$'.....'$..          ",
"         ..$'..5..'$..          ",
"         ..$'.1]1.'$..          ",
"         ..$'.2.2.'$..          ",
"         ..$'.3.3.'$..          ",
"         ..$'.3.3.'$..          ",
"         ..$'.2.2.'$..          ",
"         ..$'.676.'$..          ",
"         ..$'.1]1.'$..          ",
"          .$'.8.8.'$.           ",
"          .$*.909.*$.           ",
"          .@}..+..}@.           ",
"          .+%-...-%+.           ",
"          ..:a.b.a:..           ",
"          ..$|...|$..           ",
"          ..$c.b.c$..           ",
"          ..$'...'$..           ",
"          ..$'...'$..           ",
"          ..$'...'$..           ",
"          ..$'...'$..           ",
"           .$'...'$.            ",
"           .$'...'$.            ",
"           .$*...*$.            ",
"           .@}...}@.            ",
"           .+de.ed+.            ",
"           ..[fgf[..            ",
"            ..+h+..             ",
"            .......             ",
"              ...               ",
"                                ",
"                                ",
"                                ",
"                                ",
"                                ",
"                                ",
"                                ",
"                                ",
"                                ",
"                                "};
