/* XPM */
static char * menu_cursor_xpm[] = {
"30 30 8 1",
" 	c None",
".	c #29580E",
"+	c #29600E",
"@	c #29850E",
"#	c #2E780E",
"$	c #293E0E",
"%	c #29460E",
"&	c #296C0E",
"                              ",
"                              ",
"                              ",
"                              ",
"                              ",
"                              ",
"                              ",
"                              ",
"  .++++++++++++++++.          ",
"  .++++++++++++++++.          ",
"  .+++++@@##+++++++.          ",
"   $$%@@@@@@##%%$$$           ",
"   $$@@&&&&@@##%$$$           ",
"   $$@@&&&&@@@#%$$$           ",
"   $$@@@@@@@@@@&@@@@@@@@&     ",
"   $$@@@&@&@&@#&&&&&&&&&&     ",
"   $$@@&@&@@@@#%$$$           ",
"   $$#@@@@@@@##%$$$           ",
"   $$%###@@###%%$$$           ",
"  .+++++####+++++++.          ",
"  .++++++++++++++++.          ",
"  .++++++++++++++++.          ",
"                              ",
"                              ",
"                              ",
"                              ",
"                              ",
"                              ",
"                              ",
"                              "};
