/* XPM */
static char * rambo_health_xpm[] = {
"23 37 357 2",
"  	c None",
". 	c #502727",
"+ 	c #A83230",
"@ 	c #8F1206",
"# 	c #951F1B",
"$ 	c #92201F",
"% 	c #A63630",
"& 	c #A7332E",
"* 	c #8C1500",
"= 	c #91211D",
"- 	c #92201D",
"; 	c #A73330",
"> 	c #931305",
", 	c #951F19",
"' 	c #160201",
") 	c #5F3D3B",
"! 	c #A8322C",
"~ 	c #A93130",
"{ 	c #90231E",
"] 	c #B33B2C",
"^ 	c #711307",
"/ 	c #AB5546",
"( 	c #3E0607",
"_ 	c #400605",
": 	c #5C0104",
"< 	c #922220",
"[ 	c #0D0000",
"} 	c #A5402E",
"| 	c #0A0000",
"1 	c #740F03",
"2 	c #400604",
"3 	c #2B0504",
"4 	c #2B0303",
"5 	c #5D0207",
"6 	c #A23230",
"7 	c #941E1C",
"8 	c #7A1509",
"9 	c #AB5641",
"0 	c #81150A",
"a 	c #750E05",
"b 	c #2C0402",
"c 	c #2C0404",
"d 	c #7A0C0A",
"e 	c #5F0204",
"f 	c #AE3B28",
"g 	c #B23924",
"h 	c #B13A24",
"i 	c #AB563F",
"j 	c #B33620",
"k 	c #C64B34",
"l 	c #C64932",
"m 	c #90171C",
"n 	c #7C0B0B",
"o 	c #5F0202",
"p 	c #B23926",
"q 	c #C44B36",
"r 	c #C04835",
"s 	c #B43524",
"t 	c #BD4D3D",
"u 	c #48140E",
"v 	c #49120D",
"w 	c #D44431",
"x 	c #780A0B",
"y 	c #7A0C0B",
"z 	c #8F1718",
"A 	c #7A0D08",
"B 	c #600104",
"C 	c #C14D3D",
"D 	c #870E00",
"E 	c #931703",
"F 	c #B33622",
"G 	c #BC513F",
"H 	c #2C0905",
"I 	c #45140B",
"J 	c #CB4E3A",
"K 	c #A8322E",
"L 	c #911618",
"M 	c #7C0C0A",
"N 	c #5D0205",
"O 	c #C44E3F",
"P 	c #8A0C00",
"Q 	c #8F1505",
"R 	c #A02714",
"S 	c #BB513F",
"T 	c #48170E",
"U 	c #B43824",
"V 	c #A9322C",
"W 	c #A9312E",
"X 	c #7D0B0B",
"Y 	c #5C0305",
"Z 	c #C44B34",
"` 	c #C94C35",
" .	c #C64837",
"..	c #C34A37",
"+.	c #9C2E1C",
"@.	c #C44731",
"#.	c #C34D3E",
"$.	c #8E1718",
"%.	c #911709",
"&.	c #C54937",
"*.	c #A42B16",
"=.	c #A22A17",
"-.	c #A12916",
";.	c #A22A19",
">.	c #9A2818",
",.	c #993025",
"'.	c #86231B",
").	c #81261B",
"!.	c #580308",
"~.	c #8E1309",
"{.	c #8E1605",
"].	c #5D0400",
"^.	c #AF3B24",
"/.	c #C34A35",
"(.	c #C54935",
"_.	c #B23622",
":.	c #A32B18",
"<.	c #9E2917",
"[.	c #9C2618",
"}.	c #AD3427",
"|.	c #B0322B",
"1.	c #80150B",
"2.	c #892317",
"3.	c #400809",
"4.	c #901606",
"5.	c #901404",
"6.	c #5D0304",
"7.	c #8E1406",
"8.	c #A52917",
"9.	c #9E2819",
"0.	c #AC351F",
"a.	c #8C1403",
"b.	c #9B2717",
"c.	c #AF3226",
"d.	c #B03327",
"e.	c #7F160B",
"f.	c #7D170B",
"g.	c #440307",
"h.	c #520002",
"i.	c #590306",
"j.	c #7D0C03",
"k.	c #C8483A",
"l.	c #AF3726",
"m.	c #AE3925",
"n.	c #A42C19",
"o.	c #9D2816",
"p.	c #9E2A1A",
"q.	c #9B2718",
"r.	c #81110B",
"s.	c #80150D",
"t.	c #500200",
"u.	c #B93030",
"v.	c #7B0B07",
"w.	c #800B01",
"x.	c #9A1C17",
"y.	c #870800",
"z.	c #A02815",
"A.	c #A2301F",
"B.	c #9F2A18",
"C.	c #9B2815",
"D.	c #831408",
"E.	c #811508",
"F.	c #83170A",
"G.	c #710A03",
"H.	c #500000",
"I.	c #4B0301",
"J.	c #160000",
"K.	c #BD2927",
"L.	c #9D1D12",
"M.	c #911505",
"N.	c #B23828",
"O.	c #B4422F",
"P.	c #B43D27",
"Q.	c #A02C1C",
"R.	c #801105",
"S.	c #5F0100",
"T.	c #8D1208",
"U.	c #6D0A05",
"V.	c #4C0201",
"W.	c #4B0100",
"X.	c #770D09",
"Y.	c #961B13",
"Z.	c #9A150C",
"`.	c #B82A24",
" +	c #991508",
".+	c #820F02",
"++	c #6F140B",
"@+	c #AF3A26",
"#+	c #A62D18",
"$+	c #80140F",
"%+	c #851507",
"&+	c #911306",
"*+	c #680C07",
"=+	c #4B0203",
"-+	c #683C3D",
";+	c #4A0001",
">+	c #750D0A",
",+	c #A1170C",
"'+	c #931307",
")+	c #BA2F2A",
"!+	c #7F140C",
"~+	c #5C0203",
"{+	c #AB3C2A",
"]+	c #A42E1F",
"^+	c #A02C1D",
"/+	c #7F150F",
"(+	c #7D1511",
"_+	c #600100",
":+	c #911304",
"<+	c #6C0B04",
"[+	c #4B0205",
"}+	c #390100",
"|+	c #5A0407",
"1+	c #B92A24",
"2+	c #A11911",
"3+	c #7B0B05",
"4+	c #901306",
"5+	c #7E0A03",
"6+	c #780C09",
"7+	c #5C0201",
"8+	c #941E1A",
"9+	c #932015",
"0+	c #5E0200",
"a+	c #630000",
"b+	c #A11A0E",
"c+	c #6F0904",
"d+	c #6D0A04",
"e+	c #4C0203",
"f+	c #390200",
"g+	c #590208",
"h+	c #9D1B0D",
"i+	c #7C0B03",
"j+	c #5E0000",
"k+	c #750C0E",
"l+	c #5B0204",
"m+	c #660607",
"n+	c #8E1404",
"o+	c #A1160E",
"p+	c #9F1A10",
"q+	c #380100",
"r+	c #5D0003",
"s+	c #981D13",
"t+	c #9D1E13",
"u+	c #7C0B05",
"v+	c #790C05",
"w+	c #BE2825",
"x+	c #5B0206",
"y+	c #981D15",
"z+	c #9F1A11",
"A+	c #BA2B24",
"B+	c #3C0200",
"C+	c #7E0A05",
"D+	c #9C1D12",
"E+	c #7B0C03",
"F+	c #A11913",
"G+	c #A11A10",
"H+	c #5D0000",
"I+	c #971D18",
"J+	c #9F1C11",
"K+	c #8D0F02",
"L+	c #8D1502",
"M+	c #952114",
"N+	c #6D0800",
"O+	c #6C0904",
"P+	c #5A201F",
"Q+	c #6D0C03",
"R+	c #9C1D14",
"S+	c #9E1E13",
"T+	c #BF292A",
"U+	c #A31811",
"V+	c #7C0C00",
"W+	c #5E0101",
"X+	c #941F17",
"Y+	c #9C1E11",
"Z+	c #901307",
"`+	c #8E0E03",
" @	c #BC2E2C",
".@	c #8F190D",
"+@	c #B92A2B",
"@@	c #BA2A29",
"#@	c #4B0004",
"$@	c #6D0B06",
"%@	c #8E1407",
"&@	c #7B0E05",
"*@	c #A51610",
"=@	c #A01B11",
"-@	c #610000",
";@	c #640000",
">@	c #A51810",
",@	c #BE2C27",
"'@	c #C73839",
")@	c #C02727",
"!@	c #390301",
"~@	c #3C0002",
"{@	c #4C0000",
"]@	c #3B0006",
"^@	c #700A06",
"/@	c #6C0A05",
"(@	c #3A0001",
"_@	c #BF2A2B",
":@	c #BA2B25",
"<@	c #BD2829",
"[@	c #9F1B14",
"}@	c #B42F28",
"|@	c #B42B2A",
"1@	c #59060A",
"2@	c #420E0A",
"3@	c #3C0300",
"4@	c #4D0300",
"5@	c #BC2929",
"6@	c #6F0905",
"7@	c #4C0105",
"8@	c #4D0302",
"9@	c #3B0000",
"0@	c #410000",
"a@	c #B72C25",
"b@	c #9F1B0E",
"c@	c #911407",
"d@	c #3F060C",
"e@	c #6C0903",
"f@	c #790C03",
"g@	c #9E1F18",
"h@	c #921F16",
"i@	c #490003",
"j@	c #3C0000",
"k@	c #BB2923",
"l@	c #4D0503",
"m@	c #4C0402",
"n@	c #440808",
"o@	c #9E1910",
"p@	c #7B0C02",
"q@	c #9C1C11",
"r@	c #9B1B0D",
"s@	c #83190B",
"t@	c #4D0101",
"u@	c #440603",
"v@	c #480306",
"w@	c #7A0B02",
"x@	c #8D1306",
"y@	c #9C1F15",
"z@	c #8A150B",
"A@	c #4D0100",
"B@	c #490303",
"C@	c #46030C",
"D@	c #8D1407",
"E@	c #9D1A0F",
"F@	c #470A0F",
"G@	c #8A1609",
"H@	c #8E1508",
"I@	c #53060E",
"J@	c #690B07",
"K@	c #700A00",
"L@	c #490208",
"M@	c #120000",
"N@	c #530000",
"O@	c #4B0600",
"P@	c #531112",
"    . . . . .                                 ",
"  . . + @ # . .                               ",
"  . $ % & * = . .   . . . .                   ",
"  . - - ; & > , . . . ' ) .                   ",
"  . - - - & ! ~ { ] . ^ / . . .               ",
"  . . . $ ( _ : < . [ } / . | .               ",
"    . 1 2 3 4 5 6 7 . 8 9 . 0 . . .           ",
"    . a b c d e e f g h i . j k l . .         ",
"    . a m n n o e f p q r s t u v w .         ",
"    . . x y z A B B C D E F G H I J .         ",
"      . K L z M N e O P Q R S H T U .         ",
"      . V W X n Y Z `  ...p +.@.#.. . . .     ",
"      . V W $.n Y %.&.*.=.g -.;.>.,.'.).. .   ",
"    . . !.~.{.].^./.(._.h :.:.<.[.}.|.1.2..   ",
"  . . 3.!.4.5.6.7.8.9.0.h :.a.b.c.d.d.e.f..   ",
"  . g.h.i.j.7.6.k.l.m.=.=.n.o.p.q.>.r.s.t..   ",
". . i.i.u.v.w.x.y.z.A.B.:.=.C.D.E.F.G.H.I..   ",
". J.i.i.K.L.L.M.N.O.P.:.:.Q.R.1.S.T.U.V.V.. . ",
". W.X.Y.Z.`. +.+++@+#+:.Q.0 $+S.%+&+U.*+=+-+. ",
". ;+>+,+'+)+M.!+~+{+A.]+^+/+(+_+:+&+U.<+=+[+. ",
". }+|+1+2+3+4+5+: 6+7+8+9+0+a+4+b+'+c+d+V.e+. ",
". f+g+h+L.3+@ i+j+k+7+l+m+n+5.4+o+p+c+d+V.e+. ",
". q+r+s+t+u+u+v+w+j+x+y+z+5.5.&+A+p+c+d+V.e+. ",
". B+d+C+D+L.E+E+F+G+H+I+J+4+K+K.L+M+N+O+V.e+. ",
". P+Q+R+S+L.E+T+U+V+W+X+Y+Z+`+K. @.@+@@@V.e+. ",
". . #@$@%@&@E+K.K.*@=@-@;@>@,@'@)@!@~@{@V.e+. ",
"  . ]@^@/@(@(@_@:@<@[@}@|@1@2@3@4@5@d+6@V.e+. ",
"  . . 7@/@n+4+8@9@(@(@(@(@0@a@b@c@@@d+6@V.e+. ",
"    . d@e@5.d+b+f@u+u+g@h@i@j@k@5.F+d+l@m@. . ",
"    . . n@O+o@b@p@q@J+L.r@s@9@t@5.d+<+I.u@.   ",
"      . . v@d+w@x@5+y@L.r@n+z@t@5.<+A@B@. .   ",
"        . . C@t@$@D@4+z+E@7.5.&+V.V.t@V..     ",
"          . . F@$@d+d+G@4+5.H@d+V.V.V.. .     ",
"            . . I@e+J@U.d+K@H@d+V.L@. .       ",
"              . . . M@t@=+N@d+d+O@. .         ",
"                  . . . . t@V.P@. .           ",
"                        . . . . .             "};
