/* XPM */
static char * rambo_health_empty_xpm[] = {
"23 37 120 2",
"  	c None",
". 	c #502727",
"+ 	c #430E13",
"@ 	c #420E13",
"# 	c #430E14",
"$ 	c #3E0C12",
"% 	c #380B10",
"& 	c #3E0D12",
"* 	c #370B10",
"= 	c #350B10",
"- 	c #350B0F",
"; 	c #420D13",
"> 	c #3F0D12",
", 	c #430D13",
"' 	c #2F0A0E",
") 	c #380C10",
"! 	c #3E0C11",
"~ 	c #3E0D11",
"{ 	c #2B090C",
"] 	c #2E090E",
"^ 	c #27080B",
"/ 	c #2F090D",
"( 	c #2B090D",
"_ 	c #2F0A0D",
": 	c #360B0F",
"< 	c #2D090D",
"[ 	c #23070A",
"} 	c #370C10",
"| 	c #2D0A0D",
"1 	c #1F0609",
"2 	c #22070A",
"3 	c #23080A",
"4 	c #190508",
"5 	c #190607",
"6 	c #1A0608",
"7 	c #220709",
"8 	c #2D090C",
"9 	c #430D14",
"0 	c #1A0508",
"a 	c #120405",
"b 	c #130405",
"c 	c #170406",
"d 	c #190507",
"e 	c #350A0F",
"f 	c #120306",
"g 	c #0E0304",
"h 	c #100305",
"i 	c #170507",
"j 	c #1E0709",
"k 	c #420D14",
"l 	c #1A0507",
"m 	c #0B0204",
"n 	c #0E0204",
"o 	c #210709",
"p 	c #2E0A0D",
"q 	c #26080B",
"r 	c #1F0608",
"s 	c #100304",
"t 	c #0A0203",
"u 	c #0A0202",
"v 	c #150406",
"w 	c #1A0607",
"x 	c #1F0708",
"y 	c #420E14",
"z 	c #2F090E",
"A 	c #21060A",
"B 	c #0D0304",
"C 	c #080202",
"D 	c #070102",
"E 	c #0B0203",
"F 	c #0F0404",
"G 	c #130406",
"H 	c #170407",
"I 	c #0F0304",
"J 	c #060102",
"K 	c #040101",
"L 	c #070202",
"M 	c #0D0204",
"N 	c #080102",
"O 	c #040102",
"P 	c #020001",
"Q 	c #0B0303",
"R 	c #0E0303",
"S 	c #050101",
"T 	c #020100",
"U 	c #010000",
"V 	c #020101",
"W 	c #050102",
"X 	c #100405",
"Y 	c #1E0609",
"Z 	c #030001",
"` 	c #000000",
" .	c #010001",
"..	c #080203",
"+.	c #130305",
"@.	c #2C090D",
"#.	c #030101",
"$.	c #0C0204",
"%.	c #060202",
"&.	c #120305",
"*.	c #1F0709",
"=.	c #170506",
"-.	c #0A0303",
";.	c #060101",
">.	c #030000",
",.	c #020000",
"'.	c #0C0203",
").	c #3F0D11",
"!.	c #140406",
"~.	c #080103",
"{.	c #2D0A0C",
"].	c #140506",
"^.	c #0F0305",
"/.	c #200709",
"(.	c #2E090D",
"_.	c #20070A",
":.	c #100404",
"<.	c #150506",
"[.	c #360B10",
"}.	c #27080C",
"    . . . . .                                 ",
"  . . + @ + . .                               ",
"  . # $ % & + . .   . . . .                   ",
"  . @ * = - & @ . . . @ @ .                   ",
"  . ; ; $ - - > , @ . + , . . .               ",
"  . . . @ % ' ) @ . @ ! , . + .               ",
"    . + ~ - { - > ; . + + . @ . . .           ",
"    . ; ) ] ^ / - ~ ; ~ @ . + + @ . .         ",
"    . + & = ( ^ _ - * : > + > ) & + .         ",
"    . . , * < [ ^ { < ' = % = _ } + .         ",
"      . + ) | [ 1 2 3 ^ { < ( - & @ .         ",
"      . @ % | [ 4 5 6 1 7 [ 8 * 9 . . . .     ",
"      . @ * < 3 0 a b c d 2 { e ~ + @ + . .   ",
"    . . @ } < 3 0 f g h i j ^ ' - } ) ~ k .   ",
"  . . + & : { 2 l a m n b l o ^ { < p % ; .   ",
"  . , & - ' q r i s t u h v w x 2 [ < % + .   ",
". . y % z ^ A 0 b B C D E F G H 4 [ < } + .   ",
". @ > - ( 2 w v I E J K L t M f l 3 | % # . . ",
". + * _ q 1 H h E N O P O L Q a 0 2 ( - ~ + . ",
". ; * | [ 0 b R C S T U V W t X i Y ^ p } + . ",
". + ) | [ 6 a m J Z U `  .K ..B +.w [ @.} , . ",
". , % | 3 d a E J Z U ` U #.J $.a 6 [ < ) @ . ",
". @ ) < [ w b B ..O  .` U #.%.Q &.l [ < } @ . ",
". + ) z ^ *.=.s -.;.>.` ` ,.J '.f l [ < * + . ",
". @ ).: { 2 l !.B ~.K U U #.J m &.6 [ < ) , . ",
". . y % ' ^ *.i h E D W ,.S ..B b l 3 {.* + . ",
"  . @ & = ( 2 w ].^.E N K J t X i 1 ^ z } ; . ",
"  . . y ) ' q /.0 !.F Q C N g b 6 7 { - $ @ . ",
"    . , & - (.^ _.0 !.:.g E s H Y q _ * + . . ",
"    . . @ & : z q /.6 =.b a <.0 2 { [.& , .   ",
"      . . @ > - z }.2 1 l 0 0 _.^ _ ) @ . .   ",
"        . . @ & - _ { q 3 2 o ^ / : > ; .     ",
"          . . + > ) - _ @.{ ^ _ = ! @ . .     ",
"            . . + @ > ) ) : z - & @ . .       ",
"              . . . y @ + & } $ @ . .         ",
"                  . . . . + @ @ . .           ",
"                        . . . . .             "};
