/* XPM */
static char * tank_menu_xpm[] = {
"32 32 17 1",
" 	c None",
".	c #8C957A",
"+	c #646A50",
"@	c #76805E",
"#	c #3A3E2D",
"$	c #525A43",
"%	c #525A42",
"&	c #AE473C",
"*	c #677546",
"=	c #922D26",
"-	c #444828",
";	c #383C2D",
">	c #2F3B16",
",	c #525E23",
"'	c #404C25",
")	c #3F482F",
"!	c #444A21",
"                                ",
"                                ",
"                                ",
"                                ",
"                                ",
"                                ",
"                                ",
"                                ",
"                                ",
"                                ",
"       ......                   ",
"      ++++++++++                ",
"     @@@@@@@@@@@@+#             ",
"    @@$.$@@@$@@+@+#@%@@%@%@@%@  ",
"    @@.$.@@@$@@+@+#@%@@&%@@&%@  ",
"    @@$.$@++++++++#             ",
"     ************               ",
"   @@@@@@@@@+++++&              ",
"  @@@+@@$@$@@@+@@++&++&&&=&=    ",
" @@@$+@@@$@@@@@@@@@@@@+@+@&==   ",
" @@+++@+$@$@+@+@+@+++++++++&==  ",
" $@-;-;-;-;-;-;-;-;-;-;-;&;&&== ",
" $;>,,,>>>>,,,>>>>,,,>>>>,,,>&& ",
" ->,>$>'>>,>$>'>>,>$>'>>,>$>'>; ",
" ;,$)))$!,$)))$!,$)))$!,$)))$!- ",
" -,>)$)>!,>)$)>!,>)$)>!,>)$)>!& ",
" ;,$)))$!,$)))$!,$)))$!,$)))$!- ",
"  -,>$>!>>,>$>!>>,>$>!>>,>$>!;  ",
"   ;!!!>>>>!!!>>>>!!!>>>>!!!-   ",
"    -;-;-;-;-;-;-;-;-;-;-;-;    ",
"                                ",
"                                "};
