/* XPM */
static char * tank_gauges_full_xpm[] = {
"118 36 306 2",
"  	c None",
". 	c #323C1D",
"+ 	c #646A50",
"@ 	c #76805E",
"# 	c #8C957A",
"$ 	c #525A42",
"% 	c #525A43",
"& 	c #5F4B00",
"* 	c #715C00",
"= 	c #705C00",
"- 	c #715B00",
"; 	c #605019",
"> 	c #726834",
", 	c #736F43",
"' 	c #626242",
") 	c #757B57",
"! 	c #64694E",
"~ 	c #636142",
"{ 	c #615830",
"] 	c #715F1A",
"^ 	c #705B00",
"/ 	c #866B03",
"( 	c #4F4822",
"_ 	c #887F51",
": 	c #888053",
"< 	c #887D4D",
"[ 	c #87773E",
"} 	c #867026",
"| 	c #856B00",
"1 	c #866B00",
"2 	c #4F451B",
"3 	c #625C37",
"4 	c #736E41",
"5 	c #726A38",
"6 	c #716224",
"7 	c #605428",
"8 	c #736F42",
"9 	c #736E42",
"0 	c #60542E",
"a 	c #705A23",
"b 	c #6F4E00",
"c 	c #6E4A00",
"d 	c #6E4600",
"e 	c #5C3600",
"f 	c #5D401F",
"g 	c #60553B",
"h 	c #626047",
"i 	c #63654B",
"j 	c #626249",
"k 	c #615940",
"l 	c #5D462F",
"m 	c #592108",
"n 	c #581700",
"o 	c #571300",
"p 	c #570E00",
"q 	c #560A00",
"r 	c #460400",
"s 	c #460200",
"t 	c #450100",
"u 	c #540000",
"v 	c #60511F",
"w 	c #726B3A",
"x 	c #74734A",
"y 	c #757B56",
"z 	c #767F5D",
"A 	c #74754D",
"B 	c #726B39",
"C 	c #716222",
"D 	c #715C09",
"E 	c #5F4C08",
"F 	c #877539",
"G 	c #898157",
"H 	c #898762",
"I 	c #898359",
"J 	c #887C49",
"K 	c #877230",
"L 	c #866E20",
"M 	c #877840",
"N 	c #615831",
"O 	c #736C3C",
"P 	c #726A37",
"Q 	c #71652C",
"R 	c #715F18",
"S 	c #715F17",
"T 	c #747349",
"U 	c #74724A",
"V 	c #726C40",
"W 	c #716131",
"X 	c #6F551C",
"Y 	c #6D4600",
"Z 	c #6E4916",
"` 	c #705B36",
" .	c #73704F",
"..	c #757C5A",
"+.	c #757D5C",
"@.	c #747756",
"#.	c #716748",
"$.	c #5C3B24",
"%.	c #692300",
"&.	c #570F00",
"*.	c #560600",
"=.	c #550100",
"-.	c #60501B",
";.	c #736A38",
">.	c #747348",
",.	c #757A55",
"'.	c #737146",
").	c #726935",
"!.	c #726326",
"~.	c #877B48",
"{.	c #505134",
"].	c #8B8C6B",
"^.	c #8A8C6B",
"/.	c #887E50",
"(.	c #867333",
"_.	c #4E3F00",
":.	c #866F24",
"<.	c #605222",
"[.	c #72662F",
"}.	c #72662E",
"|.	c #716428",
"1.	c #71611F",
"2.	c #726731",
"3.	c #72642A",
"4.	c #715F19",
"5.	c #71601C",
"6.	c #736B3A",
"7.	c #74744B",
"8.	c #736D43",
"9.	c #716336",
"0.	c #705925",
"a.	c #6E4F13",
"b.	c #6E4A11",
"c.	c #6F5226",
"d.	c #71633F",
"e.	c #747755",
"f.	c #747555",
"g.	c #706042",
"h.	c #6B3517",
"i.	c #681E00",
"j.	c #681900",
"k.	c #671400",
"l.	c #660E00",
"m.	c #640200",
"n.	c #630000",
"o.	c #604D0B",
"p.	c #72652D",
"q.	c #736D3F",
"r.	c #757C58",
"s.	c #757D59",
"t.	c #605322",
"u.	c #887D4B",
"v.	c #8A8864",
"w.	c #8B8E6E",
"x.	c #8A8965",
"y.	c #898053",
"z.	c #867434",
"A.	c #705E0F",
"B.	c #715F15",
"C.	c #715E17",
"D.	c #71601D",
"E.	c #716327",
"F.	c #736F41",
"G.	c #747246",
"H.	c #736A37",
"I.	c #715C06",
"J.	c #715E0F",
"K.	c #747148",
"L.	c #736B40",
"M.	c #716233",
"N.	c #705723",
"O.	c #6F4E14",
"P.	c #6E4C16",
"Q.	c #6F542B",
"R.	c #726744",
"S.	c #757B59",
"T.	c #747453",
"U.	c #6F5A3C",
"V.	c #6A2800",
"W.	c #671300",
"X.	c #715E11",
"Y.	c #747247",
"Z.	c #757954",
"`.	c #726936",
" +	c #60511C",
".+	c #60562B",
"++	c #625F3E",
"@+	c #636446",
"#+	c #636447",
"$+	c #626142",
"%+	c #615B36",
"&+	c #60521F",
"*+	c #716223",
"=+	c #747751",
"-+	c #74764E",
";+	c #737044",
">+	c #726833",
",+	c #716122",
"'+	c #726637",
")+	c #715D29",
"!+	c #6F5215",
"~+	c #6E490C",
"{+	c #6F5328",
"]+	c #757B5A",
"^+	c #737252",
"/+	c #6F5638",
"(+	c #640000",
"_+	c #74744A",
":+	c #726C3B",
"<+	c #705C0C",
"[+	c #736E40",
"}+	c #747750",
"|+	c #726325",
"1+	c #705D0E",
"2+	c #636548",
"3+	c #625F3D",
"4+	c #61572D",
"5+	c #604D0E",
"6+	c #71642A",
"7+	c #716530",
"8+	c #715E27",
"9+	c #6F5410",
"0+	c #6E4E00",
"a+	c #6E4E1F",
"b+	c #716441",
"c+	c #757A58",
"d+	c #737251",
"e+	c #6F5739",
"f+	c #540100",
"g+	c #551E14",
"h+	c #736D3E",
"i+	c #747145",
"j+	c #716324",
"k+	c #747248",
"l+	c #736C3D",
"m+	c #72652C",
"n+	c #636547",
"o+	c #8A8D6C",
"p+	c #89865F",
"q+	c #887A45",
"r+	c #715C17",
"s+	c #705500",
"t+	c #6F5100",
"u+	c #6E4D00",
"v+	c #6D460D",
"w+	c #71603C",
"x+	c #747856",
"y+	c #737353",
"z+	c #5E4C34",
"A+	c #59260A",
"B+	c #591B00",
"C+	c #581300",
"D+	c #583123",
"E+	c #715E15",
"F+	c #736B39",
"G+	c #736D3D",
"H+	c #72642B",
"I+	c #636345",
"J+	c #8A8C6A",
"K+	c #504F31",
"L+	c #87773F",
"M+	c #5F4900",
"N+	c #5E4500",
"O+	c #5E4300",
"P+	c #5D3F00",
"Q+	c #5D3C00",
"R+	c #5D3900",
"S+	c #5F4B2E",
"T+	c #626147",
"U+	c #63634A",
"V+	c #60543C",
"W+	c #5C3D26",
"X+	c #571E11",
"Y+	c #571C10",
"Z+	c #460904",
"`+	c #562016",
" @	c #5A3E2D",
".@	c #705D0D",
"+@	c #715E12",
"@@	c #5F4C02",
"#@	c #60562A",
"$@	c #5F4D10",
"%@	c #636344",
"&@	c #8A8B69",
"*@	c #89845C",
"=@	c #5E4200",
"-@	c #5E4000",
";@	c #5E4B2D",
">@	c #64694F",
",@	c #625F46",
"'@	c #5F5039",
")@	c #5C3E29",
"!@	c #5A2E1B",
"~@	c #5A3120",
"{@	c #5D4733",
"]@	c #5E4E39",
"^@	c #4C3F2E",
"/@	c #4B3828",
"(@	c #492F21",
"_@	c #583224",
":@	c #593829",
"<@	c #5C4835",
"[@	c #5F4F17",
"}@	c #5F4D0E",
"|@	c #604C09",
"1@	c #5F4E13",
"        . . . . . . . . . . . . . . . . . . . . . . . . . . . . . . . . . .                                                                                                                                                                 ",
"    . . . + + + + + + + + + + + + + + + + + + + + + + + + + + + + + + + + . . .                                                                                                                                                             ",
"  . . + + + @ @ @ @ @ @ @ @ @ @ @ @ @ @ @ @ @ @ @ @ @ @ @ @ + + + + + + + + + . .                               . . . . . . . . . .                                                                                                         ",
"  . + + @ @ @ @ @ @ @ @ @ @ @ @ @ @ @ @ @ @ @ @ @ @ @ @ @ @ @ @ @ @ @ + + + + + . . . . . . . . . . . . . . . . . @ @ + @ @ @ @ + . .                                                                                                       ",
". . + @ @ @ @ @ @ @ @ @ @ @ @ @ @ @ @ @ @ @ @ @ @ @ @ @ @ @ @ @ @ @ @ @ + + + + + @ @ @ + # # # # # + + @ @ @ + + @ $ @ @ + @ $ @ + .                                                                                                       ",
". + + @ @ @ + + + @ @ @ @ @ + + + @ @ @ @ @ + + + @ @ @ @ @ + + + + + + + @ + + + + @ @ + + + + + + + @ @ @ @ @ + @ @ @ + + @ @ @ + .                                                                                                       ",
". + @ @ @ + # # # + @ @ @ + # # # + @ @ @ + # # # + @ @ @ @ + @ @ @ @ @ + @ @ + + + @ @ @ @ @ @ @ + + + + + + + + @ @ @ + + @ @ @ + .                                                                                                       ",
". + @ @ + # # # # # + @ + # # # # # + @ + # # # # # + @ @ @ + @ % @ % @ + @ @ @ + + @ + + + + + + + + + + + + + + @ $ + @ + @ $ + + .                                                                                                       ",
". + @ @ + # # # # # + @ + # # # # # + @ + # # # # # + @ @ @ + @ @ @ @ @ + @ @ @ + + + . . . . . . . . . . . . . . + + + @ @ + + + . .                                                                                                       ",
". + @ @ + # # # # # + @ + # # # # # + @ + # # # # # + @ @ @ + @ @ @ @ @ + @ @ @ @ + + .                         . . . . . . . . . .                                                                                                         ",
". + @ @ @ + # # # + @ @ @ + # # # + @ @ @ + # # # + @ @ @ @ + @ @ @ @ @ + @ @ @ @ + + .                                                                                                                                                     ",
". + @ @ @ @ + + + @ @ @ @ @ + + + @ @ @ @ @ + + + @ @ @ @ @ + @ % @ % @ + @ @ @ @ + + . . . . . .                                                                                                                                           ",
". + @ @ @ @ @ @ @ @ @ @ @ @ @ @ @ @ @ @ @ @ @ @ @ @ @ @ @ @ + @ @ @ @ @ + @ @ @ @ + + + & * & & . . . . . . . . . . . . . . . . . . . . . . . . . . . . . . . . . . . . . . . . . . . . . . . . . . . . . . . . . . . . . . . . . . . . . . ",
". + @ @ @ @ @ @ @ @ @ @ @ @ @ @ @ @ @ @ @ @ @ @ @ @ @ @ @ @ + + + + + + + @ @ @ @ + + + = - & ; > , ' ) @ + + ! ~ { ] ^ ^ & / ( _ : < [ } | 1 | 2 < 3 4 5 6 * - - & - * ^ & & & & & 7 8 9 0 a b c d e f g h i j k l m n o p q r s t u u u . ",
". + @ @ @ @ @ @ @ @ @ @ @ @ @ @ @ @ @ @ @ @ @ @ @ @ @ @ @ @ @ @ @ @ @ @ @ @ @ @ @ + + + - ^ & v w x y @ @ @ @ @ z A B C D E F G H H I J K | 1 | L M N O P Q R - - = = * ^ ^ = - * S B T U V W X c Y Z `  ...+.@.#.$.%.n o &.q *.s =.u u u . ",
". + @ @ @ @ @ @ @ @ @ @ @ @ @ @ @ @ @ @ @ @ @ @ @ @ @ @ @ @ @ @ @ @ @ @ @ @ @ @ @ @ + + - ^ * -.;.>.,.@ @ @ @ @ @ ) '.).!.v ~.{.].^.{./.(._.| 1 _.:.<.[.}.|.C 1.C }.2.3.4.- ^ = - 5.6.x 7.8.9.0.a.b.c.d.e.@ @ f.g.h.%.i.j.k.l.*.s m.n.u u . ",
". + @ @ @ @ @ @ @ @ @ @ @ @ @ @ @ @ @ @ @ + + + + + + + + + @ @ @ @ @ @ @ @ @ @ @ @ + + = = * o.p.q.A r.@ @ @ @ @ s.x 6.Q t.u.v.w.w.x.y.z.| | 1 | 1 & A.B.C.D.E.> F.G.8 H.!.I.^ ^ J.> '.K.L.M.N.O.P.Q.R.S.@ @ T.U.V.%.i.j.W.l.*.s m.u u u . ",
". + @ @ @ @ @ @ @ @ @ @ @ @ @ @ @ @ @ @ + # # # # # # # # # + @ @ @ @ @ @ @ @ @ @ @ + + - ^ = & X.3.6.Y.Z.@ @ @ @ ,.'.`.!. +.+++@+#+$+%+&+& & & & & & ^ - ^ = *+B x =+-+;+>+S ^ ^ = ,+O q.'+)+!+c ~+{+R.]+@ @ ^+/+V.%.i.j.W.l.*.s m.(+u u . ",
". + @ @ @ @ @ @ @ @ @ @ @ @ @ @ @ @ @ + # # # # # # # # # # # + @ @ @ @ @ @ @ @ @ @ + + ^ - = & = ^ I.6 ;._+) s.Z.x :+E.<+* *+[+A }+7.q.|+- * * = - ^ ^ ^ - = 1+).7.2+@+3+4+5+& & & * 6+7+8+9+0+c d a+b+c+@ z d+e+V.%.i.j.W.l.*.s f+(+u g+. ",
". + @ @ @ @ @ @ @ @ @ @ @ @ @ @ @ @ @ + # # # # # # # # # # # + @ @ @ @ @ @ @ @ @ @ + + - - ^ & ^ = * - * *+h+i+8 5 j+^ * ^ - 2.;+x k+l+E.^ = = ^ * * ^ ^ - = ^ m+T n+o+p+q+| | 1 & - ^ r+s+t+u+c d v+w+x+@ z y+z+A+B+n C+p q *.s m.u u D+. ",
". + @ @ @ @ @ @ @ @ @ @ @ @ @ @ @ @ @ + # # % # # # # # # # % % % % @ @ @ @ @ @ @ @ + + = - & & ^ ^ = ^ - - E+3.6+5.- ^ * - * 5.F+;+;+G+H+= ^ ^ * = - = ^ = - = D.;+I+J+K+L+| _.1 & & & M+N+O+P+Q+R+e S+T++ + U+V+W+B+n C+&.X+Y+Z+f+u `+ @. ",
". + @ @ @ @ @ @ @ @ @ @ @ @ @ @ @ @ @ + # # # % # # # # # # % % % @ @ @ @ @ @ @ @ @ + + * * & & = ^ ^ & & & ^ .@+@& = - & & & @@#@4 ;+%+>+4.& & & & & & & & & & $@3 %@&@*@[ 1 | | & & & M+N+=@-@Q+R+e ;@T++ + >@,@'@)@!@~@{@]@^@/@(@_@:@<@. ",
". + @ @ @ @ @ @ @ @ @ @ @ @ @ @ @ @ @ + # # # % # # # # # # # + @ @ @ @ @ @ @ @ @ @ + + = [@}@& . . . . . . . . . . . . . . . . . . . . . . . . . . . . . . . . . . . . . . . . . . . . . . . . . . . . . . . . . . . . . . . . . . . . . . ",
". + @ @ @ @ @ @ @ @ @ @ @ @ @ @ @ @ @ + # # # % # # # # # # # + @ @ @ @ @ @ @ @ @ + + + |@ +1@& .                                                                                                                                           ",
". + @ @ @ @ + + + @ @ @ @ @ @ @ @ @ @ + # # # % # # # # # # # + @ @ @ @ @ @ @ @ @ + + . . . . . .                                                                                                                                           ",
". + @ @ @ + # # # + @ @ @ @ @ @ @ @ @ + # # % # # # # # # # % % % @ @ @ @ @ @ @ @ + + .                                                                                                                                                     ",
". + @ @ + # # # # # + @ @ @ @ @ @ @ @ + # # # # # # # # # # % % % % @ @ @ @ @ @ @ + + .                                                                                                                                                     ",
". + @ @ + # # # # # + @ @ @ @ @ @ @ @ + # # # # # # # # # # # + @ @ @ @ @ @ @ @ + + + .                                                                                                                                                     ",
". + @ @ + # # # # # + @ @ @ @ @ @ @ @ + # # # # # # # # # # # + @ @ @ @ @ @ @ @ + + . .                                                                                                                                                     ",
". + @ @ @ + # # # + @ @ @ @ @ @ @ @ @ @ + # # # # # # # # # + @ @ @ @ @ @ @ @ + + + .                                                                                                                                                       ",
". + + @ @ @ + + + @ @ @ @ @ @ @ @ @ @ @ @ + + + + + + + + + @ @ @ @ @ @ @ + + + + + .                                                                                                                                                       ",
". . + @ @ @ @ @ @ @ @ @ @ @ @ @ @ @ @ @ @ @ @ @ @ @ @ @ @ @ @ @ @ @ + + + + + + + . .                                                                                                                                                       ",
"  . + + @ @ @ @ @ @ + + + + + + + + @ @ @ @ @ @ @ @ @ @ + + + + + + + + + + + + . .                                                                                                                                                         ",
"  . . + + + @ @ @ @ + # # # # # # + + + + + + + + + + + + + + + + + + + + + + . .                                                                                                                                                           ",
"    . . . + + + + + + # % # # % # + + + + + + + + + + + + + + + + + + + + . . .                                                                                                                                                             ",
"        . . . . . . . . . . . . . . . . . . . . . . . . . . . . . . . . . .                                                                                                                                                                 "};
