/* XPM */
static char * tank_gauges_empty_xpm[] = {
"118 36 10 1",
" 	c None",
".	c #323C1D",
"+	c #646A50",
"@	c #76805E",
"#	c #333827",
"$	c #2A2D21",
"%	c #3E4335",
"&	c #22251A",
"*	c #8C957A",
"=	c #525A43",
"    ..................................                                                                                ",
"  ...++++++++++++++++++++++++++++++++...                                                                              ",
" ..+++@@@@@@@@@@@@@@@@@@@@@@@@+++++++++..               ..........                                                    ",
" .++@@@@@@@@@@@@@@@@@@@@@@@@@@@@@@@+++++.................##$####$..                                                   ",
"..+@@@@@@@@@@@@@@@@@@@@@@@@@@@@@@@@@+++++###$%%%%%$$###$$#&##$#&#$.                                                   ",
".++@@@+++@@@@@+++@@@@@+++@@@@@+++++++@++++##$$$$$$$#####$###$$###$.                                                   ",
".+@@@+***+@@@+***+@@@+***+@@@@+@@@@@+@@+++#######$$$$$$$$###$$###$.                                                   ",
".+@@+*****+@+*****+@+*****+@@@+@=@=@+@@@++#$$$$$$$$$$$$$$#&$#$#&$$.                                                   ",
".+@@+*****+@+*****+@+*****+@@@+@@@@@+@@@+++..............$$$##$$$..                                                   ",
".+@@+*****+@+*****+@+*****+@@@+@@@@@+@@@@++.            ..........                                                    ",
".+@@@+***+@@@+***+@@@+***+@@@@+@@@@@+@@@@++.                                                                          ",
".+@@@@+++@@@@@+++@@@@@+++@@@@@+@=@=@+@@@@++......                                                                     ",
".+@@@@@@@@@@@@@@@@@@@@@@@@@@@@+@@@@@+@@@@+++$#$$......................................................................",
".+@@@@@@@@@@@@@@@@@@@@@@@@@@@@+++++++@@@@+++##$$##$##$$$$$###$%&%%%%%%%%&%$######$###$$$$$$##$####$$$$$$$$$$$$$&&&$$$.",
".+@@@@@@@@@@@@@@@@@@@@@@@@@@@@@@@@@@@@@@@+++##$$#############$%%%%%%%%%%%%$##############################$#$$$$$&$$$$.",
".+@@@@@@@@@@@@@@@@@@@@@@@@@@@@@@@@@@@@@@@@++###$#############$%&%%&%%&%%&%$####################################$&##$$.",
".+@@@@@@@@@@@@@@@@@@@+++++++++@@@@@@@@@@@@++###$#############$%%%%%%%%%%%%$####################################$&#$$$.",
".+@@@@@@@@@@@@@@@@@@+*********+@@@@@@@@@@@++###$#############$$$$$$$$$$$$$$####################################$&##$$.",
".+@@@@@@@@@@@@@@@@@+***********+@@@@@@@@@@++###$##################################$$$$$$$$#####################$&$#$$.",
".+@@@@@@@@@@@@@@@@@+***********+@@@@@@@@@@++###$##################################$%%%%%%$##############$$$$$$$$&#$$$.",
".+@@@@@@@@@@@@@@@@@+**=*******====@@@@@@@@++##$$##################################$%&%%&%$$$$$$$$$$$$$$$$$$$$$$$&$$$$.",
".+@@@@@@@@@@@@@@@@@+***=******===@@@@@@@@@++##$$###$$$###$##$$$$$##$##$$$$$$$$$$$$$%%%%%%$$$$$$$$$$$$$$$$$$$$$$&&&$$$.",
".+@@@@@@@@@@@@@@@@@+***=*******+@@@@@@@@@@++#$$$......................................................................",
".+@@@@@@@@@@@@@@@@@+***=*******+@@@@@@@@@+++$$$$.                                                                     ",
".+@@@@+++@@@@@@@@@@+***=*******+@@@@@@@@@++......                                                                     ",
".+@@@+***+@@@@@@@@@+**=*******===@@@@@@@@++.                                                                          ",
".+@@+*****+@@@@@@@@+**********====@@@@@@@++.                                                                          ",
".+@@+*****+@@@@@@@@+***********+@@@@@@@@+++.                                                                          ",
".+@@+*****+@@@@@@@@+***********+@@@@@@@@++..                                                                          ",
".+@@@+***+@@@@@@@@@@+*********+@@@@@@@@+++.                                                                           ",
".++@@@+++@@@@@@@@@@@@+++++++++@@@@@@@+++++.                                                                           ",
"..+@@@@@@@@@@@@@@@@@@@@@@@@@@@@@@@+++++++..                                                                           ",
" .++@@@@@@++++++++@@@@@@@@@@++++++++++++..                                                                            ",
" ..+++@@@@+******++++++++++++++++++++++..                                                                             ",
"  ...++++++*=**=*++++++++++++++++++++...                                                                              ",
"    ..................................                                                                                "};
