/* XPM */
static char * weapon_xpm[] = {
"32 32 7 1",
" 	c None",
".	c #000000",
"+	c #0D1007",
"@	c #161F03",
"#	c #212B14",
"$	c #302B0A",
"%	c #1B1808",
"                                ",
"                                ",
"                                ",
"                                ",
"                     ...        ",
"                    .+++.       ",
"                   ..++++.      ",
"                  .@.++++.      ",
"                 .##@.+++.      ",
"                 .##@@...       ",
"                .####@@.        ",
"               .###@@@.   .     ",
"              .###@@..  ..+.    ",
"        .......#@@@.   .#@.     ",
"       ..$$$$.#@@@.....#..      ",
"      .$.$$$.#@@..$$..#.        ",
"     .$$.$$.#@@.$$$.#@.         ",
"     .$$$.$.@@.$$$.#...         ",
"    .$$$$.$$..$$$%%.%%.         ",
"   .$$$$$.%%%%%%%%%%%%.         ",
"   .$$$$...............         ",
"   .$...%%%%%%%%....            ",
"   .............                ",
"                                ",
"                                ",
"                                ",
"                                ",
"                                ",
"                                ",
"                                ",
"                                ",
"                                "};
