/* XPM */
static char * blood_splash_tank_xpm[] = {
"64 64 4 1",
" 	c None",
".	c #6E000C",
"+	c #64000C",
"@	c #5A000C",
"                                                                ",
"                                                                ",
"  .                                .                            ",
"                             ...                                ",
"                            ..+..                               ",
"   ...                      .++..                               ",
"  ..+..                     .+@..                               ",
"  ..++..    .                .@.                                ",
"  ..@@..              .      ...                                ",
"   ......                    ...                                ",
"    ......        ...        ...                                ",
"  .   .....      .....       ...         .                      ",
"        ....     ..++.        ...                   ...         ",
"          ...    ..+@..     . ...                  .....        ",
"           ...    ...@.       ...   .              .+@..        ",
"            ...    .....      ...   .             ..++..        ",
"             ...     ...      ...          .      ..+..         ",
"              ....   ....    .....               ....           ",
"               ....   .............             ....            ",
"                ....................          .....             ",
"                  ...................     ........              ",
"                   ....+++........................    .         ",
"                   ...+++++++..+++...............    ..         ",
"               .   ...+++++++++++++.............                ",
"                    ...++++++++++++++....++.....                ",
"                    ....+++@@++@@@++++.+++++....                ",
"         ...      ...+++++@@@@@@@@@@++++++++...                 ",
"        ..+.........++++++@@@@@@@@@@@@@@@++....   ..            ",
"        .+@@........+++++++@@@@@@@@@@@@@@+.....                 ",
"    .   .............++..+++@@@@@@@@@@@++++....                 ",
"         ...    ..........++@@@@@@@@@@@+++++....      .         ",
"                   ......+++@@@@@@@@@@@@++++....                ",
"                   .....+++@@@@@@@@@@@@@++++.....               ",
"                    ....+++@@@@@@@@@++@@+++.......              ",
"                .    ...+++@@@@@@@@@+++++++........             ",
"                   ....+++++@@@++@@@++++++...........           ",
"                   ....+++++++++++@@+..+++..... .........       ",
"                  .....+++++++++++++++.......     ....+++.      ",
"            .    .......+++.......++++.......      ...+@+.      ",
"      .        ...................++++.......        ..@..      ",
"             ......................+++.  .....        ...       ",
"        .........  ....... ............    ...                  ",
"       ..+@@...      ...    .....  ....     ...                 ",
"       ..++..              ....     ...      ...                ",
"       ..+..      .     .  ...       ...      ...               ",
"        ...               ...        ...       ...              ",
"   .                      ...         ....      ...             ",
"                         ...     .    .++..      ...            ",
"         .               ...          .+@@.       ...           ",
"                        ...           ..+..        ...          ",
"                        ...            ...          ....        ",
"                       ...                    .     .++..       ",
"                       ...                          .+@@.   .   ",
"                  .   ...    .          .           ..+..       ",
"                     ..++.                           ...        ",
"                     ..@+.                                      ",
"                     .....                                      ",
"                      ...                                .      ",
"         .                                                      ",
"                                                                ",
"                                                                ",
"                                                                ",
"                                                                ",
"                                                                "};
