/* XPM */
static char * blood_splat_xpm[] = {
"64 32 5 1",
" 	c None",
".	c #6E000C",
"+	c #4E040D",
"@	c #64000C",
"#	c #5A000C",
"                                                     .          ",
"                                                  .             ",
"                                                 ...            ",
"                         .   .              +     .             ",
"                           +                +       .           ",
"         .           +++  +..        +++++++.. .                ",
"            ++++++......+  .   +++++......... ...               ",
"        +  +.............++...........@@@...   .                ",
"       ++................@@@@@@@@@@........                     ",
"        +.........@@@@@@@@@@@@@@.......+++                      ",
"        +...@@@@@@@@@@@@@@@@@@@....++++        .     .          ",
"    .   +...@@@@@@@###@@@.....+++           ++                  ",
"       +..@@@@########@@@.         .  +++ ....+   .             ",
"      ....@@@########@@@@.+++  +     +......++   ...            ",
"     +....@@@########@@@@........+   +.@@.++      .             ",
"     +....@@@########@@@@@@@@@@@.......@.+                      ",
"     +....@@@@######@@@@@.@@@@@.....@@....++++    .             ",
"     +......@@@###@@@@@@.......@@.@@@@........+                 ",
"     .......@@@@@@@@@....  ..........@@@@..+++                  ",
"      ........@@@@@@@@@..+++    ++++......+   +...              ",
"  .    .........@@@@@@@@@...+  .    +++++.                      ",
"        ...........@@@@@@@@..+           ..+                    ",
"     .   .+++++......@@....@..+                                 ",
"    +..        +........++...+ .      .                         ",
"     .    .     ++++++++  +++   ...                             ",
"                        .     .                                 ",
"                                .                               ",
"                             . +..  .                           ",
"                                + .                             ",
"                                                                ",
"                                   .                            ",
"                                                                "};
