/* XPM */
static char * destroyed_barrel_1_xpm[] = {
"26 26 379 2",
"  	c None",
". 	c #4F101B",
"+ 	c #460C15",
"@ 	c #3B0911",
"# 	c #400914",
"$ 	c #4B0D18",
"% 	c #51111C",
"& 	c #50111D",
"* 	c #53111C",
"= 	c #651724",
"- 	c #611420",
"; 	c #53101D",
"> 	c #490B16",
", 	c #480F18",
"' 	c #3C0C14",
") 	c #3B0915",
"! 	c #4A0D19",
"~ 	c #571622",
"{ 	c #55141F",
"] 	c #500F1B",
"^ 	c #54121E",
"/ 	c #420813",
"( 	c #3A0612",
"_ 	c #611523",
": 	c #601120",
"< 	c #5A111D",
"[ 	c #510C17",
"} 	c #490C18",
"| 	c #420F18",
"1 	c #39090F",
"2 	c #3F0D17",
"3 	c #460E18",
"4 	c #59151F",
"5 	c #56101D",
"6 	c #581421",
"7 	c #5F1924",
"8 	c #601722",
"9 	c #5C1522",
"0 	c #691E2A",
"a 	c #470C19",
"b 	c #500D19",
"c 	c #490A16",
"d 	c #500C1A",
"e 	c #420A15",
"f 	c #590819",
"g 	c #5B0719",
"h 	c #5E0C1A",
"i 	c #560C18",
"j 	c #4A0F18",
"k 	c #400D15",
"l 	c #47111B",
"m 	c #4D0F1B",
"n 	c #5C1824",
"o 	c #5B1521",
"p 	c #701526",
"q 	c #633C19",
"r 	c #6B1D27",
"s 	c #661E27",
"t 	c #66212C",
"u 	c #350004",
"v 	c #500A1B",
"w 	c #550F1C",
"x 	c #4D0C1A",
"y 	c #490817",
"z 	c #570517",
"A 	c #540617",
"B 	c #5B0919",
"C 	c #590F1C",
"D 	c #510E1A",
"E 	c #571724",
"F 	c #471018",
"G 	c #450E19",
"H 	c #51151F",
"I 	c #5D1823",
"J 	c #611A26",
"K 	c #6B3523",
"L 	c #822531",
"M 	c #752A29",
"N 	c #6C1B2E",
"O 	c #601D28",
"P 	c #601E27",
"Q 	c #5D1A24",
"R 	c #4C0816",
"S 	c #550D1C",
"T 	c #530A1A",
"U 	c #460714",
"V 	c #600B1C",
"W 	c #560919",
"X 	c #570B1A",
"Y 	c #5B1924",
"Z 	c #511821",
"` 	c #3E0E14",
" .	c #52141F",
"..	c #5C1B25",
"+.	c #5E1924",
"@.	c #671926",
"#.	c #80252F",
"$.	c #8C1C35",
"%.	c #7B292B",
"&.	c #5D1822",
"*.	c #5C1A22",
"=.	c #551A24",
"-.	c #57181F",
";.	c #480712",
">.	c #560F1D",
",.	c #440714",
"'.	c #340002",
").	c #66101F",
"!.	c #610D1D",
"~.	c #5E111F",
"{.	c #5A141F",
"].	c #5C1A25",
"^.	c #591824",
"/.	c #55171F",
"(.	c #410F17",
"_.	c #380812",
":.	c #52141C",
"<.	c #5F1B28",
"[.	c #641D27",
"}.	c #651A26",
"|.	c #713325",
"1.	c #7E232F",
"2.	c #671B26",
"3.	c #4F141F",
"4.	c #501822",
"5.	c #410612",
"6.	c #580F1E",
"7.	c #570E1C",
"8.	c #490615",
"9.	c #350002",
"0.	c #6B222A",
"a.	c #681E27",
"b.	c #651F27",
"c.	c #39070E",
"d.	c #55151E",
"e.	c #621A24",
"f.	c #631D27",
"g.	c #5A1223",
"h.	c #601826",
"i.	c #5A1925",
"j.	c #4A101B",
"k.	c #4A0E1A",
"l.	c #5D121F",
"m.	c #5B121F",
"n.	c #400411",
"o.	c #350001",
"p.	c #340508",
"q.	c #410913",
"r.	c #5F1B27",
"s.	c #65202B",
"t.	c #51141D",
"u.	c #4A0F19",
"v.	c #51101C",
"w.	c #5C1320",
"x.	c #5B1722",
"y.	c #3A0105",
"z.	c #4F141C",
"A.	c #531520",
"B.	c #571824",
"C.	c #480E19",
"D.	c #571822",
"E.	c #4B121C",
"F.	c #480D18",
"G.	c #4D0F1C",
"H.	c #490D17",
"I.	c #601A24",
"J.	c #5C1722",
"K.	c #53151D",
"L.	c #410A17",
"M.	c #3F0A12",
"N.	c #39070C",
"O.	c #38040C",
"P.	c #400E19",
"Q.	c #460F1B",
"R.	c #490F1A",
"S.	c #4C0F19",
"T.	c #4F111B",
"U.	c #470C18",
"V.	c #3E040F",
"W.	c #4C0D1A",
"X.	c #5A1720",
"Y.	c #5F2026",
"Z.	c #551A21",
"`.	c #481119",
" +	c #420D16",
".+	c #3D0911",
"++	c #370A13",
"@+	c #330105",
"#+	c #2E0000",
"$+	c #410814",
"%+	c #37030A",
"&+	c #340005",
"*+	c #3C020B",
"=+	c #420510",
"-+	c #460615",
";+	c #4E0E1B",
">+	c #58101D",
",+	c #611D23",
"'+	c #68262E",
")+	c #6A2830",
"!+	c #66262C",
"~+	c #61282E",
"{+	c #521C22",
"]+	c #421318",
"^+	c #2A0000",
"/+	c #2C0000",
"(+	c #310000",
"_+	c #3F050E",
":+	c #3F030F",
"<+	c #440210",
"[+	c #4B0615",
"}+	c #530D1B",
"|+	c #510F19",
"1+	c #4E131F",
"2+	c #460B16",
"3+	c #590B1C",
"4+	c #4B131B",
"5+	c #63272C",
"6+	c #61252A",
"7+	c #4D131C",
"8+	c #2C0002",
"9+	c #370206",
"0+	c #3A0309",
"a+	c #450C18",
"b+	c #4C0F1A",
"c+	c #4C0717",
"d+	c #530B19",
"e+	c #54111E",
"f+	c #54121D",
"g+	c #4C0E1A",
"h+	c #4A0F1C",
"i+	c #501621",
"j+	c #49131A",
"k+	c #4F171C",
"l+	c #8D5333",
"m+	c #5B2524",
"n+	c #440F19",
"o+	c #440E17",
"p+	c #440A17",
"q+	c #470E16",
"r+	c #61202B",
"s+	c #571621",
"t+	c #420714",
"u+	c #56121E",
"v+	c #58121F",
"w+	c #5B1A23",
"x+	c #551621",
"y+	c #5C1E29",
"z+	c #581F26",
"A+	c #521B1F",
"B+	c #491E14",
"C+	c #CEA97D",
"D+	c #B8926A",
"E+	c #657572",
"F+	c #3F0D18",
"G+	c #3B060E",
"H+	c #420E1B",
"I+	c #34050A",
"J+	c #5A1C27",
"K+	c #3D040E",
"L+	c #370207",
"M+	c #340001",
"N+	c #530F1A",
"O+	c #5A1A25",
"P+	c #692935",
"Q+	c #67262C",
"R+	c #61262B",
"S+	c #5C2228",
"T+	c #552124",
"U+	c #C48F52",
"V+	c #A58561",
"W+	c #592E18",
"X+	c #340109",
"Y+	c #3C0710",
"Z+	c #3F0A17",
"`+	c #581822",
" @	c #4E141E",
".@	c #3B060F",
"+@	c #300000",
"@@	c #360105",
"#@	c #360008",
"$@	c #62202A",
"%@	c #601E28",
"&@	c #682731",
"*@	c #692931",
"=@	c #6A292F",
"-@	c #6B2C31",
";@	c #68292E",
">@	c #5E2328",
",@	c #602C23",
"'@	c #7D6A59",
")@	c #62341E",
"!@	c #3B0C0A",
"~@	c #340208",
"{@	c #3C060D",
"]@	c #310206",
"^@	c #33050C",
"/@	c #5D1C26",
"(@	c #561722",
"_@	c #521721",
":@	c #450B17",
"<@	c #3D0412",
"[@	c #360007",
"}@	c #410310",
"|@	c #65222B",
"1@	c #62222D",
"2@	c #621E27",
"3@	c #6A272E",
"4@	c #69282E",
"5@	c #6E2E33",
"6@	c #672A2F",
"7@	c #420B15",
"8@	c #3F0714",
"9@	c #450612",
"0@	c #320108",
"a@	c #310002",
"b@	c #67222C",
"c@	c #602029",
"d@	c #551620",
"e@	c #52101B",
"f@	c #470916",
"g@	c #450411",
"h@	c #3D010B",
"i@	c #621E29",
"j@	c #601D29",
"k@	c #6D2D32",
"l@	c #6C2C30",
"m@	c #5C2026",
"n@	c #4F1A21",
"o@	c #46151C",
"p@	c #440011",
"q@	c #460814",
"r@	c #69232C",
"s@	c #67242E",
"t@	c #64202B",
"u@	c #68232E",
"v@	c #6A222D",
"w@	c #320000",
"x@	c #631D28",
"y@	c #601B26",
"z@	c #69252E",
"A@	c #692A2F",
"B@	c #561D23",
"C@	c #5B2525",
"D@	c #673625",
"E@	c #4E0F18",
"F@	c #44000E",
"G@	c #360003",
"H@	c #350005",
"I@	c #621D2A",
"J@	c #5F1D26",
"K@	c #5F1E29",
"L@	c #621E28",
"M@	c #6D252D",
"N@	c #5E242A",
"O@	c #591E25",
"P@	c #330005",
"Q@	c #2D0000",
"R@	c #64212A",
"S@	c #541C1E",
"T@	c #7C472D",
"U@	c #988972",
"V@	c #571F18",
"W@	c #370007",
"X@	c #3E0510",
"Y@	c #491019",
"Z@	c #4C191E",
"`@	c #531E26",
" #	c #5C2428",
".#	c #542026",
"+#	c #450C17",
"@#	c #400A14",
"##	c #52151E",
"$#	c #612A21",
"%#	c #8E7A64",
"&#	c #4A160F",
"*#	c #531F24",
"=#	c #591923",
"-#	c #4D161C",
"                                                    ",
"                                  . +     @         ",
"        # $ % & *                 = - ; > , '       ",
"      ) ! * ~ { ] ^           / ( _ : < [ } | 1     ",
"    2 3 4 5 6 7 8 9 0   a b c d e f g h i } j 2     ",
"  k l m n n o p q r s t u v w x y z A B C D E F     ",
"    G H I J K L M N O P Q R S T U V W X C C Q Y Z ` ",
"     ...+.@.#.$.%.&.*.=.-.;.>.5 ,.'.).!.~.{.].^./.(.",
"  _.:.<.[.}.|.1.2.E 3.4.5.; 6.7.8.9.0.a.b.Y         ",
"  c.d.e.f...g.h.i. .j.k.    l.m.{ n.o.              ",
"  p.q.r.s.t.u.v.m           8 w.x.! y.      z.A.B.  ",
"    C...D.E.F.G.H.          I.I.J.K.L.M.N.O.P.Q.R.  ",
"    S.T.U.V.V.W.            m.  X.Y.Z.`. +.+++      ",
"  @+#+'.$+%+&+*+    =+-+;+;+>+: ,+'+)+!+~+{+]+      ",
"  #+^+/+(+_+:+R.] <+[+}+|+1+2+3+4+    5+6+        7+",
"    /+8+9+0+a+  b+c+d+e+f+g+h+i+j+k+    l+m+n+o+p+q+",
"          r+s+T.t+u+v+w+D.x+y+z+A+B+  C+D+E+F+G+H+I+",
"      s.P J+K+L+M+N+J.O+O+P+Q+R+S+T+  U+V+W+X+Y+Z+I+",
"      `+ @G .@+@@@#@$@%@&@*@=@-@;@>@,@'@)@!@~@{@]@^@",
"      /@(@_@:@<@[@}@|@1@2@3@4@5@5@6@z+7@8@# 9@0@a@a@",
"      b@c@d@^ e@f@g@h@i@j@t )+k@l@m@n@o@c+p@q@[@0@  ",
"    r@s@t@u@v@9 e@*+w@#+x@y@z@A@B@C@D@  E@F@G@H@    ",
"  I@J@K@L@M@N@O@! a+P@Q@/+R@|@t@S@T@U@  V@W@        ",
"  X@Y@Z@`@ #.#4++#@#        $@##$#%#    &#          ",
"          *#.#                =#-#                  ",
"                                                    "};
