/* XPM */
static char * destroyed_crate_xpm[] = {
"32 32 18 1",
" 	c None",
".	c #553015",
"+	c #784017",
"@	c #6A3D1D",
"#	c #613413",
"$	c #987400",
"%	c #815900",
"&	c #002C15",
"*	c #313119",
"=	c #BF9923",
"-	c #004320",
";	c #003B1C",
">	c #493C30",
",	c #2F2311",
"'	c #3F2C21",
")	c #204B20",
"!	c #153215",
"~	c #AEAE5A",
"                                ",
"               .     +          ",
"   @@                           ",
"   @@@      @@                  ",
"    @@ .  .#@@  ##.     .       ",
"    @@@  $%+@@%  +.   &&**.     ",
"     @@     @@=  +.  &-;&+*     ",
"     @@@    @@. >+.  &;;&       ",
"      @@#   @@&&+.**  &&+   .   ",
"       .+.  .&-;&&*&&. .   +    ",
" +    .##+. +&;-&&-;&&&.        ",
"     ##+++%+,,,&*&;;&--&*       ",
"    .....+=.,$=%,'&&&;;&*    @@ ",
"      =% #++,,$%,,''+&&* @@@@@@ ",
"  #@#+@@ >#)!,$=%,,+#.+#.@@@@@  ",
"  @@@+.. +))!,,$=%,.+>#+.@      ",
"         ))))!,,=%##+##++.      ",
"        #+~~))!'$%.=%+##+.      ",
"     ##++ ~~)))+$%##+#. ..      ",
"   .#++#.  .))+#$%#++. +        ",
"    ..++   ++#+.$=%+.           ",
"      .. .  .#..$=%@            ",
"         +  .#+. $%@@       +   ",
"     +  #.  #+>.$=%@@@          ",
"  .     ..  +$$==%  @@          ",
"           #+$%%                ",
"           #$%+.                ",
"          .$=%+.     .          ",
"           $%  .                ",
"     +                          ",
"     +                          ",
"                +               "};
