/* XPM */
static char * destroyed_barrel_2_xpm[] = {
"26 26 119 2",
"  	c None",
". 	c #003600",
"+ 	c #003000",
"@ 	c #002A00",
"# 	c #002C00",
"$ 	c #003300",
"% 	c #003700",
"& 	c #003900",
"* 	c #004500",
"= 	c #004200",
"- 	c #003800",
"; 	c #003200",
"> 	c #002B00",
", 	c #002900",
"' 	c #003C00",
") 	c #003A00",
"! 	c #002D00",
"~ 	c #002800",
"{ 	c #004000",
"] 	c #003D00",
"^ 	c #002F00",
"/ 	c #003E00",
"( 	c #023D00",
"_ 	c #0C4202",
": 	c #023F00",
"< 	c #003F00",
"[ 	c #004A00",
"} 	c #003100",
"| 	c #003500",
"1 	c #002E00",
"2 	c #353A0F",
"3 	c #732B2D",
"4 	c #624770",
"5 	c #27450A",
"6 	c #024800",
"7 	c #004900",
"8 	c #002600",
"9 	c #003400",
"0 	c #204207",
"a 	c #802C58",
"b 	c #910A41",
"c 	c #8B1C49",
"d 	c #5E3822",
"e 	c #0C4402",
"f 	c #004100",
"g 	c #53381E",
"h 	c #8B1B4B",
"i 	c #920540",
"j 	c #8C1844",
"k 	c #4E3A1C",
"l 	c #024100",
"m 	c #002500",
"n 	c #004400",
"o 	c #004300",
"p 	c #004600",
"q 	c #343F10",
"r 	c #6C3F65",
"s 	c #81264E",
"t 	c #5A3422",
"u 	c #1A3C03",
"v 	c #003B00",
"w 	c #004D00",
"x 	c #004800",
"y 	c #0B4102",
"z 	c #29350B",
"A 	c #1D3E06",
"B 	c #043F01",
"C 	c #002700",
"D 	c #002200",
"E 	c #004C00",
"F 	c #004F00",
"G 	c #002000",
"H 	c #002100",
"I 	c #002300",
"J 	c #244E04",
"K 	c #294C06",
"L 	c #BA8637",
"M 	c #5A5114",
"N 	c #0A2A01",
"O 	c #EA9D5C",
"P 	c #E49B52",
"Q 	c #CD7B71",
"R 	c #004E00",
"S 	c #2A4206",
"T 	c #E39B4E",
"U 	c #DF9558",
"V 	c #775920",
"W 	c #004700",
"X 	c #005100",
"Y 	c #2E4B07",
"Z 	c #856524",
"` 	c #CF865C",
" .	c #8A6327",
"..	c #243101",
"+.	c #002400",
"@.	c #005400",
"#.	c #005300",
"$.	c #0C4E01",
"%.	c #38490A",
"&.	c #5A4915",
"*.	c #213103",
"=.	c #005200",
"-.	c #044400",
";.	c #1B3C02",
">.	c #1B3702",
",.	c #043200",
"'.	c #004B00",
").	c #053F00",
"!.	c #414F0F",
"~.	c #8B6A27",
"{.	c #2D3A07",
"].	c #38450C",
"^.	c #AC7D32",
"/.	c #DD9169",
"(.	c #5B4C16",
"_.	c #7F6223",
":.	c #D78D5C",
"<.	c #2C3407",
"[.	c #5C4C16",
"                                                    ",
"                                  . +     @         ",
"        # $ % % &                 * = - ; ; >       ",
"      , $ & ' ) . &           ! ~ = { ] % ; ^ @     ",
"    ! + / ) ( _ : < [   + . } | 1 ) ' / & ; $ !     ",
"  1 ; | { { 2 3 4 5 6 7 8 9 & 9 } - % ' ' % ] ;     ",
"    + & { 0 a b c d e * = $ & % ^ < & ) ' ' f { ) ! ",
"    & f = g h i j k l ] ] } ) ) 1 m n { < / f / ' 1 ",
"  ~ & o p q r s t u % & # - v ) + 8 w [ x {         ",
"  , v n p y z A B & $ ;     < ] ) > m               ",
"  C ! o x - $ % |           = / < $ ,       % ) ]   ",
"    } f / 9 ; 9 ;           o o < ) # # , ~ ! + ;   ",
"    9 . + > > 9             ]   < * ] $ 1 > ~       ",
"  m D m ! C m ,     ! ^ | | ' { * E F E 7 ' +       ",
"  D G H I > > ; . ! ; - % . + ) |     J K         . ",
"    H G C , ^   9 ; % & ) 9 $ - 9 .     L M + + 1 } ",
"          p ' . ! v ' { / v = f ' N   O P Q # @ ! 8 ",
"      x * { @ C m - < < < R E 7 * S   T U V m @ > 8 ",
"      / . + @ I 8 m W n E R F X R Y Z `  ...8 @ +.8 ",
"      = ' ) ^ , 8 # 7 W p R R @.#.$.%.&.*.# ^ m +.+.",
"      [ p v & - + 1 , * n 7 F =.=.-.;.>.,.! + 8 m   ",
"    E '.W '.E < - , +.D p o E F ).!.~.  {.# 8 m     ",
"  * n n p F p f $ ^ +.H G x 7 W ].^./.  (.C         ",
"  @ $ - / p < | ^ !         W & _.:.    <.          ",
"          < <                 < [.                  ",
"                                                    "};
