/* XPM */
static char * destroyed_barrel_0_xpm[] = {
"26 26 387 2",
"  	c None",
". 	c #212842",
"+ 	c #1D2239",
"@ 	c #181C2D",
"# 	c #191F33",
"$ 	c #1F253E",
"% 	c #222943",
"& 	c #212943",
"* 	c #232A46",
"= 	c #2A3458",
"- 	c #293155",
"; 	c #222A46",
"> 	c #1D233C",
", 	c #1F243A",
"' 	c #1A1E2E",
") 	c #171D2D",
"! 	c #1E253D",
"~ 	c #252E49",
"{ 	c #242C47",
"] 	c #212843",
"^ 	c #232B47",
"/ 	c #191F35",
"( 	c #151B2C",
"_ 	c #273254",
": 	c #263054",
"< 	c #252D4E",
"[ 	c #212745",
"} 	c #1D243C",
"| 	c #1D2234",
"1 	c #181B2B",
"2 	c #1B2031",
"3 	c #1D2338",
"4 	c #272E4C",
"5 	c #222B49",
"6 	c #252E4B",
"7 	c #2A3250",
"8 	c #28304E",
"9 	c #27304F",
"0 	c #2F395B",
"a 	c #1B2339",
"b 	c #202743",
"c 	c #1C233C",
"d 	c #1F2743",
"e 	c #1A2035",
"f 	c #202A4E",
"g 	c #212B51",
"h 	c #252D53",
"i 	c #22294A",
"j 	c #20253C",
"k 	c #1C2032",
"l 	c #1F2539",
"m 	c #202740",
"n 	c #28314E",
"o 	c #272F4D",
"p 	c #293152",
"q 	c #702B4C",
"r 	c #2F3759",
"s 	c #303758",
"t 	c #303957",
"u 	c #101528",
"v 	c #1C2743",
"w 	c #222A48",
"x 	c #1D2640",
"y 	c #1B233D",
"z 	c #1F284C",
"A 	c #1E2749",
"B 	c #222B50",
"C 	c #242C4D",
"D 	c #212844",
"E 	c #262F49",
"F 	c #1F2439",
"G 	c #1D2337",
"H 	c #252B43",
"I 	c #29314F",
"J 	c #2B3453",
"K 	c #6F2949",
"L 	c #742646",
"M 	c #6C2A49",
"N 	c #2E3755",
"O 	c #2C3552",
"P 	c #2E3551",
"Q 	c #2B324F",
"R 	c #1C2440",
"S 	c #212A49",
"T 	c #1E2847",
"U 	c #1A213A",
"V 	c #242E55",
"W 	c #20294B",
"X 	c #212A4C",
"Y 	c #2A324F",
"Z 	c #29314D",
"` 	c #262C42",
" .	c #1C1F2F",
"..	c #242B44",
"+.	c #2A324D",
"@.	c #2A3352",
"#.	c #712848",
"$.	c #841C3C",
"%.	c #622847",
"&.	c #2A314F",
"*.	c #2B314E",
"=.	c #282F46",
"-.	c #292E49",
";.	c #1C213C",
">.	c #222B4A",
",.	c #232B49",
"'.	c #192037",
").	c #0E1428",
"!.	c #29325B",
"~.	c #252F56",
"{.	c #262F52",
"].	c #272E4D",
"^.	c #2A324E",
"/.	c #27304B",
"(.	c #272D47",
"_.	c #1D2132",
":.	c #161B2A",
"<.	c #252A44",
"[.	c #2A3451",
"}.	c #2E3656",
"|.	c #2B3351",
"1.	c #6A2A4A",
"2.	c #612444",
"3.	c #2C3452",
"4.	c #232A41",
"5.	c #252C41",
"6.	c #181E34",
"7.	c #212A46",
"8.	c #222C4C",
"9.	c #222B4B",
"0.	c #1A223D",
"a.	c #101529",
"b.	c #343B5D",
"c.	c #31385B",
"d.	c #313757",
"e.	c #161A2B",
"f.	c #262C47",
"g.	c #2C3455",
"h.	c #2E3655",
"i.	c #222942",
"j.	c #28304C",
"k.	c #28314C",
"l.	c #232B44",
"m.	c #1F263C",
"n.	c #1E253C",
"o.	c #262F51",
"p.	c #252E4E",
"q.	c #161D33",
"r.	c #0E1429",
"s.	c #141727",
"t.	c #1A1F34",
"u.	c #2B3451",
"v.	c #2F3856",
"w.	c #242A43",
"x.	c #1F253C",
"y.	c #212944",
"z.	c #2A3253",
"A.	c #262F4F",
"B.	c #28304D",
"C.	c #14182E",
"D.	c #242941",
"E.	c #252C45",
"F.	c #272F48",
"G.	c #1D243A",
"H.	c #282F49",
"I.	c #21273D",
"J.	c #1E243B",
"K.	c #1F273F",
"L.	c #1E243C",
"M.	c #2B3352",
"N.	c #262B45",
"O.	c #192033",
"P.	c #1A1E31",
"Q.	c #171A2B",
"R.	c #14192B",
"S.	c #1B2131",
"T.	c #1D2438",
"U.	c #1F253B",
"V.	c #20263E",
"W.	c #222841",
"X.	c #1C2339",
"Y.	c #161C32",
"Z.	c #1E263F",
"`.	c #292F4C",
" +	c #303550",
".+	c #292E46",
"++	c #21253A",
"@+	c #1C2134",
"#+	c #191D30",
"$+	c #171B28",
"%+	c #111526",
"&+	c #0D1020",
"*+	c #191F34",
"=+	c #13182A",
"-+	c #101527",
";+	c #141A30",
">+	c #181E36",
",+	c #19213A",
"'+	c #1F2741",
")+	c #242C4C",
"!+	c #2F3453",
"~+	c #353C58",
"{+	c #373E5A",
"]+	c #363B56",
"^+	c #353A50",
"/+	c #2A2E42",
"(+	c #202333",
"_+	c #0C1020",
":+	c #0A0D1B",
"<+	c #0A0E1E",
"[+	c #0B1124",
"}+	c #171C32",
"|+	c #151C33",
"1+	c #1E253B",
"2+	c #161E38",
"3+	c #1B233F",
"4+	c #202947",
"5+	c #222844",
"6+	c #212940",
"7+	c #1C2239",
"8+	c #212B4D",
"9+	c #22273D",
"0+	c #363A53",
"a+	c #343851",
"b+	c #22283F",
"c+	c #0B0F1E",
"d+	c #0A0F1D",
"e+	c #13172A",
"f+	c #15192D",
"g+	c #1B2237",
"h+	c #1F263E",
"i+	c #1B2440",
"j+	c #202847",
"k+	c #222B47",
"l+	c #242B47",
"m+	c #1F263F",
"n+	c #1E263C",
"o+	c #232B41",
"p+	c #22263B",
"q+	c #23283D",
"r+	c #373C57",
"s+	c #1D2336",
"t+	c #1D2236",
"u+	c #1A2136",
"v+	c #1F2339",
"w+	c #2E3752",
"x+	c #262E49",
"y+	c #181F35",
"z+	c #242C49",
"A+	c #242D4B",
"B+	c #2A314D",
"C+	c #252D47",
"D+	c #2B344D",
"E+	c #2D3248",
"F+	c #2A2D43",
"G+	c #151B2D",
"H+	c #ACB478",
"I+	c #6A715B",
"J+	c #5B614E",
"K+	c #1A2030",
"L+	c #171B2E",
"M+	c #1B2233",
"N+	c #131726",
"O+	c #2A324B",
"P+	c #151B30",
"Q+	c #12172A",
"R+	c #0F1428",
"S+	c #222946",
"T+	c #29314B",
"U+	c #353F59",
"V+	c #363B57",
"W+	c #353951",
"X+	c #31354C",
"Y+	c #2B2F42",
"Z+	c #4C5039",
"`+	c #595E44",
" @	c #181D30",
".@	c #101627",
"+@	c #171C2F",
"@@	c #181F31",
"#@	c #282F4A",
"$@	c #23293F",
"%@	c #161B2E",
"&@	c #0C1123",
"*@	c #111629",
"=@	c #0F1629",
"-@	c #2F3753",
";@	c #2D3551",
">@	c #343D58",
",@	c #373E59",
"'@	c #393E5A",
")@	c #3B405B",
"!@	c #393D58",
"~@	c #32364E",
"{@	c #2A2E43",
"]@	c #45493A",
"^@	c #1A2033",
"/@	c #111627",
"(@	c #171B2F",
"_@	c #101423",
":@	c #131725",
"<@	c #2B334E",
"[@	c #262E47",
"}@	c #252C43",
"|@	c #1B2238",
"1@	c #141C30",
"2@	c #101629",
"3@	c #161D35",
"4@	c #313956",
"5@	c #2F3852",
"6@	c #2F3654",
"7@	c #373D5A",
"8@	c #383D59",
"9@	c #3D425E",
"0@	c #3D425D",
"a@	c #383D56",
"b@	c #1B2034",
"c@	c #171E32",
"d@	c #1A2039",
"e@	c #101525",
"f@	c #0F1324",
"g@	c #323A58",
"h@	c #2F3651",
"i@	c #262D47",
"j@	c #232B46",
"k@	c #222945",
"l@	c #1B223A",
"m@	c #181F39",
"n@	c #131A31",
"o@	c #2D3653",
"p@	c #2C3551",
"q@	c #3C415C",
"r@	c #3C405C",
"s@	c #30344D",
"t@	c #282C3F",
"u@	c #222637",
"v@	c #141E39",
"w@	c #1B213A",
"x@	c #333B5A",
"y@	c #333B58",
"z@	c #2F3855",
"A@	c #323B59",
"B@	c #323B5B",
"C@	c #0C1126",
"D@	c #0A0E21",
"E@	c #2D3655",
"F@	c #2B3452",
"G@	c #343C5A",
"H@	c #393E59",
"I@	c #2C3046",
"J@	c #2E3248",
"K@	c #1C2541",
"L@	c #141D39",
"M@	c #0F152A",
"N@	c #0F1528",
"O@	c #2C3653",
"P@	c #2D3450",
"Q@	c #2D3550",
"R@	c #2E3653",
"S@	c #363D5E",
"T@	c #32374E",
"U@	c #2D324A",
"V@	c #0E1426",
"W@	c #0A0E1F",
"X@	c #090D1D",
"Y@	c #313855",
"Z@	c #272B41",
"`@	c #2E3247",
" #	c #6B7056",
".#	c #17213F",
"+#	c #11172B",
"@#	c #161C31",
"##	c #20253B",
"$#	c #272A3C",
"%#	c #2B3043",
"&#	c #33364C",
"*#	c #2D3144",
"=#	c #22273C",
"-#	c #1C2237",
";#	c #1A1F33",
">#	c #252B44",
",#	c #252B45",
"'#	c #575B4E",
")#	c #131B35",
"!#	c #2D3043",
"~#	c #29304B",
"{#	c #20263A",
"                                                    ",
"                                  . +     @         ",
"        # $ % & *                 = - ; > , '       ",
"      ) ! * ~ { ] ^           / ( _ : < [ } | 1     ",
"    2 3 4 5 6 7 8 9 0   a b c d e f g h i } j 2     ",
"  k l m n n o p q r s t u v w x y z A B C D E F     ",
"    G H I J K L M N O P Q R S T U V W X C C Y Z `  .",
"    ..+.7 @.#.$.%.&.*.=.-.;.>.,.'.).!.~.{.].^./.(._.",
"  :.<.[.}.|.1.2.3.E 4.5.6.7.8.9.0.a.b.c.d.Z         ",
"  e.f.g.h.+.i.j.k.l.m.n.    o.p.{ q.r.              ",
"  s.t.u.v.w.x.y.m           z.A.B.! C.      D.E.F.  ",
"    G.+.H.I.J.K.L.          M.M.8 N.O.P.Q.R.S.T.U.  ",
"    V.W.X.Y.Y.Z.            p.  `. +.+++@+#+$+      ",
"  %+&+).*+=+-+;+    >+,+'+'+)+: !+~+{+]+^+/+(+      ",
"  _+:+<+[+}+|+1+] 2+3+4+5+6+7+8+9+    0+a+        b+",
"    c+d+e+f+g+  h+i+j+k+l+m+n+o+p+q+    r+=.s+t+u+v+",
"          w+x+W.y+z+A+B+H.C+D+E+F+G+  H+I+J+K+L+M+N+",
"      v.P O+P+Q+R+S+8 T+T+U+V+W+X+Y+  Z+`+ @.@+@@@N+",
"      #@$@G %@&@*@=@-@;@>@,@'@)@!@~@{@]@^@=+/@(@_@:@",
"      <@[@}@|@1@2@3@4@5@6@7@8@9@0@a@E+b@c@# d@e@f@f@",
"      g@h@i@j@k@l@m@n@o@p@t {+q@r@s@t@u@i+v@w@2@e@  ",
"    x@y@z@A@B@9 k@;+C@D@E@F@G@H@I@J@t@  K@L@M@N@    ",
"  O@P@Q@R@S@T@U@! g+V@W@X@Y@4@z@Z@`@ #  .#+#        ",
"  @###$#%#&#*#=#-#;#        -@>#,#'#    )#          ",
"          !#*#                ~#{#                  ",
"                                                    "};
