/* XPM */
static char * destroyed_crate_xpm[] = {
"32 32 579 2",
"  	c None",
". 	c #5A3021",
"+ 	c #4B261A",
"@ 	c #432314",
"# 	c #130505",
"$ 	c #250A0A",
"% 	c #100909",
"& 	c #100A0A",
"* 	c #130909",
"= 	c #0E0C10",
"- 	c #502A1C",
"; 	c #5A2F20",
"> 	c #5F3223",
", 	c #743E2B",
"' 	c #150505",
") 	c #260B09",
"! 	c #1F0B04",
"~ 	c #2B1411",
"{ 	c #2D1512",
"] 	c #4B2A1A",
"^ 	c #684132",
"/ 	c #684034",
"( 	c #61392A",
"_ 	c #0E0806",
": 	c #6C402A",
"< 	c #4B271A",
"[ 	c #673726",
"} 	c #693927",
"| 	c #663726",
"1 	c #170607",
"2 	c #280E08",
"3 	c #210C05",
"4 	c #2D130E",
"5 	c #230A08",
"6 	c #482718",
"7 	c #452513",
"8 	c #452415",
"9 	c #3B2214",
"0 	c #492A19",
"a 	c #4F2A1B",
"b 	c #4B2518",
"c 	c #552F1E",
"d 	c #593020",
"e 	c #6E422C",
"f 	c #77412D",
"g 	c #713D2B",
"h 	c #663625",
"i 	c #140A0D",
"j 	c #19090D",
"k 	c #3C1711",
"l 	c #361612",
"m 	c #291107",
"n 	c #361812",
"o 	c #260C09",
"p 	c #402311",
"q 	c #3C1E13",
"r 	c #381D10",
"s 	c #351B0E",
"t 	c #381D11",
"u 	c #402416",
"v 	c #3F2213",
"w 	c #4E2919",
"x 	c #572E20",
"y 	c #56301A",
"z 	c #653A21",
"A 	c #11070A",
"B 	c #130A0D",
"C 	c #080305",
"D 	c #471A16",
"E 	c #502119",
"F 	c #451C14",
"G 	c #512B1F",
"H 	c #2E110D",
"I 	c #391E0E",
"J 	c #31190D",
"K 	c #2B140A",
"L 	c #2E160D",
"M 	c #2F190E",
"N 	c #130405",
"O 	c #180707",
"P 	c #2D1010",
"Q 	c #512B1A",
"R 	c #321212",
"S 	c #34190F",
"T 	c #351A10",
"U 	c #361A10",
"V 	c #6F422A",
"W 	c #623A25",
"X 	c #60382E",
"Y 	c #4D2421",
"Z 	c #47221B",
"` 	c #45201B",
" .	c #3C1B17",
"..	c #55301F",
"+.	c #422312",
"@.	c #351A0E",
"#.	c #2A130B",
"$.	c #231108",
"%.	c #241108",
"&.	c #27150B",
"*.	c #2F1A0E",
"=.	c #371F12",
"-.	c #3B2113",
";.	c #4B2C1E",
">.	c #371A11",
",.	c #33190F",
"'.	c #32180F",
").	c #371718",
"!.	c #67422B",
"~.	c #71462C",
"{.	c #72492B",
"].	c #160C0E",
"^.	c #160B0F",
"/.	c #453622",
"(.	c #080405",
"_.	c #5F3623",
":.	c #5A331C",
"<.	c #492519",
"[.	c #3A1D12",
"}.	c #341D11",
"|.	c #2B160B",
"1.	c #2E160C",
"2.	c #31190E",
"3.	c #341B12",
"4.	c #040609",
"5.	c #452A17",
"6.	c #56331D",
"7.	c #512D1B",
"8.	c #422216",
"9.	c #3D1F14",
"0.	c #3A1C12",
"a.	c #5F2E23",
"b.	c #2C1313",
"c.	c #553120",
"d.	c #603825",
"e.	c #825442",
"f.	c #825342",
"g.	c #351F0E",
"h.	c #2E1913",
"i.	c #412916",
"j.	c #050609",
"k.	c #461F15",
"l.	c #4D2D1C",
"m.	c #3D1D12",
"n.	c #4A291D",
"o.	c #4F2D20",
"p.	c #523227",
"q.	c #080404",
"r.	c #06060A",
"s.	c #44261F",
"t.	c #3B1A18",
"u.	c #3C1A18",
"v.	c #0E0609",
"w.	c #0B0507",
"x.	c #5F2E22",
"y.	c #1F0A0A",
"z.	c #442618",
"A.	c #492919",
"B.	c #643E31",
"C.	c #0F0808",
"D.	c #311C0C",
"E.	c #2F190F",
"F.	c #301810",
"G.	c #3F2612",
"H.	c #070404",
"I.	c #5B3320",
"J.	c #5F301F",
"K.	c #744432",
"L.	c #0C0605",
"M.	c #5F3522",
"N.	c #100808",
"O.	c #0E0808",
"P.	c #010000",
"Q.	c #0A0202",
"R.	c #0B0606",
"S.	c #24140A",
"T.	c #0D0508",
"U.	c #321B11",
"V.	c #0E0709",
"W.	c #0B0607",
"X.	c #361C10",
"Y.	c #43251A",
"Z.	c #563429",
"`.	c #090403",
" +	c #26150A",
".+	c #5F3024",
"++	c #41261D",
"@+	c #431C25",
"#+	c #170D12",
"$+	c #4C2918",
"%+	c #4C271A",
"&+	c #613A26",
"*+	c #110A07",
"=+	c #2B2400",
"-+	c #2F2600",
";+	c #150B0B",
">+	c #141000",
",+	c #090700",
"'+	c #050101",
")+	c #130506",
"!+	c #25140A",
"~+	c #2E180D",
"{+	c #462A20",
"]+	c #5E3122",
"^+	c #090404",
"/+	c #0A0404",
"(+	c #131003",
"_+	c #1D1104",
":+	c #1F090B",
"<+	c #693F31",
"[+	c #744637",
"}+	c #75432A",
"|+	c #461F22",
"1+	c #11080B",
"2+	c #4A261A",
"3+	c #643C27",
"4+	c #76482F",
"5+	c #140B09",
"6+	c #302800",
"7+	c #332B00",
"8+	c #040300",
"9+	c #270F10",
"0+	c #220B0C",
"a+	c #2D180E",
"b+	c #331C0F",
"c+	c #442920",
"d+	c #1E0D10",
"e+	c #0A0606",
"f+	c #09080A",
"g+	c #241D00",
"h+	c #0B0604",
"i+	c #201901",
"j+	c #261212",
"k+	c #613B2D",
"l+	c #693C25",
"m+	c #47211E",
"n+	c #10070A",
"o+	c #0B0406",
"p+	c #2D100D",
"q+	c #472719",
"r+	c #4A2916",
"s+	c #4F2419",
"t+	c #612C20",
"u+	c #150E12",
"v+	c #2D2600",
"w+	c #272100",
"x+	c #2A2400",
"y+	c #49291B",
"z+	c #462517",
"A+	c #4E2119",
"B+	c #1D0B0F",
"C+	c #5B3626",
"D+	c #0D0706",
"E+	c #0E0805",
"F+	c #211B00",
"G+	c #261312",
"H+	c #513121",
"I+	c #4F2F20",
"J+	c #52301B",
"K+	c #371915",
"L+	c #080304",
"M+	c #240E0B",
"N+	c #412215",
"O+	c #432516",
"P+	c #53241B",
"Q+	c #1D1014",
"R+	c #261F00",
"S+	c #282200",
"T+	c #201B00",
"U+	c #4D241F",
"V+	c #5E3422",
"W+	c #4A2014",
"X+	c #491E17",
"Y+	c #1B0A0E",
"Z+	c #583428",
"`+	c #5F3523",
" @	c #6C412A",
".@	c #6D412A",
"+@	c #0F0B0D",
"@@	c #0C070B",
"#@	c #1E0B09",
"$@	c #43271A",
"%@	c #382112",
"&@	c #371E18",
"*@	c #040508",
"=@	c #020102",
"-@	c #240D0B",
";@	c #431D12",
">@	c #241015",
",@	c #703226",
"'@	c #322A00",
")@	c #262000",
"!@	c #773729",
"~@	c #6E3422",
"{@	c #6B3D28",
"]@	c #441F1A",
"^@	c #471D15",
"/@	c #481E17",
"(@	c #210D11",
"_@	c #220B0D",
":@	c #52301A",
"<@	c #623324",
"[@	c #5E2B1F",
"}@	c #160B0E",
"|@	c #442A19",
"1@	c #372113",
"2@	c #2C180D",
"3@	c #2B160D",
"4@	c #040202",
"5@	c #371D12",
"6@	c #421A12",
"7@	c #754A3A",
"8@	c #110909",
"9@	c #422214",
"0@	c #89601D",
"a@	c #6E3525",
"b@	c #724327",
"c@	c #683B26",
"d@	c #5E3624",
"e@	c #5E3425",
"f@	c #421D18",
"g@	c #3E1811",
"h@	c #200A0C",
"i@	c #311613",
"j@	c #653625",
"k@	c #522E18",
"l@	c #58321C",
"m@	c #481E16",
"n@	c #1C0707",
"o@	c #311A0F",
"p@	c #251409",
"q@	c #2D1A12",
"r@	c #311C15",
"s@	c #030202",
"t@	c #452A19",
"u@	c #583420",
"v@	c #784B3B",
"w@	c #120B0B",
"x@	c #130C0C",
"y@	c #121114",
"z@	c #674C03",
"A@	c #71452A",
"B@	c #632E21",
"C@	c #683827",
"D@	c #6C3E29",
"E@	c #471915",
"F@	c #5A3023",
"G@	c #36180C",
"H@	c #36170C",
"I@	c #3E1515",
"J@	c #743F2C",
"K@	c #7A422F",
"L@	c #78412E",
"M@	c #3A1D0E",
"N@	c #270F07",
"O@	c #110404",
"P@	c #1F0F07",
"Q@	c #1D0D06",
"R@	c #120505",
"S@	c #160606",
"T@	c #230C0D",
"U@	c #48291A",
"V@	c #5A3521",
"W@	c #653724",
"X@	c #7D4B38",
"Y@	c #170E0B",
"Z@	c #775414",
"`@	c #5F4602",
" #	c #673D28",
".#	c #5B321F",
"+#	c #58321B",
"@#	c #2F1011",
"##	c #3F1714",
"$#	c #4C241B",
"%#	c #35170C",
"&#	c #713D2A",
"*#	c #713E2A",
"=#	c #6B3928",
"-#	c #1E0F05",
";#	c #190B04",
">#	c #0F0302",
",#	c #090202",
"'#	c #6A4334",
")#	c #0E0708",
"!#	c #010101",
"~#	c #060201",
"{#	c #1F0A0B",
"]#	c #271010",
"^#	c #543221",
"/#	c #603221",
"(#	c #74422C",
"_#	c #160E0B",
":#	c #90573B",
"<#	c #592E1B",
"[#	c #532E1D",
"}#	c #4D281B",
"|#	c #522C1A",
"1#	c #432A16",
"2#	c #3C1613",
"3#	c #693827",
"4#	c #633525",
"5#	c #211601",
"6#	c #402115",
"7#	c #4B2919",
"8#	c #522B1C",
"9#	c #663B2B",
"0#	c #060500",
"a#	c #200B0B",
"b#	c #231D00",
"c#	c #2C0E10",
"d#	c #2A0D0E",
"e#	c #653824",
"f#	c #75402C",
"g#	c #8E573B",
"h#	c #4E291A",
"i#	c #4B2A19",
"j#	c #4E2A19",
"k#	c #0F0A04",
"l#	c #402712",
"m#	c #3C2010",
"n#	c #472216",
"o#	c #5E3727",
"p#	c #5D3422",
"q#	c #0E0606",
"r#	c #0C0800",
"s#	c #020200",
"t#	c #060400",
"u#	c #1B1600",
"v#	c #2E1010",
"w#	c #250A0B",
"x#	c #562F1C",
"y#	c #7C482A",
"z#	c #55301E",
"A#	c #573321",
"B#	c #6C3A29",
"C#	c #532D20",
"D#	c #412316",
"E#	c #412115",
"F#	c #53301F",
"G#	c #1E1900",
"H#	c #131000",
"I#	c #010100",
"J#	c #030200",
"K#	c #050300",
"L#	c #1A1500",
"M#	c #282100",
"N#	c #2B2300",
"O#	c #3E1E14",
"P#	c #45271A",
"Q#	c #4E2E1D",
"R#	c #301213",
"S#	c #572E1F",
"T#	c #461B14",
"U#	c #3D1810",
"V#	c #2D130F",
"W#	c #442416",
"X#	c #492916",
"Y#	c #441E14",
"Z#	c #583422",
"`#	c #0B0605",
" $	c #1F1900",
".$	c #100D00",
"+$	c #000000",
"@$	c #221800",
"#$	c #543E00",
"$$	c #543F00",
"%$	c #332302",
"&$	c #1F1504",
"*$	c #402715",
"=$	c #4F2E1C",
"-$	c #381B11",
";$	c #432216",
">$	c #512A1C",
",$	c #4C2018",
"'$	c #3A1A16",
")$	c #381914",
"!$	c #512D1C",
"~$	c #52251A",
"{$	c #502319",
"]$	c #0C080A",
"^$	c #211C00",
"/$	c #221C00",
"($	c #070500",
"_$	c #1C1400",
":$	c #221900",
"<$	c #0F0505",
"[$	c #0F0506",
"}$	c #230D08",
"|$	c #3D270D",
"1$	c #3F1E18",
"2$	c #633627",
"3$	c #5C3524",
"4$	c #56241A",
"5$	c #291217",
"6$	c #612B21",
"7$	c #1C1800",
"8$	c #1D1700",
"9$	c #241F00",
"0$	c #28130A",
"a$	c #240D06",
"b$	c #0C0405",
"c$	c #190A0A",
"d$	c #40251B",
"e$	c #341610",
"f$	c #482518",
"g$	c #402015",
"h$	c #3D1E13",
"i$	c #673929",
"j$	c #602C26",
"k$	c #713328",
"l$	c #362E00",
"m$	c #2E2600",
"n$	c #241E00",
"o$	c #1C1700",
"p$	c #1D1800",
"q$	c #4B291A",
"r$	c #301410",
"s$	c #32120B",
"t$	c #32120D",
"u$	c #18080A",
"v$	c #1C090D",
"w$	c #4D2C18",
"x$	c #4A2918",
"y$	c #230B11",
"z$	c #452317",
"A$	c #3F1F14",
"B$	c #6C362A",
"C$	c #713126",
"D$	c #773329",
"E$	c #451B1C",
"F$	c #532C1D",
"G$	c #562D1E",
"H$	c #633524",
"I$	c #44211A",
"J$	c #412019",
"K$	c #562E21",
"L$	c #3A1814",
"M$	c #3A160F",
"N$	c #381A16",
"O$	c #2D1115",
"P$	c #0A0406",
"Q$	c #090406",
"R$	c #472418",
"S$	c #703125",
"T$	c #461D22",
"U$	c #481E1E",
"V$	c #633424",
"W$	c #693C22",
"X$	c #4D1C18",
"Y$	c #623527",
"Z$	c #3C1B0E",
"`$	c #401A11",
" %	c #461A18",
".%	c #270E0E",
"+%	c #190707",
"@%	c #613423",
"#%	c #643525",
"$%	c #643920",
"%%	c #4D1F1A",
"&%	c #4E1F1B",
"*%	c #603025",
"=%	c #411E10",
"-%	c #461919",
";%	c #250D0D",
">%	c #25080D",
",%	c #311712",
"'%	c #562C1E",
")%	c #7B432F",
"!%	c #52341D",
"~%	c #4D1E1A",
"{%	c #60332D",
"]%	c #47271A",
"^%	c #321611",
"/%	c #371013",
"(%	c #623424",
"_%	c #5A2E2C",
":%	c #3A1A14",
"<%	c #5D3122",
"[%	c #572C2B",
"                      .       +             @                   ",
"                          # $             % & * =               ",
"      - ; >     ,       ' ) ! ~ {       ] ^ / ( _ :   <         ",
"      [ } |             1 2 3 4 5 6 7 8 9 0 a b c d e           ",
"      f g h   i       j k l m n o p q r s t u v w x y z         ",
"            A B C     D E F G H I J K L M N O 9 P Q R S T U     ",
"        V W X Y C       Z `  ...+.@.#.$.%.&.*.=.-.;.  >.,.'.    ",
"    ).!.~.{.].^./.(.        _.:.<.[.}.|.1.2.3.4.5.6.7.8.9.0.    ",
"a.b.c.d.e.f.g.h.i.j.            k.l.m.n.o.p.q.r.s.t.u.v.w.      ",
"x.y.z.A.B.C.D.E.F.G.H.        I.J.K.L.M.N.O.P.Q.R.S.T.U.V.      ",
"  W.X.Y.Z.`. +.+++@+#+      $+%+&+*+=+-+;+>+,+'+)+!+~+{+      ]+",
"    ^+/+(+_+:+<+[+}+|+1+    7 2+3+4+5+6+7+8+  9+0+a+b+c+d+      ",
"    e+f+g+h+i+j+k+l+m+n+o+p+q+r+s+t+u+v+w+x+      y+z+A+B+      ",
"      C+D+E+F+G+H+I+J+K+L+M+N+O+P+Q+R+S+T+      U+V+W+X+Y+Z+    ",
"      `+ @.@+@@@#@$@%@&@*@=@-@;@>@,@'@)@    !@~@{@]@^@/@(@_@:@  ",
"        <@e [@}@|@1@2@3@4@4@5@6@7@8@9@    0@a@b@c@d@e@f@g@h@i@  ",
"        j@k@l@m@n@o@p@q@r@s@t@u@v@w@x@y@z@A@B@C@D@E@F@G@H@I@    ",
"      J@K@L@M@N@' O@P@Q@R@S@T@U@V@W@X@Y@Z@`@ #.#+#@###$#%#      ",
"      &#*#=#-#;#>#,#'#)#!#~#{#]#^#/#(#_#:#<#[#}#|#1#2#          ",
"      3#4#; 5#6#7#8#9#O.0#~#a#b#c#d#e#f#g#h#i#j#k#l#            ",
"  =#      m#r q n#o#p#q#r#s#t#u#v#w#x#} y#z#z#A#                ",
"  B#  C#H D#D#E#F#h+G#H#I#J#K#L#M#N#O#R P#Q#R#              S#  ",
"    T#U#V#W#X#Y#Z#`# $.$+$P.8+@$#$$$%$&$*$=$          -$  ;$>$  ",
"    ,$'$)$!$~${$i ]$^$/$8+($_$:$<$[$}$|$                    }#  ",
"    1$2$3$4$5$6$7$8$9$G#J#0$a$b$c$d$e$      f$g$h$              ",
"      i$j$k$l$m$n$o$p$q$r$s$t$u$v$w$x$y$    z$h$A$              ",
"      B$C$D$E$6+F$G$H$I$J$K$L$M$_@N$O$P$Q$  ;$;$R$              ",
"        S$T$U$  ; ; V$W$X$Y$Z$`$ %.%w.w.+%          G$S#        ",
"    @%          #%H$#%$%%%&%*%=%-%;%>%,%            '%          ",
"            )%          !%~%{%]%^%/%        (%            >     ",
"                        8@* _%:%          <%                    ",
"                          E$[%                                  "};
