/* XPM */
static char * ennemy_dead_xpm[] = {
"32 32 124 2",
"  	c None",
". 	c #39090D",
"+ 	c #260A08",
"@ 	c #7A4745",
"# 	c #8B5A2A",
"$ 	c #986F3C",
"% 	c #896B40",
"& 	c #80643C",
"* 	c #7D6540",
"= 	c #3D241F",
"- 	c #3A221D",
"; 	c #684A26",
"> 	c #937345",
", 	c #84673E",
"' 	c #7E6640",
") 	c #70562D",
"! 	c #3F2520",
"~ 	c #3C231E",
"{ 	c #38201C",
"] 	c #6D4E28",
"^ 	c #64492C",
"/ 	c #886A40",
"( 	c #6B522A",
"_ 	c #76582C",
": 	c #260B09",
"< 	c #390B0F",
"[ 	c #39211C",
"} 	c #654A2C",
"| 	c #78613D",
"1 	c #644D27",
"2 	c #6C5128",
"3 	c #280C0B",
"4 	c #3B2B28",
"5 	c #5A5159",
"6 	c #2D100F",
"7 	c #85683E",
"8 	c #715B39",
"9 	c #5D4724",
"0 	c #674D26",
"a 	c #280D0C",
"b 	c #713956",
"c 	c #371F1B",
"d 	c #695853",
"e 	c #615861",
"f 	c #533D24",
"g 	c #463520",
"h 	c #5B4623",
"i 	c #3A0E11",
"j 	c #4E464B",
"k 	c #5C4744",
"l 	c #7C4065",
"m 	c #341E1A",
"n 	c #3A0C0F",
"o 	c #3D2E2B",
"p 	c #553E25",
"q 	c #4A3822",
"r 	c #36211B",
"s 	c #592D64",
"t 	c #592C63",
"u 	c #655C5C",
"v 	c #2A100F",
"w 	c #2B1011",
"x 	c #795F60",
"y 	c #5C2F56",
"z 	c #301B17",
"A 	c #321C18",
"B 	c #351E1A",
"C 	c #572C62",
"D 	c #552A5F",
"E 	c #6A6059",
"F 	c #7B3F56",
"G 	c #894662",
"H 	c #41302D",
"I 	c #743B51",
"J 	c #6B5B64",
"K 	c #2F1A17",
"L 	c #311B18",
"M 	c #5D2E68",
"N 	c #582C62",
"O 	c #542A5E",
"P 	c #52295C",
"Q 	c #55423E",
"R 	c #844E5F",
"S 	c #7D3F58",
"T 	c #85435E",
"U 	c #2E1916",
"V 	c #5B2E66",
"W 	c #4F2759",
"X 	c #634647",
"Y 	c #7B4C58",
"Z 	c #78545B",
"` 	c #602F41",
" .	c #2C1815",
"..	c #2E1A17",
"+.	c #502759",
"@.	c #3B0B10",
"#.	c #270C0A",
"$.	c #5F574E",
"%.	c #635752",
"&.	c #270C0B",
"*.	c #2B1815",
"=.	c #351F1B",
"-.	c #3A0A0E",
";.	c #562B60",
">.	c #4D2657",
",.	c #662E41",
"'.	c #270B0A",
").	c #5E2F69",
"!.	c #5A2D65",
"~.	c #2D1916",
"{.	c #5F2E40",
"].	c #64326F",
"^.	c #5F2F6A",
"/.	c #562B61",
"(.	c #663372",
"_.	c #61316C",
":.	c #60306C",
"<.	c #5D2F68",
"[.	c #5F306B",
"}.	c #62316E",
"|.	c #592C64",
"1.	c #5F306A",
"2.	c #60306B",
"3.	c #582C63",
"                                                                ",
"    .                     +         @       .                   ",
"  . . .             @             . + @                         ",
"    .             . . .           . . .                 .       ",
"            @ @ . . .           @ . .           @ @ .           ",
"      .   @ . . + . @           . . .     +   @ . + . @         ",
"          . . + + + . # #     . . . @         . + + + . @       ",
"          . . . + . $ $ $ # . . + . . @ @ .   % & * . .         ",
"      +     . . + . . $ = - . . . . . . . . ; > , ' )     @     ",
"              . . . + = ! ~ { . . . . . . . ] ^ / * ( _ . . @   ",
"              . . + + : < = [ + . $ $ # # . . } / | 1 2 . .     ",
"              . . + 3 4 5 = - { $ $ $ 6 6 # . } 7 8 9 0 @       ",
"                . a b c { d e [ $ $ $ $ # 6 . . f g h @         ",
"  .       . . . i j k l m n o [ $ $ $ $ # # . . p q . @         ",
"      r @ . s t u v w x y z A B . $ $ # + + . . . . + . .       ",
"    r r . C D D E F G H I J K L . + + + + + . . . + + + .   .   ",
"  @ r r M N O P Q R S T T A U U . + $ $ $ . . . . . + . .       ",
"  . + r r V D W X Y s Z ` K  ...B $ $ $ 6 # + . . . . . .       ",
"  @ . + r + . +.Y @.#.$.%.&.*.K =.+ # # # . . . . . . @         ",
"    . . . . -.. ;.. + >.&.+  .K =.+ + # + . . . . . .           ",
"      . . -.,.'.).. !.W + K ~.K + + + + + . . @ @               ",
"          -.{.'.+ ].^./.+ $ z . + + + + + . @               @   ",
"      .   . '.+ + (._.. $ $ $ # . + + + . . . @   .   + .       ",
"          . + + . :.<.[.}.# # . . . . . . . . @       . + @     ",
"          . . . . |.|.M 1.2.  . . . . . . + . . .       .       ",
"    @ . . . . . . . D . 3.r     @ . . . + + . . .               ",
"  @ . + + + . + . r r . . r r   @ . . . + + + . .               ",
"  @ + + + .   @ . r r r r r   @ . .   . . + . .                 ",
"  @ . + . .         r r r .   . + .     . . .                   ",
"    . . .         +             .                               ",
"            @                             .                     ",
"                                                                "};
