/* XPM */
static char * ennemy_dead_xpm[] = {
"32 32 77 1",
" 	c None",
".	c #4E0006",
"+	c #330603",
"@	c #9B4945",
"#	c #B9691B",
"$	c #C88531",
"%	c #1B0B5D",
"&	c #19093C",
"*	c #2B1952",
"=	c #330704",
"-	c #4E0308",
";	c #1B0C5D",
">	c #350807",
",	c #49302B",
"'	c #6C5D6A",
")	c #413564",
"!	c #1C0D3D",
"~	c #3C0C0B",
"{	c #360908",
"]	c #913766",
"^	c #58295C",
"/	c #3E3263",
"(	c #80655C",
"_	c #746574",
":	c #1B0C3C",
"<	c #4F060B",
"[	c #5E5159",
"}	c #72504A",
"|	c #A03E79",
"1	c #210E5D",
"2	c #4F0409",
"3	c #4C342E",
"4	c #462319",
"5	c #3F3722",
"6	c #403823",
"7	c #796A6A",
"8	c #370D0B",
"9	c #380D0E",
"0	c #946A6B",
"a	c #772D6C",
"b	c #200F5D",
"c	c #1B0D5D",
"d	c #4F4731",
"e	c #504832",
"f	c #817164",
"g	c #9E3C62",
"h	c #B14370",
"i	c #513531",
"j	c #95385C",
"k	c #816777",
"l	c #694A43",
"m	c #A7506B",
"n	c #A13C64",
"o	c #AB406C",
"p	c #AB406B",
"q	c #5E3969",
"r	c #695B70",
"s	c #1D0D5D",
"t	c #655C45",
"u	c #7B4B4E",
"v	c #9B4E63",
"w	c #524733",
"x	c #955B66",
"y	c #7C2C4A",
"z	c #23143E",
"A	c #3C3148",
"B	c #403723",
"C	c #50020B",
"D	c #340905",
"E	c #746658",
"F	c #79655C",
"G	c #340906",
"H	c #4F0108",
"I	c #504732",
"J	c #852949",
"K	c #340705",
"L	c #7B2B49",
"                                ",
"  .          +    @   .         ",
" ...      @      .+@            ",
"  .      ...     ...        .   ",
"      @@...     @..     @@.     ",
"   . @..+.@     ...  + @.+.@    ",
"     ..+++.##  ...@    .+++.@   ",
"     ...+.$$$#..+..@@. .++..    ",
"   +  ..+..$%&......... ...  @  ",
"       ...+*%%&.........    ..@ ",
"       ..++=-;&+.$$##...  ....  ",
"       ..+>,')!&$$$~~#.@ ...@   ",
"        .{]^/(_:$$$$#~..@..@    ",
" .   ...<[}|123;$$$$##.....@    ",
"   4@.567890abc%.$$#++....+..   ",
"  44.ddefghijk);.+++++...+++. . ",
" @445dddlmnopqrs.+$$$.....+..   ",
" .+44ttduvwxyzA;&$$$~#+......   ",
" @.+4+.BvCDEFG*%&+###......@    ",
"  ....H.I.+6G+*%&++#+......     ",
"   ..HJK5.d5+*%&+++++..@@       ",
"     HLK+5d5+$&.+++++.@       @ ",
"   . .K++td.$$$#.+++...@ . +.   ",
"     .++.tdd5##........@   .+@  ",
"     ....tdd55 ......+...   .   ",
"  @.......t.54  @...++...       ",
" @.+++.+.44..44 @...+++..       ",
" @+++. @.44444 @.. ..+..        ",
" @.+..    444. .+.  ...         ",
"  ...    +      .               ",
"      @              .          ",
"                                "};
