/* XPM */
static char * rambo_dead_xpm[] = {
"32 32 435 2",
"  	c None",
". 	c #B8A6A5",
"+ 	c #AD9295",
"@ 	c #BBA9AA",
"# 	c #6F4045",
"$ 	c #72000A",
"% 	c #750009",
"& 	c #71000C",
"* 	c #976B6D",
"= 	c #6D4145",
"- 	c #63000C",
"; 	c #843C43",
"> 	c #AC8A8B",
", 	c #987B7E",
"' 	c #824F54",
") 	c #967172",
"! 	c #5B0007",
"~ 	c #946265",
"{ 	c #B8B6B6",
"] 	c #ACAAAA",
"^ 	c #AD9E9F",
"/ 	c #6B1017",
"( 	c #805254",
"_ 	c #AAAAAA",
": 	c #897375",
"< 	c #821D28",
"[ 	c #78000E",
"} 	c #790915",
"| 	c #A07678",
"1 	c #A15B16",
"2 	c #781F25",
"3 	c #895459",
"4 	c #7D4E52",
"5 	c #69151B",
"6 	c #9E9695",
"7 	c #9B7A7B",
"8 	c #74000C",
"9 	c #5F000C",
"0 	c #772129",
"a 	c #823C40",
"b 	c #71171E",
"c 	c #AA7129",
"d 	c #A16B25",
"e 	c #9D6724",
"f 	c #935214",
"g 	c #682E30",
"h 	c #A48686",
"i 	c #A07A7E",
"j 	c #75000C",
"k 	c #9B7578",
"l 	c #948788",
"m 	c #7B0211",
"n 	c #83131D",
"o 	c #9D7C7D",
"p 	c #B6B8B8",
"q 	c #868282",
"r 	c #A39899",
"s 	c #565C5D",
"t 	c #001F28",
"u 	c #9B6624",
"v 	c #946222",
"w 	c #8C4F11",
"x 	c #9A9697",
"y 	c #A58F91",
"z 	c #9B7B7E",
"A 	c #80000D",
"B 	c #8D3E44",
"C 	c #BEB7B8",
"D 	c #783F44",
"E 	c #730A14",
"F 	c #AE9C9E",
"G 	c #A3A3A3",
"H 	c #9B7F80",
"I 	c #824B50",
"J 	c #7C4044",
"K 	c #A68C8F",
"L 	c #293D45",
"M 	c #636E70",
"N 	c #A56E26",
"O 	c #9C6725",
"P 	c #9A6423",
"Q 	c #8D4F13",
"R 	c #8D6668",
"S 	c #765B5C",
"T 	c #670010",
"U 	c #861B25",
"V 	c #B3A4A3",
"W 	c #B0888C",
"X 	c #70000D",
"Y 	c #7A5759",
"Z 	c #A2A0A0",
"` 	c #724245",
" .	c #620009",
"..	c #75000B",
"+.	c #80000F",
"@.	c #7C1119",
"#.	c #364249",
"$.	c #12313A",
"%.	c #2B444A",
"&.	c #330704",
"*.	c #510309",
"=.	c #9E6925",
"-.	c #8A4C11",
";.	c #5F0009",
">.	c #5B0008",
",.	c #C88531",
"'.	c #B9691B",
").	c #7A2C32",
"!.	c #A9A7A5",
"~.	c #825053",
"{.	c #72000D",
"].	c #6C2D33",
"^.	c #886F6F",
"/.	c #A89B9C",
"(.	c #8F7678",
"_.	c #9F8888",
":.	c #747879",
"<.	c #29383F",
"[.	c #4A5558",
"}.	c #361010",
"|.	c #1D2C4A",
"1.	c #6C5D6A",
"2.	c #966423",
"3.	c #874B11",
"4.	c #3C0C0B",
"5.	c #998082",
"6.	c #81040E",
"7.	c #6F3337",
"8.	c #959291",
"9.	c #9E9B9C",
"0.	c #A08F90",
"a.	c #9A8183",
"b.	c #A69B9C",
"c.	c #7E8382",
"d.	c #314147",
"e.	c #103138",
"f.	c #340F11",
"g.	c #913766",
"h.	c #1B2B47",
"i.	c #192942",
"j.	c #80655C",
"k.	c #746574",
"l.	c #14223A",
"m.	c #8E8888",
"n.	c #682025",
"o.	c #7C1C27",
"p.	c #9B9293",
"q.	c #A99395",
"r.	c #762C31",
"s.	c #821A22",
"t.	c #6A6D6D",
"u.	c #05252D",
"v.	c #677171",
"w.	c #4B1C1F",
"x.	c #5E5159",
"y.	c #72504A",
"z.	c #A03E79",
"A.	c #192741",
"B.	c #500D12",
"C.	c #17263E",
"D.	c #17253D",
"E.	c #7F000F",
"F.	c #9D7F80",
"G.	c #97888A",
"H.	c #6E1018",
"I.	c #72000C",
"J.	c #783A3E",
"K.	c #84595B",
"L.	c #884D4F",
"M.	c #976E71",
"N.	c #452319",
"O.	c #9B4945",
"P.	c #5B6162",
"Q.	c #495029",
"R.	c #4B522A",
"S.	c #796A6A",
"T.	c #361D1E",
"U.	c #3B2829",
"V.	c #946A6B",
"W.	c #1A2A45",
"X.	c #1A2A44",
"Y.	c #192842",
"Z.	c #182741",
"`.	c #4E0006",
" +	c #330603",
".+	c #83000C",
"++	c #83393E",
"@+	c #732B31",
"#+	c #6D000C",
"$+	c #7A6264",
"%+	c #989898",
"&+	c #928E8E",
"*+	c #A7A0A1",
"=+	c #928586",
"-+	c #404244",
";+	c #263539",
">+	c #462319",
",+	c #452218",
"'+	c #102A31",
")+	c #454B26",
"!+	c #3C4A00",
"~+	c #484E28",
"{+	c #817164",
"]+	c #9E3C62",
"^+	c #B14370",
"/+	c #4E332F",
"(+	c #95385C",
"_+	c #816777",
":+	c #1B2C46",
"<+	c #1A2943",
"[+	c #68141C",
"}+	c #A19999",
"|+	c #9F6C6E",
"1+	c #610009",
"2+	c #9C6D6F",
"3+	c #9F9D9D",
"4+	c #6B5052",
"5+	c #782129",
"6+	c #821921",
"7+	c #813036",
"8+	c #535555",
"9+	c #442218",
"0+	c #464D27",
"a+	c #3B4800",
"b+	c #374400",
"c+	c #424825",
"d+	c #694A43",
"e+	c #A7506B",
"f+	c #A13C64",
"g+	c #AB406C",
"h+	c #AB406B",
"i+	c #1F304E",
"j+	c #1D2E49",
"k+	c #96541F",
"l+	c #977E7E",
"m+	c #998D8C",
"n+	c #7E101A",
"o+	c #6E3034",
"p+	c #A05F67",
"q+	c #6D0010",
"r+	c #7C000D",
"s+	c #882F37",
"t+	c #872B33",
"u+	c #954950",
"v+	c #001418",
"w+	c #032A31",
"x+	c #444A26",
"y+	c #364300",
"z+	c #3F4522",
"A+	c #7B4B4E",
"B+	c #9B4E63",
"C+	c #475600",
"D+	c #955B66",
"E+	c #7C2C4A",
"F+	c #1D2E4B",
"G+	c #B1752A",
"H+	c #A56C27",
"I+	c #7E4246",
"J+	c #6F010B",
"K+	c #827576",
"L+	c #A47B7D",
"M+	c #96000F",
"N+	c #873139",
"O+	c #323A3B",
"P+	c #002E37",
"Q+	c #002229",
"R+	c #575D61",
"S+	c #50020B",
"T+	c #330C09",
"U+	c #746658",
"V+	c #79655C",
"W+	c #370A08",
"X+	c #A76E28",
"Y+	c #976642",
"Z+	c #828080",
"`+	c #743B40",
" @	c #65000C",
".@	c #654143",
"+@	c #978F8F",
"@@	c #861D26",
"#@	c #952E37",
"$@	c #707272",
"%@	c #002228",
"&@	c #1B353C",
"*@	c #404D51",
"=@	c #052C35",
"-@	c #313A3D",
";@	c #002730",
">@	c #435200",
",@	c #693E41",
"'@	c #9B6735",
")@	c #978172",
"!@	c #8B5B5D",
"~@	c #815B5D",
"{@	c #521B1E",
"]@	c #5D000A",
"^@	c #742C31",
"/@	c #737070",
"(@	c #6F4347",
"_@	c #790F17",
":@	c #172C2F",
"<@	c #495557",
"[@	c #5A6062",
"}@	c #1E272F",
"|@	c #852949",
"1@	c #00232A",
"2@	c #484F2B",
"3@	c #425200",
"4@	c #444B26",
"5@	c #7F0510",
"6@	c #976130",
"7@	c #9B7E67",
"8@	c #99595C",
"9@	c #7E0010",
"0@	c #5E000A",
"a@	c #5C000A",
"b@	c #71000A",
"c@	c #5A0309",
"d@	c #744245",
"e@	c #8E8A8B",
"f@	c #766869",
"g@	c #64010A",
"h@	c #836A6C",
"i@	c #353A3B",
"j@	c #0E262C",
"k@	c #000C13",
"l@	c #363A3E",
"m@	c #7B2B49",
"n@	c #002027",
"o@	c #425100",
"p@	c #414724",
"q@	c #79171E",
"r@	c #90715C",
"s@	c #936466",
"t@	c #7D000D",
"u@	c #6D000A",
"v@	c #56262E",
"w@	c #463437",
"x@	c #4D262B",
"y@	c #612329",
"z@	c #818183",
"A@	c #8F7F7F",
"B@	c #6A121A",
"C@	c #70282F",
"D@	c #7F8383",
"E@	c #00171B",
"F@	c #001E26",
"G@	c #0D232C",
"H@	c #313B40",
"I@	c #585F63",
"J@	c #919393",
"K@	c #465600",
"L@	c #484F29",
"M@	c #835939",
"N@	c #7F5A3A",
"O@	c #824E1B",
"P@	c #732429",
"Q@	c #453E40",
"R@	c #372A2B",
"S@	c #3F0F14",
"T@	c #430208",
"U@	c #3F0E13",
"V@	c #493F41",
"W@	c #60131A",
"X@	c #690913",
"Y@	c #494F52",
"Z@	c #696F72",
"`@	c #8F9291",
" #	c #B2B2B5",
".#	c #A3A1A3",
"+#	c #9D8D8C",
"@#	c #4D542B",
"##	c #4B5129",
"$#	c #3C4900",
"%#	c #3E4322",
"&#	c #793B3A",
"*#	c #75281D",
"=#	c #4E4041",
"-#	c #430005",
";#	c #4D272A",
">#	c #583136",
",#	c #501015",
"'#	c #44060A",
")#	c #4E191E",
"!#	c #848688",
"~#	c #8E8E8E",
"{#	c #B2A6A7",
"]#	c #BA9697",
"^#	c #8A5558",
"/#	c #7C0711",
"(#	c #4C522A",
"_#	c #445300",
":#	c #415100",
"<#	c #3F4D00",
"[#	c #454C28",
"}#	c #6A4649",
"|#	c #5A0408",
"1#	c #6A0D12",
"2#	c #5F0004",
"3#	c #4C0003",
"4#	c #5A4D4E",
"5#	c #998688",
"6#	c #660B12",
"7#	c #84000E",
"8#	c #830010",
"9#	c #6C000C",
"0#	c #7E131F",
"a#	c #9E6468",
"b#	c #B49FA1",
"c#	c #4C532B",
"d#	c #A29394",
"e#	c #683A3B",
"f#	c #6F4448",
"g#	c #786567",
"h#	c #49191D",
"i#	c #7C0A16",
"j#	c #843337",
"k#	c #896569",
"l#	c #A79E9F",
"m#	c #80141E",
"n#	c #848587",
"o#	c #6D6D6F",
"p#	c #9E9E9E",
"q#	c #8F9190",
"r#	c #958486",
"s#	c #584143",
"t#	c #794D4F",
"u#	c #75242A",
"v#	c #6E000A",
"w#	c #66000C",
"x#	c #452219",
"y#	c #552025",
"z#	c #77030E",
"A#	c #662B2F",
"B#	c #9F8587",
"                                                                ",
"                                              . + @             ",
"                                            # $ % & *           ",
"                                          = - ; > , '           ",
"                                        ) ! ~ { ] ^             ",
"                                        / ( _ : < [ } |         ",
"                      1 1 2 3         4 5 6 7 8 9 0 a b         ",
"                    c d e f g h     i j k l m n o _ p q r       ",
"                  s t u v w x y   z A B C D E F G H I J K       ",
"                  L M N O P Q R S T U V W X Y Z `  ...+.@.      ",
"                #.$.%.&.*.=.-.;.>.,.,.'.'.).!.~.{.].^./.(._.    ",
"              :.<.[.}.|.1.=.2.3.,.,.,.4.4.'.5.6.7.8.9.0.a.b.    ",
"            c.d.e.f.g.h.i.j.k.l.,.,.,.,.'.m.n.o.p.q.r.;.;.s.    ",
"          t.u.v.w.x.y.z.A.B.C.D.,.,.,.,.'.'.E.F.G.H.I.J.K.L.M.  ",
"      N.O.P.Q.R.S.T.U.V.W.X.Y.Z.`.,.,.'. +.+++p.@+#+$+%+&+*+=+  ",
"-+;+>+,+'+)+!+~+{+]+^+/+(+_+:+<+`. + + + +[+}+|+1+2+3+4+5+6+7+  ",
"8+O.N.9+0+a+b+c+d+e+f+g+h+i+j+k+`. +,.,.,.l+m+n+o+9.p+q+r+s+t+u+",
"  v+w+,+9+x+y+z+A+B+C+D+E+F+G+H+'.,.,.,.4.'.I+J+K+L+M+N+        ",
"  O+P+Q+,+Q+R+c+B+S+T+U+V+W+X+Y+'.Z+'.'.'.`+ @.@+@@@#@          ",
"  $@%@&@*@=@-@;@>@`. +~+,@A '@)@'.!@~@'.{@]@^@/@(@_@            ",
"    :@<@[@}@|@1@2@`.3@4@5@6@7@8@9@0@a@b@c@d@e@f@g@h@            ",
"    i@j@k@l@m@n@ +C+o@p@q@r@s@t@u@v@w@x@y@z@A@B@C@              ",
"    D@E@F@G@H@I@J@K@L@X M@N@O@P@Q@R@S@T@U@V@W@X@                ",
"      Y@Z@`@ #.#+#@###$#%#&#*#  =#-#;#>#,#'#)#                  ",
"      !#~#{#]#^#/#(#_#:#<#[#    }#|#1#2#3#4#                    ",
"      5#6#7#8#9#0#a#R.b#c#N.    d#e#f#g#                        ",
"        h#i#j#k#l#9+9+m#5@>+>+                                  ",
"        n#o#p#q#r#,+9+9+,+N.                                    ",
"          s#t#u#v#w#x#,+9+                                      ",
"          y#j z#A#B#                                            ",
"                                                                ",
"                                                                "};
