/* XPM */
static char * smoke_big_xpm[] = {
"32 32 5 1",
" 	c None",
".	c #AAAAAA",
"+	c #7F7F7F",
"@	c #555555",
"#	c #2A2A2A",
"           .+.+.+.+.+           ",
"         +.+.@...+.+.           ",
"       .+.++@+@+@+@++.          ",
"     +.+.@+@+++@+@+@+++         ",
"      ++@+@+++@+@+++@+@+@+@     ",
"      .++++++++++++++@+++@+@@   ",
"      ++++++++@+@+++@+@+@+@+#   ",
"     ++@+++@+@+@+++++@+@+@+@@@  ",
"    +.++@+@+++@+@++@@+@+@+@+#@  ",
" +.+.++++@+++@+++++@@@+++@+++@@ ",
" .+.@+++@+++@+@++++@#+@+@+@+@@# ",
".++@+++@++++++++++@@@++@+@+@@@@@",
"+.@+++@+@+++@+@++@#@@+++@+@+#@# ",
".@+++@+++++++++++@@++@+++@@@@@  ",
"@+@+@+++++++++++@+@+@+@+@+#@#   ",
"+@+@+@++++@@+++++++@+@+@+@@@    ",
"@+@+@+#@#@#+@+++@+@+@+@+@+#     ",
" @+++@+++@+++@+++@+++@+++@@     ",
" @#@@+@+@+++++@+@+++++@+@+#     ",
"  @@+++@+++++++@+++++++@+@+@    ",
"  #@#@@+@+@+@++++++@#+@+@+@@#   ",
"    @@@++++++++++++@+@+++@++@@@ ",
"     @#+@+++@++@#+@+@+@+@+@+@@# ",
"      @@+++++++@+@+@+@+@+@+@+@  ",
"      #+@+++++++@+#@#@#@@+@+#@  ",
"      @++@+++++++@@@@@@@+@+@@   ",
"     +@+@+@+@+@+@+#@   @#@#     ",
"    @@@@+@+@+++@+@@     @@      ",
"     @#@@+@+@+@+@@              ",
"       @@@@@@@@@@@              ",
"         @#@   @#@              ",
"                @               "};
