/* XPM */
static char * rambo_walk_1_xpm[] = {
"21 21 59 1",
" 	c None",
".	c #964325",
"+	c #323E00",
"@	c #2D3800",
"#	c #273200",
"$	c #293300",
"%	c #2E3A00",
"&	c #344000",
"*	c #374400",
"=	c #3C4A00",
"-	c #9D4727",
";	c #2E3900",
">	c #303B00",
",	c #374500",
"'	c #3E4C00",
")	c #3D4B00",
"!	c #354100",
"~	c #A14929",
"{	c #3E4D00",
"]	c #465600",
"^	c #4A5A00",
"/	c #485800",
"(	c #3F4E00",
"_	c #3A4700",
":	c #425100",
"<	c #4A5B00",
"[	c #4C5D00",
"}	c #475700",
"|	c #3A4800",
"1	c #3C4900",
"2	c #404E00",
"3	c #4D5E00",
"4	c #455400",
"5	c #3B4900",
"6	c #364300",
"7	c #415000",
"8	c #495A00",
"9	c #4E6000",
"0	c #4E5F00",
"a	c #364200",
"b	c #506200",
"c	c #333F00",
"d	c #4F6000",
"e	c #4B5C00",
"f	c #455500",
"g	c #404F00",
"h	c #435200",
"i	c #445300",
"j	c #7F381E",
"k	c #74321B",
"l	c #354200",
"m	c #8A3D21",
"n	c #7D371D",
"o	c #3B4800",
"p	c #394600",
"q	c #384500",
"r	c #445400",
"s	c #8D3E22",
"t	c #80381E",
"                     ",
"                     ",
"                     ",
"                     ",
"                     ",
"                     ",
"  .+@#$%&*=          ",
"  -;;>,')*!          ",
"  ~+,{]^/(*_         ",
"    ':]<[}{|         ",
"     12]3[45         ",
"     67890}5a        ",
"    &|}0b0})|5       ",
"    c=/0defgg:hi}jk  ",
"    l*:/}ig(g4}]fmn  ",
"      o)opqq_'hfrst  ",
"                     ",
"                     ",
"                     ",
"                     ",
"                     "};
