/* XPM */
static char * rambo_walk_0_xpm[] = {
"21 21 49 1",
" 	c None",
".	c #3B4800",
"+	c #3D4B00",
"@	c #394600",
"#	c #384500",
"$	c #3A4700",
"%	c #3E4C00",
"&	c #435200",
"*	c #455500",
"=	c #445400",
"-	c #8D3E22",
";	c #80381E",
">	c #354200",
",	c #374400",
"'	c #425100",
")	c #485800",
"!	c #475700",
"~	c #445300",
"{	c #404F00",
"]	c #3F4E00",
"^	c #455400",
"/	c #465600",
"(	c #8A3D21",
"_	c #7D371D",
":	c #333F00",
"<	c #3C4A00",
"[	c #4E5F00",
"}	c #4F6000",
"|	c #4B5C00",
"1	c #7F381E",
"2	c #74321B",
"3	c #344000",
"4	c #3A4800",
"5	c #506200",
"6	c #3B4900",
"7	c #364300",
"8	c #415000",
"9	c #495A00",
"0	c #4E6000",
"a	c #364200",
"b	c #3C4900",
"c	c #404E00",
"d	c #4D5E00",
"e	c #4C5D00",
"f	c #4A5B00",
"g	c #3E4D00",
"h	c #4A5A00",
"i	c #354100",
"j	c #2E3A00",
"                     ",
"                     ",
"                     ",
"                     ",
"                     ",
"                     ",
"      .+.@##$%$%&*=-;",
"    >,')!~{]{^{^!/*(_",
"    :<)[}|*{{'{'&~!12",
"    34![5[!+46       ",
"     7890[!6a        ",
"     bc/de^6         ",
"    %'/fe!g4         ",
"21!~&'{h)],$         ",
"_(*/!^{%+,i          ",
";-=*&%$j3,<          ",
"                     ",
"                     ",
"                     ",
"                     ",
"                     "};
