/* XPM */
static char * rambo_walk_1_xpm[] = {
"21 21 49 1",
" 	c None",
".	c #80381E",
"+	c #8D3E22",
"@	c #445400",
"#	c #455500",
"$	c #435200",
"%	c #3E4C00",
"&	c #3A4700",
"*	c #2E3A00",
"=	c #344000",
"-	c #374400",
";	c #3C4A00",
">	c #7D371D",
",	c #8A3D21",
"'	c #465600",
")	c #475700",
"!	c #455400",
"~	c #404F00",
"{	c #3D4B00",
"]	c #354100",
"^	c #74321B",
"/	c #7F381E",
"(	c #445300",
"_	c #425100",
":	c #4A5A00",
"<	c #485800",
"[	c #3F4E00",
"}	c #4A5B00",
"|	c #4C5D00",
"1	c #3E4D00",
"2	c #3A4800",
"3	c #3C4900",
"4	c #404E00",
"5	c #4D5E00",
"6	c #3B4900",
"7	c #364300",
"8	c #415000",
"9	c #495A00",
"0	c #4E6000",
"a	c #4E5F00",
"b	c #364200",
"c	c #506200",
"d	c #333F00",
"e	c #4F6000",
"f	c #4B5C00",
"g	c #354200",
"h	c #3B4800",
"i	c #394600",
"j	c #384500",
"                     ",
"                     ",
"                     ",
"                     ",
"                     ",
".+@#$%&*=-;          ",
">,#')!~%{-]          ",
"^/)($_~:<[-&         ",
"    %_'}|)12         ",
"     34'5|!6         ",
"     7890a)6b        ",
"    =2)aca){26       ",
"    d;<aef#~~_~_$()/^",
"    g-_<)(~[~!~!)'#,>",
"      h{hijj&%&%$#@+.",
"                     ",
"                     ",
"                     ",
"                     ",
"                     ",
"                     "};
