/* XPM */
static char * rambo_stand_xpm[] = {
"28 21 165 2",
"  	c None",
". 	c #AD7534",
"+ 	c #AC7330",
"@ 	c #A97028",
"# 	c #A76E27",
"$ 	c #C2833C",
"% 	c #BB834B",
"& 	c #BA8042",
"* 	c #B57A34",
"= 	c #AE7329",
"- 	c #AA7128",
"; 	c #BE823F",
"> 	c #C38C57",
", 	c #C38A50",
"' 	c #BD8039",
") 	c #B3762B",
"! 	c #AC7129",
"~ 	c #1D2E4B",
"{ 	c #C68740",
"] 	c #C6873F",
"^ 	c #C28133",
"/ 	c #B87A2C",
"( 	c #A36B26",
"_ 	c #A26B26",
": 	c #9C6724",
"< 	c #936121",
"[ 	c #1E2F4D",
"} 	c #1E2F4C",
"| 	c #C48330",
"1 	c #BD7E2E",
"2 	c #AF742A",
"3 	c #9F6925",
"4 	c #986423",
"5 	c #976322",
"6 	c #905F21",
"7 	c #86581E",
"8 	c #1D2D4A",
"9 	c #203251",
"0 	c #213353",
"a 	c #203150",
"b 	c #956222",
"c 	c #8F5E20",
"d 	c #905E20",
"e 	c #8A5A1F",
"f 	c #223454",
"g 	c #8A0905",
"h 	c #930A06",
"i 	c #960A06",
"j 	c #8E0906",
"k 	c #800704",
"l 	c #1B2A46",
"m 	c #946122",
"n 	c #8E5D20",
"o 	c #B00E09",
"p 	c #1F304E",
"q 	c #8C0905",
"r 	c #6F4013",
"s 	c #774415",
"t 	c #784516",
"u 	c #744215",
"v 	c #996523",
"w 	c #D6AB17",
"x 	c #8A5B1F",
"y 	c #990B07",
"z 	c #7C4717",
"A 	c #7D4817",
"B 	c #7A4616",
"C 	c #6E3F13",
"D 	c #840805",
"E 	c #B28D0D",
"F 	c #936021",
"G 	c #88591E",
"H 	c #84561D",
"I 	c #1A2944",
"J 	c #9C0B07",
"K 	c #850805",
"L 	c #83561D",
"M 	c #7C511B",
"N 	c #980A06",
"O 	c #774516",
"P 	c #6C3D12",
"Q 	c #830805",
"R 	c #784E19",
"S 	c #724A18",
"T 	c #734B18",
"U 	c #41650C",
"V 	c #375709",
"W 	c #8D0906",
"X 	c #764415",
"Y 	c #754315",
"Z 	c #654114",
"` 	c #5E3C12",
" .	c #395A0A",
"..	c #324F08",
"+.	c #900906",
"@.	c #920A06",
"#.	c #7D0704",
"$.	c #213352",
"%.	c #272727",
"&.	c #2A2A2A",
"*.	c #593910",
"=.	c #2E2E2E",
"-.	c #2C2C2C",
";.	c #282828",
">.	c #252525",
",.	c #2B2B2B",
"'.	c #223555",
").	c #1F3150",
"!.	c #432A09",
"~.	c #292929",
"{.	c #4B4A4B",
"].	c #484748",
"^.	c #444344",
"/.	c #3F3E3F",
"(.	c #3E3D3E",
"_.	c #3D3C3D",
":.	c #3C3B3C",
"<.	c #403F40",
"[.	c #3F620C",
"}.	c #335108",
"|.	c #1F304F",
"1.	c #BF7F2E",
"2.	c #BC7C2D",
"3.	c #B5782B",
"4.	c #926021",
"5.	c #85571D",
"6.	c #754C18",
"7.	c #1E1E1E",
"8.	c #121B23",
"9.	c #121C23",
"0.	c #1F1F1F",
"a.	c #1D1D1D",
"b.	c #202020",
"c.	c #304D07",
"d.	c #294205",
"e.	c #C38641",
"f.	c #C4853B",
"g.	c #C18131",
"h.	c #81541C",
"i.	c #80541C",
"j.	c #7D511B",
"k.	c #121212",
"l.	c #252425",
"m.	c #2A292A",
"n.	c #2D2C2D",
"o.	c #323232",
"p.	c #C1884D",
"q.	c #C68F5A",
"r.	c #C78D53",
"s.	c #C5853D",
"t.	c #BB7C2F",
"u.	c #A66E27",
"v.	c #8D5C20",
"w.	c #895A1F",
"x.	c #BE864D",
"y.	c #C49264",
"z.	c #C69161",
"A.	c #C38644",
"B.	c #BA7C2F",
"C.	c #AA7028",
"D.	c #BC8347",
"E.	c #BE8446",
"F.	c #BD7F36",
"G.	c #B7792C",
"H.	c #AD7329",
"                                                        ",
"              . + @ #                                   ",
"            $ % & * = -                                 ",
"            ; > , ' ) - ! @                             ",
"            ~ { ] ^ / @ ( _ : <                         ",
"            [ [ } | 1 2 3 4 5 6 7                       ",
"          8 9 0 a [ ~ 8 # b c d e                       ",
"          } f g h i j k l   m c n e                     ",
"      o o p q r s t u v k w w 4 d x                     ",
"        o o y t z A B C D w E E F G H                   ",
"        I o J B A A B r K   E w < L M                   ",
"        l o N s z z O P Q     w E R S T                 ",
"      U V [ W r X Y C b Q       w Z ` Z                 ",
"       ...} f +.i @.D #.$.    %.&.Z *.Z =.-.;.>.>.%.;.,.",
"          ~ $.'.f 9 ).      >.!.;.~.Z Z {.].^./.(._.:.<.",
"        [.}.|.p 1.2.3.-   4.5.6.7.7.8.9.0.7.7.a.a.a.a.b.",
"        c.d.~ e.f.g./ # n h.i.j.S k.E E l.l.>.%.m.n.o._.",
"            p.q.r.s.t.u.v.5.w.c     w w                 ",
"            x.y.z.A.B.C.v                               ",
"              D.E.F.G.H.                                ",
"                                                        "};
