/* XPM */
static char * barrel_0_xpm[] = {
"26 26 478 2",
"  	c None",
". 	c #1D2338",
"+ 	c #1D243B",
"@ 	c #272E4A",
"# 	c #222C48",
"$ 	c #262E4C",
"% 	c #212945",
"& 	c #1E253F",
"* 	c #1E253A",
"= 	c #1E243A",
"- 	c #212841",
"; 	c #252C48",
"> 	c #252E4C",
", 	c #2D3556",
"' 	c #293358",
") 	c #283458",
"! 	c #293356",
"~ 	c #263050",
"{ 	c #27304D",
"] 	c #212842",
"^ 	c #1D2239",
"/ 	c #191F30",
"( 	c #1E243B",
"_ 	c #293150",
": 	c #30395B",
"< 	c #2F395A",
"[ 	c #2F395B",
"} 	c #2E395C",
"| 	c #2D395F",
"1 	c #2A365C",
"2 	c #2A365D",
"3 	c #2A355B",
"4 	c #2A3559",
"5 	c #2A3458",
"6 	c #293155",
"7 	c #222A46",
"8 	c #1D233C",
"9 	c #181C2D",
"0 	c #1D2234",
"a 	c #222940",
"b 	c #242C47",
"c 	c #2D3658",
"d 	c #323C5E",
"e 	c #2E385B",
"f 	c #2E3759",
"g 	c #2A3456",
"h 	c #2D375B",
"i 	c #2D375E",
"j 	c #2D385F",
"k 	c #303A60",
"l 	c #2B3559",
"m 	c #273254",
"n 	c #263054",
"o 	c #252D4E",
"p 	c #212745",
"q 	c #1F243A",
"r 	c #1A1E2E",
"s 	c #1E2235",
"t 	c #242B41",
"u 	c #28304D",
"v 	c #2F385A",
"w 	c #2A3558",
"x 	c #2D3759",
"y 	c #303A5B",
"z 	c #2A3353",
"A 	c #293252",
"B 	c #323D60",
"C 	c #323D64",
"D 	c #2D3960",
"E 	c #263156",
"F 	c #2B3455",
"G 	c #242E52",
"H 	c #202A4E",
"I 	c #212B51",
"J 	c #252D53",
"K 	c #22294A",
"L 	c #1D243C",
"M 	c #181B2B",
"N 	c #242B42",
"O 	c #2E3652",
"P 	c #2F3959",
"Q 	c #303A5C",
"R 	c #2A3354",
"S 	c #2D3656",
"T 	c #2B3556",
"U 	c #333D62",
"V 	c #2E3961",
"W 	c #252F51",
"X 	c #242E53",
"Y 	c #1F284C",
"Z 	c #1E2749",
"` 	c #222B50",
" .	c #242C4D",
"..	c #212844",
"+.	c #20253C",
"@.	c #1B2031",
"#.	c #2D3654",
"$.	c #333D5C",
"%.	c #323B5E",
"&.	c #732B4B",
"*.	c #752647",
"=.	c #732D4E",
"-.	c #333C5F",
";.	c #353E61",
">.	c #313A5E",
",.	c #2D365A",
"'.	c #242F57",
").	c #242E55",
"!.	c #20294B",
"~.	c #212A4C",
"{.	c #293251",
"].	c #262F49",
"^.	c #1F2439",
"/.	c #1E2436",
"(.	c #2F3554",
"_.	c #313C5D",
":.	c #30395A",
"<.	c #2C3555",
"[.	c #722849",
"}.	c #8B1E40",
"|.	c #353F61",
"1.	c #343E5F",
"2.	c #343E5E",
"3.	c #343D61",
"4.	c #333D60",
"5.	c #293256",
"6.	c #29325B",
"7.	c #252F56",
"8.	c #262F52",
"9.	c #272E4D",
"0.	c #2A324F",
"a.	c #29314D",
"b.	c #262C42",
"c.	c #1C1F2F",
"d.	c #1E2338",
"e.	c #2F3756",
"f.	c #30395C",
"g.	c #2E3656",
"h.	c #2B3352",
"i.	c #6F2D4E",
"j.	c #6E2A4D",
"k.	c #6F2E51",
"l.	c #333C5E",
"m.	c #384061",
"n.	c #384160",
"o.	c #383F63",
"p.	c #363E61",
"q.	c #353C5F",
"r.	c #2F3755",
"s.	c #303658",
"t.	c #343B5D",
"u.	c #31385B",
"v.	c #313757",
"w.	c #2A324E",
"x.	c #27304B",
"y.	c #272D47",
"z.	c #1D2132",
"A.	c #1B1F32",
"B.	c #20253D",
"C.	c #2D3755",
"D.	c #313A59",
"E.	c #2C3451",
"F.	c #272F4B",
"G.	c #313A5C",
"H.	c #323C5F",
"I.	c #353F62",
"J.	c #333D5E",
"K.	c #343E5D",
"L.	c #3A4563",
"M.	c #3C4468",
"N.	c #3C4368",
"O.	c #40476A",
"P.	c #3B4263",
"Q.	c #394061",
"R.	c #363D5D",
"S.	c #333B5C",
"T.	c #2E3654",
"U.	c #2B334F",
"V.	c #272F48",
"W.	c #282E48",
"X.	c #1D2133",
"Y.	c #181D2B",
"Z.	c #1E2339",
"`.	c #232B43",
" +	c #2F3855",
".+	c #2E3653",
"++	c #29304B",
"@+	c #2D385A",
"#+	c #354063",
"$+	c #333C5D",
"%+	c #3D4768",
"&+	c #424A6D",
"*+	c #40486B",
"=+	c #434B6D",
"-+	c #464E70",
";+	c #404768",
">+	c #3B4363",
",+	c #3B4162",
"'+	c #3A4260",
")+	c #2E3552",
"!+	c #272F4A",
"~+	c #1C2131",
"{+	c #191D2B",
"]+	c #1F253C",
"^+	c #282F4B",
"/+	c #2C3453",
"(+	c #282F49",
"_+	c #313B5E",
":+	c #303A5D",
"<+	c #424D6E",
"[+	c #4C5273",
"}+	c #4A5070",
"|+	c #4D5373",
"1+	c #4C5373",
"2+	c #4C5371",
"3+	c #464C69",
"4+	c #3D435C",
"5+	c #373C55",
"6+	c #303851",
"7+	c #2B334D",
"8+	c #2D334F",
"9+	c #2C344D",
"0+	c #1C2135",
"a+	c #1A1F2F",
"b+	c #1C2339",
"c+	c #252C4A",
"d+	c #242B46",
"e+	c #242D4B",
"f+	c #333E63",
"g+	c #313C61",
"h+	c #323C5D",
"i+	c #414C6E",
"j+	c #4A5072",
"k+	c #4D5375",
"l+	c #4E5476",
"m+	c #4C5274",
"n+	c #474D6D",
"o+	c #373C54",
"p+	c #363A53",
"q+	c #3B405C",
"r+	c #333C56",
"s+	c #2B334A",
"t+	c #272E49",
"u+	c #28314B",
"v+	c #1C2233",
"w+	c #252D49",
"x+	c #242C46",
"y+	c #202944",
"z+	c #252F4E",
"A+	c #2E385E",
"B+	c #2C375D",
"C+	c #444F71",
"D+	c #494F71",
"E+	c #3E4360",
"F+	c #343950",
"G+	c #6B7161",
"H+	c #989F78",
"I+	c #7A8168",
"J+	c #282F48",
"K+	c #1E263F",
"L+	c #1B2136",
"M+	c #161C30",
"N+	c #1F263D",
"O+	c #232C48",
"P+	c #29304E",
"Q+	c #29314C",
"R+	c #222A47",
"S+	c #26304F",
"T+	c #2C375C",
"U+	c #29355A",
"V+	c #2B3558",
"W+	c #455072",
"X+	c #484E70",
"Y+	c #4B5071",
"Z+	c #373C56",
"`+	c #3A3F58",
" @	c #858B6B",
".@	c #B2BA7C",
"+@	c #6D7254",
"@@	c #252C45",
"#@	c #1E253D",
"$@	c #272D48",
"%@	c #1B2238",
"&@	c #1A2036",
"*@	c #22283F",
"=@	c #283250",
"-@	c #27304E",
";@	c #202948",
">@	c #202A4A",
",@	c #29345A",
"'@	c #293459",
")@	c #2E385A",
"!@	c #353F60",
"~@	c #364060",
"{@	c #434E70",
"]@	c #474D6F",
"^@	c #464C6D",
"/@	c #373D5A",
"(@	c #30354E",
"_@	c #6A6F60",
":@	c #545840",
"<@	c #515645",
"[@	c #232A42",
"}@	c #252D47",
"|@	c #283051",
"1@	c #1C243E",
"2@	c #1D253E",
"3@	c #2D3655",
"4@	c #252C4B",
"5@	c #1F2949",
"6@	c #20294A",
"7@	c #242F52",
"8@	c #243055",
"9@	c #2F395C",
"0@	c #333C60",
"a@	c #3B4466",
"b@	c #444F6F",
"c@	c #3B4568",
"d@	c #3E486C",
"e@	c #3F4A6E",
"f@	c #414B6F",
"g@	c #3A4466",
"h@	c #2D3451",
"i@	c #272D44",
"j@	c #1C2134",
"k@	c #232941",
"l@	c #202841",
"m@	c #242E51",
"n@	c #1D294C",
"o@	c #1A213D",
"p@	c #1B233D",
"q@	c #1A1E2F",
"r@	c #272F4D",
"s@	c #262D4D",
"t@	c #232C4C",
"u@	c #273151",
"v@	c #263154",
"w@	c #293457",
"x@	c #2A3355",
"y@	c #343D5F",
"z@	c #3B4566",
"A@	c #3C4666",
"B@	c #384365",
"C@	c #394469",
"D@	c #384266",
"E@	c #3E476A",
"F@	c #3C4568",
"G@	c #333B5B",
"H@	c #2B324A",
"I@	c #262F50",
"J@	c #253053",
"K@	c #1C274B",
"L@	c #19203B",
"M@	c #181D2C",
"N@	c #202A4B",
"O@	c #212B4B",
"P@	c #232D50",
"Q@	c #273255",
"R@	c #2C3556",
"S@	c #313A58",
"T@	c #333B59",
"U@	c #343D5B",
"V@	c #313B5C",
"W@	c #333D5F",
"X@	c #2C3659",
"Y@	c #2D3558",
"Z@	c #2F3859",
"`@	c #283151",
" #	c #2E3859",
".#	c #2B3457",
"+#	c #263155",
"@#	c #1E2A4D",
"##	c #19213A",
"$#	c #1D2437",
"%#	c #1E2641",
"&#	c #222B4C",
"*#	c #202A4C",
"=#	c #2C365A",
"-#	c #283355",
";#	c #2B324C",
">#	c #282F47",
",#	c #212845",
"'#	c #222947",
")#	c #1D2544",
"!#	c #202748",
"~#	c #242D4D",
"{#	c #253057",
"]#	c #252E4F",
"^#	c #222C4E",
"/#	c #19223F",
"(#	c #1E2337",
"_#	c #1C233C",
":#	c #1F2849",
"<#	c #202B4F",
"[#	c #313B5F",
"}#	c #373F5F",
"|#	c #333B57",
"1#	c #2C324C",
"2#	c #1C233F",
"3#	c #232A46",
"4#	c #1E2543",
"5#	c #1B2345",
"6#	c #1B2549",
"7#	c #232D53",
"8#	c #28345C",
"9#	c #2C365B",
"0#	c #2A3457",
"a#	c #222B49",
"b#	c #1A2138",
"c#	c #1E243C",
"d#	c #1B213A",
"e#	c #1F2744",
"f#	c #30375C",
"g#	c #3B4467",
"h#	c #3D4669",
"i#	c #3C4465",
"j#	c #313A5A",
"k#	c #293350",
"l#	c #252F4D",
"m#	c #1F2846",
"n#	c #1D2643",
"o#	c #1F2845",
"p#	c #20294E",
"q#	c #232E55",
"r#	c #242E57",
"s#	c #28345E",
"t#	c #242D51",
"u#	c #222A49",
"v#	c #1C223B",
"w#	c #151B2D",
"x#	c #1B213B",
"y#	c #1B223A",
"z#	c #1D2640",
"A#	c #313B5B",
"B#	c #404A6D",
"C#	c #3C4669",
"D#	c #3C4668",
"E#	c #2C3558",
"F#	c #283255",
"G#	c #1D284F",
"H#	c #232E57",
"I#	c #222D57",
"J#	c #273157",
"K#	c #202744",
"L#	c #151A2B",
"M#	c #181F35",
"N#	c #1A2037",
"O#	c #353E5B",
"P#	c #3A4364",
"Q#	c #394265",
"R#	c #3C4467",
"S#	c #394366",
"T#	c #303A5F",
"U#	c #2B365B",
"V#	c #1F2952",
"W#	c #212C55",
"X#	c #20284F",
"Y#	c #1E2643",
"Z#	c #171C30",
"`#	c #121624",
" $	c #32354B",
".$	c #33394E",
"+$	c #363950",
"@$	c #343951",
"#$	c #323751",
"$$	c #262E4A",
"%$	c #28314D",
"&$	c #1B2445",
"*$	c #192141",
"=$	c #171E38",
"-$	c #15192E",
";$	c #2E3144",
">$	c #2D3144",
",$	c #23283D",
"'$	c #20263D",
")$	c #1B233C",
"!$	c #171D37",
"~$	c #161C34",
"                  . + @ # $ % & *                   ",
"              = - ; > , ' ) ! ~ { ] ^               ",
"        / ( _ : < [ ! } | 1 2 3 4 5 6 7 8 9         ",
"      0 a b c d e f g h i j k l ! m n o p q r       ",
"    s t u v w x y z A B C D E F G H I J K L 0 M     ",
"    N O P d Q F R S T U V i 3 W X Y Z `  ...+.@.    ",
"    #.$.%.Q &.*.=.-.;.Q >.,.%.! '.).!.~. .{.].^.    ",
"  /.(._.:.<.[.}.=.|.1.2.3.3.4.v 5.6.7.8.9.0.a.b.c.  ",
"  d.e.f.g.h.i.j.k.l.m.n.o.p.q.r.s.t.u.v.a.w.x.y.z.  ",
"A.B.C.D.E.F.G.H.I.J.K.L.M.N.O.P.Q.R.S.R.T.U.V.W.X.Y.",
"Z.`. +.+++@ @+#+I.l.$+%+&+*+=+-+;+>+,+'+$.)+!+W.~+{+",
"]+^+/+!+(+a._+4.:+d J.<+[+}+|+1+2+3+4+5+6+7+8+9+0+a+",
"b+c+0.d+% e+f+g+f.h+1.i+j+k+l+m+n+o+p+q+r+s+t+u+d.v+",
"]+w+E.x+y+z+A+B+e G.1.C+D+m+k+m+E+F+G+H+I+J+K+; L+M+",
"N+O+P+Q+R+S+T+U+V+< 1.W+X+k+m+Y+Z+`+ @.@+@@@#@$@%@&@",
"d.*@=@-@;@>@,@'@)@!@~@{@-+]@-+^@/@(@_@:@<@[@}@|@1@2@",
"A.d.3@4@5@6@7@8@9@0@a@b@c@d@e@f@g@h@i@j@k@l@m@n@o@p@",
"  q@r@s@t@u@v@w@x@y@z@A@B@C@D@E@F@G@H@0+}@I@J@K@L@  ",
"  M@w+$ N@O@P@Q@R@S@T@U@V@W@X@_+9@Y@Z@`@ #.#+#@###  ",
"    $#%#&#*#=#-#e.U.;#>#,#R+'#)#!#~#8.{#P@]#^#/#    ",
"    (#_#:#<#[#|.}#S@|#1#d+2#3#4#5#6#7#8#9#0#a#b#    ",
"    c#d#e#t@f#g#h#i#j#k#l#m#n#o#p#q#r#s#t#u#v#w#    ",
"      x#y#z#A#m.B#C#D#< >.E#F#W G#H#I#J#K#b#L#      ",
"        M#N#(+O#P#Q#R#S#k T#U#+#V#W#X#Y#Z#`#        ",
"               $.$+$@$#$$$%$t@&$*$=$-$              ",
"                  ;$>$,$]+'$)$!$~$                  "};
