/* XPM */
static char * barrel_2_xpm[] = {
"26 26 411 2",
"  	c None",
". 	c #0A2111",
"+ 	c #0A1F10",
"@ 	c #0A2011",
"# 	c #0A1E0F",
"$ 	c #0A2110",
"% 	c #092712",
"& 	c #092913",
"* 	c #0A2010",
"= 	c #0A1E10",
"- 	c #0A2210",
"; 	c #092511",
"> 	c #082B13",
", 	c #092B14",
"' 	c #092612",
") 	c #0A2311",
"! 	c #0B1B0F",
"~ 	c #0A2412",
"{ 	c #092D16",
"] 	c #082F16",
"^ 	c #073016",
"/ 	c #072F13",
"( 	c #073115",
"_ 	c #073114",
": 	c #072F12",
"< 	c #063013",
"[ 	c #063414",
"} 	c #063114",
"| 	c #082D13",
"1 	c #092711",
"2 	c #0B1C10",
"3 	c #0B1D10",
"4 	c #082E15",
"5 	c #06391A",
"6 	c #053A19",
"7 	c #043C1A",
"8 	c #043A18",
"9 	c #053617",
"0 	c #063214",
"a 	c #073416",
"b 	c #063717",
"c 	c #063515",
"d 	c #063113",
"e 	c #072C11",
"f 	c #0B1F11",
"g 	c #0B1B10",
"h 	c #0B1D11",
"i 	c #092D15",
"j 	c #043817",
"k 	c #033F1B",
"l 	c #024920",
"m 	c #02421C",
"n 	c #033F1A",
"o 	c #053C1B",
"p 	c #063718",
"q 	c #063316",
"r 	c #062E11",
"s 	c #063011",
"t 	c #092811",
"u 	c #092410",
"v 	c #0B1E10",
"w 	c #0B1A10",
"x 	c #0B2012",
"y 	c #092814",
"z 	c #073619",
"A 	c #02461E",
"B 	c #01461D",
"C 	c #01471E",
"D 	c #02471F",
"E 	c #03401B",
"F 	c #063516",
"G 	c #063315",
"H 	c #062F12",
"I 	c #062E10",
"J 	c #072E11",
"K 	c #082911",
"L 	c #092411",
"M 	c #0A2312",
"N 	c #0A2112",
"O 	c #092C16",
"P 	c #063A1A",
"Q 	c #03441E",
"R 	c #6D3C2D",
"S 	c #71352B",
"T 	c #014F24",
"U 	c #024B23",
"V 	c #04411D",
"W 	c #043F1C",
"X 	c #053B19",
"Y 	c #063D1C",
"Z 	c #072E12",
"` 	c #072D12",
" .	c #072B11",
"..	c #073113",
"+.	c #073015",
"@.	c #092B15",
"#.	c #0A1F11",
"$.	c #0A2613",
"%.	c #073519",
"&.	c #04401C",
"*.	c #02441D",
"=.	c #6D352A",
"-.	c #892630",
";.	c #6D3A2C",
">.	c #005226",
",.	c #015227",
"'.	c #024D25",
").	c #034620",
"!.	c #04441F",
"~.	c #05411D",
"{.	c #073014",
"].	c #063716",
"^.	c #073718",
"/.	c #082E16",
"(.	c #0A2513",
"_.	c #0D1D11",
":.	c #05401D",
"<.	c #03451F",
"[.	c #69362A",
"}.	c #693328",
"|.	c #693B2A",
"1.	c #005125",
"2.	c #0B582C",
"3.	c #13522A",
"4.	c #034722",
"5.	c #044321",
"6.	c #06381B",
"7.	c #07361A",
"8.	c #07381C",
"9.	c #07351A",
"0.	c #063C1E",
"a.	c #06391B",
"b.	c #073A1C",
"c.	c #083319",
"d.	c #0A2A16",
"e.	c #0C1E12",
"f.	c #034923",
"g.	c #034A23",
"h.	c #04401D",
"i.	c #03461F",
"j.	c #005024",
"k.	c #005327",
"l.	c #045429",
"m.	c #13542B",
"n.	c #005129",
"o.	c #014F27",
"p.	c #07502A",
"q.	c #044523",
"r.	c #054121",
"s.	c #063D20",
"t.	c #063C1D",
"u.	c #053E1D",
"v.	c #063B1C",
"w.	c #0C1F12",
"x.	c #063C1C",
"y.	c #034A24",
"z.	c #034721",
"A.	c #053D1B",
"B.	c #024922",
"C.	c #015025",
"D.	c #005126",
"E.	c #13552B",
"F.	c #0C582F",
"G.	c #05542C",
"H.	c #0C562E",
"I.	c #13532E",
"J.	c #0D4A28",
"K.	c #094323",
"L.	c #084021",
"M.	c #0B4122",
"N.	c #084020",
"O.	c #05421F",
"P.	c #04401E",
"Q.	c #073D1E",
"R.	c #0B2112",
"S.	c #0A2211",
"T.	c #063B1B",
"U.	c #053D1C",
"V.	c #07391B",
"W.	c #06381A",
"X.	c #03431D",
"Y.	c #024820",
"Z.	c #014A20",
"`.	c #18582E",
" +	c #1F5F38",
".+	c #1E5D36",
"++	c #226039",
"@+	c #225E37",
"#+	c #225B36",
"$+	c #1E502F",
"%+	c #194327",
"&+	c #174127",
"*+	c #0F4022",
"=+	c #0A4020",
"-+	c #064723",
";+	c #084623",
">+	c #0A2714",
",+	c #0A2212",
"'+	c #073417",
")+	c #02481F",
"!+	c #014D24",
"~+	c #005026",
"{+	c #16572D",
"]+	c #1B5D35",
"^+	c #1F6038",
"/+	c #206139",
"(+	c #1E5F37",
"_+	c #1A5832",
":+	c #184227",
"<+	c #164027",
"[+	c #1B4B31",
"}+	c #17492B",
"|+	c #124323",
"1+	c #04421F",
"2+	c #04431F",
"3+	c #092914",
"4+	c #073317",
"5+	c #072E13",
"6+	c #043E19",
"7+	c #03401A",
"8+	c #03441D",
"9+	c #024A21",
"0+	c #005025",
"a+	c #1B5A30",
"b+	c #195C35",
"c+	c #1F5F37",
"d+	c #184E2D",
"e+	c #164026",
"f+	c #63744A",
"g+	c #93A269",
"h+	c #758654",
"i+	c #064121",
"j+	c #053717",
"k+	c #043D1B",
"l+	c #0A1D0E",
"m+	c #092412",
"n+	c #063919",
"o+	c #07381A",
"p+	c #072F14",
"q+	c #073215",
"r+	c #043916",
"s+	c #043B16",
"t+	c #033F19",
"u+	c #02451E",
"v+	c #014F25",
"w+	c #1C5B31",
"x+	c #185B34",
"y+	c #144628",
"z+	c #1B492D",
"A+	c #808E5B",
"B+	c #B2BB7A",
"C+	c #6B754B",
"D+	c #043F1D",
"E+	c #063D1D",
"F+	c #092310",
"G+	c #0A1F0F",
"H+	c #082C15",
"I+	c #082D15",
"J+	c #053A1A",
"K+	c #053718",
"L+	c #072B10",
"M+	c #05401E",
"N+	c #19572E",
"O+	c #145931",
"P+	c #165933",
"Q+	c #145A32",
"R+	c #165932",
"S+	c #104928",
"T+	c #0F4024",
"U+	c #63754A",
"V+	c #525B39",
"W+	c #4D5B38",
"X+	c #043A19",
"Y+	c #05391A",
"Z+	c #053818",
"`+	c #0A200F",
" @	c #053E1C",
".@	c #053415",
"+@	c #062F11",
"@@	c #062D11",
"#@	c #063517",
"$@	c #094623",
"%@	c #1A552E",
"&@	c #044E26",
"*@	c #09532A",
"=@	c #10562B",
"-@	c #0D582C",
";@	c #0B5028",
">@	c #0A391E",
",@	c #082F17",
"'@	c #043815",
")@	c #052C0E",
"!@	c #0A1D0D",
"~@	c #0A1E0E",
"{@	c #053516",
"]@	c #063213",
"^@	c #063215",
"/@	c #0E4624",
"(@	c #144E29",
"_@	c #034E25",
":@	c #005127",
"<@	c #085229",
"[@	c #094F28",
"}@	c #044521",
"|@	c #0C3D1F",
"1@	c #092F17",
"2@	c #063D1E",
"3@	c #033B17",
"4@	c #043513",
"5@	c #06270C",
"6@	c #091D0D",
"7@	c #092713",
"8@	c #082F15",
"9@	c #063012",
"0@	c #073418",
"a@	c #093E1F",
"b@	c #0E4924",
"c@	c #034922",
"d@	c #024D24",
"e@	c #043C19",
"f@	c #04421E",
"g@	c #02441A",
"h@	c #01471F",
"i@	c #033C17",
"j@	c #053012",
"k@	c #07270E",
"l@	c #09200E",
"m@	c #092610",
"n@	c #07280F",
"o@	c #082F14",
"p@	c #082C13",
"q@	c #083318",
"r@	c #083218",
"s@	c #0A3019",
"t@	c #0C3018",
"u@	c #072D11",
"v@	c #053816",
"w@	c #043D18",
"x@	c #023C15",
"y@	c #043312",
"z@	c #062C11",
"A@	c #082610",
"B@	c #091E0D",
"C@	c #0A210F",
"D@	c #09250F",
"E@	c #083016",
"F@	c #083419",
"G@	c #0A351B",
"H@	c #093219",
"I@	c #0E321A",
"J@	c #0A2E18",
"K@	c #082B14",
"L@	c #082710",
"M@	c #083015",
"N@	c #05310F",
"O@	c #04330F",
"P@	c #033B14",
"Q@	c #043A15",
"R@	c #0A1B0E",
"S@	c #092813",
"T@	c #0C351C",
"U@	c #0D361C",
"V@	c #092A15",
"W@	c #082A13",
"X@	c #082810",
"Y@	c #072910",
"Z@	c #053413",
"`@	c #033913",
" #	c #033C15",
".#	c #0B180E",
"+#	c #0B170D",
"@#	c #092510",
"##	c #0A2814",
"$#	c #0B2815",
"%#	c #0D2D18",
"&#	c #0B2E18",
"*#	c #0C371C",
"=#	c #053917",
"-#	c #023E16",
";#	c #02360F",
">#	c #043712",
",#	c #063010",
"'#	c #0B160D",
")#	c #0B150D",
"!#	c #0E2214",
"~#	c #0C2414",
"{#	c #0B2514",
"]#	c #093D1E",
"^#	c #053B1A",
"/#	c #043F1B",
"(#	c #033C16",
"_#	c #04320E",
":#	c #062F10",
"<#	c #09240E",
"[#	c #0B1A0E",
"}#	c #0B130D",
"|#	c #112B1B",
"1#	c #122618",
"2#	c #102417",
"3#	c #0F2718",
"4#	c #0D301B",
"5#	c #082A14",
"6#	c #082C14",
"7#	c #082A12",
"8#	c #09200D",
"9#	c #0B190D",
"0#	c #152F1D",
"a#	c #132F1D",
"b#	c #092C17",
"c#	c #082811",
"d#	c #0A1E0D",
"                  . + @ # . $ % &                   ",
"              @ * @ = @ $ - ; > , ' )               ",
"        ! ! ~ { ] ^ / ( _ : < [ } | 1 # # @         ",
"      2 3 + 4 5 6 7 8 9 0 ( a b c d e - * . f       ",
"    g h @ i j k l m n o p q r p [ s r t u $ v w     ",
"    2 x y z A B C D E o F G 0 H d I J K t L M w     ",
"    N O P Q R S R T U V W X Y _ Z `  ...+.] @.#.    ",
"  f $.%.&.*.=.-.;.>.,.'.).!.~.z ( {.Z ].^.%./.(._.  ",
"  @ ] :.<.<.[.}.|.1.2.3.'.4.5.6.7.8.9.0.a.b.c.d.e.  ",
"@ M z f.g.&.h.i.j.k.l.m.n.o.p.q.r.0.6.s.t.u.v.c.w.h ",
". ~ x.y.z.A.7 B.C.>.D.E.F.G.H.I.J.K.L.M.N.O.P.Q.R.h ",
"@ S.T.U.V.W.X.Y.Z.T D.`. +.+++@+#+$+%+&+*+=+-+;+>+,+",
"# $ 5 '+{.( <.A )+!+~+{+]+^+/+(+_+:+<+[+}+|+1+2+3+~ ",
"* S.v.4+5+( 6+7+8+9+0+a+b+(+^+c+d+e+f+g+h+i+j+k+L l+",
"M m+n+o+p+q+r+s+t+u+v+w+x+^+(+.+y+z+A+B+C+D+c.E+F+G+",
"H+I+J+K+r L+< d b M+z.N+O+P+Q+R+S+T+U+V+W+X+Y+Z+`+* ",
", I+ @.@+@L+L+@@#@T.$@%@&@*@=@-@;@N.>@,@b.F '@)@!@~@",
"  3+p {@]@^@: _ _ v./@(@_@,.:@<@[@}@|@1@2@3@4@5@6@  ",
"  7@8@q 9@r e {.0@b.a@b@c@d@C <.V e@f@g@h@i@j@k@l@  ",
"    . `+m@n@o@p@q@r@s@t@| +._ u@d v@w@x@y@z@A@B@    ",
"    ~ # C@D@E@F@G@H@I@J@K@L@M@H N@O@P@Q@G p@C@R@    ",
"    S@`+G+F+K@H@T@U@,@V@W@X@Y@Z@`@ #`@..L@# .#+#    ",
"      @#C@C@##$#%#&#*#0@W.b =#-#;#>#,#1 R@'#)#      ",
"        m@F+,+!#~#{#&#]#^#/#6+(#_#:#<#[#)#}#        ",
"              |#1#2#3#4#5#6#7#8#!@9#)#              ",
"                  0#a#b#5#K@c#d#l+                  "};
