/* XPM */
static char * barrel_1_xpm[] = {
"26 26 469 2",
"  	c None",
". 	c #4C191D",
"+ 	c #47161A",
"@ 	c #4C1A1E",
"# 	c #4A161A",
"$ 	c #4E1A1D",
"% 	c #49151A",
"& 	c #4C171B",
"* 	c #4E191D",
"= 	c #501B1F",
"- 	c #4D191D",
"; 	c #4E191E",
"> 	c #48161A",
", 	c #47171B",
"' 	c #461419",
") 	c #471419",
"! 	c #4A151A",
"~ 	c #4B171B",
"{ 	c #4F1A1E",
"] 	c #4D171C",
"^ 	c #4E181C",
"/ 	c #4F1B1F",
"( 	c #581D21",
"_ 	c #622328",
": 	c #632126",
"< 	c #642126",
"[ 	c #5E1920",
"} 	c #5F1C22",
"| 	c #5C1920",
"1 	c #56161C",
"2 	c #57171D",
"3 	c #5A181E",
"4 	c #5D191F",
"5 	c #59181F",
"6 	c #4F171C",
"7 	c #4F171B",
"8 	c #511B1F",
"9 	c #4F1E21",
"0 	c #531E22",
"a 	c #52191E",
"b 	c #662027",
"c 	c #6F262C",
"d 	c #6E2329",
"e 	c #6F232A",
"f 	c #6B2027",
"g 	c #6A1F26",
"h 	c #651B23",
"i 	c #601B21",
"j 	c #5D1C22",
"k 	c #5B1B20",
"l 	c #5D1920",
"m 	c #5E181F",
"n 	c #5F171E",
"o 	c #54171C",
"p 	c #53171B",
"q 	c #561C20",
"r 	c #541E22",
"s 	c #471B1D",
"t 	c #501E21",
"u 	c #591F23",
"v 	c #642328",
"w 	c #681D24",
"x 	c #6D2128",
"y 	c #74282E",
"z 	c #6C2027",
"A 	c #72272D",
"B 	c #70242A",
"C 	c #681E25",
"D 	c #5B151D",
"E 	c #5B1C21",
"F 	c #59151B",
"G 	c #571018",
"H 	c #5D1119",
"I 	c #61161C",
"J 	c #59161C",
"K 	c #54181D",
"L 	c #551E21",
"M 	c #521E21",
"N 	c #481B1E",
"O 	c #5A2226",
"P 	c #632328",
"Q 	c #6D262B",
"R 	c #72262C",
"S 	c #6E2229",
"T 	c #6F2128",
"U 	c #6C1E25",
"V 	c #671C23",
"W 	c #5B171D",
"X 	c #5A151B",
"Y 	c #550F17",
"Z 	c #63151C",
"` 	c #641920",
" .	c #5C191F",
"..	c #5A1F23",
"+.	c #531F22",
"@.	c #572024",
"#.	c #69272A",
"$.	c #71272D",
"%.	c #8A2032",
"&.	c #891B30",
"*.	c #762A30",
"=.	c #772B31",
"-.	c #73272D",
";.	c #74262C",
">.	c #712229",
",.	c #77292F",
"'.	c #681C24",
").	c #5C151C",
"!.	c #521117",
"~.	c #5E161C",
"{.	c #671D22",
"].	c #70252B",
"^.	c #6D272B",
"/.	c #5D2125",
"(.	c #4D1D20",
"_.	c #602226",
":.	c #70282D",
"<.	c #71252B",
"[.	c #881D30",
"}.	c #931532",
"|.	c #881E31",
"1.	c #782C32",
"2.	c #7A2E33",
"3.	c #78292F",
"4.	c #792A30",
"5.	c #72262B",
"6.	c #691D23",
"7.	c #671A20",
"8.	c #5D141B",
"9.	c #601B1F",
"0.	c #662025",
"a.	c #70282C",
"b.	c #6A282C",
"c.	c #4A1F23",
"d.	c #4D1A1E",
"e.	c #662429",
"f.	c #73292F",
"g.	c #74292F",
"h.	c #73282E",
"i.	c #882132",
"j.	c #841B2E",
"k.	c #871E30",
"l.	c #7D3237",
"m.	c #7A3238",
"n.	c #762C2E",
"o.	c #752A2D",
"p.	c #752B2D",
"q.	c #6D2528",
"r.	c #6E2628",
"s.	c #72292B",
"t.	c #6A2527",
"u.	c #622425",
"v.	c #5F2226",
"w.	c #68262B",
"x.	c #6F292D",
"y.	c #702B30",
"z.	c #4E1F22",
"A.	c #4E1B1E",
"B.	c #67242A",
"C.	c #762D32",
"D.	c #732A30",
"E.	c #6E252B",
"F.	c #772A2F",
"G.	c #7A2F34",
"H.	c #782E31",
"I.	c #772D30",
"J.	c #7B3335",
"K.	c #793033",
"L.	c #752C2F",
"M.	c #6E282B",
"N.	c #66272A",
"O.	c #5E2327",
"P.	c #622428",
"Q.	c #68252A",
"R.	c #712A2F",
"S.	c #532124",
"T.	c #401A1C",
"U.	c #4A191C",
"V.	c #4B1A1E",
"W.	c #6A262B",
"X.	c #732C30",
"Y.	c #6E282E",
"Z.	c #692429",
"`.	c #6D2229",
" +	c #782B30",
".+	c #772C31",
"++	c #7C3436",
"@+	c #783133",
"#+	c #813A3B",
"$+	c #7D3537",
"%+	c #793234",
"&+	c #763032",
"*+	c #6C2D2E",
"=+	c #65272B",
"-+	c #612428",
";+	c #632428",
">+	c #6F2A2F",
",+	c #592226",
"'+	c #441A1C",
")+	c #4A191D",
"!+	c #6B262B",
"~+	c #612328",
"{+	c #5E2125",
"]+	c #6C2429",
"^+	c #7D363B",
"/+	c #823E3F",
"(+	c #7F3C3E",
"_+	c #824041",
":+	c #823F42",
"<+	c #813F42",
"[+	c #773A3C",
"}+	c #693235",
"|+	c #622E31",
"1+	c #61282B",
"2+	c #5D2528",
"3+	c #69282D",
"4+	c #6F2B30",
"5+	c #4F1D21",
"6+	c #4A161B",
"7+	c #6D252B",
"8+	c #672227",
"9+	c #581A1F",
"0+	c #57191E",
"a+	c #6D242A",
"b+	c #72252B",
"c+	c #752B30",
"d+	c #7C343A",
"e+	c #813C3D",
"f+	c #843F40",
"g+	c #854041",
"h+	c #833E3F",
"i+	c #7B3A3B",
"j+	c #5F2E2E",
"k+	c #5E2C2E",
"l+	c #6A3438",
"m+	c #682F35",
"n+	c #60282D",
"o+	c #642227",
"p+	c #551E22",
"q+	c #4F191E",
"r+	c #53191F",
"s+	c #71282E",
"t+	c #692228",
"u+	c #56181E",
"v+	c #57191F",
"w+	c #641D23",
"x+	c #6D1F26",
"y+	c #72232A",
"z+	c #7F383D",
"A+	c #803B3C",
"B+	c #6D3333",
"C+	c #5A2B2C",
"D+	c #7D6C4C",
"E+	c #A59C6B",
"F+	c #907D58",
"G+	c #62242B",
"H+	c #56191F",
"I+	c #631F25",
"J+	c #5B191F",
"K+	c #4A1218",
"L+	c #521A1E",
"M+	c #70262B",
"N+	c #5C1A20",
"O+	c #671B23",
"P+	c #6D2127",
"Q+	c #80393E",
"R+	c #7F393B",
"S+	c #803D3E",
"T+	c #622D2E",
"U+	c #643132",
"V+	c #92895D",
"W+	c #B4BA7A",
"X+	c #78714D",
"Y+	c #5E2026",
"Z+	c #4E191F",
"`+	c #5A171E",
" @	c #4C151A",
".@	c #40171A",
"+@	c #6D2329",
"@@	c #6C2128",
"#@	c #60161E",
"$@	c #54131A",
"%@	c #52151B",
"&@	c #5A171D",
"*@	c #682026",
"=@	c #732A2F",
"-@	c #762C31",
";@	c #7E373C",
">@	c #7E383A",
",@	c #7C383A",
"'@	c #7D3739",
")@	c #793638",
"!@	c #652C2D",
"~@	c #592728",
"{@	c #7E6C4C",
"]@	c #5D573A",
"^@	c #62543A",
"/@	c #581D23",
"(@	c #581D22",
"_@	c #631D24",
":@	c #4F1319",
"<@	c #451418",
"[@	c #3D1618",
"}@	c #70272D",
"|@	c #60151D",
"1@	c #57121A",
"2@	c #4A1016",
"3@	c #4D1218",
"4@	c #5D1D22",
"5@	c #6C262B",
"6@	c #793035",
"7@	c #772D32",
"8@	c #793135",
"9@	c #783036",
"0@	c #743033",
"a@	c #6C2B2F",
"b@	c #4F1F23",
"c@	c #43171B",
"d@	c #52181E",
"e@	c #5F171F",
"f@	c #580A16",
"g@	c #430E14",
"h@	c #401115",
"i@	c #4C1B1E",
"j@	c #5D161E",
"k@	c #621C22",
"l@	c #50151A",
"m@	c #4E161B",
"n@	c #53181D",
"o@	c #66252A",
"p@	c #793236",
"q@	c #793338",
"r@	c #782E33",
"s@	c #6E2B30",
"t@	c #632529",
"u@	c #40161A",
"v@	c #571F24",
"w@	c #601A21",
"x@	c #61161E",
"y@	c #530915",
"z@	c #3E0D12",
"A@	c #5B1E22",
"B@	c #56131B",
"C@	c #57131B",
"D@	c #4E1218",
"E@	c #51181C",
"F@	c #602428",
"G@	c #69292D",
"H@	c #6D2C30",
"I@	c #6B272C",
"J@	c #6F282D",
"K@	c #652025",
"L@	c #622025",
"M@	c #5E1D22",
"N@	c #622125",
"O@	c #5E1B21",
"P@	c #692328",
"Q@	c #661D23",
"R@	c #510D16",
"S@	c #3F0F14",
"T@	c #4A181D",
"U@	c #481318",
"V@	c #4F1419",
"W@	c #4D0F16",
"X@	c #5C1B21",
"Y@	c #622429",
"Z@	c #5C2428",
"`@	c #54181C",
" #	c #57181D",
".#	c #551118",
"+#	c #59141A",
"@#	c #61191F",
"##	c #671B21",
"$#	c #66151D",
"%#	c #5B131C",
"&#	c #57141B",
"*#	c #4D1318",
"=#	c #3E0C12",
"-#	c #4F1B1E",
";#	c #461115",
">#	c #481116",
",#	c #4B0F16",
"'#	c #5E1E23",
")#	c #6C2A2E",
"!#	c #6A292D",
"~#	c #682B2E",
"{#	c #5A2326",
"]#	c #531A1F",
"^#	c #4C1218",
"/#	c #561A1F",
"(#	c #531319",
"_#	c #570C15",
":#	c #5A0A15",
"<#	c #66131C",
"[#	c #691820",
"}#	c #631C22",
"|#	c #571A1F",
"1#	c #461318",
"2#	c #431216",
"3#	c #451116",
"4#	c #491418",
"5#	c #5A1D21",
"6#	c #6D2D30",
"7#	c #712E32",
"8#	c #68272B",
"9#	c #5C1F24",
"0#	c #511319",
"a#	c #4F1118",
"b#	c #55131A",
"c#	c #5C1119",
"d#	c #62141B",
"e#	c #62111A",
"f#	c #61161D",
"g#	c #53141A",
"h#	c #471318",
"i#	c #3F1216",
"j#	c #3E1014",
"k#	c #4B1317",
"l#	c #421217",
"m#	c #5C2427",
"n#	c #672A2D",
"o#	c #66292D",
"p#	c #6C2B30",
"q#	c #652227",
"r#	c #682328",
"s#	c #611D23",
"t#	c #58161D",
"u#	c #520913",
"v#	c #581017",
"w#	c #560E16",
"x#	c #59181D",
"y#	c #4B1418",
"z#	c #421317",
"A#	c #411216",
"B#	c #481118",
"C#	c #41181A",
"D#	c #4C2024",
"E#	c #542326",
"F#	c #562125",
"G#	c #5D2428",
"H#	c #63272B",
"I#	c #601F24",
"J#	c #611F24",
"K#	c #59171D",
"L#	c #510913",
"M#	c #530F16",
"N#	c #4E0E15",
"O#	c #53161A",
"P#	c #471217",
"Q#	c #492323",
"R#	c #472324",
"S#	c #462222",
"T#	c #452020",
"U#	c #411C1D",
"V#	c #3B1418",
"W#	c #401619",
"X#	c #461418",
"Y#	c #4B0C13",
"Z#	c #4C0D14",
"`#	c #4D0E15",
" $	c #511016",
".$	c #51292A",
"+$	c #4E2627",
"@$	c #3B1719",
"#$	c #351215",
"$$	c #391316",
"%$	c #3F1115",
"&$	c #4E0C14",
"*$	c #551017",
"                  . + @ # $ % & *                   ",
"              = - ; > , ' ) ! ~ { ] ^               ",
"        / * ( _ : < [ } | 1 2 3 4 [ 5 6 7 8         ",
"      9 0 a b c d e f g h i j k l m n o p q r       ",
"    s t u v w x y x z A B C D E F G H I J K L M     ",
"    N O P Q R x S R S y T U V W X Y G Z `  ...+.    ",
"    @.#.$.A %.&.%.*.=.-.;.>.,.'.Z ).!.~.{.].^./.    ",
"  (._.:.A <.[.}.|.1.2.2.3.4.4.5.6.7.8.9.0.c a.b.c.  ",
"  d.e.f.g.h.i.j.k.*.l.m.n.o.p.q.r.s.t.u.v.w.x.y.z.  ",
"d.A.B.C.D.E.h.-.F.1.G.m.H.I.J.K.K.L.M.N.O.P.Q.R.S.T.",
"U.V.W.X.Y.Z.`.*. +=..+m.++@+++#+$+%+&+*+=+-+;+>+,+'+",
"U.)+!+!+~+{+]+-.;.*..+^+/+(+_+:+<+[+}+|+1+2+3+4+;+5+",
"6+] 7+8+9+0+a+b+;.c+.+d+e+f+g+h+i+j+k+l+m+n+;+!+o+p+",
"q+r+s+t+u+v+w+x+y+y .+z+A+h+f+h+B+C+D+E+F+G+H+I+J+K+",
"$ L+M+:.N+v+l O+P+R .+Q+R+f+h+S+T+U+V+W+X+Y+Z+~+`+ @",
".@d.+@@@#@$@%@&@*@=@-@;@>@,@'@)@!@~@{@]@^@/@(@_@:@<@",
"[@V.}@h |@1@2@3@4@5@6@Q+7@8@9@0@a@,+b@c@0 d@e@f@g@h@",
"  i@< i j@k@l@m@n@o@p@q@7@r@R.s@s@t@S.u@v@w@x@y@z@  ",
"  i@A@9+B@C@D@E@q F@G@H@I@J@K@: L@M@N@O@P@Q@x@R@S@  ",
"    T@U@V@W@X@i Q.Y@Z@S.7 `@ #.#+#@###$#%#&#*#=#    ",
"    -#;#>#,#'#o@)#!#~#{#]#^#/#(#_#:#<#[#}#|#1#h@    ",
"    L+2#3#4#5#=+6#7#8#9#|#0#a#b#c#d#e#f#g#h#i#j#    ",
"      k#l#i#0 m#n#o#p#q#r#s#N+t#u#v#w#x#y#z#A#      ",
"        B#i#C#D#E#F#G#H#I#J#O@K#L#M#N#O#y#P#        ",
"              Q#R#S#T#U#V#W#X#Y#Z#`# $              ",
"                  .$+$@$#$$$%$&$*$                  "};
