/* XPM */
static char * crate_0_xpm[] = {
"32 32 704 2",
"  	c None",
". 	c #35271F",
"+ 	c #3A2B21",
"@ 	c #3C2E22",
"# 	c #3A2A1F",
"$ 	c #32231D",
"% 	c #37261F",
"& 	c #32211D",
"* 	c #28170F",
"= 	c #2C1B10",
"- 	c #341F12",
"; 	c #341D11",
"> 	c #321C10",
", 	c #311C11",
"' 	c #311C12",
") 	c #2F1B12",
"! 	c #321D12",
"~ 	c #2E1A11",
"{ 	c #281810",
"] 	c #23160F",
"^ 	c #24170F",
"/ 	c #2D1E19",
"( 	c #2B1D18",
"_ 	c #2D201A",
": 	c #32241E",
"< 	c #3C2C22",
"[ 	c #3D2B22",
"} 	c #403530",
"| 	c #37251E",
"1 	c #2C1F1D",
"2 	c #20120E",
"3 	c #26150E",
"4 	c #2C1810",
"5 	c #2B1910",
"6 	c #2A1910",
"7 	c #2A1810",
"8 	c #2C1A11",
"9 	c #2E1910",
"0 	c #2E1A10",
"a 	c #301B11",
"b 	c #321C11",
"c 	c #321B11",
"d 	c #25150F",
"e 	c #1F130E",
"f 	c #251A18",
"g 	c #241A18",
"h 	c #241918",
"i 	c #261B19",
"j 	c #2B1D19",
"k 	c #2B1D1A",
"l 	c #34251E",
"m 	c #433731",
"n 	c #555150",
"o 	c #403430",
"p 	c #36251D",
"q 	c #2B1D1B",
"r 	c #29180F",
"s 	c #2F1C10",
"t 	c #371F11",
"u 	c #351F11",
"v 	c #351E11",
"w 	c #372011",
"x 	c #392312",
"y 	c #3B2212",
"z 	c #3B2111",
"A 	c #391F11",
"B 	c #371E11",
"C 	c #321D10",
"D 	c #28180F",
"E 	c #21140D",
"F 	c #22150E",
"G 	c #302019",
"H 	c #2E2019",
"I 	c #31241F",
"J 	c #281A18",
"K 	c #281B18",
"L 	c #3E2E25",
"M 	c #4A4341",
"N 	c #3A2A24",
"O 	c #221816",
"P 	c #241917",
"Q 	c #371F10",
"R 	c #361E11",
"S 	c #2F1C11",
"T 	c #2F1A10",
"U 	c #301D10",
"V 	c #311D10",
"W 	c #341D10",
"X 	c #331D10",
"Y 	c #2C190F",
"Z 	c #1B110D",
"` 	c #19100D",
" .	c #2F1F19",
"..	c #2C221F",
"+.	c #454140",
"@.	c #33251F",
"#.	c #32241A",
"$.	c #34231A",
"%.	c #423122",
"&.	c #473826",
"*.	c #432F22",
"=.	c #3A2923",
"-.	c #3C2A21",
";.	c #3C281F",
">.	c #30221E",
",.	c #2A1D17",
"'.	c #231816",
").	c #2A1F1B",
"!.	c #361C10",
"~.	c #2E1B10",
"{.	c #392111",
"].	c #3A2212",
"^.	c #3A2112",
"/.	c #361F11",
"(.	c #26180E",
"_.	c #2F1D18",
":.	c #352E2C",
"<.	c #52504F",
"[.	c #372F2C",
"}.	c #2D1E18",
"|.	c #2C1E18",
"1.	c #59442D",
"2.	c #5D4730",
"3.	c #5A3F2D",
"4.	c #4A3225",
"5.	c #4D3728",
"6.	c #493223",
"7.	c #3A2A22",
"8.	c #281B16",
"9.	c #2E1E18",
"0.	c #281E1B",
"a.	c #442613",
"b.	c #452613",
"c.	c #462614",
"d.	c #492915",
"e.	c #4A2A15",
"f.	c #4B2A14",
"g.	c #4E2C16",
"h.	c #4A2813",
"i.	c #412413",
"j.	c #28190F",
"k.	c #1E140D",
"l.	c #3C271C",
"m.	c #3D271D",
"n.	c #47372F",
"o.	c #2E1F19",
"p.	c #322219",
"q.	c #33231A",
"r.	c #634A31",
"s.	c #60442D",
"t.	c #664B30",
"u.	c #5A3E2C",
"v.	c #5B432C",
"w.	c #573A29",
"x.	c #4A3123",
"y.	c #281C17",
"z.	c #2C1E19",
"A.	c #3C2B1E",
"B.	c #462E21",
"C.	c #512C15",
"D.	c #522E15",
"E.	c #563017",
"F.	c #593116",
"G.	c #5A3117",
"H.	c #603617",
"I.	c #5A3318",
"J.	c #4A2B13",
"K.	c #381F11",
"L.	c #28180E",
"M.	c #20140E",
"N.	c #4A2F1E",
"O.	c #472D1E",
"P.	c #482F1E",
"Q.	c #4C3121",
"R.	c #412B1E",
"S.	c #493A32",
"T.	c #452D1F",
"U.	c #705135",
"V.	c #6E4C33",
"W.	c #6D4C31",
"X.	c #6A4B33",
"Y.	c #6D4B31",
"Z.	c #684630",
"`.	c #5B3E2D",
" +	c #2F1F18",
".+	c #36281D",
"++	c #493123",
"@+	c #62422D",
"#+	c #562E15",
"$+	c #583016",
"%+	c #593016",
"&+	c #593317",
"*+	c #502F17",
"=+	c #3E2412",
"-+	c #2F1B0F",
";+	c #23140E",
">+	c #1A110D",
",+	c #4D3121",
"'+	c #4B2F1E",
")+	c #4C2F1E",
"!+	c #4E321F",
"~+	c #533E33",
"{+	c #5D5451",
"]+	c #584234",
"^+	c #78543B",
"/+	c #785335",
"(+	c #7E5C3E",
"_+	c #6C4933",
":+	c #764E34",
"<+	c #6E4730",
"[+	c #5A3D2E",
"}+	c #37261C",
"|+	c #3F2C1F",
"1+	c #5C3F2A",
"2+	c #4F3629",
"3+	c #553116",
"4+	c #502C15",
"5+	c #482813",
"6+	c #442413",
"7+	c #3C2111",
"8+	c #321B10",
"9+	c #28170E",
"0+	c #20130D",
"a+	c #4E3221",
"b+	c #4C3221",
"c+	c #4B321F",
"d+	c #462D1E",
"e+	c #4E311F",
"f+	c #534034",
"g+	c #4F3421",
"h+	c #735434",
"i+	c #7A5735",
"j+	c #775539",
"k+	c #644531",
"l+	c #724D34",
"m+	c #6B4930",
"n+	c #3B2B1C",
"o+	c #4C3423",
"p+	c #5C402C",
"q+	c #714A32",
"r+	c #4E3528",
"s+	c #492714",
"t+	c #482815",
"u+	c #4B2B14",
"v+	c #472814",
"w+	c #2A180F",
"x+	c #4D311E",
"y+	c #4E3321",
"z+	c #4E3422",
"A+	c #472F1E",
"B+	c #40281D",
"C+	c #3F291C",
"D+	c #3D261C",
"E+	c #26160F",
"F+	c #6C5235",
"G+	c #714F34",
"H+	c #6C4A33",
"I+	c #6E4C31",
"J+	c #60442E",
"K+	c #3F2C1E",
"L+	c #59402C",
"M+	c #5E3F2D",
"N+	c #60422F",
"O+	c #53392A",
"P+	c #573117",
"Q+	c #5A3417",
"R+	c #4E3016",
"S+	c #2C1C10",
"T+	c #23160E",
"U+	c #583C22",
"V+	c #593C25",
"W+	c #563923",
"X+	c #4E2F1F",
"Y+	c #40291E",
"Z+	c #452E1E",
"`+	c #1E130E",
" @	c #60432D",
".@	c #6C4A31",
"+@	c #68452E",
"@@	c #62412D",
"#@	c #573A2C",
"$@	c #442F21",
"%@	c #553A26",
"&@	c #694B32",
"*@	c #694831",
"=@	c #543929",
"-@	c #673B1A",
";@	c #593017",
">@	c #422212",
",@	c #311C10",
"'@	c #291A0F",
")@	c #22160E",
"!@	c #5F3D23",
"~@	c #65452A",
"{@	c #65492A",
"]@	c #614427",
"^@	c #4A2E1F",
"/@	c #563A23",
"(@	c #21140E",
"_@	c #66472E",
":@	c #714C33",
"<@	c #6A4731",
"[@	c #6F4C35",
"}@	c #64422C",
"|@	c #553829",
"1@	c #453021",
"2@	c #5A4027",
"3@	c #65462E",
"4@	c #6A4930",
"5@	c #543A2B",
"6@	c #4F3627",
"7@	c #663E1C",
"8@	c #513116",
"9@	c #341E11",
"0@	c #26170E",
"a@	c #674A2A",
"b@	c #634227",
"c@	c #664326",
"d@	c #674526",
"e@	c #5F3F25",
"f@	c #5F3F26",
"g@	c #583723",
"h@	c #27170F",
"i@	c #3D2313",
"j@	c #6B4E31",
"k@	c #745234",
"l@	c #6E4933",
"m@	c #744E31",
"n@	c #553B2C",
"o@	c #523826",
"p@	c #45321F",
"q@	c #534029",
"r@	c #674830",
"s@	c #6A4830",
"t@	c #4F3829",
"u@	c #4B3527",
"v@	c #473224",
"w@	c #3B2512",
"x@	c #2E1B0F",
"y@	c #5F3F28",
"z@	c #67452A",
"A@	c #664327",
"B@	c #654227",
"C@	c #6A472A",
"D@	c #6B4A2C",
"E@	c #684A2C",
"F@	c #21150E",
"G@	c #2D1C10",
"H@	c #65472E",
"I@	c #705235",
"J@	c #67472E",
"K@	c #6F4C30",
"L@	c #66442D",
"M@	c #52392A",
"N@	c #513728",
"O@	c #443321",
"P@	c #4F3625",
"Q@	c #5B3F2B",
"R@	c #6F4B32",
"S@	c #6E4B30",
"T@	c #60412A",
"U@	c #483123",
"V@	c #442E21",
"W@	c #402D20",
"X@	c #3A2111",
"Y@	c #654228",
"Z@	c #6A462A",
"`@	c #704F2D",
" #	c #71502F",
".#	c #765230",
"+#	c #714E2C",
"@#	c #6B472A",
"##	c #26180F",
"$#	c #2D1B0F",
"%#	c #4C2F15",
"&#	c #60422C",
"*#	c #6C5034",
"=#	c #67452D",
"-#	c #60402D",
";#	c #523828",
">#	c #513828",
",#	c #392010",
"'#	c #523926",
")#	c #63452D",
"!#	c #6A4D30",
"~#	c #5E422C",
"{#	c #5F3F2A",
"]#	c #4F3425",
"^#	c #3E2A1F",
"/#	c #3D281D",
"(#	c #422C1E",
"_#	c #2B1A0F",
":#	c #684228",
"<#	c #6E472D",
"[#	c #6A462B",
"}#	c #664428",
"|#	c #6D472A",
"1#	c #7A522F",
"2#	c #774C2D",
"3#	c #291B0F",
"4#	c #2F1E10",
"5#	c #472914",
"6#	c #361E10",
"7#	c #543116",
"8#	c #694D30",
"9#	c #6A4D31",
"0#	c #5D422C",
"a#	c #5B3D28",
"b#	c #4A3120",
"c#	c #45301F",
"d#	c #3A271F",
"e#	c #3E2B1F",
"f#	c #603C26",
"g#	c #674026",
"h#	c #663E26",
"i#	c #6D4528",
"j#	c #754C2B",
"k#	c #74492D",
"l#	c #70472C",
"m#	c #2A1A0F",
"n#	c #4A2C15",
"o#	c #60432C",
"p#	c #6A4F33",
"q#	c #654630",
"r#	c #603E2A",
"s#	c #62442D",
"t#	c #301B0F",
"u#	c #492914",
"v#	c #6C3A1C",
"w#	c #5F412C",
"x#	c #674C32",
"y#	c #553B28",
"z#	c #40291C",
"A#	c #3A261B",
"B#	c #38261B",
"C#	c #5C3B26",
"D#	c #684428",
"E#	c #664028",
"F#	c #6C4428",
"G#	c #724A2C",
"H#	c #754C30",
"I#	c #23150E",
"J#	c #27170E",
"K#	c #2B190F",
"L#	c #422412",
"M#	c #61452E",
"N#	c #684733",
"O#	c #61402A",
"P#	c #63422D",
"Q#	c #563B2C",
"R#	c #5A3C28",
"S#	c #4C2C14",
"T#	c #6D3E1C",
"U#	c #68391B",
"V#	c #5E402B",
"W#	c #63492F",
"X#	c #513824",
"Y#	c #463023",
"Z#	c #3B291D",
"`#	c #36241A",
" $	c #36241B",
".$	c #603F28",
"+$	c #5B3B27",
"@$	c #563723",
"#$	c #573723",
"$$	c #573926",
"%$	c #5A3B27",
"&$	c #694227",
"*$	c #25150E",
"=$	c #311E10",
"-$	c #614A2E",
";$	c #60422D",
">$	c #5B3C2A",
",$	c #573B2A",
"'$	c #5B3F2D",
")$	c #301C10",
"!$	c #4B2915",
"~$	c #6E401C",
"{$	c #6D3D1D",
"]$	c #6B3A19",
"^$	c #5D412A",
"/$	c #573E29",
"($	c #4D3623",
"_$	c #39281D",
":$	c #37271B",
"<$	c #37261A",
"[$	c #332318",
"}$	c #5A3A25",
"|$	c #5F3C23",
"1$	c #573722",
"2$	c #563623",
"3$	c #5A3725",
"4$	c #20130E",
"5$	c #2A170E",
"6$	c #2F1A0F",
"7$	c #60442A",
"8$	c #61432E",
"9$	c #5F432E",
"0$	c #61442D",
"a$	c #5C3D2C",
"b$	c #5E422D",
"c$	c #2A190F",
"d$	c #633719",
"e$	c #66381A",
"f$	c #603418",
"g$	c #552E16",
"h$	c #553D28",
"i$	c #473522",
"j$	c #3B281C",
"k$	c #36251A",
"l$	c #352419",
"m$	c #332317",
"n$	c #533521",
"o$	c #553522",
"p$	c #4E3121",
"q$	c #4C2E1F",
"r$	c #4E3222",
"s$	c #593925",
"t$	c #1E120E",
"u$	c #24150E",
"v$	c #5F402A",
"w$	c #5D3F2C",
"x$	c #63472E",
"y$	c #593E2A",
"z$	c #5D402D",
"A$	c #5C3217",
"B$	c #5E3417",
"C$	c #4D2C15",
"D$	c #523F27",
"E$	c #43301E",
"F$	c #39281A",
"G$	c #332319",
"H$	c #342418",
"I$	c #452D1E",
"J$	c #3E261A",
"K$	c #472F1F",
"L$	c #492F1F",
"M$	c #462E1E",
"N$	c #482E1E",
"O$	c #56351F",
"P$	c #19120D",
"Q$	c #553A2A",
"R$	c #5F422A",
"S$	c #5D3F29",
"T$	c #553A28",
"U$	c #5D442D",
"V$	c #573D2A",
"W$	c #452612",
"X$	c #4E2C15",
"Y$	c #462512",
"Z$	c #402211",
"`$	c #3B1F10",
" %	c #402B1E",
".%	c #372519",
"+%	c #302218",
"@%	c #31221A",
"#%	c #3C251A",
"$%	c #3D261A",
"%%	c #3F2A20",
"&%	c #46352D",
"*%	c #18100D",
"=%	c #463625",
"-%	c #483325",
";%	c #593F2C",
">%	c #583F2C",
",%	c #503728",
"'%	c #5A422A",
")%	c #4E3525",
"!%	c #382112",
"~%	c #331C11",
"{%	c #2D1910",
"]%	c #2C180F",
"^%	c #322419",
"/%	c #281E16",
"(%	c #261818",
"_%	c #251A19",
":%	c #2C1D1A",
"<%	c #332420",
"[%	c #565150",
"}%	c #46342D",
"|%	c #1B100D",
"1%	c #21130E",
"2%	c #24140E",
"3%	c #3E2D21",
"4%	c #402C22",
"5%	c #4C3526",
"6%	c #4F3A29",
"7%	c #4C3426",
"8%	c #543C29",
"9%	c #483223",
"0%	c #160F0D",
"a%	c #1D130E",
"b%	c #291710",
"c%	c #2C1710",
"d%	c #291811",
"e%	c #2B1810",
"f%	c #281710",
"g%	c #291810",
"h%	c #27160F",
"i%	c #281F16",
"j%	c #241A15",
"k%	c #271B19",
"l%	c #2B1C19",
"m%	c #352521",
"n%	c #40322E",
"o%	c #3F261A",
"p%	c #2B170E",
"q%	c #3A281F",
"r%	c #3C2C24",
"s%	c #463731",
"t%	c #482F22",
"u%	c #462E24",
"v%	c #513929",
"w%	c #422D22",
"x%	c #140F0D",
"y%	c #1B110E",
"z%	c #261810",
"A%	c #2D1A11",
"B%	c #2D190F",
"C%	c #241B18",
"D%	c #33241F",
"E%	c #3B312D",
"F%	c #35221A",
"G%	c #39251C",
"H%	c #3A231A",
"I%	c #38271D",
"J%	c #362318",
"K%	c #4C4542",
"L%	c #595351",
"M%	c #4A3B32",
"N%	c #463226",
"O%	c #43332C",
"P%	c #554841",
"Q%	c #412E25",
"R%	c #16100D",
"S%	c #1C120E",
"T%	c #271710",
"U%	c #271910",
"V%	c #1E120D",
"W%	c #2E2219",
"X%	c #322520",
"Y%	c #53504F",
"Z%	c #362119",
"`%	c #38241A",
" &	c #3E3223",
".&	c #28160E",
"+&	c #311A10",
"@&	c #3A1F11",
"#&	c #332623",
"$&	c #473A32",
"%&	c #452F22",
"&&	c #473528",
"*&	c #504540",
"=&	c #595451",
"-&	c #473A30",
";&	c #1D120D",
">&	c #2E1D10",
",&	c #352111",
"'&	c #331E11",
")&	c #2F1B10",
"!&	c #26160E",
"~&	c #1F130D",
"{&	c #312018",
"]&	c #3D312D",
"^&	c #36241C",
"/&	c #34221A",
"(&	c #1B120D",
"_&	c #331F0F",
":&	c #3C2212",
"<&	c #422613",
"[&	c #2A1D1E",
"}&	c #3E2B21",
"|&	c #412D22",
"1&	c #443123",
"2&	c #4B392B",
"3&	c #433426",
"4&	c #261A0F",
"5&	c #331C10",
"6&	c #362011",
"7&	c #351E10",
"8&	c #27160E",
"9&	c #302119",
"0&	c #342119",
"a&	c #38261C",
"b&	c #3C281C",
"c&	c #3E281C",
"d&	c #37241A",
"e&	c #25160E",
"f&	c #2D1A10",
"g&	c #4A3728",
"h&	c #423223",
"i&	c #24160E",
"j&	c #27180E",
"k&	c #341F11",
"l&	c #361F10",
"m&	c #311D0F",
"n&	c #37251C",
"o&	c #3F2A1C",
"p&	c #41291D",
"q&	c #381D11",
"r&	c #432614",
"s&	c #433122",
"t&	c #483A28",
"u&	c #402C21",
"                                                                ",
"    . + @ # $ % & * = - ; > > - , ' ' ) ! ~ { ] ^ / ( ( _       ",
"    : < [ } % | 1 2 3 4 5 6 7 8 9 0 a b c 9 d e e f g h i j k   ",
"  l l @ m n o p q f r s t u v w x y z A B C D E F G H I i J K   ",
"  l l @ L M N p q O P Q R S T U V W X X , Y F Z `  ...+.@.#.$.  ",
"  %.%.&.*.=.-.;.>.,.'.).!.> ~.T v {.].^./.0 (.e _.( :.<.[.}.|.  ",
"  1.1.2.3.4.5.6.7.8.9.0.a.b.c.d.e.f.g.h.i.C j.k.l.l.m.n.o.p.q.  ",
"  r.r.s.t.u.v.w.x.y.z.A.B.C.D.E.F.G.H.I.J.K.L.M.N.O.P.Q.R.S.T.  ",
"  U.U.V.W.X.Y.Z.`. +.+++@+`.#+F.$+%+&+*+=+-+;+>+,+'+)+!+~+{+]+  ",
"  ^+^+/+(+_+:+<+[+}+|+1+@+<+2+3+4+5+6+7+8+9+0+a+a+b+c+d+e+f+g+  ",
"  h+h+i+j+k+l+m+2+n+o+p+q+m+2+r+s+t+u+v+w w+M.x+y+z+A+B+C+D+E+  ",
"  F+F+G+Y.H+I+J+r+K+L+M+N+l+J+O+O+P+Q+R+x S+T+U+V+W+X+B+Y+Z+`+  ",
"   @ @.@+@_+@@#@O+$@%@&@*@H+@@#@=@-@;@>@,@'@)@!@~@{@]@^@y+/@(@  ",
"  _@_@:@<@[@}@|@=@1@2@3@4@_+}@}@5@6@7@8@9@0@a@b@c@d@d@e@f@g@h@  ",
"  i@j@k@l@m@.@n@o@p@q@r@s@<@[@.@t@u@v@f.w@x@y@z@A@B@C@D@E@F@G@  ",
"  h.H@I@J@K@L@M@N@O@P@Q@R@l@l@S@T@U@V@W@X@x@Y@Z@`@ #.#+#@###$#  ",
"  %#&#*#s.=#-#;#>#,#'#)#!#k@J@~#{#]#^#/#(#_#:#<#[#}#|#1#2#3#4#  ",
"  5#&#*#s.=#-#;#>#6#7#8#9#H@*#0#a#b#c#d#e#f#g#g#h#i#j#k#l#m#U   ",
"  n#o#p#q#r#s#>#o@t#u#v#H@&#w#x#y#d+z#A#B#C#:#D#E#F#G#H#I#J#K#  ",
"  L#M#3@N#O#P#Q#R#u S#T#U#&#V#W#X#Y#Z#`# $.$+$@$#$$$%$&$*$Y =$  ",
"  -$-$3.;$@+>$,$'$)$!$~${$]$^$/$($_$:$<$[$}$|$1$@$2$%$3$4$5$6$  ",
"  7$7$8$9$0$a$b$s.c$i.d$e$f$g$h$i$j$k$l$m$n$o$p$q$r$1$s$t$u$w+  ",
"  v$v$w$&#x$y$0#z$r 7+A$B$g$C$D$E$F$G$H$I$J$K$L$M$N$O$P$M.u$5   ",
"  /$/$Q$R$S$T$U$V$)@-+W$X$Y$Z$`$ %.%+%G @%/ #%$%%%&%^@*%0+] 6   ",
"  =%=%-%;%>%,%'%)%*%(@> !%~%~ {%]%^%/%/%(%_%:%<%M [%}%|%1%2%w+  ",
"  3%3%4%5%6%7%8%9%0%a%b%c%d%e%f%g%h%i%j%k%_%l%k m%n%o%@ ;+p%8+  ",
"  q%r%s%t%-%u%v%w%x%y%z%A%T T B%]%h@4$P C%D%E%F%G%G%H%I%* )$v   ",
"  J%K%L%M%N%O%P%Q%R%S%T%w+U%* D D 3 V%W%X%+.Y%E%Z%`% &0+.&+&@&  ",
"  z #&$&%&&&*&=&-&;&I#>&,&'&)&t#)&!&~& +{&@.]&^&/&`%(&0@_&:&<&  ",
"    [&}&|&1&2&-&3&T+4&)&6#W 5&6&7&6$8&9&@%0&a&b&c&d&e&w+f&R <&  ",
"    [&}&|&1&g&h&i&T+j&9 w k&'&/.l&m&K#!&!&n&n&b&o&p&9 q&r&c.    ",
"        s&  t&u&                                                "};
