/* XPM */
static char * blood_xpm[] = {
"4 4 2 1",
" 	c None",
".	c #9C0E00",
" .. ",
"....",
"....",
" .. "};
