/* XPM */
static char * flame_xpm[] = {
"8 8 5 1",
" 	c None",
".	c #4B3919",
"+	c #3E3414",
"@	c #842200",
"#	c #57532B",
"     .  ",
" +@  @  ",
" ##+  @ ",
"#..@  #+",
"##.+    ",
" .###@  ",
"  .##+  ",
"  +++   "};
