/* XPM */
static char * flame_xpm[] = {
"3 4 6 1",
" 	c None",
".	c #CF2215",
"+	c #E29A00",
"@	c #850000",
"#	c #E2EE00",
"$	c #C4891E",
" . ",
".+@",
"+#$",
" $ "};
