/* XPM */
static char * gear_xpm[] = {
"18 18 67 1",
" 	c None",
".	c #9C9C9C",
"+	c #5B5B5B",
"@	c #545454",
"#	c #4B4B4B",
"$	c #383838",
"%	c #595959",
"&	c #5D5D5D",
"*	c #4F4F4F",
"=	c #2F2F2F",
"-	c #5A5A5A",
";	c #585858",
">	c #5C5C5C",
",	c #4D4D4D",
"'	c #2B2B2B",
")	c #434343",
"!	c #3A3A3A",
"~	c #656565",
"{	c #626262",
"]	c #636363",
"^	c #5E5E5E",
"/	c #535353",
"(	c #474747",
"_	c #525252",
":	c #393939",
"<	c #565656",
"[	c #5F5F5F",
"}	c #505050",
"|	c #343434",
"1	c #616161",
"2	c #555555",
"3	c #333333",
"4	c #575757",
"5	c #464646",
"6	c #181818",
"7	c #4C4C4C",
"8	c #282828",
"9	c #3B3B3B",
"0	c #606060",
"a	c #515151",
"b	c #373737",
"c	c #272727",
"d	c #1B1B1B",
"e	c #005400",
"f	c #005100",
"g	c #1A1A1A",
"h	c #444444",
"i	c #2A2A2A",
"j	c #161616",
"k	c #005300",
"l	c #005000",
"m	c #303030",
"n	c #005600",
"o	c #005500",
"p	c #004C00",
"q	c #004A00",
"r	c #004F00",
"s	c #004800",
"t	c #353535",
"u	c #004900",
"v	c #151515",
"w	c #2D2D2D",
"x	c #004B00",
"y	c #171717",
"z	c #454545",
"A	c #131313",
"B	c #363636",
"      ......      ",
"      .+@#$.      ",
"   ....%&*=...    ",
"  ..-;.;>,'.)!.   ",
"  .%~{@]^/(!#_:.  ",
"  .<]{[^>%@}**|.  ",
"....@1+/_%&+23....",
".4//][_5=$[1>/36:.",
".@[1]>78  910%a7b.",
".@[{{>7c  def;}7g.",
".2_/0^_hij;kl}mjg.",
"...._^4},noelpq...",
"  .41+@/<ekkrss.  ",
"  .;a2t@;@,ru#v.  ",
"  ..}$.#27wpxy..  ",
"   ....7}zA....   ",
"      .*Bvv.      ",
"      ......      "};
