/* XPM */
static char * smoke_small_xpm[] = {
"8 8 4 1",
" 	c None",
".	c #494949",
"+	c #6D6D6D",
"@	c #242424",
"  .++.  ",
" +++.+. ",
"+.+.+...",
".+.+.+.@",
"+++.+...",
".+.+..@ ",
" .....  ",
"  .@@@  "};
