/* XPM */
static char * smoke_med_xpm[] = {
"16 16 4 1",
" 	c None",
".	c #494949",
"+	c #6D6D6D",
"@	c #242424",
"      .+.+      ",
"    +++.+.+.    ",
"   +++.+.+++.   ",
"  +++++.+.+++.  ",
" +++++.+++.+..@ ",
" ++++.+.+.+.+.. ",
".+.+.+++.+.+..@.",
"+.+++.+.+++.+..@",
".+.+.+.+.+.+.+..",
"+.+.+++.+.+.+...",
" ..+.+.+++.+..@ ",
" ...+.+.+.+.... ",
"  @..+.+.+..@.  ",
"   .....+....   ",
"    @.@...@.    ",
"      .@.@      "};
