/* XPM */
static char * star_xpm[] = {
"5 5 4 1",
" 	c None",
".	c #FFB600",
"+	c #FEF596",
"@	c #FFCA00",
"  .  ",
" +@. ",
"@@@@.",
" @@. ",
" . . "};
