/* XPM */
static char * wood_xpm[] = {
"3 3 3 1",
" 	c None",
".	c #9F5A0C",
"+	c #8A6437",
"   ",
" .+",
" + "};
