/* XPM */
static char * wood_xpm[] = {
"3 3 4 1",
" 	c None",
".	c #4C2D00",
"+	c #8A6437",
"@	c #9F5A0C",
"..+",
".@+",
" + "};
