/* XPM */
static char * concret_xpm[] = {
"32 32 495 2",
"  	c #454743",
". 	c #474A44",
"+ 	c #3E403D",
"@ 	c #40423F",
"# 	c #474945",
"$ 	c #50534C",
"% 	c #4D504A",
"& 	c #484A45",
"* 	c #494C45",
"= 	c #494B4A",
"- 	c #484A49",
"; 	c #4A4B4D",
"> 	c #4C4E4D",
", 	c #4B4D4C",
"' 	c #3B3F40",
") 	c #414644",
"! 	c #50524F",
"~ 	c #4F514E",
"{ 	c #4F524F",
"] 	c #4E524F",
"^ 	c #4E504D",
"/ 	c #4D5051",
"( 	c #525554",
"_ 	c #505251",
": 	c #515252",
"< 	c #4A4C4B",
"[ 	c #545655",
"} 	c #4E5152",
"| 	c #474944",
"1 	c #464843",
"2 	c #4D5049",
"3 	c #4F524B",
"4 	c #51544D",
"5 	c #52554E",
"6 	c #53564F",
"7 	c #4E514A",
"8 	c #4C4F48",
"9 	c #41433F",
"0 	c #505355",
"a 	c #4B4F50",
"b 	c #444847",
"c 	c #4E534F",
"d 	c #4F5450",
"e 	c #4E534D",
"f 	c #4D524C",
"g 	c #515652",
"h 	c #4F5150",
"i 	c #555756",
"j 	c #545653",
"k 	c #555855",
"l 	c #525453",
"m 	c #535552",
"n 	c #535554",
"o 	c #3E403F",
"p 	c #545750",
"q 	c #565952",
"r 	c #555851",
"s 	c #52554F",
"t 	c #50534D",
"u 	c #424441",
"v 	c #4D4F4E",
"w 	c #4E504F",
"x 	c #4D5152",
"y 	c #545859",
"z 	c #4B4E4F",
"A 	c #444948",
"B 	c #4B504C",
"C 	c #4A4F4B",
"D 	c #4B4D4A",
"E 	c #4C4F4A",
"F 	c #4D4F4C",
"G 	c #515350",
"H 	c #4B4F4E",
"I 	c #535353",
"J 	c #555555",
"K 	c #5B5D5C",
"L 	c #525451",
"M 	c #3F433F",
"N 	c #565853",
"O 	c #575A53",
"P 	c #414340",
"Q 	c #505153",
"R 	c #55595A",
"S 	c #505455",
"T 	c #494D4E",
"U 	c #424645",
"V 	c #505652",
"W 	c #4A4C49",
"X 	c #484A47",
"Y 	c #4C4F4E",
"Z 	c #515151",
"` 	c #575958",
" .	c #585A59",
"..	c #4E4F4F",
"+.	c #444644",
"@.	c #4A4F4A",
"#.	c #585B54",
"$.	c #464A4B",
"%.	c #525657",
"&.	c #565857",
"*.	c #515352",
"=.	c #515755",
"-.	c #505551",
";.	c #4C4E4E",
">.	c #414442",
",.	c #434844",
"'.	c #4B4F4A",
").	c #595B56",
"!.	c #545651",
"~.	c #3D413F",
"{.	c #424443",
"].	c #4B4C4E",
"^.	c #4D504D",
"/.	c #4E5251",
"(.	c #4D524E",
"_.	c #454947",
":.	c #5A5C5B",
"<.	c #464846",
"[.	c #4B4C46",
"}.	c #454946",
"|.	c #4F524C",
"1.	c #4E504B",
"2.	c #464A46",
"3.	c #383B3C",
"4.	c #454745",
"5.	c #464845",
"6.	c #4D4D4F",
"7.	c #494B48",
"8.	c #4D5150",
"9.	c #4C514D",
"0.	c #4C4E4B",
"a.	c #3F4342",
"b.	c #5B5F5E",
"c.	c #4F5351",
"d.	c #454744",
"e.	c #4B4E47",
"f.	c #4C4D48",
"g.	c #4B4D48",
"h.	c #4C4E49",
"i.	c #3F4341",
"j.	c #393C3B",
"k.	c #4F514C",
"l.	c #484A4B",
"m.	c #515254",
"n.	c #474946",
"o.	c #434547",
"p.	c #5C5E5D",
"q.	c #5A5E5D",
"r.	c #535856",
"s.	c #3E403E",
"t.	c #4A4D48",
"u.	c #434541",
"v.	c #414642",
"w.	c #393E3C",
"x.	c #404443",
"y.	c #414242",
"z.	c #414343",
"A.	c #3B3C3C",
"B.	c #494A49",
"C.	c #434544",
"D.	c #404341",
"E.	c #434444",
"F.	c #4C504E",
"G.	c #565B56",
"H.	c #515651",
"I.	c #545954",
"J.	c #545856",
"K.	c #565A57",
"L.	c #565B55",
"M.	c #4B514D",
"N.	c #51524E",
"O.	c #52534E",
"P.	c #555651",
"Q.	c #535550",
"R.	c #545550",
"S.	c #53544F",
"T.	c #565752",
"U.	c #424541",
"V.	c #575953",
"W.	c #545650",
"X.	c #585A54",
"Y.	c #4F524D",
"Z.	c #444643",
"`.	c #535754",
" +	c #5E635C",
".+	c #5A5D56",
"++	c #5E615A",
"@+	c #5B5E57",
"#+	c #61665F",
"$+	c #565C54",
"%+	c #4B4B49",
"&+	c #51524D",
"*+	c #414342",
"=+	c #555A53",
"-+	c #515851",
";+	c #555B55",
">+	c #585D56",
",+	c #4D4F4B",
"'+	c #464847",
")+	c #474948",
"!+	c #4E5350",
"~+	c #5D6059",
"{+	c #60655E",
"]+	c #5F645D",
"^+	c #555A54",
"/+	c #565751",
"(+	c #555650",
"_+	c #3A3D3C",
":+	c #50524D",
"<+	c #545953",
"[+	c #535A53",
"}+	c #5A605C",
"|+	c #585F58",
"1+	c #575C56",
"2+	c #575C55",
"3+	c #4D524D",
"4+	c #5C5F58",
"5+	c #4F5350",
"6+	c #4A4A48",
"7+	c #4F504B",
"8+	c #595A55",
"9+	c #53544E",
"0+	c #4D4E49",
"a+	c #3B3D3C",
"b+	c #53554F",
"c+	c #585C56",
"d+	c #525854",
"e+	c #5A615A",
"f+	c #5B615D",
"g+	c #596059",
"h+	c #595C55",
"i+	c #424544",
"j+	c #353938",
"k+	c #444645",
"l+	c #505451",
"m+	c #4C4C4A",
"n+	c #50514C",
"o+	c #3B3F3D",
"p+	c #555C55",
"q+	c #565B54",
"r+	c #595E58",
"s+	c #444744",
"t+	c #5A5F58",
"u+	c #585D57",
"v+	c #50514D",
"w+	c #52544F",
"x+	c #555753",
"y+	c #5E605B",
"z+	c #424543",
"A+	c #535650",
"B+	c #575E57",
"C+	c #585D58",
"D+	c #4A4F4C",
"E+	c #51534F",
"F+	c #5C5F57",
"G+	c #60635C",
"H+	c #5E6159",
"I+	c #4E504E",
"J+	c #5F615C",
"K+	c #5B5D58",
"L+	c #424745",
"M+	c #61635F",
"N+	c #494B46",
"O+	c #555751",
"P+	c #595D56",
"Q+	c #5D625C",
"R+	c #515554",
"S+	c #545855",
"T+	c #5B6059",
"U+	c #535852",
"V+	c #434647",
"W+	c #3C4041",
"X+	c #454746",
"Y+	c #4A4B4B",
"Z+	c #383C3D",
"`+	c #393D3C",
" @	c #414544",
".@	c #464B49",
"+@	c #444947",
"@@	c #3B403E",
"#@	c #464A48",
"$@	c #4A504E",
"%@	c #4B4F4D",
"&@	c #484B49",
"*@	c #434848",
"=@	c #424847",
"-@	c #404444",
";@	c #424846",
">@	c #484C49",
",@	c #4B4F4C",
"'@	c #494E4A",
")@	c #474C48",
"!@	c #434343",
"~@	c #484848",
"{@	c #4B4B4B",
"]@	c #35393A",
"^@	c #4D504B",
"/@	c #51534E",
"(@	c #434746",
"_@	c #3C403F",
":@	c #555B57",
"<@	c #535854",
"[@	c #515650",
"}@	c #464B47",
"|@	c #494C4B",
"1@	c #444444",
"2@	c #4A4A4A",
"3@	c #474B4C",
"4@	c #414443",
"5@	c #5C5E59",
"6@	c #5A5C57",
"7@	c #3F4442",
"8@	c #525952",
"9@	c #545B54",
"0@	c #4F544F",
"a@	c #4E534E",
"b@	c #434745",
"c@	c #474747",
"d@	c #464646",
"e@	c #434748",
"f@	c #3E4241",
"g@	c #474A46",
"h@	c #555752",
"i@	c #50524E",
"j@	c #3E4341",
"k@	c #525751",
"l@	c #565D56",
"m@	c #494F4A",
"n@	c #404442",
"o@	c #444945",
"p@	c #484D49",
"q@	c #454545",
"r@	c #424345",
"s@	c #3B3E3F",
"t@	c #51544F",
"u@	c #585B55",
"v@	c #525753",
"w@	c #515753",
"x@	c #575D59",
"y@	c #5D635F",
"z@	c #5C625E",
"A@	c #4B524C",
"B@	c #414745",
"C@	c #444746",
"D@	c #4A4E4A",
"E@	c #424743",
"F@	c #484846",
"G@	c #3D3F3E",
"H@	c #555754",
"I@	c #595F5B",
"J@	c #454B47",
"K@	c #484E4C",
"L@	c #484C4B",
"M@	c #3E4041",
"N@	c #404344",
"O@	c #5B605B",
"P@	c #616660",
"Q@	c #545652",
"R@	c #595A58",
"S@	c #585E58",
"T@	c #4C514B",
"U@	c #424644",
"V@	c #3D4242",
"W@	c #454547",
"X@	c #3E3F40",
"Y@	c #5D605B",
"Z@	c #5A5F5A",
"`@	c #414543",
" #	c #474A47",
".#	c #50534F",
"+#	c #484D4B",
"@#	c #494F4D",
"##	c #545B56",
"$#	c #4C504F",
"%#	c #4E524E",
"&#	c #3A3E3F",
"*#	c #34383B",
"=#	c #3E4243",
"-#	c #474C4A",
";#	c #444A47",
">#	c #484C4D",
",#	c #494D4C",
"'#	c #4A4E4D",
")#	c #404445",
"!#	c #525654",
"~#	c #393E40",
"{#	c #4F5050",
"]#	c #4F5151",
"^#	c #4F514F",
"/#	c #525553",
"(#	c #464B4A",
"_#	c #525858",
":#	c #4D5252",
"<#	c #4F5454",
"[#	c #4F5354",
"}#	c #505656",
"|#	c #505353",
"1#	c #484C4C",
"2#	c #444848",
"3#	c #333739",
"4#	c #3B3F3F",
"5#	c #4B504B",
"6#	c #4F544E",
"7#	c #434744",
"8#	c #535756",
"9#	c #595D5C",
"0#	c #4A4F4F",
"a#	c #5B5C57",
"b#	c #5D5E59",
"c#	c #5F5F5B",
"d#	c #646560",
"e#	c #62615D",
"f#	c #61625D",
"g#	c #666762",
"h#	c #5D6160",
"i#	c #5C605F",
"j#	c #626665",
"k#	c #505453",
"l#	c #3D4142",
"m#	c #4A514A",
"n#	c #4C534C",
"o#	c #4A4F49",
"p#	c #4D514B",
"q#	c #464A47",
"r#	c #575C58",
"s#	c #545857",
"t#	c #575B5A",
"u#	c #60615C",
"v#	c #656661",
"w#	c #696A65",
"x#	c #63645F",
"y#	c #525655",
"z#	c #585D59",
"A#	c #5B5D5A",
"B#	c #585B5A",
"C#	c #585C58",
"D#	c #616360",
"E#	c #3C3F3F",
"F#	c #474C46",
"G#	c #494E48",
"H#	c #464B46",
"I#	c #5D615D",
"J#	c #5D625E",
"K#	c #555958",
"L#	c #494D4D",
"M#	c #696A64",
"N#	c #676863",
"O#	c #60615D",
"P#	c #585C5B",
"Q#	c #626460",
"R#	c #666662",
"S#	c #3A3E40",
"T#	c #4B504A",
"U#	c #5F6460",
"V#	c #5E6261",
"W#	c #565A59",
"X#	c #5A5E5C",
"Y#	c #6B6C66",
"Z#	c #575755",
"`#	c #424647",
" $	c #606360",
".$	c #5C5E5C",
"+$	c #3A4041",
"@$	c #4C514C",
"#$	c #484D47",
"$$	c #515556",
"%$	c #4A5050",
"&$	c #676862",
"*$	c #686964",
"=$	c #5C5C5A",
"-$	c #484B4C",
";$	c #5D5F5E",
">$	c #45494A",
",$	c #505555",
"'$	c #63625E",
")$	c #636562",
"!$	c #616362",
"~$	c #3F4343",
"{$	c #494F4B",
"]$	c #50554F",
"^$	c #5A5D5C",
"/$	c #474C4C",
"($	c #5A5B57",
"_$	c #585854",
":$	c #5A5D58",
"<$	c #5B5C59",
"[$	c #5C5E5A",
"}$	c #313538",
"|$	c #4A4E4F",
"1$	c #4B4C4C",
"2$	c #3F4244",
"3$	c #4A4E49",
"4$	c #3E4240",
"5$	c #474B49",
"6$	c #515551",
"  . + @ # $ % & * + = - ; - > , ' ) ! ~ { ] ^ ^ / ( _ _ : < [ } ",
"| 1 2 3 4 5 6 7 8 9 > < < < > 0 a b c ~ d e f g h i j k l m m n ",
"o 3 3 4 p q r s t u v v w , x y z A B C D E F G H [ m I J K L ^ ",
"M $ $ p p r p N O P Q R Q v h S T U V ] W X F G Y h Z G `  .L ..",
"+.@.6 p p 6 5 r #.u $.%.&.*._ h ; b =.=.-.c D d ;.I *.l l n l v ",
">.,.'.r p 4 6 ).!.~.{., [ [ _ *.].b ^.~ g /.(.G _.l j i :.&.*.w ",
"<.[.1 }.|.1.2.3.4.5.< > i *.h _ 6.- 7.F 8.9.0.F a.> [ i b.i i c.",
"d.e.f.g.h.h.i.j.k.+.l.l w w *.m.Q n.W W = D D L o.> h :.p.q.` r.",
"s.t.d.u.u @ v.w.w.x.x.^ y.{.z.A.- B.C.u d.= D.E.F.G.H.I.J.K.L.M.",
"N.O.P.P.Q.R.S.T.U.V.r W.r #.X.q Y.D n.5.d.d.Z.X `. +.+++@+#+#+$+",
"%+&+R.R.P.O.&+S.*+q =+-+;+>+#.#.,+7.'+n.)+'+5.7.!+#.~+#..+{+]+^+",
"W S.P./+P.(+5 Q._+:+<+[+}+|+1+2+3+o n.< v '+5.X F #.~+4+@+]+ +5+",
"6+7+O.8+Q.9+&+0+a+b+c+d+e+f+g+h+i+j+k+C.- < '+'+1.#.@+4+@+++{+l+",
"m+g.n+O.O.&+Q.R.o+t.p+q+^+r+>+h+s+= W , D = - k+:+#.@+4+~+4+t+u+",
"v+w+S.S.P.T.x+y+z+F A+O #.h+B+C+D+! v h , X /.v E+O @+F+G+H+2+ +",
":+P.I+J+y+K+L ^ L+M+~+N+O+2+P+Q+! *.v R+> 0.F ! S+h+.+T+4+U+t+{+",
"'+H V+W+X+Y+x.Z+`+,.W (. @.@+@@@`+#@$@%@&@*@=@-@;@C >@,@'@)@C '@",
"p.:., !@~@{@*+]@^@Q./@!.! U (@_@:@L.<+^+U+<@^+[@b X 7.7.B 9.C }@",
"h |@1@~@2@~@3@4@t.S.!.5@6@!.0.7@8@9@U+U+L.0@e a@b@X )@X '@'@)@n.",
"v ~@!@c@d@X+e@f@g@O.h@K+K+/@i@j@g k@U+|+l@[@9.m@n@o@p@p@'@p@o@Z.",
"2@q@!@q@!@k+r@s@t@!.u@6@).h@O.,.v@w@x@y@z@U+3+A@B@)@C@}@)@)@D@E@",
"F@d@1@q@G@{.V+Z+G.5@!.6@5@h@T.H@x@I@z@}+9@[@J@[@K@'@L@(@'@B B p@",
"d@q@q@!@M@k+> N@O@P@).).Q@h@6@R@S@p+L.g+[@T@B U@V@C '@(.9.9.C o@",
"W@)+d@X@C.*+V+b d Y@Z@~ `@ #.#+#@#|+##l@M.$#%#&#*#=#.@L@-#+@;#j@",
">#,#'#)#!#H $.~#..{#v ]#n ^#/#(#_#:#<#[#}#|#1#2#3#4#)@T@5#6#T@7#",
"_ l w h 8#9#9#0#a#b#c#d#e#f#g#R h#b.9#:.i#j#k#( l#(.m#n#o#p#e q#",
"< *.r#s#t#9#s#T u#v#w#g#x#g#g#y#b.h#9#z#A#B#C#D#E#T@T@T@F#G#f H#",
"[ I#J#9#q.h#K#L#f#M#N#g#v#d#O#Y j h#h#P#9#K Q#R#S#6#o#T@G#e T#G#",
"B#U#V#W#X#i#8#)#d#Y#g#x#N#Z#h `#s#m H@ .X# $D#.$+$@$#$T#o#6#f G#",
"i h#t#l K#8#$$%$a#&$v#*$f#=$, -$;$K H@P#i#i#` ; >$(.o#T#o#e e T@",
"n K#s#K#[ 9#V#,$x#f#d#'$d#d#_ `#)$!$8#:.b.t#` _ ~${$G#T#8@]$e T@",
"H : y#K#t#b.^$/$($_$:$<$[$Z#< }$|$` 1$_ l l w 2$x.o#3$4$5$~ 6$_."};
