/* XPM */
static char * dirt_xpm[] = {
"32 32 34 1",
" 	c None",
".	c #4D3325",
"+	c #533628",
"@	c #523628",
"#	c #4A3124",
"$	c #4B3124",
"%	c #4C3225",
"&	c #503527",
"*	c #4E3326",
"=	c #513527",
"-	c #4F3426",
";	c #4A3024",
">	c #533728",
",	c #543729",
"'	c #553829",
")	c #503427",
"!	c #493023",
"~	c #543728",
"{	c #442C21",
"]	c #422C20",
"^	c #452D21",
"/	c #462E22",
"(	c #4D3225",
"_	c #472F23",
":	c #482F23",
"<	c #472E22",
"[	c #472F22",
"}	c #452E22",
"|	c #432C20",
"1	c #412A1F",
"2	c #422B20",
"3	c #432C21",
"4	c #442D21",
"5	c #412B1F",
".++@#$#%@+&*=&-;%->==-,'-=@,=*=+",
"@&*)@).!..!%*>,&-*!&''@%%*@>~*@,",
"&>=%%@,'~'~@~,'+,'>~++)@=-@@&**&",
"-@,-&&,'*>,~==*$%=,.{]^*&&=-=&.*",
"=-%=,'+*/#(*.-=*,,@+@*&*(($@,,''",
">+-(.*).=-@)@@,,@=@+,'>-'@,@+>)@",
"',@!_$=,,++&&*-=@@''>~'','~@--$$",
"@@)@~,>)$.$&-&=+=&$!:#%.*&=-@+~'",
"!!%&,'>*-..%!!!:#<:$=>~+%#[}}#$*",
"@===~@+-,>@-&=+@++-@>>@=-,>',>=(",
"@&%(&&&@^//!%*>>@+++@&**::%*@,''",
"+-=--+~~',,''''''~',=@@=',)-$$*%",
"','+@=*-$.#-..*%*&+&=*=>@=@+>,>@",
",,,~=*($;$*(&-=*##..*==@',,,+.!/",
"+=,@@&>>''~~~@-*+>>,,','~+=+>'',",
"!$%##(=>*&==@+>~,'~'''''~,=,'~,>",
"-),~>+'',=*)*)*&%(@=.$[<-.*#<:#*",
",~>'''''',+--*+,@>@&=&=>%*&++&~=",
"$--..*-#//:!#$%%)*$[|1]]&&$!_$==",
"+,'~-%*&@&@@'@&!.*=@@>&*!%*@>._2",
")..##:}:-*.%--**#%=&>'+&~-%**,~~",
"'=*&>>@.^-+@)*+',,+.&+&-#!-~'>=*",
"=&-~+,@&.@'=%!};..!/$&+=&;#(%;*&",
"#*>=.#(@&*::%~@@=@-%*~=!+%*~+)(.",
">-#*'',-=%$$*=,'>,,'=-&@@-=+=&=,",
"',=-=%$!.*!;/_-@+%_/3{<$)>,''',~",
"4;.--=+,&@&%**+'@([/.=+'.=.$.@@*",
".+,+@@>''',+&-@~''*)+~=@+,>&>,~-",
":#%*-,~'@=+>,,>'==+,@>-&.)+&+')!",
"+&=&-*!/4|5:)-&)-.=,,,'',,+=@+,=",
"=>>'''~~,@*=,~+),,=)-*-==*%##%(.",
"==,,',-$!3^!%-@~,+=,,,>,@=~',.$;"};
