/* XPM */
static char * dirt_xpm[] = {
"32 32 196 2",
"  	c #262E34",
". 	c #272F36",
"+ 	c #293138",
"@ 	c #293038",
"# 	c #283036",
"$ 	c #283037",
"% 	c #262E35",
"& 	c #252D34",
"* 	c #242C32",
"= 	c #272F35",
"- 	c #242B32",
"; 	c #364149",
"> 	c #3B464F",
", 	c #38434C",
"' 	c #3C4750",
") 	c #3A444E",
"! 	c #37424B",
"~ 	c #354049",
"{ 	c #363F48",
"] 	c #38434B",
"^ 	c #39444D",
"/ 	c #3A454E",
"( 	c #3B454E",
"_ 	c #3B464E",
": 	c #222A30",
"< 	c #353F48",
"[ 	c #45515C",
"} 	c #47545E",
"| 	c #495762",
"1 	c #485560",
"2 	c #47545F",
"3 	c #46535E",
"4 	c #44505B",
"5 	c #424E59",
"6 	c #485561",
"7 	c #252C33",
"8 	c #404C56",
"9 	c #404C50",
"0 	c #3B4446",
"a 	c #586774",
"b 	c #53626E",
"c 	c #556470",
"d 	c #52606D",
"e 	c #52616D",
"f 	c #515F6B",
"g 	c #4F5D6A",
"h 	c #546370",
"i 	c #566572",
"j 	c #576673",
"k 	c #3C4547",
"l 	c #273036",
"m 	c #414D57",
"n 	c #313B3E",
"o 	c #3E484B",
"p 	c #596976",
"q 	c #5C6C7A",
"r 	c #5A6976",
"s 	c #5B6B78",
"t 	c #5C6D7A",
"u 	c #586775",
"v 	c #556471",
"w 	c #53616E",
"x 	c #5E6E7C",
"y 	c #5D6C7A",
"z 	c #394448",
"A 	c #44505A",
"B 	c #4C5965",
"C 	c #60717F",
"D 	c #5A6A78",
"E 	c #5F707E",
"F 	c #5D6D7B",
"G 	c #576674",
"H 	c #5D6D7A",
"I 	c #4B5863",
"J 	c #43505A",
"K 	c #51606C",
"L 	c #5B6A78",
"M 	c #60707E",
"N 	c #647584",
"O 	c #667786",
"P 	c #677988",
"Q 	c #657684",
"R 	c #617180",
"S 	c #617280",
"T 	c #5F6E7D",
"U 	c #5A6977",
"V 	c #637382",
"W 	c #515F6C",
"X 	c #647684",
"Y 	c #6B7D8C",
"Z 	c #697B8A",
"` 	c #657685",
" .	c #5E6F7D",
"..	c #627382",
"+.	c #5F6E7E",
"@.	c #60707F",
"#.	c #647685",
"$.	c #637483",
"%.	c #617281",
"&.	c #232B31",
"*.	c #232A31",
"=.	c #54626F",
"-.	c #677888",
";.	c #6C7E8E",
">.	c #627281",
",.	c #657786",
"'.	c #667787",
").	c #6A7C8C",
"!.	c #647484",
"~.	c #627482",
"{.	c #637381",
"].	c #5F707D",
"^.	c #52606C",
"/.	c #363F49",
"(.	c #4E5C67",
"_.	c #748798",
":.	c #697B8B",
"<.	c #6B7C8C",
"[.	c #677A89",
"}.	c #708293",
"|.	c #6C7F8F",
"1.	c #5F6F7E",
"2.	c #647483",
"3.	c #718495",
"4.	c #6E8090",
"5.	c #6E8091",
"6.	c #6E8190",
"7.	c #657585",
"8.	c #607180",
"9.	c #3B454F",
"0.	c #576773",
"a.	c #627381",
"b.	c #748898",
"c.	c #708393",
"d.	c #6E8191",
"e.	c #6D7F8F",
"f.	c #6A7D8D",
"g.	c #5A6B77",
"h.	c #4C5A65",
"i.	c #596875",
"j.	c #6F8191",
"k.	c #687988",
"l.	c #3B4650",
"m.	c #637383",
"n.	c #6B7D8D",
"o.	c #677787",
"p.	c #697A8B",
"q.	c #687A8A",
"r.	c #4E5C68",
"s.	c #697A8A",
"t.	c #647583",
"u.	c #5F6F7D",
"v.	c #333D46",
"w.	c #232A30",
"x.	c #647382",
"y.	c #596977",
"z.	c #353E47",
"A.	c #637583",
"B.	c #6B7C8B",
"C.	c #667887",
"D.	c #22292F",
"E.	c #3C4751",
"F.	c #728596",
"G.	c #43505B",
"H.	c #283137",
"I.	c #6A7B8B",
"J.	c #677887",
"K.	c #3B4750",
"L.	c #3C4650",
"M.	c #586673",
"N.	c #667685",
"O.	c #677989",
"P.	c #728495",
"Q.	c #697C8C",
"R.	c #687A89",
"S.	c #4B5864",
"T.	c #657785",
"U.	c #52616C",
"V.	c #6A7C8B",
"W.	c #667886",
"X.	c #364044",
"Y.	c #3F494D",
"Z.	c #364245",
"`.	c #3A4445",
" +	c #252C32",
".+	c #354043",
"++	c #556370",
"@+	c #343F41",
"#+	c #262F35",
"$+	c #4A5763",
"%+	c #4A5762",
"&+	c #47535F",
"*+	c #38424C",
"=+	c #252E34",
"-+	c #252C34",
";+	c #252D33",
"  . . + . @ # $ # %   & & & & % & % .   %   * & & . % . . . = % ",
"- ; > , > > ' , ) ) ! ! ; ; ~ { ; ! ] ) ) ! ) ! ^ > / > ( ' _ % ",
": < [ } | | 1 2 1 2 2 1 3 4 5 5 3 [ 3 2 2 1 2 6 1 | | | | | _ % ",
"7 < 8 9 0 a b c b b b b d e e f e f g g e h i j h c c 9 k | >   ",
"l < m n o p q r p s p q s t s s u v w h a p q x q y x z k | > & ",
"$ , A B j x C D x C C E C C E x F s G G a q x x E C C H i I ) & ",
"% > J f K L x M N O P O Q R R R S T L U H H x x M V C s b 2 ! * ",
". ! 2 f j W u X Y Z Y ` V P ` R S  ...+.@.#.$.$.%.M x p f 3 ! &.",
"*.< J g =.j u v -.;.>.P ;.,.-.$.'.).).-.!.!.~.{.O %.].p ^.[ ; * ",
"- /.J (.p x H u C S _.:.<.[.-.}.|.|.Z |.Y >.1.{.$.M x s b 2 ! 7 ",
"7 ! [ b y 2.%.H  .!.3.}.4.<.}.5.}.5.}.6.7.P S V 8.x s u f 3 , 7 ",
"& 9.| 0.x a.V ..E -.).P Y b.c.Z d.c.e.N f.4.>.@.%.H g.j f [ ; 7 ",
"% > h.i.x a.N N S X E c.|.j.|.c.` Y k.j.j.7.Z $.O S q j g [ ; 7 ",
"# l.| 0.C ` Z S !.E m.$.j.4.}.n.m.o.}.c.[.p.Y q.%.%.q u r.m < - ",
"# > | j C ` O @.s.t.E E |.n.;.N ` O ;.[.[.;.Y $.u.V x u g m v.w.",
"# ' h.j C a. .x.).Z ` -.a.s.O ;.}.s.` o.|.;.Y R %.C x y.f m z.- ",
"$ l.B j E A.` a.B.|.C.-.C ` n.4.}.s.%.6.|.;.s.R $.V x u g 5 < D.",
"# E.I U E t.P Z s.[.;.Y ).n.4.F.<.-.:.` c.).P %.O S x u g G.z.&.",
"H.E.h.i.E t.P Z ;.:.P j.).Z 4.-.s.n.4.I.[.;.J.!.$.M q u g 5 < &.",
"+ K.B j E ` P Y ;.d.<.Y |.q.>.q.|.j.|.j.N ;.t.q.O V q v g J < &.",
"# L.I M.E a.P Z 4.d.3.|.t.N.|.Y |.j.j.c.[.p.a.s.O.%.x a f [ ! 7 ",
". ' | a x t.O Y 4.d.P.-.Q.-.Z R.).;.4.}.;.2.t.).O V ].u b [ ! * ",
"# > S.h 1.C P Y ;.<.'.|.d.d.` a.T.-.Y Y |.S C.s.O S x u U.[ ! * ",
"# / | j E a.O Y O V.4.;.;.;.-.a.q S -.).s.$.q.s.P V x s ^.2 ! * ",
"$ ' S.j x t.N %.O P Z Z W.O $.$.x 1.T Q O @.Z Z P V x p d 3 , 7 ",
"# _ I i E C P $.O N O N O V S S x M S E 8.E V V N V x u U.3 , & ",
". ' | j q t.C C a.a.t.a.a.].E q x x x 1.q q C ].a.E C p b 3 , & ",
"  ' 1 X.Y.H x x x x x y x s s s p p p p U s t x s q s Z.`.3 )  +",
"l ) S..+k i i h j h i h b b b b ++c b e U.e b b h b b @+0 1 ,   ",
"#+) | | $+| %+1 | 1 1 2 2 2 1 2 3 3 3 3 [ J 3 2 &+2 2 2 3 1 ! % ",
"% l.) ) ^ ) ) ) ) ) *+) , , , , ; ! ! ! ; ; ! < , ! , ! ) , ) 7 ",
"  %   % . % % % & =+  -+  ;+& & & * & % * 7 w.D.7 - - & & &   * "};
