/* XPM */
static char * planks_xpm[] = {
"32 32 722 2",
"  	c #57412F",
". 	c #533E2C",
"+ 	c #523D2A",
"@ 	c #4D3A2B",
"# 	c #4E3A29",
"$ 	c #4B3724",
"% 	c #4D3B27",
"& 	c #503F2B",
"* 	c #54422E",
"= 	c #513F29",
"- 	c #4D3B29",
"; 	c #4C3A27",
"> 	c #4D3926",
", 	c #4E3A28",
"' 	c #523E2C",
") 	c #52402C",
"! 	c #58452F",
"~ 	c #57422F",
"{ 	c #523E2B",
"] 	c #53412F",
"^ 	c #534231",
"/ 	c #4B3B2A",
"( 	c #4E3C28",
"_ 	c #4F3C2B",
": 	c #543F2C",
"< 	c #56412C",
"[ 	c #56402E",
"} 	c #5A432F",
"| 	c #543C2A",
"1 	c #533C28",
"2 	c #58402E",
"3 	c #5C4831",
"4 	c #594830",
"5 	c #57432C",
"6 	c #533D2A",
"7 	c #4E3C26",
"8 	c #4F3D25",
"9 	c #523D28",
"0 	c #513C27",
"a 	c #514028",
"b 	c #524028",
"c 	c #543F2A",
"d 	c #543E2B",
"e 	c #553E2C",
"f 	c #563E2C",
"g 	c #53412B",
"h 	c #53402C",
"i 	c #513F2B",
"j 	c #4F3D29",
"k 	c #4C3C29",
"l 	c #4E3D29",
"m 	c #51402B",
"n 	c #57452D",
"o 	c #594731",
"p 	c #594430",
"q 	c #56432A",
"r 	c #57452E",
"s 	c #57462D",
"t 	c #5A462D",
"u 	c #5E4833",
"v 	c #5A4530",
"w 	c #57442E",
"x 	c #4F3B2A",
"y 	c #4E3A2C",
"z 	c #4E3B2A",
"A 	c #503A2A",
"B 	c #4C392A",
"C 	c #4C3A26",
"D 	c #4C3A25",
"E 	c #4C3824",
"F 	c #4D3A26",
"G 	c #513D29",
"H 	c #5D4632",
"I 	c #56412B",
"J 	c #4F3B25",
"K 	c #4B3723",
"L 	c #4D3A27",
"M 	c #483828",
"N 	c #493827",
"O 	c #4B3A27",
"P 	c #4D3B2A",
"Q 	c #4B3B29",
"R 	c #4E3D2B",
"S 	c #523D2D",
"T 	c #4F3C2A",
"U 	c #4F3B2B",
"V 	c #524031",
"W 	c #513F2D",
"X 	c #55412F",
"Y 	c #56432F",
"Z 	c #503F2A",
"` 	c #51402C",
" .	c #4C3D2A",
"..	c #443524",
"+.	c #433222",
"@.	c #4D3C2E",
"#.	c #4D3D2F",
"$.	c #493A2A",
"%.	c #483728",
"&.	c #463624",
"*.	c #4C3A29",
"=.	c #4F3D2B",
"-.	c #503D29",
";.	c #4E3B27",
">.	c #4A3825",
",.	c #473523",
"'.	c #453523",
").	c #473624",
"!.	c #4B3A28",
"~.	c #4D3C2A",
"{.	c #4D3C29",
"].	c #483927",
"^.	c #4F3E2E",
"/.	c #574536",
"(.	c #514130",
"_.	c #4A392A",
":.	c #4D3C2D",
"<.	c #4A382B",
"[.	c #4C3B2D",
"}.	c #503F2F",
"|.	c #4E3E2C",
"1.	c #594530",
"2.	c #55402B",
"3.	c #56402D",
"4.	c #523F2B",
"5.	c #54402D",
"6.	c #533F2C",
"7.	c #553F2D",
"8.	c #594332",
"9.	c #57432D",
"0.	c #5E4730",
"a.	c #5E4731",
"b.	c #5D4A32",
"c.	c #56442D",
"d.	c #56422A",
"e.	c #533E2A",
"f.	c #523E2A",
"g.	c #54422A",
"h.	c #54412A",
"i.	c #503D2B",
"j.	c #4A3625",
"k.	c #513C2B",
"l.	c #56412F",
"m.	c #513D2D",
"n.	c #52402D",
"o.	c #584230",
"p.	c #5C4936",
"q.	c #5C4A34",
"r.	c #604935",
"s.	c #624936",
"t.	c #59442F",
"u.	c #58432E",
"v.	c #5E4531",
"w.	c #604733",
"x.	c #5F4731",
"y.	c #59442D",
"z.	c #57422D",
"A.	c #523E2D",
"B.	c #56432D",
"C.	c #58432D",
"D.	c #5B4531",
"E.	c #5C4533",
"F.	c #5C4531",
"G.	c #57432E",
"H.	c #53422C",
"I.	c #53412A",
"J.	c #55432D",
"K.	c #54412D",
"L.	c #55432F",
"M.	c #584330",
"N.	c #54402E",
"O.	c #5E4735",
"P.	c #5C4632",
"Q.	c #5D4833",
"R.	c #5C4734",
"S.	c #554230",
"T.	c #554231",
"U.	c #594131",
"V.	c #5C4234",
"W.	c #5B4435",
"X.	c #5C4534",
"Y.	c #5B4633",
"Z.	c #53402F",
"`.	c #554233",
" +	c #544131",
".+	c #4E3E2F",
"++	c #4F3E2F",
"@+	c #503E28",
"#+	c #4F3D2A",
"$+	c #503E2A",
"%+	c #55422C",
"&+	c #54402B",
"*+	c #56422D",
"=+	c #503C2B",
"-+	c #4F3C2F",
";+	c #4B3A2C",
">+	c #483425",
",+	c #4F3826",
"'+	c #5A4331",
")+	c #4E3D2A",
"!+	c #4C3D29",
"~+	c #483827",
"{+	c #433223",
"]+	c #3C2D20",
"^+	c #3B2D20",
"/+	c #413020",
"(+	c #503D2F",
"_+	c #493728",
":+	c #4A3929",
"<+	c #4E3C2A",
"[+	c #4B3A29",
"}+	c #544331",
"|+	c #554332",
"1+	c #534131",
"2+	c #544230",
"3+	c #544330",
"4+	c #4F3D2C",
"5+	c #564534",
"6+	c #554433",
"7+	c #483829",
"8+	c #49372A",
"9+	c #513F30",
"0+	c #4A382A",
"a+	c #4C3C2B",
"b+	c #4F3D2D",
"c+	c #503E2E",
"d+	c #503E2C",
"e+	c #524331",
"f+	c #4D3F2F",
"g+	c #4E4030",
"h+	c #524232",
"i+	c #504032",
"j+	c #4F4232",
"k+	c #544430",
"l+	c #564732",
"m+	c #5A4836",
"n+	c #5B4637",
"o+	c #5A4838",
"p+	c #554532",
"q+	c #4E402C",
"r+	c #504430",
"s+	c #534533",
"t+	c #524332",
"u+	c #4F412F",
"v+	c #4D3E2C",
"w+	c #493B29",
"x+	c #50412F",
"y+	c #4D3D2D",
"z+	c #4E3D2D",
"A+	c #4A3B29",
"B+	c #514132",
"C+	c #534333",
"D+	c #534332",
"E+	c #534434",
"F+	c #594633",
"G+	c #4F3E2D",
"H+	c #554331",
"I+	c #594734",
"J+	c #594936",
"K+	c #594836",
"L+	c #5A4A3A",
"M+	c #564433",
"N+	c #584838",
"O+	c #594938",
"P+	c #59493A",
"Q+	c #584735",
"R+	c #5E4C38",
"S+	c #5C4B35",
"T+	c #584734",
"U+	c #584736",
"V+	c #594A3B",
"W+	c #534233",
"X+	c #4F3F2F",
"Y+	c #4F3E2C",
"Z+	c #554330",
"`+	c #594733",
" @	c #5B4834",
".@	c #554434",
"+@	c #564535",
"@@	c #534331",
"#@	c #574433",
"$@	c #5A4937",
"%@	c #5C4937",
"&@	c #5A4834",
"*@	c #5C4A36",
"=@	c #5F4D3B",
"-@	c #604E3A",
";@	c #63503E",
">@	c #614D3D",
",@	c #5A4738",
"'@	c #604D3A",
")@	c #5E4B36",
"!@	c #5D4936",
"~@	c #5E4B37",
"{@	c #5C4C3B",
"]@	c #5D4B3D",
"^@	c #574738",
"/@	c #534334",
"(@	c #514131",
"_@	c #4B3B2C",
":@	c #4C3C2C",
"<@	c #4D3E2E",
"[@	c #50402F",
"}@	c #584534",
"|@	c #594635",
"1@	c #473725",
"2@	c #463625",
"3@	c #4B3927",
"4@	c #554334",
"5@	c #544234",
"6@	c #554333",
"7@	c #483826",
"8@	c #4A3A28",
"9@	c #513F2E",
"0@	c #503F2C",
"a@	c #4D3D2B",
"b@	c #4D3D2C",
"c@	c #493729",
"d@	c #4C3B2A",
"e@	c #49392A",
"f@	c #473726",
"g@	c #493928",
"h@	c #443525",
"i@	c #453425",
"j@	c #463626",
"k@	c #564633",
"l@	c #584632",
"m@	c #4E3D2C",
"n@	c #594632",
"o@	c #5E4A39",
"p@	c #604C3A",
"q@	c #5C4A39",
"r@	c #5E4C3C",
"s@	c #5C4B3E",
"t@	c #5E4B3D",
"u@	c #604A3B",
"v@	c #594735",
"w@	c #5E4C39",
"x@	c #604C39",
"y@	c #5F4D3A",
"z@	c #5D4B39",
"A@	c #5D4B37",
"B@	c #5D4E3B",
"C@	c #5D4C38",
"D@	c #624F39",
"E@	c #624E38",
"F@	c #5B4937",
"G@	c #574535",
"H@	c #544432",
"I@	c #52432F",
"J@	c #52422F",
"K@	c #564432",
"L@	c #534330",
"M@	c #574736",
"N@	c #5A4736",
"O@	c #584832",
"P@	c #50412A",
"Q@	c #55462F",
"R@	c #5E4C3A",
"S@	c #614E3B",
"T@	c #65503C",
"U@	c #5F4D35",
"V@	c #635139",
"W@	c #63523A",
"X@	c #5F5539",
"Y@	c #5F513D",
"Z@	c #644F3F",
"`@	c #655241",
" #	c #63513F",
".#	c #604D3C",
"+#	c #64523D",
"@#	c #64523B",
"##	c #66533E",
"$#	c #624F3A",
"%#	c #5D4938",
"&#	c #574635",
"*#	c #544435",
"=#	c #5D4A34",
"-#	c #5C4835",
";#	c #574432",
">#	c #574532",
",#	c #584531",
"'#	c #5C4A3A",
")#	c #5F4C3C",
"!#	c #654E3C",
"~#	c #624C38",
"{#	c #5F4B34",
"]#	c #5D4A33",
"^#	c #645239",
"/#	c #66513C",
"(#	c #614D3C",
"_#	c #574434",
":#	c #5B4839",
"<#	c #5A4A38",
"[#	c #5B4837",
"}#	c #63503D",
"|#	c #5B4935",
"1#	c #584636",
"2#	c #554536",
"3#	c #514133",
"4#	c #4F4032",
"5#	c #55412D",
"6#	c #53412D",
"7#	c #53422D",
"8#	c #4F3E2A",
"9#	c #4E3B29",
"0#	c #4D3B28",
"a#	c #4A3827",
"b#	c #56422E",
"c#	c #54412E",
"d#	c #413121",
"e#	c #4B392A",
"f#	c #4D3B2B",
"g#	c #493828",
"h#	c #4C3C2A",
"i#	c #50402E",
"j#	c #4A3A2B",
"k#	c #4E3E2D",
"l#	c #503F2E",
"m#	c #4C3A2C",
"n#	c #634F39",
"o#	c #614E37",
"p#	c #5A4933",
"q#	c #54442F",
"r#	c #5F4A34",
"s#	c #64503A",
"t#	c #604E37",
"u#	c #624D37",
"v#	c #624D36",
"w#	c #614E3C",
"x#	c #64503B",
"y#	c #69533B",
"z#	c #6A5138",
"A#	c #694F36",
"B#	c #715940",
"C#	c #6C5743",
"D#	c #6E5946",
"E#	c #5B4736",
"F#	c #554430",
"G#	c #574733",
"H#	c #604D39",
"I#	c #5F4D37",
"J#	c #5A4B34",
"K#	c #5E4F37",
"L#	c #63533B",
"M#	c #5D4D38",
"N#	c #5F4C37",
"O#	c #614D34",
"P#	c #655137",
"Q#	c #625136",
"R#	c #614F38",
"S#	c #5F4D39",
"T#	c #63513A",
"U#	c #65523B",
"V#	c #65523A",
"W#	c #624F37",
"X#	c #604C33",
"Y#	c #614D38",
"Z#	c #644E38",
"`#	c #654F37",
" $	c #5C4934",
".$	c #574431",
"+$	c #634E3B",
"@$	c #614C39",
"#$	c #604938",
"$$	c #5B4735",
"%$	c #614F3B",
"&$	c #604D34",
"*$	c #634F34",
"=$	c #634F36",
"-$	c #5F4C35",
";$	c #584630",
">$	c #594431",
",$	c #5C4A32",
"'$	c #5D4C35",
")$	c #5E4C36",
"!$	c #5B4B37",
"~$	c #5D4B35",
"{$	c #624F38",
"]$	c #614E36",
"^$	c #68533C",
"/$	c #66533B",
"($	c #69543D",
"_$	c #64513B",
":$	c #604D35",
"<$	c #6B563B",
"[$	c #644F39",
"}$	c #624C36",
"|$	c #5F4B36",
"1$	c #584431",
"2$	c #5E4732",
"3$	c #5F4935",
"4$	c #604A32",
"5$	c #614B33",
"6$	c #5B4730",
"7$	c #5B4832",
"8$	c #584733",
"9$	c #594834",
"0$	c #4F3F2D",
"a$	c #493B2B",
"b$	c #463828",
"c$	c #574632",
"d$	c #594833",
"e$	c #5A4935",
"f$	c #4D3C27",
"g$	c #4B3A25",
"h$	c #4E3C29",
"i$	c #493726",
"j$	c #4E3C2B",
"k$	c #503E2D",
"l$	c #433321",
"m$	c #584633",
"n$	c #564531",
"o$	c #51402E",
"p$	c #4F3E28",
"q$	c #52422C",
"r$	c #584B33",
"s$	c #574C34",
"t$	c #614F3A",
"u$	c #58422E",
"v$	c #57402D",
"w$	c #513C28",
"x$	c #523C29",
"y$	c #523B27",
"z$	c #513A26",
"A$	c #4E3624",
"B$	c #4C3623",
"C$	c #4F3B28",
"D$	c #4F3B29",
"E$	c #51402A",
"F$	c #513E28",
"G$	c #59462D",
"H$	c #5A4830",
"I$	c #5B4830",
"J$	c #5A4832",
"K$	c #5B4933",
"L$	c #5A4731",
"M$	c #57462F",
"N$	c #5D4A2F",
"O$	c #5C4730",
"P$	c #59462F",
"Q$	c #5A4833",
"R$	c #5B4835",
"S$	c #614B35",
"T$	c #5F4931",
"U$	c #624B35",
"V$	c #57452F",
"W$	c #513F2A",
"X$	c #52402B",
"Y$	c #51412B",
"Z$	c #52432A",
"`$	c #50402C",
" %	c #514229",
".%	c #5B462F",
"+%	c #58452D",
"@%	c #58472D",
"#%	c #574330",
"$%	c #55412E",
"%%	c #544132",
"&%	c #564430",
"*%	c #51432D",
"=%	c #56462F",
"-%	c #53432F",
";%	c #54432F",
">%	c #564431",
",%	c #504029",
"'%	c #4E3E28",
")%	c #4C3D28",
"!%	c #4F3F2A",
"~%	c #52412D",
"{%	c #4D3F2C",
"]%	c #4F3F2C",
"^%	c #5F4A35",
"/%	c #503E2B",
"(%	c #4E3E2B",
"_%	c #403122",
":%	c #463526",
"<%	c #493927",
"[%	c #433423",
"}%	c #473625",
"|%	c #483725",
"1%	c #423122",
"2%	c #453525",
"3%	c #443426",
"4%	c #433325",
"5%	c #4C402B",
"6%	c #4A3A27",
"7%	c #4A3725",
"8%	c #4E3E29",
"9%	c #4D3D27",
"0%	c #4A3A25",
"a%	c #4E3B28",
"b%	c #4D3D28",
"c%	c #52402A",
"d%	c #4C3D2B",
"e%	c #4B3C2B",
"f%	c #4A3B24",
"g%	c #493B25",
"h%	c #473825",
"i%	c #453624",
"j%	c #48382B",
"k%	c #62523F",
"l%	c #544231",
"m%	c #534132",
"n%	c #533F2E",
"o%	c #56422C",
"p%	c #513E29",
"q%	c #523F29",
"r%	c #56442E",
"s%	c #53402A",
"t%	c #4C3826",
"u%	c #4A3824",
"v%	c #4F3E26",
"w%	c #503F27",
"x%	c #513D28",
"y%	c #523E29",
"z%	c #4A3A2A",
"A%	c #4E3F28",
"B%	c #524129",
"C%	c #4F3D28",
"D%	c #4E3A26",
"E%	c #4D3C28",
"F%	c #4D3927",
"G%	c #573F2D",
"H%	c #554030",
"I%	c #523F2F",
"J%	c #55402D",
"K%	c #523D2C",
"L%	c #533E2B",
"M%	c #55402C",
"N%	c #54422C",
"O%	c #4D3B23",
"P%	c #514026",
"Q%	c #534228",
"R%	c #524127",
"S%	c #55442A",
"T%	c #54412B",
"U%	c #4D3C2B",
"V%	c #4C3B29",
"W%	c #553E2A",
"X%	c #573E2D",
"Y%	c #5A402F",
"Z%	c #402F22",
"`%	c #483525",
" &	c #483729",
".&	c #463427",
"+&	c #473424",
"@&	c #423121",
"#&	c #4A3828",
"$&	c #4B3926",
"%&	c #4C3A28",
"&&	c #4F3F2E",
"*&	c #564635",
"=&	c #473727",
"-&	c #3D2D1F",
";&	c #483524",
">&	c #483625",
",&	c #483824",
"'&	c #473723",
")&	c #473525",
"!&	c #463424",
"~&	c #433021",
"{&	c #4F3C2E",
"]&	c #4E3B2D",
"^&	c #503C2C",
"/&	c #513E30",
"(&	c #513D30",
"_&	c #4D3A2C",
":&	c #4B3A2B",
"<&	c #4C392B",
"[&	c #4B3824",
"}&	c #4A3826",
"|&	c #4B3A2A",
"1&	c #473627",
"2&	c #554130",
"3&	c #4F3C29",
"4&	c #533D2C",
"5&	c #533E2D",
"6&	c #523B2B",
"7&	c #4D3929",
"8&	c #4E3A2E",
"9&	c #4E3C2E",
"0&	c #4C392C",
"a&	c #4C3A2B",
"b&	c #4D392B",
"c&	c #493626",
"d&	c #4A3727",
"e&	c #463527",
"f&	c #453427",
"g&	c #523F30",
"h&	c #4E3A2A",
"i&	c #513E2C",
"j&	c #52402E",
"k&	c #4E3F2B",
"l&	c #4D3D2A",
"m&	c #57442F",
"n&	c #56432E",
"o&	c #55422A",
"p&	c #54422D",
"q&	c #55422E",
"r&	c #56412E",
"s&	c #564231",
"t&	c #564330",
"u&	c #483629",
"v&	c #493829",
"w&	c #453325",
"x&	c #443224",
"y&	c #4B3928",
"z&	c #5A4934",
"A&	c #62503C",
"B&	c #4F3E30",
"C&	c #4A3B2B",
"D&	c #473628",
"E&	c #433224",
"F&	c #443322",
"G&	c #453626",
"H&	c #403123",
"I&	c #443324",
"J&	c #493727",
"K&	c #4C3B28",
"L&	c #493725",
"M&	c #4A3626",
"  . + @ # $ % & * = - ; > , ' ) ! ~ { ] ^ / ( _ : < [ } ~ | 1 2 ",
"3 4 5 6 % 7 8 9 0 a b c d e f g g h i j % k l m n o p q r s t u ",
"v w c x y z x A B C D E F G H I J K L M N O P Q R S T U V W X Y ",
"Z `  ...+.@.#.$.%.%.&.*.=.-.;.>.,.'.).!.~.{.].^./.(._.:.<.[.}.|.",
"1.2.3.4.5.6.7.8.9.0.a.b.o c.c.5 d.e.f.g.h.F l i.j.k.l.m.n.o.p.q.",
"r.s.s.t.u.t.u.v.w.x.y.z.6.A.B.C.D.E.F.C.G.H.I.J.K.L.* M.N.9.~ O.",
"P.Q.R.E.S.T.U.V.W.X.Y.9.Y Z.`. +.+++:.j @+#+$+%+&+*+=+-+;+>+,+'+",
")+!+~+{+]+^+/+(+_+:+- <+[+*.}+|+1+2+] 3+4+5+6+7+8+9+0+%.a+b+c+d+",
"e+f+g+h+i+j+(.e+k+l+m+n+o+5+p+q+r+s+t+u+v+w+x+y+R z+A+B+C+D+E+C+",
"F+3+G+H+I+J+K+L+K+M+N+L+O+P+N+J+Q+R+S+p.T+U+V+P+W+B+X+X+Y+Z+`+ @",
".@+@@@#@$@%@&@*@=@-@=@;@>@,@'@)@!@~@{@L+]@^@/@(@_@:@<@[@#@}@|@}@",
"1@2@3@'.c+$@4@1+5@6@5@(+7@'.8@9@0@W (.a@/ b@<@G+c@d@e@f@g@h@i@j@",
"k@l@m@n@o@p@q@r@s@t@u@v@w@x@y@z@o@A@B@C@D@E@A@v@m+F@G@H@I@J@K@L@",
"M@&@N@A@O@P@Q@l@R@S@T@U@V@W@X@Y@Z@`@ #.#+#@###$#%#%#&#C+H@B+5@*#",
".@o =#-#;#>#,#'#)#!#~#~#{#]#^#/#@#(#_#:#<#[#}#-@|#`+1#2#3#4#3#/@",
"=.f.5#6#7#k 0@8#5.T 9#0#a#0#i b#c#<+d#e#f#g#h#a@|.i#j#k#l#m#j#0#",
"n#o#p#q#*@S+]#r#s#t#u#v#w#x#y#z#A#B#C#D#E#H+F#G#H#I#J#K#L#M#R+N#",
"O#P#Q#R#S#T#U#V#U@V@W#X#]#Y#Z#`# $.$+$@$#$$$|#*@%$&$*$=$-$;$>$,$",
"'$)$)$!$K+G#~${$]$^$/$($_$:$<$Z#[$}$|$$$|@1$v 2$3$4$5$6$! 1$7$=#",
"8$9$0$a$b$a@c$d$e$d$8$- f$g$K@2+h$i$)+m.j$k$9@8@l$d+8$m$n$o$J@L@",
"p$q$L.|#m$G#O@B.p#7$r$s$F#.$t$u$o.v$w$x$y$z$A$B$C$D$!.l E$B.e.F$",
"G$H$I$J$K$L$M$&@q.N$O$P$Q$I#R$S$T$a.U$V$) $+W$g X$g Y$Z$`$ %s t ",
".%+%@%#%G.$%W %%;##@&%L.k+*%=%=%-%;%L.>%,%'%)%!%~%!%{%]%~%-%1$^%",
"i /%#+d+W (%8@f@j@_%:%i@h@8@`$<%{+[%d@a+}%|%|%:%'.1%2%3%4%(.]%& ",
"5%6%7%f$8%9%0%0%a%% b%8#c%= $+$+~+d%e%].~+6%f%g%h%i%'.i@j%k%6+!+",
"l%m%m.n%o%2.p%q%r%s%f$h#t%u%v%w%x%y%G ].z%8@A%B%C%a%D%x%E%F%!%`$",
"G%H%I%k$c#J%K%L%M%N%) 0 O%P%P%Q%R%S%T%U%:@m@V%j $+0#j x 6 W%X%Y%",
"Z%{+:%`% &%.f@.&`%; D$+&@&#&; $&%&O O %&&&*&=&-&;&>&3@,&'&)&!&~&",
"{&:.]&^&/&(&_&:&<&%&( [&}&*.|&}&1&a#% d+` X 2&T.n%{ ) 3&4&5&6&5&",
"7&_&8&9&0&a&b&i$c&1@$&}&>&d&e&f&:%$&( !%) #+m.g&n%k.h&B 7&#+) i&",
"j&=.p$(%k ]%k&l&m&n&{ c%o&g ) 6#p&= i )+<+I%q&r&~ c#L.s&6##+6#t&",
"u& &v&w&x&4%y&=.z&A&B&m@j#C&D&E&F&G&H&I&}%~+J&a#V%K&L&M&;&3@- _."};
