/* XPM */
static char * bullets_xpm[] = {
"32 3 14 1",
" 	c None",
".	c #ECDD31",
"+	c #ECE131",
"@	c #ECDF31",
"#	c #ECD831",
"$	c #ECE031",
"%	c #ECC831",
"&	c #ECC731",
"*	c #ECBA31",
"=	c #ECAE31",
"-	c #EC9231",
";	c #EC6A31",
">	c #EC4B31",
",	c #EC5031",
"                                ",
". +++  . ++@ #..++$#%%##&*=-;>,,",
"                                "};
