/* XPM */
static char * mob_xpm[] = {
"32 32 182 2",
"  	c None",
". 	c #0F2828",
"+ 	c #102828",
"@ 	c #0F2728",
"# 	c #0F2827",
"$ 	c #132626",
"% 	c #182525",
"& 	c #172526",
"* 	c #172525",
"= 	c #132726",
"- 	c #132627",
"; 	c #182625",
"> 	c #1A2524",
", 	c #202323",
"' 	c #202222",
") 	c #212323",
"! 	c #212222",
"~ 	c #212322",
"{ 	c #1F2323",
"] 	c #182526",
"^ 	c #0F2727",
"/ 	c #132727",
"( 	c #182626",
"_ 	c #1A2424",
": 	c #232223",
"< 	c #272121",
"[ 	c #2B2020",
"} 	c #2A201F",
"| 	c #2A2020",
"1 	c #222222",
"2 	c #192525",
"3 	c #1A2525",
"4 	c #232222",
"5 	c #262121",
"6 	c #2B1F20",
"7 	c #2E1E1F",
"8 	c #331D1D",
"9 	c #321E1D",
"0 	c #331E1D",
"a 	c #2F1E1F",
"b 	c #2B201F",
"c 	c #371C1C",
"d 	c #3B1B1A",
"e 	c #3C1A1A",
"f 	c #3D1A1A",
"g 	c #3C1B1A",
"h 	c #3C1A1B",
"i 	c #3B1B1B",
"j 	c #361C1C",
"k 	c #321D1D",
"l 	c #222223",
"m 	c #272021",
"n 	c #2E1E1E",
"o 	c #3F1A1A",
"p 	c #431819",
"q 	c #461817",
"r 	c #461718",
"s 	c #451817",
"t 	c #421818",
"u 	c #3F1919",
"v 	c #3A1A1B",
"w 	c #331D1E",
"x 	c #2F1F1E",
"y 	c #2B1F1F",
"z 	c #272120",
"A 	c #1F2322",
"B 	c #371B1C",
"C 	c #3A1B1B",
"D 	c #421918",
"E 	c #461717",
"F 	c #4B1616",
"G 	c #4F1514",
"H 	c #4F1515",
"I 	c #4F1415",
"J 	c #471717",
"K 	c #421819",
"L 	c #40191A",
"M 	c #2E1F1E",
"N 	c #431918",
"O 	c #531313",
"P 	c #571212",
"Q 	c #571312",
"R 	c #531314",
"S 	c #4F1414",
"T 	c #4A1615",
"U 	c #5B1111",
"V 	c #5F1010",
"W 	c #611010",
"X 	c #600F0F",
"Y 	c #5F100F",
"Z 	c #541314",
"` 	c #4E1515",
" .	c #122727",
"..	c #262120",
"+.	c #571213",
"@.	c #5F0F10",
"#.	c #630F0F",
"$.	c #680D0D",
"%.	c #6A0D0C",
"&.	c #6A0D0D",
"*.	c #630E0F",
"=.	c #102827",
"-.	c #531414",
";.	c #680D0E",
">.	c #6B0C0C",
",.	c #700B0B",
"'.	c #720A0A",
").	c #6F0B0B",
"!.	c #6C0C0C",
"~.	c #630F0E",
"{.	c #5C1111",
"].	c #4A1616",
"^.	c #421919",
"/.	c #2E1F1F",
"(.	c #670D0E",
"_.	c #730A0A",
":.	c #770909",
"<.	c #7B0707",
"[.	c #7C0707",
"}.	c #780908",
"|.	c #670D0D",
"1.	c #581212",
"2.	c #172626",
"3.	c #3B1A1B",
"4.	c #541313",
"5.	c #800606",
"6.	c #830505",
"7.	c #840405",
"8.	c #740A0A",
"9.	c #6B0D0C",
"0.	c #431818",
"a.	c #2A1F20",
"b.	c #212223",
"c.	c #770908",
"d.	c #870403",
"e.	c #8C0203",
"f.	c #880304",
"g.	c #7F0606",
"h.	c #770809",
"i.	c #581312",
"j.	c #610F0F",
"k.	c #690D0C",
"l.	c #840505",
"m.	c #8C0303",
"n.	c #940000",
"o.	c #8C0202",
"p.	c #830504",
"q.	c #7C0708",
"r.	c #610F10",
"s.	c #8C0302",
"t.	c #840504",
"u.	c #451818",
"v.	c #870404",
"w.	c #670E0D",
"x.	c #2A1F1F",
"y.	c #431919",
"z.	c #730A09",
"A.	c #7B0708",
"B.	c #6B0C0D",
"C.	c #262020",
"D.	c #3F191A",
"E.	c #7C0807",
"F.	c #3F1A19",
"G.	c #1A2425",
"H.	c #541413",
"I.	c #680E0E",
"J.	c #6F0B0A",
"K.	c #730A0B",
"L.	c #61100F",
"M.	c #600F10",
"N.	c #541414",
"O.	c #4B1615",
"P.	c #4E1514",
"Q.	c #4E1414",
"R.	c #3B1A1A",
"S.	c #2C1F20",
"T.	c #172625",
"U.	c #401A1A",
"V.	c #451717",
"W.	c #262021",
"X.	c #202223",
"Y.	c #122626",
"                      . + . . . @ . @ . .                       ",
"                  # . $ % & % % % % % * = # @                   ",
"              . . - ; > , ' ) ) ! ~ ) { > ] $ # ^               ",
"          . . / ( _ { : < [ } } } } | < 1 { 2 % - . .           ",
"        . $ * 3 { 4 5 6 7 8 8 8 8 9 0 a [ < 4 , > % / .         ",
"      . = _ { 4 5 b 7 8 c d e f g h i j k 7 6 5 l { _ / #       ",
"      . ] , m 6 n 8 c d o p q q r s t u v j w x y z A ; .       ",
"    @ - 3 4 [ 8 B C u D E F G H G I F J K L d j 8 6 4 3 - .     ",
"    # ; , 5 M j L N J F G O P P Q P R S F E t u j n 5 , % @     ",
"  . - 3 4 6 0 C N T H R P U V W X Y U Q Z ` F D v 8 [ 4 3  ..   ",
"  . ] { ..n c u J H +.U @.#.$.%.&.$.*.V U P G J u j n 5 { % .   ",
"=./ > 1 [ 8 C D F -.U #.;.>.,.'.'.).!.$.~.{.O ].^.i 8 b 1 3 - . ",
"@ * , 5 /.c u J G +.V (.)._.:.<.[.}._.,.|.V 1.S J o j /.< { * . ",
". 2.' | 8 3.^.F 4.U #.>._.<.5.6.7.5.[.8.9.#.U -.].0.C 0 a.~ ; @ ",
". % b.| k e s H P V $.).c.5.d.e.e.f.g.h.).$.@.i.H q h 8 b b.% @ ",
". * ) } 8 g q ` P j.k.'.<.l.m.n.n.o.p.q.'.&.r.P H s e w a.) ] @ ",
". ] b.a.8 g r H i.r.&.'.<.l.m.n.n.s.t.<._.&.X 1.I s e 8 a.~ ; . ",
"# % ) } 0 h u.I P V $.).:.5.d.o.m.v.5.:.,.w.V P H u.e 8 x.b.% # ",
". * ) } 8 i y.F R U *.>.z.q.5.l.6.5.A.z.B.#.U R F K v 8 a.b.* + ",
". % , C.M j D.J H 1.V $.)._.c.[.E.h._.).(.V Q ` J F.B a .., * ^ ",
". - G.1 y w i y.F H.U #.I.!.J.'.K.).!.(.#.U Z F t i 8 [ 1 > = . ",
"  # % , ..M c D.J H i.U V *.|.%.k.$.#.V U P H J F.j 7 < , * .   ",
"  . / _ 4 y 8 i N F I H.1.U Y L.M.V U P N.G F p C 8 b 4 _ $ .   ",
"    # % { 5 a c L K J O.G O 1.P P P O I F J p u j 7 5 , % .     ",
"    ^ = 3 4 y w c i F.t E ].G H P.Q.F J ^.u R.j 8 S.4 > / #     ",
"      . T., < b 7 8 j C U.K V.V.r r K F.i c 8 M y 5 , ( #       ",
"      @ - 3 , 1 5 y n 0 j i e e e e v j 8 7 y < 4 , 3 / .       ",
"        . / % G.{ 4 5 6 /.8 k 8 8 8 0 a 6 W.1 { _ ; = .         ",
"          . . / * 3 { 4 5 | 6 b a.6 x.< 4 { 3 % - . @           ",
"              # ^ / % 3 { ~ b.X.~ b.~ { 3 % / . .               ",
"                  . . / * % ; % ; * % ] Y.. .                   ",
"                      # # . . . + # . . .                       "};
