/* XPM */
static char * tank_base_xpm[] = {
"75 53 113 2",
"  	c None",
". 	c #343923",
"+ 	c #393E28",
"@ 	c #3A3F2B",
"# 	c #3A3E2D",
"$ 	c #3B3F30",
"% 	c #383C2B",
"& 	c #373B2C",
"* 	c #3B3F2E",
"= 	c #393D2C",
"- 	c #76805D",
"; 	c #76805E",
"> 	c #767F60",
", 	c #525A42",
"' 	c #525A43",
") 	c #788260",
"! 	c #525B40",
"~ 	c #778061",
"{ 	c #747E5C",
"] 	c #77815F",
"^ 	c #77815E",
"/ 	c #78825F",
"( 	c #515944",
"_ 	c #505841",
": 	c #535B43",
"< 	c #505840",
"[ 	c #757F5D",
"} 	c #515942",
"| 	c #515941",
"1 	c #535B44",
"2 	c #757F5C",
"3 	c #78825D",
"4 	c #525A45",
"5 	c #798361",
"6 	c #757E5F",
"7 	c #798360",
"8 	c #545C47",
"9 	c #555D46",
"0 	c #75815D",
"a 	c #3C412D",
"b 	c #393D2E",
"c 	c #3C402F",
"d 	c #545C45",
"e 	c #393D2F",
"f 	c #383D29",
"g 	c #393E2A",
"h 	c #747D5E",
"i 	c #757F5A",
"j 	c #383C2D",
"k 	c #3A3D2C",
"l 	c #3A3E2F",
"m 	c #4F583D",
"n 	c #758060",
"o 	c #646A50",
"p 	c #636851",
"q 	c #515A3F",
"r 	c #778260",
"s 	c #4D5932",
"t 	c #75805E",
"u 	c #8C957A",
"v 	c #8D967B",
"w 	c #8C9578",
"x 	c #656B4F",
"y 	c #555D45",
"z 	c #62684E",
"A 	c #63694F",
"B 	c #545C44",
"C 	c #3B3E33",
"D 	c #535B46",
"E 	c #383C2E",
"F 	c #77835F",
"G 	c #737D5A",
"H 	c #8B9479",
"I 	c #656B51",
"J 	c #666C52",
"K 	c #758062",
"L 	c #788164",
"M 	c #737D5B",
"N 	c #76805B",
"O 	c #76815F",
"P 	c #4F5742",
"Q 	c #555E43",
"R 	c #535C41",
"S 	c #8C947C",
"T 	c #8D957D",
"U 	c #899277",
"V 	c #4E563F",
"W 	c #8F987D",
"X 	c #63694D",
"Y 	c #4F573F",
"Z 	c #747F61",
"` 	c #737E5E",
" .	c #787F5E",
"..	c #76825E",
"+.	c #4F5740",
"@.	c #545D42",
"#.	c #90997E",
"$.	c #747E5B",
"%.	c #757E61",
"&.	c #373C26",
"*.	c #727B5C",
"=.	c #77815C",
"-.	c #63674E",
";.	c #363B27",
">.	c #747D60",
",.	c #373B2A",
"'.	c #8A9378",
").	c #727C59",
"!.	c #788162",
"~.	c #3A3E30",
"{.	c #727C57",
"].	c #747E59",
"^.	c #373C28",
"  . + + + @ # + + $ + + + + # % & + + + + + + + + + + + + + + + + + + * * # + + + + + + + # + + + + + + + + + + + + + + + + + + + + + + + + + + + +   ",
"= - ; ; ; > , ; ; ' ; ; ; ) - , ; ; ; ; ; ; ; ; ; ; ; ; ; ; ; ; ; ; ; > ! ~ ; ; ; ; ; { ; ! ; ; ; ; ; ; ; ; ; ; ; ; ; ; ; ; ; ; ; ; ; ; ; ; ] ^ / ; = ",
"= - ; ; ; > , ; ; ' ; ; ; ' - , ; ; ; ; ; ; ; ; ; ; ; ; ; ; ; ; ; ; ; > ! ~ ' ; ; ; ] ( ) ! ; ; ; ; ; ; ; ; ; ; ; ; ; ; ; ; ; ; ; ; ; ; ; _ , : / ; = ",
"= - ; - < ) , ; ; ' ; ; ; { - , ; ; ; ; ; ; ; ; ; ; ; ; ; ; ; ; ; ; ; - , ; ; ; ; ; [ ; [ , , , , , , , , , , , , , , ; ; ; ; ; ; ; ; ; ; ] ; ] [ ; = ",
"= ) ; ; ; ^ , ; ; ' ; ; ; ; - , ; ; ; ; ; > : , , , , , , , , , , , , } , ] ; ; ; ; ; ; ; | ; ] ] ] ] ] ] ] ] ] ; ; : ; ; ; ; ; ; ; ; ; ; < < _ [ ; = ",
"= 1 , , , , 1 ; ; ' [ [ ] ; - , ; ; ; ; ; > ! ; ; ] ; ; ; ; ; ; ; ] [ - , ~ ; ; ; ; ; [ ; | ; { ; ; ; ; ; ; ; 2 : [ , ; ; ; ; ; ; ; ; ; ; - ' 2 ] ; = ",
"= - ; ; ; ; ) ; ; ' [ ( ; ; - , ; ; ; ; ; > ! 3 | 2 ; ; ; ; ; ; ; ; , - , ~ ' ; ; ; ] 4 ] | ^ < ^ ; ; ; ; ; ; ~ ~ { , , , , , , , ^ ; ; ; , : | - ; = ",
"= - ; ; ; ] ; ] ; ' [ 5 [ ; ^ , ; ; ; [ ) > ! 6 ) [ ; ; ; ; ; ; ; ; ) - , ) ; ; ; ; [ ] ; , ; / [ ; ; ; ; ; ; ; ; ; < ; ; ; > ] _ ; ; ; ; ; ; - ] ; = ",
"= - ; } 7 8 ] 9 ; , , , , , , ' ) ; { 0 a b % = = = = = = = = = = = = = = b = = = = = = = % = = = = = = = = = = = = c [ > ; d ; , ; ; ; ; ' : ' [ ; = ",
"= - ; ^ 1 [ 1 ) ; ; ; ; ; ; ; ; ; ; [ e 5 ; ; ; ; ; ; ; ; ; ; ; ; ; ; ; ; ; ; ; ; ; ; ; ; ; ; ; ; ; ; ; ; ; ; ; ; ; 0 f ] ; ; 5 : ^ ; ; ; ; ; ; ; ~ g ",
"= - [ , h < ; ( ; ; ; ; ; ; ; ; ; i j > ^ ; ; ; ; ; ; ; ; ; ; ; ; ; ; ; ; ; ; ; ; ; ; ; ; ; ; ; ; ; ; ; ; ; ; ; ; ; ; [ b k k l * @ k k k k k k k k   ",
"= [ ; ] m 6 , [ ; ; ; ; ; ; ; ; ; n e ; ; ; ; ; ; ; ; ; ; ; [ ; ; ; ; ; ; ; ; ; ; ; ; ; ; ; ; ; ; ; ; i | : , 1 [ ; ; ] o o o o o o o o o p =         ",
"  & [ ] ] ! [ d [ ! , ' ; ! : q > = ; [ r s s s s s s s s s s s s s s s s s s s s s s s s t ; ; ; ; ^ } u v v w : ] ; ; o o o x y z , A B o =         ",
"    C ; ; ; ; [ ; _ > D h _ 6 D h E / F s s s s s s s s s s s s s s s s s s s s s s s s s s { ; ; ] , G } H u u u , ; ; o o o o o I A o o J =         ",
"      = = = = = = f j # j g b # j K L s s s s s s s s s s s s s s s s s s s s s s s s s s s s ; ; ] , h ] } H u u , ; ; o o o o : o B o : I =         ",
"      b M N N N N N N N N N N N N { O s s s s s s s s s s s s s s s s s s s s s s s s s s s s s 6 ] , ; ; ] _ u u , ; ; o o o A A I o A A I =         ",
"      = ; ; ; ; ; ] [ ; ; ; ; ; ; > s s s s s s s s s s s s s s s s s s s s s s s s s s s s s s - [ 8 - ; ; ; , u P ; ; o o o o B o 1 o B I =         ",
"      = ; Q , , , R ; | : ' ; ; ; > s s s s s s s s s s s s s s s s s s s s s s s s s s s s s s - ; [ _ 7 ] ] [ ' - ; ; o o o o o o o o o I =         ",
"      = ; ! S S T R ; | U 1 ; ; ; > s s s s s s s s s s s s s s s s s s s s s s s s s s s s s s - ; ] h , ' ' q ] ] ; ; o o o o : A : I , o =         ",
"      = ; ! u } H , ; , < V ; ; ; s s s s s s s s s s s s s s s s s s s s s s s s s s s s s s s 2 ; ; > ; ; ; 5 [ ; ; ; o o o z o o A A o I =         ",
"      = ; ! v H W , [ [ ; ; ; ; ; s s s s s s s s s s s s s s s s s s s s s s s s s s s s s s s ; ; ; i ; - ; ; ; ; ; ; o o o X B o | A : A =         ",
"      = ; ! u , H , ; , , ' ; ; ; s s s s s s s s s s s s s s s s s s s s s s s s s s s s s s s ; ; ; ; ; ; ; ; ; ; ; ; o o o o o o o o o o =         ",
"      = ; ! v u u , ; , u ' ; ; ; s s s s s s s s s s s s s s s s s s s s s s s s s s s s s s s ; ; ; ; ; ; ; ; ; ; ; ; o o o o o o o o o o =         ",
"      = ; < ' ' ' Y ; , u , ; Z s s s s s s s s s s s s s s s s s s s s s s s s s s s s s s s s ; ; ; ; ; ; ; ; ; ; ; ; o o o o o o o o o o =         ",
"      = ; ; ; [ [ M ; , u , ; - s s s s s s s s s s s s s s s s s s s s s s s s s s s s s s s s ; ; ; ; ; ; ; ; ; ; ; ; o o o o o o o o o o =         ",
"      = ; , - , ; | ; , u } ; - s s s s s s s s s s s s s s s s s s s s s s s s s s s s s s s s ; ; ; ; ; ; ; ; ; ; ; ; o o o o o o o o o o =         ",
"      = ; , - , ; | ; , : } ; - s s s s s s s s s s s s s s s s s s s s s s s s s s s s s s s s ; ; ; ; ; ; ; ; ; ; ; ; o o o o o o o o o o =         ",
"      = ; 5 ; ] { ) ] ; ; ] ; - s s s s s s s s s s s s s s s s s s s s s s s s s s s s s s s s ; ; ; ; ; ; ; ; ; ; ; ; o o o o o o o o o o =         ",
"      = ; ! , , , , , : : | ; - s s s s s s s s s s s s s s s s s s s s s s s s s s s s s s s s ; ; ; ; ; ; ; ; ; ; ; ; o o o o o o o o o o =         ",
"      = ; q u u u u u u u ' ; O s s s s s s s s s s s s s s s s s s s s s s s s s s s s s s s s ; ; ; ; ; ; ; ; ; ; ; ; o o o o o o o o o o =         ",
"      = ; ! u u u u u u u ' ; - ` s s s s s s s s s s s s s s s s s s s s s s s s s s s s s s s ; ; ; ; ; ; ;  . . .; ..p o o o o o o o o z =         ",
"      = ; ! , , , , , , , +.; ; ; s s s s s s s s s s s s s s s s s s s s s s s s s s s s s s s ; ; ; ; ; ; ; ; ; ; ; ; o o o o o o o o A o =         ",
"      = ; ; ] [ ; { { ; ; ; ; ; ; s s s s s s s s s s s s s s s s s s s s s s s s s s s s s s s ; ; ; ; ; ) ; ; ; ; ; ; o o o o d I , o | A =         ",
"      = ; R < ' ; , ; | | } ; ; ; s s s s s s s s s s s s s s s s s s s s s s s s s s s s s s s - ; ; ; ; G ; ) ^ ; ; ; o o o o A A A I o o =         ",
"      = ; @.H ' ; , ; , #.1 ; ; ; - s s s s s s s s s s s s s s s s s s s s s s s s s s s s s s - ; ; ; ; , , , - ; ; ; o o o A : o 1 o : A =         ",
"      = ; ! | | > | ; , : _ ; ; ; > s s s s s s s s s s s s s s s s s s s s s s s s s s s s s s - ; ; $.} u u v _ [ ; ; o o o I o A A o A I =         ",
"      = ; ; ; ; ; [ ; ; ; ; ; ; ; 5 s s s s s s s s s s s s s s s s s s s s s s s s s s s s s s - ; ; , u u u u u , ; ; o o o o : o : o : z =         ",
"      k / ; ; ; ; ; ; ; ; ; ; ; ; ; t s s s s s s s s s s s s s s s s s s s s s s s s s s s s s / ; [ : u u u u u , ; ; o o o o o o o o o I =         ",
"      % a b b b b b b b b M ; ; ; ; t s s s s s s s s s s s s s s s s s s s s s s s s s s s s %.] ; ] : u u u u u , ; ; o o o x , o | o , o =         ",
"    &.[ { M { { { { { { [ E ; ; ; ; *...s s s s s s s s s s s s s s s s s s s s s s s s s s =.; ; ; [ 2 } v u v } ; ; ; o o o o -.I o o A I =         ",
"  ;.{ $.} ; { { { { [ ' { % ; ; ; ; ; ; ; s s s s s s s s s s s s s s s s s s s s s s s s G ; ; ; ; ; ; ; : , _ { ; ; ; o o o o } A : o ' A =         ",
"= $.{ { { { M { { [ { { { >.= ; ; ; ; ; ; ; ; ; ; ; ; ; ; ; ; ; ; ; ; ; ; ; ; ; ; ; ; ; ; ; ; ; ; ; ; ; ; ; ; ; ; ; ; ] o o o o o o o o o o g         ",
"= $.{ { { { { , , ' { { { >.= ; ; ; ; ; ; ; ; ; ; ; ; ; ; ; ; ; ; ; ; ; ; ; ; ; ; ; ; ; ; ; ; ; ; ; ; ; ; ; ; ; ; ; ; - ,.# # # # # # # # # $ = = ,.  ",
"= $.{ { S M $.B '._ { { { G ).+ !.; ; ; ; ; ; ; ; ; ; ; ; ; ; ; ; ; ; ; ; ; ; ; ; ; ; ; ; ; ; ; ; ; ; ; ; ; ; ; ; ; ] ~.{.2 2 2 2 2 2 2 2 - ^ - ^ =.= ",
"= $.{ ; S { $., H } { { { { { ].g ^.# = = = = = = = @ @ @ @ @ @ @ @ @ = # g b b b b b # * # = = = = = = = = = = = = % ; ; ; ; ; ; ; ; ; ; , , } { ; = ",
"= $.{ { { { { , , ' { { { { { { { h ! ; ; ; ] [ [ , { { { { { { { { { h ! ] ; ; ; ; ; - , ; ; ; ; ; ; ; ; ; ; ] [ , ; ; ; ; ; ; ; ; ; ; ; [ ; - ; ; = ",
"= $.{ { { { { { { { { { { { { { { h ! ; ; ; ; 4 ) , { { { { { { { { { h ! ] ; ; ; [ < - , ; ; ; ; ; ; ; ; ; $.| / , ; ; ; ; ; ; ; ; ; ; ; ' , | - ; = ",
"= < , , , ' 2 | , 1 { { { { { { { h ! ; [ ; [ ] ] , { { { { { { { { { h ! ] ; ; ; ] 2 - , ; ; ; ] ; ; ; ; ; { 5 [ | ; ; ; ; ; ; ; ; ; ; ; - , - ) ; = ",
"= - [ ] ; , $., H , { { { { { { { h ! [ ' ] ; ; ; , { { { { { { { { { h ! ] ; ; ; ; ; - , , , | , , , , , , , | | | ; ; ; ; ; ; ; ; ; ; ; | : } ; ; = ",
"= - [ ' ; : $.< u ' { { { { { { { h : ; ; ; ; ; ; | { { { { { { { { { h ! ~ ; ; ; ; ; - , [ [ ; ; ; ; ; ; ; ; ; ; ; ; - { ; ; ; ; ] ; ; ; 2 ; - ; ; = ",
"= - ; - ; : $.< , } { { { { { 4 [ h : , , , , , , ! { { { { { { { { { h ! > B ; ; ; ; - , ; , ; ; ; ; ; ; ; ; ; ; ; ; $.| , , , , : [ ; ; , , , [ ; = ",
"= 2 ; ; ; , M { { [ { { { { M M { M { { { { { { { > { { { { { { { { { M , / ; ; ; ; ; 2 , - ) ; ; ; ; ; ; ; ; ; ; ; ; ; , 2 ; ; ] 1 [ ; ; [ ; ] ~ [ # ",
"  = = = = # # # # # # # # # # # # # # # # # # # # # # # # # # # # # # # = % = = = = = = = % = = = = = = = = = = = = = = = = = = = # = = = = = = = %   "};
