/* XPM */
static char * tank_top_xpm[] = {
"74 29 144 2",
"  	c None",
". 	c #232416",
"+ 	c #26261E",
"@ 	c #25261E",
"# 	c #25251D",
"$ 	c #24251D",
"% 	c #24241C",
"& 	c #25251B",
"* 	c #24261B",
"= 	c #24241A",
"- 	c #25271C",
"; 	c #78825F",
"> 	c #77815F",
", 	c #76805E",
"' 	c #778061",
") 	c #767F62",
"! 	c #788260",
"~ 	c #757E5F",
"{ 	c #747E5B",
"] 	c #23251A",
"^ 	c #737D5A",
"/ 	c #26261C",
"( 	c #22231B",
"_ 	c #757F5A",
": 	c #777E5D",
"< 	c #8C9576",
"[ 	c #23241E",
"} 	c #77815C",
"| 	c #262521",
"1 	c #8C9578",
"2 	c #8C9777",
"3 	c #212318",
"4 	c #737C5F",
"5 	c #27271D",
"6 	c #8B9475",
"7 	c #252420",
"8 	c #757F5D",
"9 	c #77835F",
"0 	c #252618",
"a 	c #23261B",
"b 	c #8C957A",
"c 	c #8C947C",
"d 	c #3A3E2D",
"e 	c #3A3F2B",
"f 	c #25271A",
"g 	c #272820",
"h 	c #76805D",
"i 	c #8E967E",
"j 	c #77815E",
"k 	c #778260",
"l 	c #787F5D",
"m 	c #768163",
"n 	c #788166",
"o 	c #3A3E2F",
"p 	c #383C2B",
"q 	c #525A42",
"r 	c #8D967B",
"s 	c #515941",
"t 	c #262520",
"u 	c #798360",
"v 	c #747E5C",
"w 	c #767F60",
"x 	c #787F60",
"y 	c #798061",
"z 	c #7A8462",
"A 	c #758058",
"B 	c #777E5F",
"C 	c #78825D",
"D 	c #393D2C",
"E 	c #383D29",
"F 	c #798263",
"G 	c #24251F",
"H 	c #252620",
"I 	c #242517",
"J 	c #3A3D2C",
"K 	c #3C3E30",
"L 	c #252519",
"M 	c #26281B",
"N 	c #76815F",
"O 	c #242619",
"P 	c #23241C",
"Q 	c #8B9479",
"R 	c #535B44",
"S 	c #505841",
"T 	c #788162",
"U 	c #535B43",
"V 	c #505840",
"W 	c #28281E",
"X 	c #24231E",
"Y 	c #545C44",
"Z 	c #515A3F",
"` 	c #90997A",
" .	c #222419",
"..	c #727E5A",
"+.	c #727B5C",
"@.	c #757E61",
"#.	c #535A48",
"$.	c #525A43",
"%.	c #525A45",
"&.	c #515944",
"*.	c #222416",
"=.	c #74805A",
"-.	c #22231D",
";.	c #26261A",
">.	c #26281D",
",.	c #3A3C2E",
"'.	c #8E987D",
").	c #7A8160",
"!.	c #262A1C",
"~.	c #76805B",
"{.	c #23261D",
"].	c #24271E",
"^.	c #242618",
"/.	c #393E2A",
"(.	c #758062",
"_.	c #26271F",
":.	c #232518",
"<.	c #8B9477",
"[.	c #75815D",
"}.	c #757F5C",
"|.	c #242418",
"1.	c #8E9778",
"2.	c #262717",
"3.	c #767F64",
"4.	c #393D2E",
"5.	c #232319",
"6.	c #27281A",
"7.	c #242716",
"8.	c #737E5C",
"9.	c #212316",
"0.	c #899277",
"a.	c #8A9378",
"b.	c #768161",
"c.	c #74805C",
"d.	c #8D957D",
"e.	c #8E977A",
"f.	c #8A927D",
"g.	c #252719",
"h.	c #778065",
"i.	c #747E59",
"j.	c #26281A",
"k.	c #747D5E",
"l.	c #777E5C",
"m.	c #232517",
"          . + @ @ @ # # # $ % # + & & & & * * * * * & = &                                                                                           ",
"        - ; > , , ' , ) ! , ~ , , ~ , , , { , , , , , , , &                                                                                         ",
"      # ' , * ] * ' , ^ / * ( , , _ * * * , , , , , , , , : $                                                                                       ",
"      % , # < < < [ } | 1 < 2 3 4 5 6 < < 7 8 , , , , , , , 9 0                                                                                     ",
"    * , > a b b b - } * b b c $ , # b b b $ 8 , , , , , , d e * f f                                                                                 ",
"    * , , g b b b = h 0 c b i % j 5 b b b ] 8 , , , , , , , { * , f f f f f f f f f f f f                                                           ",
"    * , , ! - * * ' 8 k - * - ~ l m - * * n , , , , , , , o p * , f , q r q , , , , s , f                                                           ",
"  t u , , v w x y z , A j x v , , j B ~ w w , , , , , , , C , - , f f f f f f f f f f f f                                                           ",
"  + D E F , , , , , , , , , , , , , , , , , , , , , , , , - G H f f                                                                                 ",
"  = , j v , , , , , , , , , , , , , , , , , , , , , , , , # , , , $ * * * ]                                                                         ",
"  I J K ~ , , , , , , , , , , , , , , , , , , , , , , , , # , , , ( 8 , , L                                                                         ",
"M N , 8 w , , , , , , , , , , , , , , , , , , , , , , , , - , , , * , , , - * * * * * & O $ $ $ @ $ $ $ $ @ P $ $ $ * * * $ $ $ $ $ * * * * * * * * ",
"- h , , , , , , , , , , , , , , , , , , , , , , , , , , , & , , , * , , , * , > > > > , q b r Q q > > > > > > > > > j q h > > > > > ! R , S T R , * ",
"- h , , , , , , , , , , , , , , , , , , , , , , , h , , , & , , , P , , , & , , , , , > R q q S s , , , , , , , , , , U , , , , , , , , , , , , , * ",
"- h , , , , , , , , , , , , , , , ^ f * * * * * * j , , , & , , , $ , , , & , , , , , , > , , { V , , , , , , , , , , U , , , , , , , , , , , , , * ",
"- h , , , , , , , , , , , , , , 8 W Q b b b b b b X 8 , , & , , , & , , , & , , , , , , , , , , q , , , , , , , , Y s Z s q 8 , , , , 8 , 8 , 8 , * ",
"- h , , , , , , , , , , , , , ~ ] c b b b b b b b `  ...+.& , , , & , , , / , , , , , , , , , @.#.8 , , , , , , , V b b b $., , , , ; %.~ V v &.~ P ",
"*.=., h v , , , , , , , , , , w * c b b b b b b b L ] -.8 & , , , = , , , ;.- - - - - >.* * * * * * * * * - >.$ $ $ $ $ $ $ $ $ $ $ $ $ $ $ $ $ $ $ ",
"  ( D ,.' , , , , , , , , , , ' * c b b b b b b b '.$ > ).& , , , & , , , #                                                                         ",
"  !.~., ~ , , , , , , , , , , w O c b b b b b b b c O , , & , , , * {.].].^.                                                                        ",
"  % /.d ' 8 (.* ] f > , , , , h O c b b b b b b b c O , , _.>.3 W /                                                                                 ",
"  :._ , , { $ b b <._.} , , , [.O c b b b b b b b c O , , > }.*                                                                                     ",
"    |., , 7 c b b b 1.2.3., , [.O c b b b b b b b c O , , 4.4.*                                                                                     ",
"    * , , a b b b b b $ > , , h * c b b b b b b b 5.f 6.~ } 9 *                                                                                     ",
"    7.8.8 9.0.b b a.0.= b., , c./ d.b b b b b b b e.= > 8 p e *                                                                                     ",
"      $ , T @ Q Q f.- , , , , , , $ Q Q Q Q Q Q Q / 8 , , v v %                                                                                     ",
"      $ , v h $ $ g.j , , , , , , ~ @ $ $ $ $ $ $ h., , , i.j.                                                                                      ",
"        L j v l l k., , , , , , , ; l.l l l l l l w , , , _.                                                                                        ",
"          / - ^.^.^.O O f O O m.m.^.g.^.^.* ] * ] f * - *                                                                                           "};
