/* XPM */
static char * floor_xpm[] = {
"32 32 38 1",
" 	c #2A2527",
".	c #262123",
"+	c #2A2628",
"@	c #292426",
"#	c #272325",
"$	c #241F21",
"%	c #211D1F",
"&	c #292527",
"*	c #252123",
"=	c #282325",
"-	c #2F2B2D",
";	c #2C282A",
">	c #1E1A1C",
",	c #242022",
"'	c #1D191B",
")	c #231F21",
"!	c #221E20",
"~	c #2B2729",
"{	c #221D1F",
"]	c #231E20",
"^	c #242123",
"/	c #252022",
"(	c #262224",
"_	c #1F1B1D",
":	c #201C1E",
"<	c #201B1D",
"[	c #2B2628",
"}	c #221E1F",
"|	c #211C1E",
"1	c #2D292B",
"2	c #1F1A1C",
"3	c #282426",
"4	c #272224",
"5	c #292526",
"6	c #211D1E",
"7	c #201D1E",
"8	c #1E191B",
"9	c #2E2A2C",
" ..+@#+++$%&@+#&&**+@#+++$%&@+#+",
"##=-;&%>,%'>$.%>,)!~;#{%&!!]#+^,",
"+/.(#*_>.${_:''!&%{<%>,':)$%][!]",
"-*+#,}'']>_:'''%]:>|:'_'{_{|>*1#",
"=%!*%{'''''''''''__:|''''{{'>;;.",
";#>{||'''''':2''''''_2''''::|%33",
"~#$)|''''''{_''''''''''''''':'%4",
"]!_'''''''''''''''''''''''''''>$",
"%2'''''''2''''''''2''''''''''>&$",
"&>'_2''''''2_''''2'''''''''_:|$%",
"3,||'''''''|{''''''''''''''2'_]3",
".._'_'''''''''''':'''_''''''')5;",
"**)_{''''''''':''''_)#>''>_'_))/",
"$%|'''''''%,''__''''''''$(_')|**",
"4%_''''''{(]'''2''''''''{>''_>4$",
"+6''''':_'''''''''''''''''''''4+",
" |''''''{''''''''''''''''''']:4+",
"#|''''''_:''''''''''''_:'''''$,,",
"+<'''%_''2'''''''''''':''''''|%]",
"-%_''({''''''''''':'''''''':|.1#",
"=%:2_{''''''''''''|>'''''''_|4;.",
";+''''''''''''''''_/>''''''''$33",
"~+>''''''::''%*:'''**''''''''>.#",
"]%'''''''_'''_$|2'''_'''''':2'4#",
"%7'''''''''''''''''''''''''''',$",
"+#''':2''''''''''''''''''''{_'8%",
"3.'''''''_''''''''2':_'''''|$$.3",
".(_|$_'>'{''{''''__2'))'''''')9;",
"*#3$4%>3>{_'''''_!>:>'''''''|](/",
"$+[3@4]!)%*$%|$$]&&!3_''''>!4.4*",
"#+/++/;&{3+#.()%>,{++$(,>%&#.##$",
"+$>3&$&&3#~9@$#+&$>3&$&&3#~9@$#+"};
