/* XPM */
static char * floor_xpm[] = {
"32 32 87 1",
" 	c #595964",
".	c #5E5E69",
"+	c #5D5D69",
"@	c #4D4D56",
"#	c #656571",
"$	c #6B6B77",
"%	c #676773",
"&	c #63636E",
"*	c #70707E",
"=	c #5F5F6A",
"-	c #71717E",
";	c #6A6A76",
">	c #5C5C67",
",	c #787886",
"'	c #7C7C8A",
")	c #72727F",
"!	c #7D7D8C",
"~	c #757582",
"{	c #7F7F8D",
"]	c #6E6E7B",
"^	c #828291",
"/	c #7D7D8B",
"(	c #565660",
"_	c #71717F",
":	c #737381",
"<	c #797987",
"[	c #767683",
"}	c #6F6F7C",
"|	c #4E4E57",
"1	c #4D4D57",
"2	c #80808E",
"3	c #7A7A88",
"4	c #777785",
"5	c #7B7B89",
"6	c #5F5F6B",
"7	c #757583",
"8	c #747482",
"9	c #80808F",
"0	c #818190",
"a	c #666672",
"b	c #60606B",
"c	c #5A5A64",
"d	c #7E7E8D",
"e	c #828290",
"f	c #767684",
"g	c #4C4C56",
"h	c #70707D",
"i	c #6D6D7A",
"j	c #727280",
"k	c #6C6C78",
"l	c #696976",
"m	c #60606C",
"n	c #4E4E58",
"o	c #777784",
"p	c #747481",
"q	c #61616C",
"r	c #737380",
"s	c #6B6B78",
"t	c #696975",
"u	c #646470",
"v	c #838392",
"w	c #7E7E8C",
"x	c #676774",
"y	c #686874",
"z	c #4C4C55",
"A	c #6C6C79",
"B	c #7C7C8B",
"C	c #5D5D68",
"D	c #4A4A54",
"E	c #63636F",
"F	c #61616D",
"G	c #50505A",
"H	c #62626D",
"I	c #5A5A65",
"J	c #6A6A77",
"K	c #7F7F8E",
"L	c #62626E",
"M	c #575761",
"N	c #64646F",
"O	c #55555F",
"P	c #555560",
"Q	c #53535D",
"R	c #595963",
"S	c #686875",
"T	c #5B5B66",
"U	c #585862",
"V	c #565661",
" .......................++..... ",
"@#$%&*=-;>,')!~;{> ]$^/+(%_:<[}|",
"123456]]]7![/8:}9}}0$ab c+de4f%g",
"|[hd0{03529i#5j4k~h'l_0<*m  fh_@",
"ni0ophqbfrs^;]5^e<tuhps7-~)h~3v1",
"g$8pi}/s')<wx7ftf<8)i'<'yhh'<i$@",
"z>AB<,!#}sd0CDnCa#i/4;E}y)[]})<|",
"n<;4v<}C%uihi]$}m}b#%kEF Cb]4jA|",
"|kp}']e30e:{jk}ehifor<]Gm]Ax}a{1",
"1]-)5,rrrdj0/HI=p[[![8to/5-[r<9@",
"@w[Ja;]i3'3);]h[]5<{Eu3K$HI}${k|",
"@'#j4<qA!} 'vo~]Jfkre<d^p~i<!/~|",
"gu-*hi]0d{i/$0^A{yiB{fwt3t,)Jo{|",
"@<%F5%pl]A5jhh5pLc<5,.'9dLHME]5|",
"|{u>AE >+r0555_[xkk2~j^%:;,0_)]|",
"@8/-r[;)3,i{qF%rbb=i/5t/hp7-3pC@",
"@0f- -3'f}f-}Kk]kuw#xpy:yih=[]kz",
"1f4NqO%H7a0+]}*6^7J^F-;##L03!f'|",
"|/{u!.JAbPQI:i:2)4#8l-wr6R<,j>$1",
"15:$;l}#$yu#s<{^&C$%0sA3$uIMCR z",
"@&xf*p0<f<</2}B4^)pk'hqaS/v/{,7@",
"144wB-Ah'9^}h~;,)ft{p~<bpk,_~}3|",
"1,352vBK2Auh33:~~~>}k$<,^~o}Ki5|",
"1]TJH.6;hr'iU+ar9j-f%Lh;H58/u[5|",
"@fv<si<ibfx)>aSqC;3phl{e5S$0d[S1",
"|<)%AK0*e5$3}:8e*ivu0-*]8=><5)Hg",
"@k),d,9r^,j}f'B4]/fo-k88J-}i3=7@",
"@:r;50,<0ywsi=^/$/{B$CQ3pi/_Biv|",
"1^/L]3hafAqQ+ r PQOkJ~Ar-:~/0iK|",
"g_'<lsuMU#u<9)vpI=]ipi[k_;~h<u-@",
"1e]>PV.]{~wB{i4iik]98$);2oyHu}*@",
"DDDDDDDDDDDDDDDDDDDDDDDDDDDDDDDD"};
