/* XPM */
static char * shade_xpm[] = {
"96 96 40 1",
" 	c #FF000000",
".	c #FE000000",
"+	c #FB000000",
"@	c #FC000000",
"#	c #FD000000",
"$	c #F0000000",
"%	c #ED000000",
"&	c #EE000000",
"*	c #F1000000",
"=	c #F5000000",
"-	c #DF000000",
";	c #DC000000",
">	c #DB000000",
",	c #DE000000",
"'	c #E2000000",
")	c #F3000000",
"!	c #C9000000",
"~	c #C3000000",
"{	c #C5000000",
"]	c #CB000000",
"^	c #AC000000",
"/	c #A4000000",
"(	c #A5000000",
"_	c #AA000000",
":	c #AE000000",
"<	c #C7000000",
"[	c #7E000000",
"}	c #76000000",
"|	c #79000000",
"1	c #7F000000",
"2	c #A8000000",
"3	c #E0000000",
"4	c #00000000",
"5	c #77000000",
"6	c #7C000000",
"7	c #E3000000",
"8	c #80000000",
"9	c #B0000000",
"0	c #CC000000",
"a	c #F7000000",
"                                                                                                ",
"                                                                                                ",
"                                                                                                ",
"                                                                                                ",
"                                                                                                ",
"                                                                                                ",
"                                                                                                ",
"                                                                                                ",
"                                                                                                ",
"                                                                                                ",
"                                                                                                ",
"                                                                                                ",
"                                                                                                ",
"                                                                                                ",
"                                                                                                ",
"                                                                                                ",
"                                                                                                ",
"                                                                                                ",
"                                                                                                ",
"                                                                                                ",
"                                                                                                ",
"                                                                                                ",
"                                                                                                ",
"                                                                                                ",
"                                                                                                ",
"                                                                                                ",
"                          .+@@@@@@##########.........##########@@@@@#                           ",
"                          +$%%%%%&&&&&&&&***************&&&&&&&&%%%%=                           ",
"                          @%-;;;>>>>>>,,,,,,,,,,,,,,,,,,,,,>>>>>>;;')                           ",
"                          @%;!~{{{{{{{{{{{{{{{{{{{{{{{{{{{{{{{{{{{]-)                           ",
"                          @%;~^////(((((((((_________(((((((((///:<-)                           ",
"                          @%;{/[}}|||||||[[[[[[[[[[[[[[[|||||||}12<3)                           ",
"                          @%>{/}4444444444444444444444444444444452<3=                           ",
"                          @&>{/}4444444444444444444444444444444462<3=                           ",
"                          #&>{/|4444444444444444444444444444444462<3=                           ",
"                          #&>{(|4444444444444444444444444444444462]3=                           ",
"                          #&>{(|4444444444444444444444444444444462]3=                           ",
"                          #&>{(|4444444444444444444444444444444462]7=                           ",
"                          #&,{(|4444444444444444444444444444444462]7=                           ",
"                          #&,{(|4444444444444444444444444444444482]7=                           ",
"                          #&,{(|4444444444444444444444444444444482]7=                           ",
"                          #*,{([444444444444444444444444444444448^]7=                           ",
"                          #*,{([444444444444444444444444444444448^]7=                           ",
"                          #*,{([444444444444444444444444444444448^]7=                           ",
"                          .*,{_[444444444444444444444444444444448^]7=                           ",
"                          .*,{_[444444444444444444444444444444448^]7=                           ",
"                          .*,{_[444444444444444444444444444444448^]7=                           ",
"                          .*,{_[444444444444444444444444444444448^]7=                           ",
"                          .*,{_[444444444444444444444444444444448^]7=                           ",
"                          .*,{_[444444444444444444444444444444448^]7=                           ",
"                          .*,{_[444444444444444444444444444444448^]7=                           ",
"                          .*,{_[444444444444444444444444444444448^]7=                           ",
"                          .*,{_[444444444444444444444444444444448^]7=                           ",
"                          #*,{([444444444444444444444444444444448^]7=                           ",
"                          #*,{([444444444444444444444444444444448^]7=                           ",
"                          #*,{([444444444444444444444444444444448^]7=                           ",
"                          #&,{(|4444444444444444444444444444444482]7=                           ",
"                          #&,{(|4444444444444444444444444444444482]7=                           ",
"                          #&,{(|4444444444444444444444444444444462]7=                           ",
"                          #&>{(|4444444444444444444444444444444462]7=                           ",
"                          #&>{(|4444444444444444444444444444444462]3=                           ",
"                          #&>{(|4444444444444444444444444444444462]3=                           ",
"                          #&>{/|4444444444444444444444444444444462<3=                           ",
"                          @&>{/}4444444444444444444444444444444462<3=                           ",
"                          @%>{/15666666888888888888888888866666682<3=                           ",
"                          @%;{:2222222222^^^^^^^^^^^^^^^2222222229<3)                           ",
"                          @%;]<<<<<]]]]]]]]]]]]]]]]]]]]]]]]]]]<<<<0-)                           ",
"                          @%'--33333377777777777777777777777333333-7)                           ",
"                          #=))))=================================)))a                           ",
"                                                                                                ",
"                                                                                                ",
"                                                                                                ",
"                                                                                                ",
"                                                                                                ",
"                                                                                                ",
"                                                                                                ",
"                                                                                                ",
"                                                                                                ",
"                                                                                                ",
"                                                                                                ",
"                                                                                                ",
"                                                                                                ",
"                                                                                                ",
"                                                                                                ",
"                                                                                                ",
"                                                                                                ",
"                                                                                                ",
"                                                                                                ",
"                                                                                                ",
"                                                                                                ",
"                                                                                                ",
"                                                                                                ",
"                                                                                                ",
"                                                                                                ",
"                                                                                                ",
"                                                                                                "};
