/* XPM */
static char * wall_1_xpm[] = {
"32 32 7 1",
" 	c None",
".	c #243029",
"+	c #2A2B2A",
"@	c #707070",
"#	c #576C6C",
"$	c #B0B2B0",
"%	c #384743",
"   .....+   ......   ....  .... ",
" ...@#@......@###.....$@....$@..",
"..@#%#@#%.@#####@#%.+@##@%####%.",
".@###%%%.+...##%%%..+..####%%%.+",
".......+++.........+++..........",
".@@#@#...@@$#%...$@##.....$$@##.",
"..####%.$#####%.@######...@####.",
" .#%##%.######@.###$@##%..####%.",
" ..@#%.+.##%%%.++###%%.++.##%%%.",
"  ....++......++++....+++......+",
" ..$.+..$$@@#....$$@#%...@@$##..",
" .@##.$@######.@@##%#..@$######.",
"..@##.@####@##.........####@##%.",
".@##%.####@##%.@$@@##%+.######%.",
".##%...###%%%...#%#%.+++.##%%%..",
".%.........++..................+",
"..$@.$@###...$@##..$@#@#...$@#%.",
".@#..##%%%%.$#%%....##%%%%.##%%.",
".......++++.....................",
" .$@##...+..$$@@####.....$@###..",
" .####%%..@@######@##%.@####$#%.",
" ..%%%...+.#######%%%.+.###%%%..",
"  ....+++......++++...++..++....",
"...@#.....@$#@#..+..$@@#...+.$@.",
".@####..$@###%##%.@@######%.@###",
".##$@%.@########%.#####@#%..###%",
"..%#%%+..###%%%%.+..##%%%....#%%",
" .....+...++....++.............+",
" .$$.@@##.+..$@....@$#....$@##..",
" .######%%.@###%.@@###%.@$####%.",
" ..%#%......#%...........##%...+",
"  .....   ...... ..    ......   "};
