/* XPM */
static char * wall_1_xpm[] = {
"32 32 3 1",
" 	c #374B4B",
".	c #576C6C",
"+	c #658887",
"   . . .   ...     +... +  +    ",
" ............... ++........ +.. ",
" ...... + +.... +. +....... +...",
" ....... +.... +... +....... +..",
" . +.... +.... +.... +.... + +. ",
" ..  +.. +... +......... .... + ",
"  ... + +.. +.  +....... ...... ",
"...... +... +...... +.. +...... ",
" .... +.... +... +. +.......... ",
" .... +.......... +............ ",
" ... +........... +............ ",
".. + +............ +.. +... +.. ",
" .. +.............. ++......... ",
" .....  ++........... +........ ",
" .......  +.......... +... +... ",
" ...... +........... +..... +.. ",
" .............................. ",
" ......................... +... ",
"..... +.. +.... +.......... +.. ",
" ..  +... +.... +.......... +..+",
" .... +....... + +.......... ++ ",
" .... +...... +. +...........   ",
" ..... +..... +.. +........  .. ",
" .. +....... + +...... +.. + .. ",
" ... +........ +..... +..... .. ",
" .. +...................... + + ",
" ...... +............ +........ ",
" ..... +........... + +... +... ",
" . +.. +............ +..... +.. ",
"  +.. + +.........  +...... +.. ",
" .... +.......... +.........  + ",
"  ..     .   . .. +     +       "};
