/* XPM */
static char * wall_0_xpm[] = {
"32 32 7 1",
" 	c None",
".	c #2A2B2A",
"+	c #243029",
"@	c #576C6C",
"#	c #707070",
"$	c #B0B2B0",
"%	c #384743",
"    .+++...++++++++..+++++++    ",
"  .++@#+++++$$#@@@++++$$#@$+++  ",
" .+#%@@@%+#@@@@@#@%+.#@@@%@@@++ ",
" +@@@%%%+.+++@@%%%++.++@@@@%%%+ ",
".++++++...+++++++++...++++++++++",
"+##@@@+++##$@%+++$#@@+++++$$#@@+",
"$@@@@@%+$@@@@@%+#@@@@@@+++#@@@@+",
"@@@%@@%+@@@@@@#+@@@$#@@%++@@@@%+",
".+##@%+.+@@%%%+..@@@%%+..+@@%%%+",
"..++++..++++++....++++...++++++.",
"+$#@+.++$$##@++++$$#@%+++##$@@++",
"#@@@@+$#@@@@@@+##@@%@++#$@@@@@@+",
"@@$#@+#@@@@#@@+++++++++@@@@#@@%+",
"@@@@%+@@@@#@@%+#$##@@%.+@@@@@@%+",
"+@%%+++@@@%%%+++@%@%+...+@@%%%++",
"+++++++++++..++++++++++++++++++.",
"++$#$$#@@@+++$#@@++$#@#@+++$#@%+",
"+#@@%@@%%%%+$@%%++++@@%%%%+@@%%+",
".++++++....+++++++++++++++++++++",
"++$#@@+++.++$$##@@@@+++++$#@@@++",
"+#@@@@%%++##@@@@@@#@@%+#@@@@$@%+",
"@@@%%%+++.+@@@@@@@%%%+.+@@@%%%++",
".+++++...++++++....+++..++..++++",
"++$#@+++++#$@#@++.++$##@+++.+$#+",
"+#@@@@++$#@@@%@@%+##@@@@@@%+#@@@",
"+@@$#%+#@@@@@@@@%+@@@@@#@%++@@@%",
"++@%%%.++@@@%%%%+.++@@%%%++++@%%",
".+++++.+++..++++..+++++++++++++.",
" +$$+##@@+.++$#++++#$@++++$#@@+ ",
" ++@@@@@%%+#@@@%+##@@@%+#$@@@++ ",
"  +++%%%++++@%%%+++@%%+++@@+++  ",
"    +++++..++++++..++++..+++    "};
