/* XPM */
static char * wall_0_xpm[] = {
"32 32 7 1",
" 	c #374B4B",
".	c #576C6C",
"+	c #658887",
"@	c #153A31",
"#	c #384743",
"$	c #22453D",
"%	c #2B4840",
"   . . .   ...     +... ++      ",
" .................. +.. +...... ",
" ............... +. +...........",
" ................ +.............",
" ... +........... +............ ",
" . + +............ +.. +....... ",
" .. +.............. +++........ ",
"......  ++........... +........ ",
" .......  +.......... +........ ",
" ...... +........... +......... ",
" .............................. ",
".......................... +... ",
" .............. +.......... +.. ",
" ........ ..... +.......... +.. ",
" ............. + +.......... ++ ",
" ............ +. +...........   ",
" ............ +.. +........  .. ",
" .. +....... + +...... +.. + .. ",
".... +........ +..... +..... .. ",
" .. +...................... + ++",
" .............................. ",
"  ..     .   . ..       .       ",
"@@#@@@@@#@#@#@@@@@@@@@@#@@#@@@@@",
"@##############################@",
"###@@@@@@@@@@@@@@@@@@@@@@@@@$###",
"@##@%%%%%%%%%%%%%%%%%%%%%%%$%##@",
"@##@%######################@%##@",
"@##@%######################@%###",
"###@$@@@@@@@@@@@@@@@@@@@@@@@%##@",
"@##$%%%%%%%%%%%%%%%%%%%%%%%%%###",
"@##############################@",
"@@@@@@@@@@@@#@@@@@#@@###@@#@@@@@"};
