/* XPM */
static char * arrow_xpm[] = {
"12 19 5 1",
" 	c None",
".	c #FFFFFF",
"+	c #A80320",
"@	c #822328",
"#	c #952629",
"    ....    ",
"    .+@.    ",
"    .+@.    ",
"    .+@.    ",
"    .+@.    ",
"    .+@.    ",
"    .+@.    ",
"    .+@.    ",
"    .+@.    ",
"    .+@.    ",
"    .+@.    ",
".....+@.....",
".+++.+@.++@.",
".++++##+++@.",
"..++####+@..",
" ..+####@.. ",
"  ..+##@..  ",
"   ..#@..   ",
"    ....    "};
