/* XPM */
static char * coin_xpm[] = {
"32 32 715 2",
"  	c None",
". 	c #3E2224",
"+ 	c #301214",
"@ 	c #542F2E",
"# 	c #BE775E",
"$ 	c #9A503E",
"% 	c #763435",
"& 	c #8B3C35",
"* 	c #4A1822",
"= 	c #7B4035",
"- 	c #2F1113",
"; 	c #743B2C",
"> 	c #784332",
", 	c #5A312A",
"' 	c #52242E",
") 	c #704231",
"! 	c #201319",
"~ 	c #482827",
"{ 	c #9B614C",
"] 	c #905A46",
"^ 	c #190F12",
"/ 	c #B16E57",
"( 	c #B47059",
"_ 	c #B86C47",
": 	c #682F3C",
"< 	c #A45856",
"[ 	c #853E3A",
"} 	c #3E1918",
"| 	c #5F2127",
"1 	c #51261F",
"2 	c #5A2C23",
"3 	c #824543",
"4 	c #662C2D",
"5 	c #753524",
"6 	c #60292A",
"7 	c #5B2627",
"8 	c #532122",
"9 	c #562628",
"0 	c #4B1E1F",
"a 	c #45201D",
"b 	c #A2654A",
"c 	c #A2654F",
"d 	c #985F4A",
"e 	c #753F2F",
"f 	c #4C292C",
"g 	c #3F191C",
"h 	c #471D1D",
"i 	c #461C1D",
"j 	c #431F1C",
"k 	c #A3664A",
"l 	c #AD6A41",
"m 	c #7A3E38",
"n 	c #70353B",
"o 	c #2B1A21",
"p 	c #7F4035",
"q 	c #BE6A5F",
"r 	c #BE6550",
"s 	c #3E1A1A",
"t 	c #6B2B2A",
"u 	c #6A3C2B",
"v 	c #894B43",
"w 	c #6A302D",
"x 	c #C57551",
"y 	c #B1683F",
"z 	c #AC6341",
"A 	c #A35D3D",
"B 	c #9E5C3E",
"C 	c #532627",
"D 	c #935B3D",
"E 	c #925939",
"F 	c #A8694D",
"G 	c #A6674B",
"H 	c #A3603F",
"I 	c #5C2A30",
"J 	c #1E1117",
"K 	c #854434",
"L 	c #432020",
"M 	c #4B2223",
"N 	c #86583B",
"O 	c #8A5436",
"P 	c #8E5638",
"Q 	c #B06C42",
"R 	c #24151A",
"S 	c #291A1F",
"T 	c #A15F45",
"U 	c #934B2F",
"V 	c #3F1A1A",
"W 	c #6D2C2A",
"X 	c #62301D",
"Y 	c #8C4839",
"Z 	c #702F29",
"` 	c #B96F43",
" .	c #B36448",
"..	c #AC6145",
"+.	c #B06D4B",
"@.	c #532426",
"#.	c #925B3D",
"$.	c #975E3E",
"%.	c #9C6340",
"&.	c #A56A42",
"*.	c #B67145",
"=.	c #783C37",
"-.	c #24151B",
";.	c #23151A",
">.	c #341515",
",.	c #72452E",
"'.	c #804D35",
").	c #92583B",
"!.	c #945E3D",
"~.	c #9F6740",
"{.	c #9B5E4E",
"].	c #81423B",
"^.	c #150A0E",
"/.	c #7A2D3C",
"(.	c #973A44",
"_.	c #A84846",
":.	c #3B181B",
"<.	c #692E22",
"[.	c #63311D",
"}.	c #8E4A3A",
"|.	c #71302A",
"1.	c #542223",
"2.	c #935436",
"3.	c #925336",
"4.	c #8F5437",
"5.	c #935639",
"6.	c #9F5F40",
"7.	c #9F5F46",
"8.	c #1C1F29",
"9.	c #A26353",
"0.	c #82423D",
"a.	c #27151B",
"b.	c #653A29",
"c.	c #101218",
"d.	c #180F10",
"e.	c #633824",
"f.	c #834E33",
"g.	c #B0715B",
"h.	c #C07D64",
"i.	c #1B1E29",
"j.	c #26171B",
"k.	c #28171D",
"l.	c #14090D",
"m.	c #672D2C",
"n.	c #652E2E",
"o.	c #3A1B20",
"p.	c #703026",
"q.	c #6F352D",
"r.	c #93533E",
"s.	c #672F27",
"t.	c #8F5331",
"u.	c #925436",
"v.	c #925139",
"w.	c #9B5B3D",
"x.	c #9E593D",
"y.	c #C78168",
"z.	c #221718",
"A.	c #241819",
"B.	c #230C0C",
"C.	c #27191C",
"D.	c #5A3723",
"E.	c #6E412A",
"F.	c #96604C",
"G.	c #180F0F",
"H.	c #512B1A",
"I.	c #854F3A",
"J.	c #B0705B",
"K.	c #211516",
"L.	c #52321A",
"M.	c #4A2A23",
"N.	c #6F5739",
"O.	c #12090C",
"P.	c #110405",
"Q.	c #31171D",
"R.	c #76352A",
"S.	c #713225",
"T.	c #613029",
"U.	c #9C5B3F",
"V.	c #9E5D40",
"W.	c #96533B",
"X.	c #A66646",
"Y.	c #9B5239",
"Z.	c #B76F53",
"`.	c #BD7256",
" +	c #040202",
".+	c #100503",
"++	c #311415",
"@+	c #5C3623",
"#+	c #74462D",
"$+	c #9B6350",
"%+	c #191111",
"&+	c #1D1111",
"*+	c #2F290B",
"=+	c #1C120C",
"-+	c #482B1A",
";+	c #4A311B",
">+	c #4C2B1D",
",+	c #664328",
"'+	c #0D0E15",
")+	c #32181D",
"!+	c #662823",
"~+	c #5D2F26",
"{+	c #623029",
"]+	c #64312A",
"^+	c #925539",
"/+	c #9C5D38",
"(+	c #904734",
"_+	c #B06D4A",
":+	c #211612",
"<+	c #B26847",
"[+	c #261717",
"}+	c #241E00",
"|+	c #151100",
"1+	c #120803",
"2+	c #3E1B1C",
"3+	c #39191A",
"4+	c #74462F",
"5+	c #834931",
"6+	c #995D46",
"7+	c #18161A",
"8+	c #473C00",
"9+	c #432C12",
"0+	c #421B1E",
"a+	c #974F3D",
"b+	c #633D31",
"c+	c #653F22",
"d+	c #100909",
"e+	c #6A2C26",
"f+	c #914C3B",
"g+	c #975640",
"h+	c #8E553B",
"i+	c #843C2D",
"j+	c #8F462F",
"k+	c #984937",
"l+	c #9C4B39",
"m+	c #B9734F",
"n+	c #231714",
"o+	c #453B00",
"p+	c #332C00",
"q+	c #080600",
"r+	c #0B0800",
"s+	c #181101",
"t+	c #3D3500",
"u+	c #461C1E",
"v+	c #76452B",
"w+	c #834630",
"x+	c #96573B",
"y+	c #1D1310",
"z+	c #1E1410",
"A+	c #443705",
"B+	c #4A292B",
"C+	c #B26F58",
"D+	c #965340",
"E+	c #652D3B",
"F+	c #291920",
"G+	c #5C2728",
"H+	c #652E2B",
"I+	c #642D2A",
"J+	c #964E3D",
"K+	c #9B5140",
"L+	c #884239",
"M+	c #9A4839",
"N+	c #44232A",
"O+	c #A24C3C",
"P+	c #321F25",
"Q+	c #231A1F",
"R+	c #493F00",
"S+	c #483D00",
"T+	c #2D2700",
"U+	c #020100",
"V+	c #100C00",
"W+	c #171200",
"X+	c #3C3300",
"Y+	c #542224",
"Z+	c #42181A",
"`+	c #905236",
" @	c #9B573D",
".@	c #B06C4A",
"+@	c #201512",
"@@	c #403700",
"#@	c #4C2A29",
"$@	c #A76852",
"%@	c #AB6441",
"&@	c #693137",
"*@	c #27191D",
"=@	c #7D4240",
"-@	c #955249",
";@	c #814B36",
">@	c #8C3B39",
",@	c #8B3F30",
"'@	c #974336",
")@	c #45242B",
"!@	c #4C4100",
"~@	c #433900",
"{@	c #383000",
"]@	c #393000",
"^@	c #433B00",
"/@	c #493E00",
"(@	c #100D00",
"_@	c #030200",
":@	c #151000",
"<@	c #191500",
"[@	c #403500",
"}@	c #504300",
"|@	c #552323",
"1@	c #8A4E32",
"2@	c #9B563E",
"3@	c #B6714E",
"4@	c #20191D",
"5@	c #1D151A",
"6@	c #492827",
"7@	c #9A6045",
"8@	c #A3643D",
"9@	c #713934",
"0@	c #221318",
"a@	c #68332A",
"b@	c #813039",
"c@	c #943E3D",
"d@	c #924233",
"e@	c #57252B",
"f@	c #562425",
"g@	c #3D3400",
"h@	c #1B1600",
"i@	c #332B00",
"j@	c #2C2600",
"k@	c #382F00",
"l@	c #080500",
"m@	c #191400",
"n@	c #463500",
"o@	c #503D00",
"p@	c #9F7800",
"q@	c #967300",
"r@	c #6F3B2B",
"s@	c #562424",
"t@	c #925632",
"u@	c #AA653D",
"v@	c #9F4D3A",
"w@	c #2C1A1F",
"x@	c #411E1B",
"y@	c #955D43",
"z@	c #9D603A",
"A@	c #6C3630",
"B@	c #1F1116",
"C@	c #141316",
"D@	c #87333C",
"E@	c #5E2928",
"F@	c #5F2B2B",
"G@	c #502021",
"H@	c #4D4200",
"I@	c #4B4000",
"J@	c #130F00",
"K@	c #1E1800",
"L@	c #312900",
"M@	c #302800",
"N@	c #0D0A00",
"O@	c #5A4600",
"P@	c #BF9000",
"Q@	c #B78B00",
"R@	c #A37900",
"S@	c #957100",
"T@	c #A98100",
"U@	c #804B20",
"V@	c #9D5D3F",
"W@	c #935231",
"X@	c #954536",
"Y@	c #481D1D",
"Z@	c #855539",
"`@	c #7E4D31",
" #	c #895735",
".#	c #824E41",
"+#	c #1C1013",
"@#	c #4F1A25",
"##	c #190D0D",
"$#	c #915640",
"%#	c #884F35",
"&#	c #4C1E1F",
"*#	c #3A3100",
"=#	c #020200",
"-#	c #373000",
";#	c #332A00",
">#	c #251F00",
",#	c #654C00",
"'#	c #906C00",
")#	c #765600",
"!#	c #866400",
"~#	c #755600",
"{#	c #755800",
"]#	c #936E00",
"^#	c #CA9900",
"/#	c #7A4A29",
"(#	c #8E5137",
"_#	c #7B3B26",
":#	c #522526",
"<#	c #865136",
"[#	c #815033",
"}#	c #814C37",
"|#	c #13161E",
"1#	c #0D080B",
"2#	c #3E1717",
"3#	c #A06652",
"4#	c #854F35",
"5#	c #834D32",
"6#	c #512325",
"7#	c #473D00",
"8#	c #413800",
"9#	c #0E0A00",
"0#	c #2E2800",
"a#	c #715600",
"b#	c #A47A00",
"c#	c #7A5900",
"d#	c #533B00",
"e#	c #634A00",
"f#	c #684D00",
"g#	c #765800",
"h#	c #795A00",
"i#	c #9F7900",
"j#	c #BA8A13",
"k#	c #875032",
"l#	c #673020",
"m#	c #502525",
"n#	c #845135",
"o#	c #854E35",
"p#	c #A06752",
"q#	c #190F10",
"r#	c #160C0F",
"s#	c #4E2424",
"t#	c #433A00",
"u#	c #423800",
"v#	c #463B00",
"w#	c #141000",
"x#	c #523D00",
"y#	c #A27A00",
"z#	c #775800",
"A#	c #5D4400",
"B#	c #543E00",
"C#	c #5D4500",
"D#	c #614900",
"E#	c #7C5D00",
"F#	c #8F6B00",
"G#	c #B88900",
"H#	c #69451B",
"I#	c #5C3624",
"J#	c #230F14",
"K#	c #4E2324",
"L#	c #372E00",
"M#	c #362E00",
"N#	c #251E00",
"O#	c #745700",
"P#	c #8E6A00",
"Q#	c #4F3800",
"R#	c #6F5300",
"S#	c #6E5200",
"T#	c #795900",
"U#	c #8C6A00",
"V#	c #896600",
"W#	c #836100",
"X#	c #B28600",
"Y#	c #6A4017",
"Z#	c #582F22",
"`#	c #220F13",
" $	c #6E3930",
".$	c #392213",
"+$	c #211C00",
"@$	c #292200",
"#$	c #3B2E00",
"$$	c #B38600",
"%$	c #886400",
"&$	c #5C4400",
"*$	c #674B00",
"=$	c #705300",
"-$	c #9B7400",
";$	c #946F00",
">$	c #B18501",
",$	c #512618",
"'$	c #33120E",
")$	c #854B31",
"!$	c #7D412C",
"~$	c #854D33",
"{$	c #2A1216",
"]$	c #A05C3F",
"^$	c #763B33",
"/$	c #813D33",
"($	c #060405",
"_$	c #251207",
":$	c #322307",
"<$	c #433101",
"[$	c #956F00",
"}$	c #765900",
"|$	c #775900",
"1$	c #A47B00",
"2$	c #A17A00",
"3$	c #856300",
"4$	c #936D00",
"5$	c #8A6700",
"6$	c #9D7600",
"7$	c #3D3100",
"8$	c #8E5234",
"9$	c #824732",
"0$	c #8B553A",
"a$	c #170E0C",
"b$	c #2A1011",
"c$	c #A55C38",
"d$	c #BE724E",
"e$	c #773726",
"f$	c #312904",
"g$	c #473E00",
"h$	c #483700",
"i$	c #977300",
"j$	c #B68900",
"k$	c #A97F00",
"l$	c #B38800",
"m$	c #AD8200",
"n$	c #A27900",
"o$	c #5A4200",
"p$	c #785A00",
"q$	c #735700",
"r$	c #3D3300",
"s$	c #642C1E",
"t$	c #8B502F",
"u$	c #824832",
"v$	c #8B5539",
"w$	c #160E0B",
"x$	c #A36550",
"y$	c #4A2928",
"z$	c #B0693F",
"A$	c #AF683E",
"B$	c #652B2C",
"C$	c #614E00",
"D$	c #BB8D00",
"E$	c #C29200",
"F$	c #AA7F00",
"G$	c #A77D00",
"H$	c #AC8300",
"I$	c #856500",
"J$	c #916E0C",
"K$	c #3A2718",
"L$	c #934635",
"M$	c #432229",
"N$	c #6C3128",
"O$	c #95573C",
"P$	c #824D2D",
"Q$	c #743928",
"R$	c #160F13",
"S$	c #B16F58",
"T$	c #472729",
"U$	c #B5714D",
"V$	c #A95E44",
"W$	c #AB6240",
"X$	c #612929",
"Y$	c #645000",
"Z$	c #C79600",
"`$	c #B38700",
" %	c #AC8000",
".%	c #C09000",
"+%	c #A77C00",
"@%	c #A77E00",
"#%	c #9E7500",
"$%	c #926E06",
"%%	c #B9842B",
"&%	c #954A35",
"*%	c #974836",
"=%	c #844C33",
"-%	c #7C4427",
";%	c #77382A",
">%	c #221418",
",%	c #4B2A1A",
"'%	c #280D0D",
")%	c #6B372D",
"!%	c #8A5339",
"~%	c #8F4B3A",
"{%	c #401A1D",
"]%	c #AA6847",
"^%	c #9C573E",
"/%	c #9C593B",
"(%	c #5C2D22",
"_%	c #A57911",
":%	c #C39400",
"<%	c #AE8300",
"[%	c #BE8E00",
"}%	c #BC8C00",
"|%	c #B98A02",
"1%	c #B27F24",
"2%	c #946F05",
"3%	c #A36741",
"4%	c #8F4634",
"5%	c #824B32",
"6%	c #723624",
"7%	c #77362B",
"8%	c #3B1D17",
"9%	c #270E0F",
"0%	c #702D28",
"a%	c #91533D",
"b%	c #663029",
"c%	c #1F1410",
"d%	c #19100D",
"e%	c #8A4F35",
"f%	c #7F442E",
"g%	c #905E2C",
"h%	c #C29305",
"i%	c #AD8100",
"j%	c #B48800",
"k%	c #946D00",
"l%	c #B08401",
"m%	c #A96A46",
"n%	c #AC694C",
"o%	c #995336",
"p%	c #A36444",
"q%	c #66352B",
"r%	c #895138",
"s%	c #462726",
"t%	c #402325",
"u%	c #351517",
"v%	c #75312C",
"w%	c #8E4B3A",
"x%	c #5C2D1B",
"y%	c #58251B",
"z%	c #171519",
"A%	c #905741",
"B%	c #7F4C2A",
"C%	c #AC7F0D",
"D%	c #987100",
"E%	c #A07900",
"F%	c #A57B00",
"G%	c #A87D00",
"H%	c #977200",
"I%	c #A57C01",
"J%	c #4F3B10",
"K%	c #BB7961",
"L%	c #955339",
"M%	c #95573A",
"N%	c #8C4E37",
"O%	c #6E2B26",
"P%	c #905946",
"Q%	c #905945",
"R%	c #71382B",
"S%	c #75322B",
"T%	c #904B3B",
"U%	c #62301C",
"V%	c #632726",
"W%	c #1E1212",
"X%	c #201610",
"Y%	c #A06C45",
"Z%	c #B5860E",
"`%	c #B48600",
" &	c #BA8A00",
".&	c #A67D00",
"+&	c #9C7500",
"@&	c #AC7F12",
"#&	c #634C1D",
"$&	c #9C5D44",
"%&	c #8D5336",
"&&	c #905235",
"*&	c #855130",
"=&	c #824B30",
"-&	c #6A392B",
";&	c #723431",
">&	c #945248",
",&	c #71412E",
"'&	c #6E2C2B",
")&	c #3F1B1B",
"!&	c #986349",
"~&	c #AA7C18",
"{&	c #C59300",
"]&	c #A98000",
"^&	c #B18401",
"/&	c #BB891B",
"(&	c #B17A35",
"_&	c #98623C",
":&	c #91593C",
"<&	c #231A0D",
"[&	c #744A27",
"}&	c #7B5030",
"|&	c #572B26",
"1&	c #4A2025",
"2&	c #421B25",
"3&	c #6D3031",
"4&	c #904D4B",
"5&	c #67322A",
"6&	c #5F2E26",
"7&	c #6C272F",
"8&	c #4A1E1D",
"9&	c #1B1112",
"0&	c #17161A",
"a&	c #7B5126",
"b&	c #C29203",
"c&	c #C49208",
"d&	c #C29012",
"e&	c #AF7442",
"f&	c #AD7049",
"g&	c #181114",
"h&	c #1B110E",
"i&	c #1A171C",
"j&	c #1F1212",
"k&	c #170C10",
"l&	c #190E12",
"m&	c #180D12",
"n&	c #60222E",
"o&	c #180C0F",
"p&	c #5F392C",
"q&	c #80581C",
"r&	c #8C5A2A",
"s&	c #A26B44",
"t&	c #A66A4C",
"u&	c #A2664A",
"v&	c #40141C",
"w&	c #572E25",
"x&	c #351415",
"y&	c #170B0F",
"z&	c #11070A",
"A&	c #3E1E18",
"B&	c #51301A",
"C&	c #925D45",
"D&	c #13090B",
"E&	c #411E1A",
"F&	c #5D3520",
"                                    . +               @ # $     ",
"  %     & * =       - ; > , ' ) ! ~ { ] ^             / ( _ :   ",
"  < [ & } | 1 2 3 4 5 6 7 8 9 0 a b c d e f g   h i j k l m n o ",
"  p q r s t u v w x y z A B C D E F G H I J K L M N O P Q R S   ",
"  p T U V W X Y Z `  ...+.@.#.$.%.&.*.=.-.;.>.,.'.).!.~.{.].^.  ",
"  /.(._.:.<.[.}.|.1.2.3.4.5.6.7.8.9.0.a.b.c.d.e.f.g.h.i.j.k.l.  ",
"    m.n.o.p.q.r.s.t.u.v.w.x.y.z.A.B.C.D.E.F.G.H.I.J.K.L.M.N.O.  ",
"      P.Q.R.S.T.U.V.W.X.Y.Z.`.A. +.+++@+#+$+%+&+*+=+-+;+>+,+'+  ",
"      )+!+~+{+]+^+/+(+_+:+<+[+}+|+1+2+3+4+5+6+7+8+9+0+a+b+c+d+  ",
"      e+f+g+h+i+j+k+l+m+n+o+p+q+r+s+t+u+v+w+x+y+z+A+B+C+D+E+F+  ",
"G+H+I+H+J+K+L+M+N+O+P+Q+R+S+T+U+V+W+X+Y+Z+`+ @.@+@@@#@$@%@&@*@  ",
"  =@-@;@>@,@'@)@!@~@{@]@^@/@(@_@:@<@[@}@|@1@2@3@4@5@6@7@8@9@0@  ",
"    a@b@c@d@e@f@g@h@i@j@k@{@l@m@n@o@p@q@r@s@t@u@v@w@x@y@z@A@B@  ",
"    C@D@E@F@G@H@I@J@K@L@M@(@N@O@P@Q@R@S@T@U@V@W@X@Y@Z@`@ #.#+#  ",
"  @###$#5+%#&#!@!@*#=#-#;#>#,#'#)#!#~#{#]#^#/#(#_#:#<#[#}#|#1#  ",
"  2#d.3#4#5#6#S+7#8#_@9#0#a#b#c#d#e#f#g#h#i#j#k#l#m#n#o#p#q#r#  ",
"    q#p#o#n#s#t#u#v#T+w#x#y#z#A#B#C#D#f#E#F#G#H#I#6#5#4#3#d.J#  ",
"    |#}#[#<#K#T.L#M#L@N#O#P#A#Q#R#S#T#U#V#W#X#Y#Z#&#%#5+$###`#  ",
"  +#.# #`@Z@Y@ $.$+$@$#$$$%$&$B#*$=$-$;$i#p@>$,$'$G@)$!$~$C@{$  ",
"  B@A@z@y@x@]$^$/$($_$:$<$[$}$|$S#1$2$3$4$5$6$7$f@8$9$0$a$a@b$  ",
"  0@9@8@7@6@c$d$e$f$H@g$h$i$j$1$k$l$m$n$o$p$q$r$s$t$u$v$w$-@=@  ",
"  *@&@%@x$y$z$A$B$4 H@C$D$E$F$R@m$G$H$I$J$K$L$M$N$O$P$Q$R$I+H+G+",
"  F+E+D+S$T$U$V$W$X$Y$^#Z$`$ %.%+%@%#%$%%%&%*%j+]+=%-%;%>%,%'%  ",
"    )%!%~%{%]%^%/%(%_%:%<%<%k$[%}%|%1%2%3%4%/+^+]+5%6%7%)+8%9%  ",
"    0%a%b%c%d%e%f%g%h%i%k$b#j%k%l%m%n%o%p%W.V.q%r%S.R.Q.s%t%u%  ",
"    v%w%x%y%z%A%B%C%D%E%F%G%H%I%J%K%L%M%N%u.t.O%r.q.p.o.P%Q%R%  ",
"    S%T%U%V%W%X%Y%Z%`% &.&+&@&#&$&6.5.%&&&2.1.|.}.[.<.:.*&=&-&  ",
"    ;&>&,&'&)&q#!&~&{&]&^&/&(&_&$.#.@.:&<&[&}&Z Y X W V |&1&2&  ",
"  3&4&5&6&7&8&9&0&a&b&c&d&e&f&E D C g&h&  i&j&w v u t s k&l&m&  ",
"          n&    o&p&q&r&s&t&u&a 0           4 3 2 1 | } v&w&x&  ",
"                y&z&A&B&C&{ ~                       *           ",
"                  D&E&F&+ .                                     "};
