/* XPM */
static char * coin_xpm[] = {
"32 32 36 1",
" 	c None",
".	c #987400",
"+	c #815900",
"@	c #BF9923",
"#	c #6A3D1D",
"$	c #784017",
"%	c #553015",
"&	c #613413",
"*	c #7D4014",
"=	c #533420",
"-	c #53341F",
";	c #54341F",
">	c #543320",
",	c #533320",
"'	c #204B20",
")	c #153215",
"!	c #3F2C21",
"~	c #2F2311",
"{	c #402C21",
"]	c #002C15",
"^	c #003B1C",
"/	c #3F2B21",
"(	c #AEAE5A",
"_	c #2D2423",
":	c #004320",
"<	c #3B3B1E",
"[	c #313119",
"}	c #201F24",
"|	c #55552C",
"1	c #1F1F24",
"2	c #53331F",
"3	c #201E24",
"4	c #2E2522",
"5	c #2E2423",
"6	c #8D4C18",
"7	c #493C30",
"                                ",
"                                ",
"                                ",
"                                ",
"                                ",
"                                ",
"                                ",
"                                ",
"            .++@                ",
"      ###  .++###     ###       ",
"   $$$$$$$$.+$$$$$$$%&&%%&%%    ",
"   *=-=-;;>.+-=-,;---;===-=%    ",
"   *-'')!!~.+~~~~{{!]]^]/!>%    ",
"   *-(())_~.+@++~__]]::<[!-%    ",
"   *-''))}~~.+.+~}]:^]^][/-%    ",
"   *;'')|1~.++++~1]:[]]^]];%    ",
"   *-(')|1~.+@+~~11<[^]:^]-%    ",
"   *2(())1~..+++~1]:::^]]/-%    ",
"   *2''))1~~.+.@~3]<:^]:^]-%    ",
"   *-''))4~....+~5_<[]^:[]6%    ",
"   *-''){!~~~~~~~!!!]]66667%%   ",
"   *=--;--=-2-;---6666&&%&%%%   ",
"   %&&%%%&%%%%%666&&&&&&&%&%%%  ",
"      ###  6666%&&&%&&&%&%%%7%% ",
"       6666&&&&&&&&&%&&&&%%%%   ",
"     66&&&%&&&&&&&%&&%%%%%      ",
"      &&7&&&%&&%&&%%%%%         ",
"        &&&&&&%%%%%             ",
"         &%7%%%%                ",
"           %%                   ",
"                                ",
"                                "};
