/* XPM */
static char * exit_plateform_xpm[] = {
"32 32 324 2",
"  	c #E3E4E4",
". 	c #D4D4D5",
"+ 	c #D4D4D4",
"@ 	c #DCDCD8",
"# 	c #DFDFD9",
"$ 	c #DFDFDA",
"% 	c #E0DFDA",
"& 	c #D7D7D6",
"* 	c #D4D5D4",
"= 	c #D5D4D4",
"- 	c #DEDED9",
"; 	c #D3D4D3",
"> 	c #D3D3D3",
", 	c #DBDBD7",
"' 	c #D7D8D5",
") 	c #E4E3E4",
"! 	c #A7A8A8",
"~ 	c #999999",
"{ 	c #B4B4A6",
"] 	c #BCBCAA",
"^ 	c #BDBDAA",
"/ 	c #BCBCAB",
"( 	c #A6A6A0",
"_ 	c #9A9999",
": 	c #9A9A99",
"< 	c #B3B2A5",
"[ 	c #BCBDAA",
"} 	c #A4A49F",
"| 	c #B3B3A6",
"1 	c #A6A69F",
"2 	c #CCCDCC",
"3 	c #A7A8A7",
"4 	c #A0A088",
"5 	c #A9A986",
"6 	c #AAAA86",
"7 	c #808072",
"8 	c #636364",
"9 	c #646464",
"0 	c #656565",
"a 	c #99997D",
"b 	c #A9AA85",
"c 	c #A9A985",
"d 	c #7E7E70",
"e 	c #636463",
"f 	c #636363",
"g 	c #656564",
"h 	c #9A9A7E",
"i 	c #828272",
"j 	c #929292",
"k 	c #CCCCCC",
"l 	c #E3E3E3",
"m 	c #BDBDB2",
"n 	c #ADAD8D",
"o 	c #A4A472",
"p 	c #A2A26C",
"q 	c #6A6A50",
"r 	c #383838",
"s 	c #383737",
"t 	c #383837",
"u 	c #3A3A39",
"v 	c #8E8E61",
"w 	c #A3A36C",
"x 	c #A2A26B",
"y 	c #696950",
"z 	c #3B3B39",
"A 	c #909062",
"B 	c #A3A36B",
"C 	c #6D6D52",
"D 	c #373838",
"E 	c #5E5E5E",
"F 	c #929291",
"G 	c #D5D5D1",
"H 	c #E8E8E6",
"I 	c #C4C4B5",
"J 	c #A1A15B",
"K 	c #616137",
"L 	c #111111",
"M 	c #101111",
"N 	c #111110",
"O 	c #191915",
"P 	c #8A8A4C",
"Q 	c #A3A357",
"R 	c #A3A358",
"S 	c #A2A257",
"T 	c #67673B",
"U 	c #1A1A16",
"V 	c #8D8D4C",
"W 	c #646439",
"X 	c #111010",
"Y 	c #333333",
"Z 	c #5F5E5E",
"` 	c #AEAE9F",
" .	c #DADAD3",
"..	c #EAEAE7",
"+.	c #C4C4B4",
"@.	c #A3A372",
"#.	c #61613D",
"$.	c #010101",
"%.	c #000000",
"&.	c #0F0F07",
"*.	c #919146",
"=.	c #ABAB53",
"-.	c #ABAB52",
";.	c #696933",
">.	c #121208",
",.	c #949448",
"'.	c #646431",
").	c #0C0C0C",
"!.	c #353534",
"~.	c #969679",
"{.	c #B9B9A4",
"].	c #EAEAE6",
"^.	c #ACAC8D",
"/.	c #6D6D58",
"(.	c #1A1A1A",
"_.	c #101007",
":.	c #929247",
"<.	c #ACAC53",
"[.	c #959548",
"}.	c #151511",
"|.	c #8C8C5E",
"1.	c #A8A882",
"2.	c #B9B9A5",
"3.	c #D9D9D3",
"4.	c #86867B",
"5.	c #434342",
"6.	c #939347",
"7.	c #686833",
"8.	c #121209",
"9.	c #969648",
"0.	c #646430",
"a.	c #0E0E07",
"b.	c #8A8A49",
"c.	c #A3A368",
"d.	c #AFAFAB",
"e.	c #717171",
"f.	c #434343",
"g.	c #1A1A19",
"h.	c #111108",
"i.	c #686832",
"j.	c #16160A",
"k.	c #636330",
"l.	c #A3A355",
"m.	c #A3A369",
"n.	c #D1D1CE",
"o.	c #E5E5E5",
"p.	c #A7A7A7",
"q.	c #717170",
"r.	c #21211D",
"s.	c #676732",
"t.	c #0D0D07",
"u.	c #8F8F45",
"v.	c #010100",
"w.	c #909046",
"x.	c #A3A356",
"y.	c #A2A29A",
"z.	c #CCCCCD",
"A.	c #E3E4E3",
"B.	c #A7A6A7",
"C.	c #707070",
"D.	c #464644",
"E.	c #8D8D52",
"F.	c #A8A852",
"G.	c #666632",
"H.	c #61612F",
"I.	c #A2A269",
"J.	c #7F7F6E",
"K.	c #CDCDCD",
"L.	c #E4E3E3",
"M.	c #A8A7A8",
"N.	c #939369",
"O.	c #A2A25C",
"P.	c #656531",
"Q.	c #909045",
"R.	c #60602F",
"S.	c #A2A255",
"T.	c #6D6D4F",
"U.	c #5E5D5E",
"V.	c #60602E",
"W.	c #101008",
"X.	c #646437",
"Y.	c #323333",
"Z.	c #ADAD8E",
"`.	c #A7A752",
" +	c #949447",
".+	c #5D5D5D",
"++	c #939392",
"@+	c #D6D5D1",
"#+	c #A1A15C",
"$+	c #979749",
"%+	c #626230",
"&+	c #62622F",
"*+	c #5F5F5E",
"=+	c #AEAF9F",
"-+	c #DADAD4",
";+	c #63633D",
">+	c #969678",
",+	c #D9D9D2",
"'+	c #ACAC8E",
")+	c #6E6E58",
"!+	c #171712",
"~+	c #929260",
"{+	c #EAEBE7",
"]+	c #89887C",
"^+	c #191A1A",
"/+	c #8E8E4B",
"(+	c #B0B0AB",
"_+	c #191919",
":+	c #0E0E08",
"<+	c #B8B9A4",
"[+	c #D0D0CE",
"}+	c #E5E5E4",
"|+	c #A8A8A7",
"1+	c #1F1F1D",
"2+	c #8E8E45",
"3+	c #929246",
"4+	c #9F9F98",
"5+	c #CCCBCC",
"6+	c #A8A8A8",
"7+	c #444444",
"8+	c #8B8B50",
"9+	c #7C7C6C",
"0+	c #CDCCCD",
"a+	c #E3E3E4",
"b+	c #A6A7A6",
"c+	c #909068",
"d+	c #68684C",
"e+	c #5E5E5D",
"f+	c #9F9F87",
"g+	c #5E5E34",
"h+	c #323232",
"i+	c #929192",
"j+	c #BCBCB2",
"k+	c #E9E9E6",
"l+	c #C4C4B6",
"m+	c #656532",
"n+	c #AFAFA0",
"o+	c #EBEAE7",
"p+	c #C4C3B4",
"q+	c #65653F",
"r+	c #0D0D0D",
"s+	c #99997A",
"t+	c #D9DAD2",
"u+	c #C3C3B5",
"v+	c #717159",
"w+	c #1A191A",
"x+	c #A9A952",
"y+	c #171711",
"z+	c #8F8F60",
"A+	c #A8A881",
"B+	c #C3C3B4",
"C+	c #88887B",
"D+	c #151515",
"E+	c #1E1E19",
"F+	c #8E8E50",
"G+	c #A3A359",
"H+	c #A2A259",
"I+	c #62623A",
"J+	c #1D1E19",
"K+	c #8E8E4F",
"L+	c #63633A",
"M+	c #1E1D19",
"N+	c #DADAD2",
"O+	c #B0B0AC",
"P+	c #717071",
"Q+	c #3D3D3D",
"R+	c #3F3F3F",
"S+	c #919166",
"T+	c #A4A46F",
"U+	c #A3A36F",
"V+	c #A3A36E",
"W+	c #6C6C54",
"X+	c #3D3E3E",
"Y+	c #3E3D3D",
"Z+	c #41413F",
"`+	c #929266",
" @	c #6D6D54",
".@	c #3D3E3D",
"+@	c #40403E",
"@@	c #D1D1CF",
"#@	c #707171",
"$@	c #6A6B6A",
"%@	c #6B6B6B",
"&@	c #9F9F84",
"*@	c #ABAB8A",
"=@	c #ACAC8A",
"-@	c #ABAB89",
";@	c #828276",
">@	c #6A6A6A",
",@	c #6A6B6B",
"'@	c #6B6A6A",
")@	c #9E9E83",
"!@	c #838376",
"~@	c #6A6A6B",
"{@	c #9F9F99",
"]@	c #CBCBCC",
"^@	c #A0A0A0",
"/@	c #A1A1A0",
"(@	c #B8B8AC",
"_@	c #C0C0AF",
":@	c #ABABA5",
"<@	c #A0A1A0",
"[@	c #B6B6AB",
"}@	c #C0C0B0",
"|@	c #BFBFAE",
"1@	c #AAAAA5",
"2@	c #A0A09F",
"3@	c #BFBFAF",
"4@	c #DCDBDC",
"5@	c #DBDBDB",
"6@	c #E2E2DF",
"7@	c #E4E4E0",
"8@	c #E4E4DF",
"9@	c #E4E5E0",
"0@	c #DEDEDD",
"a@	c #DCDCDC",
"b@	c #DBDCDB",
"c@	c #DCDBDB",
"d@	c #E1E1DF",
"e@	c #E5E5E0",
"f@	c #DBDBDC",
"g@	c #DBDBDA",
"h@	c #E1E2DE",
"i@	c #DFDFDD",
"  . + . @ # $ % # & * + + = @ # - # $ & ; > > + , # - - $ ' > > ",
") ! ~ { ] ^ / ] ( ~ _ _ : < [ ^ ] ] } ~ ~ ~ ~ | ^ ^ ^ ] 1 ~ ~ 2 ",
"  3 4 5 5 6 5 7 8 9 9 0 a 5 b 5 c d e 9 f g h 5 5 6 c i 9 9 j k ",
"l m n o p p q r s t u v w p w x y t r r z A B p p x C r D E F G ",
"H I n o J K L M N O P Q R Q S T L L N U V Q R Q S W X N Y Z `  .",
"..+.n @.#.$.%.%.&.*.=.=.=.-.;.%.%.%.>.,.=.=.=.-.'.%.%.).!.~.{. .",
"].I ^./.(.$.%._.:.<.<.<.=.;.%.%.%.>.[.<.<.<.=.'.%.%.%.}.|.1.2.3.",
"..I 4.5.(.$._.6.<.<.<.=.7.%.%.%.8.9.<.<.<.=.0.%.%.%.a.b.c.1.{.3.",
"..d.e.f.g.h.6.<.<.<.=.i.%.%.%.j.[.<.<.<.=.k.%.%.%.&.*.l.m.1.{.n.",
"o.p.q.f.r.*.<.<.<.=.s.%.%.%.t.u.<.<.<.<.0.%.%.%.v.w.<.x.m.1.y.z.",
"A.B.C.D.E.F.<.<.=.G.%.%.%.t.u.<.<.<.=.H.%.%.%._.:.<.<.l.I.J.F K.",
"L.M.e.N.O.F.<.=.P.%.%.%.a.Q.<.<.<.=.R.%.%.%._.6.<.<.<.S.T.U.j k ",
"l M.4 o O.F.=.'.%.%.%.a.w.<.<.<.=.V.%.%.%.W.6.<.<.<.=.X.Y.E j K.",
"L.m Z.o O.`.0.%.%.%.a.*.<.<.<.-.H.%.%.%.h. +<.<.<.=.s.).Y .+++@+",
"H I Z.o #+H.%.%.%.>.$+<.<.<.=.%+%.%.%.>.$+<.<.<.=.&+%.).Y.*+=+-+",
"..I Z.@.;+$.%.%.>.[.<.<.<.=.P.%.%.%.>.[.<.<.<.=.P.%.%.).!.>+2.,+",
"..I '+)+(.$.%.>.[.<.<.<.=.'.%.%.%.>.[.<.<.<.=.'.%.%.%.!+~+1.2.3.",
"{+I ]+f.^+$.8.9.<.<.<.=.0.%.%.%.8.9.<.<.<.=.0.%.%.%.>./+c.1.{. .",
"].(+e.f._+:+[.<.<.<.=.k.%.%.%.&.[.<.<.<.=.k.%.%.%.>.[.l.c.1.<+[+",
"}+|+C.f.1+2+<.<.<.=.%+%.%.%.&.3+<.<.<.=.%+%.%.%.8.9.<.l.m.1.4+5+",
"A.6+q.7+8+F.<.<.=.H.%.%.%._.:.<.<.<.=.H.%.%.%._.[.<.<.l.I.9+F 0+",
"a+b+e.c+O.F.<.=.R.%.%.%._.6.<.<.<.=.R.%.%.%._.6.<.<.<.S.d+e+F k ",
"l 6+f+o O.F.=.V.%.%.%.W.6.<.<.<.=.V.%.%.%.W.6.<.<.<.=.g+h+E i+z.",
"L.j+Z.@.O.`.H.%.%.%.h. +<.<.<.=.H.%.%.%.h. +<.<.<.=.R.).Y U.++G ",
"k+l+Z.o #+m+%.%.%.h.,.<.<.<.=.G.%.%.%.h.,.<.<.<.=.V.%.).Y *+n+ .",
"o+p+Z.@.q+$.%.%.>.[.<.<.<.=.P.%.%.%.>.$+<.<.<.=.H.%.%.r+!.s+{.t+",
"..u+'+v+w+$.%.>.6.x+x+x+x+k.%.%.%.>.6.x+x+x+x+0.%.%.%.y+z+A+2. .",
"..B+C+f.w+D+E+F+G+G+G+H+I+D+D+D+J+K+G+G+G+H+L+D+D+D+M+K+m.1.2.N+",
"].O+P+f.Q+R+S+T+T+U+V+W+Q+X+Y+Z+`+U+U+U+V+ @Q+Q+.@+@S+U+U+1.{.@@",
"}+3 #@$@%@&@*@*@=@-@;@>@,@'@%@)@*@*@*@-@!@>@'@~@%@)@*@*@*@-@{@]@",
"l B.^@/@(@_@_@_@_@:@^@^@^@<@[@}@_@_@|@1@^@2@^@/@(@_@_@_@3@:@^@5+",
"L.4@5@6@7@8@9@7@0@a@b@c@4@d@7@e@8@7@0@5@f@g@a@h@8@7@9@e@i@a@g@a@"};
