/* XPM */
static char * exit_contour_xpm[] = {
"27 53 151 2",
"  	c None",
". 	c #929292",
"+ 	c #939393",
"@ 	c #AAAAAA",
"# 	c #464646",
"$ 	c #727272",
"% 	c #9B9B9B",
"& 	c #747474",
"* 	c #595959",
"= 	c #5B5B5B",
"- 	c #4D4D4D",
"; 	c #838383",
"> 	c #A2A2A2",
", 	c #6E6E6E",
"' 	c #7C7C7C",
") 	c #999999",
"! 	c #848484",
"~ 	c #808080",
"{ 	c #404040",
"] 	c #858585",
"^ 	c #8C8C8C",
"/ 	c #949494",
"( 	c #5A5A5A",
"_ 	c #636363",
": 	c #4E4E4E",
"< 	c #AEAEAE",
"[ 	c #737373",
"} 	c #4B4B4B",
"| 	c #979797",
"1 	c #535353",
"2 	c #757575",
"3 	c #7B7B7B",
"4 	c #9E9E9E",
"5 	c #8B8B8B",
"6 	c #606060",
"7 	c #A0A0A0",
"8 	c #383838",
"9 	c #888888",
"0 	c #575757",
"a 	c #4F4F4F",
"b 	c #414141",
"c 	c #A3A3A3",
"d 	c #545454",
"e 	c #434343",
"f 	c #484848",
"g 	c #3D3D3D",
"h 	c #ACACAC",
"i 	c #5D5D5D",
"j 	c #555555",
"k 	c #989898",
"l 	c #525252",
"m 	c #45466C",
"n 	c #494949",
"o 	c #24253C",
"p 	c #5D5D85",
"q 	c #33334B",
"r 	c #585858",
"s 	c #696969",
"t 	c #4B4E4D",
"u 	c #515856",
"v 	c #626262",
"w 	c #565656",
"x 	c #545757",
"y 	c #666666",
"z 	c #6F6F6F",
"A 	c #585F5D",
"B 	c #696D6C",
"C 	c #686A69",
"D 	c #6C6C6C",
"E 	c #5C5C5C",
"F 	c #383938",
"G 	c #4E5352",
"H 	c #686969",
"I 	c #535454",
"J 	c #515252",
"K 	c #303030",
"L 	c #2C302F",
"M 	c #292F2D",
"N 	c #5A6360",
"O 	c #505050",
"P 	c #646464",
"Q 	c #373738",
"R 	c #515453",
"S 	c #666868",
"T 	c #4E5755",
"U 	c #393A3A",
"V 	c #353535",
"W 	c #6D6D6D",
"X 	c #4F5352",
"Y 	c #5F6463",
"Z 	c #675E63",
"` 	c #3F3D3D",
" .	c #595C5C",
"..	c #5E5E5E",
"+.	c #525A58",
"@.	c #333333",
"#.	c #5F5F5F",
"$.	c #575C61",
"%.	c #262524",
"&.	c #323232",
"*.	c #545A59",
"=.	c #2F3330",
"-.	c #515151",
";.	c #717372",
">.	c #383939",
",.	c #64625F",
"'.	c #2F2F2F",
").	c #5A5858",
"!.	c #515150",
"~.	c #35312F",
"{.	c #4D504F",
"].	c #706E70",
"^.	c #6D6E6F",
"/.	c #363636",
"(.	c #616363",
"_.	c #333534",
":.	c #5F5F61",
"<.	c #5C5E5E",
"[.	c #5C6261",
"}.	c #4B5250",
"|.	c #2A302F",
"1.	c #575457",
"2.	c #363535",
"3.	c #616967",
"4.	c #616161",
"5.	c #2C2C2C",
"6.	c #5E5751",
"7.	c #6B6B6B",
"8.	c #373737",
"9.	c #2E2C2D",
"0.	c #383C3B",
"a.	c #636765",
"b.	c #323635",
"c.	c #CC2346",
"d.	c #C30E3C",
"e.	c #690024",
"f.	c #4030A4",
"g.	c #342D94",
"h.	c #0E1251",
"i.	c #BC0642",
"j.	c #B80039",
"k.	c #670019",
"l.	c #002D90",
"m.	c #001D82",
"n.	c #151155",
"o.	c #C32246",
"p.	c #AA0032",
"q.	c #70001C",
"r.	c #2C278D",
"s.	c #342D99",
"t.	c #17104C",
"                          .                           ",
"                                                      ",
"                                                      ",
"+                         @                         # ",
"                                                      ",
"  $                                               %   ",
"                          &                       *   ",
"    =                     -                     ;     ",
"    >                                                 ",
"                                              ,       ",
"      '                   )                   !       ",
"        ~                                   {         ",
"        ]                 ^                 /         ",
"          (               %               _           ",
"          :               <               [           ",
"            }             |             1             ",
"            2             3             &             ",
"              4           5           3               ",
"              6           7           8               ",
"                9         4         ^                 ",
"                9         0         3                 ",
"                  a       b       c                   ",
"                  d       e       &                   ",
"                    }     f     g                     ",
"                    h     i     g                     ",
"                      j   *   9                       ",
"                      k   0   :                       ",
"                        ; ] l                         ",
"                        4 ' }                         ",
"                        m n o                         ",
"                      m m   o o                       ",
"                      m       o                       ",
"                      m       o                       ",
"                      m       o                       ",
"                    p p p q q q q                     ",
"                  0 r s t u v w x y                   ",
"              z y A B C r D d } ( = E F               ",
"            G H $ I J K L M E N O P D 0 Q             ",
"          R S r T U V           W X d Y Z `           ",
"           ...+.@.                  #.i $.%.          ",
"        y i 0 &.                      *.W ( =.        ",
"        -.;.>.                          ,._ g         ",
"        * = '.                          ).!.~.        ",
"        {.l @.                          ].^./.        ",
"        (.O _.                          :.<.@.        ",
"        [.}.|.                          1.& 2.        ",
"        W 3.z K                       , 4.i &.        ",
"          ..i 5.                      _ 6.8           ",
"          7.i v 8.                  j y i 9.          ",
"            0 d 0.                  i a.b.            ",
"            c.d.e.                  f.g.h.            ",
"            i.j.k.                  l.m.n.            ",
"            o.p.q.                  r.s.t.            "};
